<?xml version="1.0" encoding="UTF-8"?>
<svg id="Layer_1" xmlns="http://www.w3.org/2000/svg" version="1.1" viewBox="0 0 595.28 841.89">
  <!-- Generator: Adobe Illustrator 29.8.1, SVG Export Plug-In . SVG Version: 2.1.1 Build 2)  -->
  <defs>
    <style>
      .st0 {
        fill: #231f20;
      }
    </style>
  </defs>
  <path class="st0" d="M418.16,153.76c-15.12-12.19-31.28-23.07-48.32-32.41s-34.87-17.25-53.29-23.3c-18.95-6.23-39.18-10.22-59.13-7.4-18.53,2.62-34.89,12.11-48.08,25.15s-23.57,28.81-29.18,46.29c-2.81,8.74-4.32,18.01-3.99,27.2s2.31,17.23,5.77,25.24c6.72,15.59,18.78,28.6,32.81,37.96,16.01,10.69,34.78,16.71,53.59,20.18,9.2,1.7,18.69,3.25,28.06,3.32s18.21-1.8,25.17-7.9,11.05-15.43,14.49-23.91c3.76-9.27,6.45-18.98,8.02-28.86.78-4.9,1.3-9.83,1.55-14.79.06-1.16-.83-2.05-1.84-2.41-4.82-1.75-10.1.23-13.51,3.82s-5.27,9.05-3.88,14.11,5.11,8.91,9.57,11.2c5.01,2.57,10.6,3.08,16.06,1.86,6.61-1.48,12.47-5.32,17.49-9.75l-3.54-3.54c-4.15,3.81-3.98,10.58-.82,14.96,3.56,4.93,9.87,6.68,15.68,6.87,10.94.36,23.33-5.37,24.66-17.37.53-4.78-1.01-10.13-4.77-13.3-4.06-3.43-9.52-3.68-14.2-1.37s-7.82,7.03-7.3,12.15c.55,5.41,4.75,9.98,9.9,11.49,5.6,1.64,11.45-1.1,13.88-6.37,2.26-4.88,1.89-10.98-2.08-14.88-1.04-1.02-2.47-.85-3.54,0-16.02,12.77-22.74,34.93-18.91,54.74,1.99,10.28,7.08,19.96,14.75,27.13,8.33,7.79,19.8,12.78,31.32,10.78s22.35-11.7,23.43-23.96h-5c1.24,21.61,2.48,43.24,2.24,64.89-.23,20.77-1.79,41.63-6.17,61.97-3.71,17.28-9.41,34.19-17.56,49.89-8.04,15.47-18.47,29.71-31.47,41.38-13.51,12.13-30.28,21.97-48.68,23.59-18.01,1.58-35.51-4.49-50.8-13.63-7.95-4.75-15.38-10.31-22.37-16.37s-14.06-12.26-18.61-20.22c-2.09-3.66-3.54-7.75-3.24-12.01s2.42-7.64,5.23-10.48c3.11-3.13,6.89-5.48,10.69-7.66,4.14-2.38,8.44-4.49,12.88-6.27,8.98-3.6,18.48-6.03,28.11-7.04,8.67-.9,18.45-1.19,26.05,3.78,3.58,2.35,6.25,5.83,8.38,9.49,2.39,4.1,4.3,8.5,5.91,12.96,3.38,9.34,5.36,19.16,5.8,29.08.21,4.81.07,9.62-.41,14.41-.13,1.34,1.25,2.51,2.5,2.5,25.86-.12,51.63,4.32,75.97,13.05,6,2.15,11.91,4.56,17.69,7.24,5.06,2.35,10.06,4.93,14.57,8.24s8.06,7.16,10.5,11.97c2.45,4.82,3.35,10.23,3.18,15.6-.4,13.11-6.5,25.65-12.87,36.83l4.57,1.93c3.85-18.27,10.9-35.62,19.23-52.27s18.16-33.17,27.33-49.71c4.6-8.3,9.08-16.68,13.19-25.24,2.02-4.2,3.95-8.44,5.77-12.73.95-2.25,1.89-4.51,2.77-6.79.95-2.45,1.81-5.03,1.76-7.7-.17-9.88-11.71-13.78-19.22-16.97-9.66-4.1-19.55-7.62-29.65-10.49-19.97-5.68-40.68-8.87-61.43-9.47-2.61-.08-5.21-.11-7.82-.1-3.22,0-3.22,5.01,0,5,20.34-.04,40.63,2.43,60.36,7.38,9.82,2.46,19.48,5.52,28.93,9.15,4.74,1.82,9.41,3.8,14.02,5.93,3.27,1.51,7.11,3.29,8.97,6.55,2.26,3.96-.54,8.97-2.07,12.71-1.71,4.18-3.54,8.3-5.46,12.38-3.92,8.34-8.2,16.5-12.63,24.57-8.93,16.29-18.47,32.24-26.98,48.75s-15.84,33.23-20.36,51.05c-.56,2.22-1.08,4.44-1.55,6.68-.57,2.68,3.11,4.49,4.57,1.93,6.17-10.81,11.65-22.47,13.2-34.95.71-5.71.44-11.63-1.3-17.14s-5.12-10.85-9.47-15-9.36-7.26-14.59-9.96c-5.65-2.91-11.53-5.43-17.45-7.76-12.55-4.94-25.54-8.74-38.77-11.35-14.8-2.92-29.89-4.38-44.98-4.31l2.5,2.5c1.03-10.4.43-20.93-1.7-31.17-2.04-9.78-5.43-19.73-10.59-28.33-2.46-4.1-5.55-7.83-9.53-10.54s-8.51-4.07-13.15-4.7c-9.86-1.36-20.27.11-29.89,2.38s-19.27,5.99-28.05,10.86c-7.91,4.39-16.74,10.09-19.15,19.42s2.94,19.11,9.04,26.27,13.66,13.6,21.15,19.44c14.94,11.64,32.13,21.48,51.05,24.54,9.43,1.53,19.03,1.34,28.35-.84s18.52-6.4,26.7-11.66c15.67-10.07,28.72-23.95,38.95-39.44,10.1-15.29,17.51-32.33,22.67-49.88,5.8-19.73,8.65-40.24,9.79-60.75,1.25-22.34.46-44.73-.73-67.05-.29-5.44-.6-10.88-.91-16.32-.19-3.24-4.72-3.19-5,0-.81,9.27-8.92,16.39-17.52,18.65-9.8,2.57-20.16-1.51-27.54-7.97-14.26-12.46-18.5-32.79-13.44-50.63,2.79-9.87,8.41-18.79,16.45-25.2h-3.54c1.08,1.06,1.65,2.22,1.95,3.79.25,1.3.07,2.97-.42,4.44-.45,1.34-1.25,2.59-2.4,3.59-1.03.9-2.56,1.45-4.19,1.4-3.22-.09-6.55-2.54-7.71-5.62s.19-6.36,2.85-8.26,6.3-2.52,9.14-.75,3.99,5.13,4,8.31c.02,3.66-1.49,6.91-4.29,9.43-3.07,2.76-7.31,4.21-11.37,4.65-4.67.5-10.33.15-14.13-2.94-2.98-2.43-4.37-7.39-1.3-10.2,2.38-2.19-1.14-5.65-3.54-3.54-6.73,5.93-16.06,11.07-25.21,8.06-3.54-1.16-6.8-3.53-8.61-6.82s-1.6-6.98.47-10.13c2.19-3.34,6.08-5.34,9.81-3.99l-1.84-2.41c-.49,9.63-2.05,19.16-4.65,28.45-2.53,9.03-5.94,18-10.6,26.16-2.12,3.71-4.63,7.21-7.96,9.94-3.14,2.58-6.99,4.13-10.92,5-8.3,1.83-17.08.72-25.4-.41-18.48-2.49-37.04-6.9-53.68-15.53-14.56-7.55-27.52-18.49-36.16-32.55-4.17-6.78-7.24-14.18-8.86-22-1.73-8.36-1.64-17.1-.11-25.48,3.18-17.35,11.94-33.42,23.25-46.81s25.15-24.39,41.87-29.37c18.36-5.46,37.95-3.35,56.19,1.47,18.17,4.8,35.79,12.05,52.59,20.42s32.73,18.13,47.78,29.22c3.62,2.67,7.18,5.42,10.68,8.24,1.05.85,2.51,1.03,3.54,0,.88-.88,1.06-2.68,0-3.54h0Z"/>
</svg>