<?xml version="1.0" encoding="UTF-8"?>
<svg id="Layer_1" xmlns="http://www.w3.org/2000/svg" version="1.1" viewBox="0 0 579.11 158.21">
  <!-- Generator: Adobe Illustrator 29.8.1, SVG Export Plug-In . SVG Version: 2.1.1 Build 2)  -->
  <defs>
    <style>
      .st0 {
        fill: none;
        stroke: #272626;
        stroke-miterlimit: 10;
        stroke-width: 4px;
      }
    </style>
  </defs>
  <path class="st0" d="M.49,95.61S42.31,106.18,35.7.49c0,0,30.23,120.22-17.25,137.39s48.96-103.05,48.96-103.05c0,0,43.6-38.31,27.74,76.62,0,0,21.14-96.44,27.74-92.48s25.1,93.8,23.78,108.33,10.57,22.46,9.25-39.63,13.21-80.59,13.21-80.59c0,0,30.39,18.5,19.82,120.22s47.56-97.76,47.56-97.76c0,0,5.28-25.1,7.93,19.82s0,85.87,19.82,51.52c19.82-34.35,18.5-75.3,18.5-75.3,0,0,8.37-29.94,5.28,15.41-3.08,45.36-10.13,59.01-10.13,59.01,0,0,1.32,23.78,28.18-58.57,0,0,16.29-31.27-3.52,31.71,0,0,27.74-38.31,29.5-9.25,0,0-14.53,27.74-3.96,36.55s17.17-51.96,17.17-51.96c0,0,5.72-30.39,3.96,9.25s3.96,63.41,9.69,62.09c0,0,16.29,10.13,20.26-22.9,0,0,11.45-74.42,14.97-70.02s-3.96,116.26,3.96,119.78,19.38,21.14,24.22-40.95,6.17-76.62,6.17-76.62c0,0,16.29,1.32,18.94,112.29,0,0,2.2,17.61,5.72-3.52s6.17-98.2,14.97-96c0,0,5.72-8.37,11.01,5.28s6.17,66.94,6.17,66.94c0,0,41.83,14.53,24.22-43.6s-30.39-3.96-30.39-3.96c0,0-4.4,51.08.88,52.84s79.27-95.56,97.76-79.27"/>
</svg>