<?xml version="1.0" encoding="UTF-8"?>
<svg id="Layer_1" xmlns="http://www.w3.org/2000/svg" version="1.1" viewBox="0 0 595.28 841.89">
  <!-- Generator: Adobe Illustrator 29.8.1, SVG Export Plug-In . SVG Version: 2.1.1 Build 2)  -->
  <defs>
    <style>
      .st0 {
        fill: #231f20;
      }
    </style>
  </defs>
  <path class="st0" d="M358.24,163.19c-17.52-12.33-39.3-18.12-60.62-17.19s-41.97,8.45-58.23,22.26c-15.52,13.19-26.52,31.57-31.58,51.24-5.04,19.61-4.12,40.66,3.65,59.43s21.22,34.71,38.1,45.81c16.19,10.65,36.32,17.27,55.83,15.13,9.2-1.01,18.45-3.7,26.15-8.98s13.55-13.12,15.38-22.42c2.26-11.45-1.26-23.13-7.03-33.01-1.42-2.44-3-4.79-4.7-7.04-1.59-2.11-3.89-4.23-4.79-6.75s1-4.78,2.52-6.61c2.23-2.69,4.47-5.37,6.7-8.05,17.66-21.22,35.32-42.43,52.98-63.65,17.71-21.28,35.42-42.56,53.14-63.84,4.31-5.18,8.62-10.35,12.92-15.53l-4.27-1.77c-1.71,20.91-2.89,41.87-3.52,62.84-.63,20.89-.72,41.8-.28,62.69.44,20.89,1.42,41.78,2.94,62.62,1.51,20.77,3.58,41.49,6.1,62.16,2.5,20.54,5.41,41.03,8.59,61.48,3.17,20.4,6.59,40.76,10.1,61.1,3.53,20.43,7.15,40.85,10.71,61.28s7.03,40.87,10.28,61.34c3.23,20.38,6.39,40.81,8.6,61.33,2.22,20.57,3.39,41.32,2.08,61.99-.32,5.06-.79,10.11-1.42,15.14l4.66-1.26c-8.22-12.67-20.17-22.21-33.66-28.82-13.93-6.83-29.07-10.86-44.25-13.76-17.73-3.38-35.72-5.4-53.6-7.81-21-2.84-41.99-5.67-62.99-8.51-20.91-2.82-41.83-5.65-62.74-8.47-2.63-.36-5.27-.71-7.9-1.07-1.34-.18-2.68.32-3.08,1.75-.35,1.27.43,2.76,1.75,3.08,20.95,4.95,42.73,4.78,63.83.89,21.13-3.89,41.42-11.51,60.44-21.42,19.02-9.92,36.79-22.08,53.76-35.15,17.29-13.32,34.02-27.42,50.32-41.92s32.13-29.79,46.37-46.42c1.79-2.09,3.56-4.21,5.3-6.34.65-.79.95-1.74.52-2.73-.37-.83-1.3-1.64-2.28-1.54-20.08,2.15-40.17,4.3-60.25,6.45l1.26,4.66c13.37-8.95,25.81-19.33,36.92-30.98,4.82-5.06,10.4-12.88,5.91-19.91-3.66-5.71-11.17-6.59-17.34-6.87-9.72-.44-19.51.54-28.98,2.78l2.43,4.18c8.72-9.1,17.44-18.19,26.16-27.29,1.58-1.64.36-4.1-1.77-4.27-13.13-1.02-26.26-2.04-39.4-3.06l1.26,4.66c14.95-9.34,28.8-20.41,41.18-32.95,1.44-1.46.46-4.42-1.77-4.27-16.07,1.13-32.14,2.26-48.21,3.39l1.26,4.66c11.84-8.33,23.68-16.65,35.52-24.98,1.9-1.34,1.4-4.73-1.26-4.66-5.35.15-10.7.3-16.05.45l1.77,4.27c6.82-7.55,14.19-14.59,22.04-21.05,1.62-1.33.33-4.47-1.77-4.27-14.59,1.4-29.27,1.63-43.89.69l1.77,4.27c9.7-9.91,20.59-18.55,32.45-25.73,2.1-1.27,1.25-4.67-1.26-4.66-10.33.03-20.64,1.25-30.69,3.61l1.93,4.57c10.66-7.1,21.31-14.2,31.97-21.3,2.41-1.61.86-5.09-1.93-4.57-16.02,2.96-32.23,5.92-48.59,5.18-4.57-.21-9.1-.73-13.58-1.61l.6,4.57c14.41-9.3,29.58-17.42,45.31-24.24,4.44-1.92,8.93-3.73,13.45-5.44,1.16-.44,1.99-1.44,1.79-2.74-.18-1.17-1.19-2.22-2.46-2.17-9.19.4-18.38.81-27.56,1.21l.66,4.91c17.7-7.2,34.21-16.96,49.02-29.03,4.11-3.35,8.08-6.88,11.89-10.56,1.79-1.73-.05-4.87-2.43-4.18-22.88,6.61-46.38,11.05-70.11,13.16-6.7.59-13.43,1-20.15,1.23l1.77,4.27c14.44-14.33,30.59-26.87,48.06-37.29,4.96-2.96,10.02-5.74,15.17-8.35,2.59-1.31.76-5.23-1.93-4.57-16.19,3.98-32.37,7.96-48.56,11.93l1.93,4.57c17.65-9.49,35.3-18.99,52.95-28.48l14.88-8c2.54-1.37.78-5.24-1.93-4.57-18.2,4.51-36.52,8.54-54.94,12.07-5.23,1-10.46,1.96-15.7,2.89l3.16,2.41c.47-8.95,4.46-17.47,10.92-23.65.8-.76.94-2.09.39-3.03-.6-1.03-1.71-1.31-2.82-1.15-12.42,1.86-24.84,3.71-37.26,5.57l1.93,4.57c4.22-2.52,8.44-5.04,12.65-7.56,3.94-2.35,8.11-4.51,11.87-7.14,1.65-1.15,3.19-2.63,3.54-4.7.31-1.83-.35-3.59-2.04-4.46-2.96-1.52-8.16,1.32-5.66,4.9.77,1.1,2.18,1.63,3.42.9,13.22-7.82,25.79-16.69,37.62-26.47,2.25-1.86-.62-5.26-3.03-3.93-25.96,14.41-51.45,29.68-76.39,45.8-7.01,4.53-13.98,9.13-20.9,13.79-2.05,1.38-1.29,4.57,1.26,4.66,7.78.28,15.56.55,23.34.83l11.42.41c1.7.06,3.45.01,5.14.22,1.13.14,2.26.54,2.74,1.38.31.54.35,1.32.24,2.06-.19,1.24-.7,2.42-1.3,3.51-1.46,2.65-3.62,4.77-5.65,6.98-5.06,5.53-10.22,10.96-15.46,16.31-5.81,5.92-11.72,11.73-17.74,17.42-2.08,1.96.59,5.35,3.03,3.93,10.11-5.88,21-10.24,32.37-12.99l-2.82-3.67c-6.19,10.45-13.13,20.44-20.8,29.86-1.36,1.67-.52,4.17,1.77,4.27,9.25.41,18.57-1.17,27.15-4.66l-3.08-3.08c-4.84,15.97-11.19,31.43-18.97,46.19-.98,1.85.65,4.34,2.82,3.67,11.62-3.55,23.24-7.09,34.86-10.64l-2.43-4.18c-13.89,13.42-27.78,26.85-41.68,40.27-3.95,3.82-7.9,7.64-11.86,11.46-1.84,1.78.07,4.76,2.43,4.18,16.58-4.05,33.15-8.1,49.73-12.15l-2.43-4.18c-11.27,12.83-22.54,25.66-33.81,38.49l-9.73,11.08c-.82.93-1,2.27-.2,3.28.71.89,2.21,1.4,3.23.64,8.44-6.25,18.04-10.66,28.29-12.95l-2.82-3.67c-5.3,7.87-10.59,15.74-15.89,23.61-1.18,1.75-2.75,3.54-3.33,5.61s.15,4.62,2.37,5.23c1.69.46,3.32-.6,4.07-2.06,1.07-2.06-.24-4.44-2.62-4.43-3.22,0-3.22,5.01,0,5l-.32-.05-1.1-.64-.35-2.23c-.12.2-.13.22-.03.06.16-.21.72-.59,1.01-.55l1.26.34c.13.06.5.69.5.69,0,0,.16-.34.13-.31.4-.47.69-1.13,1.04-1.65.84-1.24,1.67-2.49,2.51-3.73,1.67-2.49,3.35-4.97,5.02-7.46,3.35-4.97,6.69-9.94,10.04-14.91,1.29-1.92-.83-4.12-2.82-3.67-10.63,2.37-20.74,6.97-29.49,13.45l3.03,3.93c11.27-12.83,22.54-25.66,33.81-38.49,3.24-3.69,6.49-7.39,9.73-11.08,1.63-1.85.08-4.79-2.43-4.18-16.58,4.05-33.15,8.1-49.73,12.15l2.43,4.18c13.89-13.42,27.78-26.85,41.68-40.27,3.95-3.82,7.9-7.64,11.86-11.46,1.78-1.72-.04-4.91-2.43-4.18-11.62,3.55-23.24,7.09-34.86,10.64l2.82,3.67c7.98-15.13,14.51-31.02,19.47-47.38.51-1.68-1.28-3.81-3.08-3.08-8.21,3.34-16.96,4.88-25.82,4.48l1.77,4.27c7.95-9.74,15.18-20.05,21.59-30.87,1.14-1.92-.74-4.18-2.82-3.67-11.76,2.85-23.1,7.41-33.56,13.49l3.03,3.93c11.58-10.96,22.77-22.33,33.53-34.09,3.89-4.26,9.66-10.19,7.86-16.62-1-3.56-4.3-5.17-7.74-5.49-4-.38-8.08-.32-12.09-.47-9.27-.33-18.54-.66-27.81-.99l1.26,4.66c24.63-16.58,49.82-32.34,75.51-47.24,7.22-4.19,14.48-8.3,21.78-12.35l-3.03-3.93c-11.51,9.51-23.76,18.09-36.61,25.69l3.42.9c-.25-.42-.29-.18-.13.73.16.41.13.75-.12,1.03-.17.24-.37.29-.58.44.23-.05.25-.07.06-.04-.2.02-.18.02.07,0h.2c-.09,0-.18-.01-.27-.02-.24-.19-.42-.22-.59-.51-.22-.38.03-.57-.17-.4s-.43.62-.67.84c-.95.87-2.19,1.46-3.29,2.12l-4.43,2.65c-5.76,3.45-11.53,6.89-17.29,10.34-1.06.63-1.52,1.99-1.02,3.12.54,1.23,1.68,1.64,2.95,1.45,12.42-1.86,24.84-3.71,37.26-5.57l-2.43-4.18c-7.43,7.11-11.85,16.93-12.39,27.19-.09,1.76,1.66,2.68,3.16,2.41,18.47-3.25,36.85-6.99,55.12-11.23,5.18-1.2,10.36-2.45,15.53-3.73l-1.93-4.57c-17.65,9.49-35.3,18.99-52.95,28.48l-14.88,8c-2.55,1.37-.78,5.23,1.93,4.57,16.19-3.98,32.37-7.96,48.56-11.93l-1.93-4.57c-18.45,9.36-35.72,20.98-51.38,34.51-4.43,3.82-8.71,7.8-12.87,11.92-1.5,1.49-.42,4.34,1.77,4.27,24.16-.84,48.26-3.99,71.82-9.43,6.64-1.53,13.23-3.25,19.77-5.14l-2.43-4.18c-13.21,12.76-28.28,23.5-44.64,31.85-4.59,2.35-9.29,4.5-14.06,6.45-1.15.47-1.99,1.42-1.79,2.74.18,1.17,1.19,2.22,2.46,2.17,9.19-.4,18.38-.81,27.56-1.21l-.66-4.91c-16.32,6.16-32.14,13.63-47.23,22.39-4.3,2.5-8.55,5.1-12.73,7.8-1.67,1.08-1.63,4.13.6,4.57,16.76,3.32,33.83,1.71,50.55-1.03,4.77-.78,9.52-1.66,14.28-2.53l-1.93-4.57c-10.66,7.1-21.31,14.2-31.97,21.3-2.34,1.56-.9,5.23,1.93,4.57,9.64-2.26,19.47-3.4,29.36-3.43l-1.26-4.66c-12.21,7.39-23.48,16.32-33.46,26.51-1.58,1.62-.35,4.13,1.77,4.27,14.63.94,29.31.71,43.89-.69l-1.77-4.27c-7.85,6.47-15.22,13.5-22.04,21.05-1.39,1.54-.5,4.33,1.77,4.27,5.35-.15,10.7-.3,16.05-.45l-1.26-4.66c-11.84,8.33-23.68,16.65-35.52,24.98-.92.65-1.46,1.69-1.15,2.82.28,1.01,1.33,1.91,2.41,1.84,16.07-1.13,32.14-2.26,48.21-3.39l-1.77-4.27c-12.1,12.25-25.57,23.05-40.17,32.17-2.19,1.37-1.17,4.47,1.26,4.66,13.13,1.02,26.26,2.04,39.4,3.06l-1.77-4.27c-8.72,9.1-17.44,18.19-26.16,27.29-1.75,1.83,0,4.75,2.43,4.18,7.65-1.81,15.47-2.72,23.33-2.7,3.26,0,6.62.02,9.84.63,2.44.46,5.06,1.22,6.82,3.02,4.62,4.73-1.41,11.52-4.76,15.01-5.08,5.3-10.43,10.34-16.03,15.1-6.23,5.3-12.77,10.22-19.57,14.77-.93.62-1.46,1.71-1.15,2.82.27.98,1.34,1.95,2.41,1.84,20.08-2.15,40.17-4.3,60.25-6.45l-1.77-4.27c-13.75,16.84-29.12,32.28-45.18,46.91-15.91,14.49-32.37,28.46-49.23,41.83-16.63,13.19-33.95,25.61-52.47,36.03s-37.98,18.6-58.59,23.41c-20.26,4.72-41.53,6.1-62.08,2.46-2.55-.45-5.09-.98-7.61-1.58l-1.33,4.82c20.83,2.81,41.66,5.63,62.49,8.44,20.75,2.8,41.5,5.6,62.25,8.41,18.54,2.5,37.17,4.65,55.61,7.78,15.04,2.55,30.16,5.93,44.26,11.89,13.19,5.58,25.58,13.67,34.39,25.13,1.11,1.45,2.16,2.95,3.15,4.49,1.44,2.23,4.36,1.13,4.66-1.26,2.58-20.63,2.38-41.49.75-62.18s-4.63-41.33-7.75-61.88-6.48-40.79-9.96-61.14c-3.5-20.44-7.12-40.85-10.69-61.28-3.55-20.34-7.05-40.69-10.34-61.07-3.28-20.31-6.35-40.66-9.03-61.06-2.7-20.58-5.02-41.21-6.79-61.89-1.79-20.91-3.04-41.86-3.74-62.83-.7-20.89-.87-41.79-.5-62.69.37-20.9,1.28-41.78,2.73-62.63.35-5.11.74-10.22,1.16-15.32.17-2.09-2.91-3.4-4.27-1.77-17.39,20.9-34.79,41.79-52.18,62.69-17.34,20.83-34.68,41.66-52.02,62.5-4.31,5.18-8.62,10.35-12.92,15.53-2.23,2.68-4.47,5.37-6.7,8.05-1.88,2.26-4.06,4.49-5.25,7.21-1.3,2.95-1.05,6,.54,8.8,1.38,2.42,3.4,4.46,5.03,6.71,3.26,4.48,6.12,9.36,8.09,14.55,3.58,9.45,4.32,20.13-.67,29.2-4.03,7.32-11.06,12.51-18.79,15.54-17.32,6.79-36.79,4.4-53.54-2.88-17.69-7.69-32.97-20.76-43.27-37.08s-15.14-35.89-13.41-55.4,9.53-38.19,21.96-53.03c13.05-15.58,30.91-26,50.81-30.04,19.93-4.05,41.39-1.71,59.79,7.03,4.59,2.18,8.98,4.75,13.13,7.67,1.1.78,2.78.2,3.42-.9.73-1.25.21-2.64-.9-3.42h0Z"/>
</svg>