<?xml version="1.0" encoding="UTF-8"?>
<svg id="Layer_1" xmlns="http://www.w3.org/2000/svg" version="1.1" viewBox="0 0 375.57 123.53">
  <!-- Generator: Adobe Illustrator 29.8.1, SVG Export Plug-In . SVG Version: 2.1.1 Build 2)  -->
  <defs>
    <style>
      .st0 {
        fill: none;
        stroke: #262626;
        stroke-miterlimit: 10;
        stroke-width: 4px;
      }
    </style>
  </defs>
  <path class="st0" d="M.74,77.32c2.2-.88,22.9-14.97,14.53-60.33s-2.2,71.83-2.2,71.83c0,0,10.13,29.46,21.14,6.12,0,0,7.93-69.14,17.61-67.82s8.81,7.93,8.81,7.93l2.2,53.77s7.93-70.94,17.61-69.62,9.69,39.19,9.69,39.19l-4.84,45.54S99.38-5.91,113.04,2.45s12.33,24.66,12.33,24.66c0,0,4.4,80.15-3.52,83.67s-12.33-45.36-12.33-45.36c0,0-6.61-48.44,21.14-38.75,0,0,26.86,11.89,29.06,40.95,0,0,12.33,39.63,0,50.2s-26.42-4.84-26.42-4.84c0,0-14.09-24.22,0-36.55s14.97-22.02,43.6-24.66c28.62-2.64,67.82-5.28,72.22,2.64,4.4,7.93,9.69,36.55-7.49,11.01,0,0-12.33-19.38-11.45-24.66s-4.84-73.54-6.17,2.2,2.2,61.65,2.2,61.65c0,0,6.61,17.17,18.94-63.85,0,0,2.64-38.78-1.76-38.77s-12.77,83.68-22.02,90.73c-9.25,7.05-14.09,11.98-16.73-3.92s7.93-30.87,7.93-30.87c0,0,11.47-15.24,15.41-11.89,0,0,12.47.68,11.01,6.61s-38.75,8.37-37.87,5.28,45.36-24.22,54.61-20.26c0,0,46.24-3.96,43.6,17.17s-32.15-9.25-14.97-23.78,33.47-3.52,33.47-3.52c0,0,26.86,19.98,12.77,34.21-14.09,14.23-40.19,6.36-36.99-4.71,3.2-11.07,26.42-17.61,48.44-5.72,22.02,11.89,4.4,29.5,4.4,29.5,0,0-24.66,22.55-33.91,7.97-9.25-14.58,51.52-57.73,62.09-52.01"/>
</svg>