<?xml version="1.0" encoding="UTF-8"?>
<svg id="Layer_1" xmlns="http://www.w3.org/2000/svg" version="1.1" viewBox="0 0 595.28 841.89">
  <!-- Generator: Adobe Illustrator 29.8.1, SVG Export Plug-In . SVG Version: 2.1.1 Build 2)  -->
  <defs>
    <style>
      .st0 {
        fill: #231f20;
      }
    </style>
  </defs>
  <path class="st0" d="M45.75,35.47c16.59,2.09,33.19,4.14,49.8,6.13s33.22,3.93,49.84,5.82c16.62,1.89,33.24,3.73,49.87,5.52s33.27,3.52,49.91,5.21,33.29,3.32,49.94,4.9,33.31,3.11,49.97,4.59,33.32,2.91,49.99,4.28,33.34,2.7,50.02,3.98c16.68,1.27,33.36,2.5,50.04,3.67s33.54,2.3,50.31,3.37c4.05.26,8.1.51,12.15.77l-1.26-4.66c-12.78,9.26-26.7,16.81-41.12,23.18-14.47,6.39-29.45,11.59-44.51,16.42-15.21,4.88-30.54,9.36-45.75,14.23s-30.32,10.13-44.97,16.52-28.35,13.71-41.15,22.86c-1.58,1.13-3.13,2.28-4.67,3.46-1.29.98-1.71,2.64-.51,3.93,6.14,6.53,15.98,6.1,24.21,6.23,10.88.18,21.76.35,32.65.53,21.6.35,43.2.7,64.79,1.04,12.21.2,24.42.39,36.63.59l-.66-4.91c-18.12,7.11-36.66,14.53-51.65,27.28-4.24,3.61-8.04,7.64-11.43,12.06-.98,1.28.07,3.34,1.49,3.67,14.42,3.39,29.03,5.94,43.74,7.67l-1.26-4.66c-6.65,3.03-13.62,6.36-18.24,12.25-3.92,5-5.54,11.93-3.3,18.03,1.22,3.32,3.48,6.21,6.76,7.68l-.51-3.93c-13.75,17.04-33.22,27.82-52.58,37.28-21.07,10.29-42.63,19.54-64.34,28.39-21.82,8.89-43.8,17.38-65.67,26.14-21.81,8.73-43.53,17.72-64.85,27.62-21.03,9.76-41.71,20.38-61.49,32.5-18.44,11.3-36.24,24.19-50.86,40.24-7.39,8.11-14.25,17.08-19.2,26.91-5.16,10.24-8.26,21.85-5.78,33.28,4.21,19.42,22.71,31.77,40.1,38.48,21.79,8.41,45.36,11.01,68.55,11.84,23.71.85,47.46-.13,71.16,1.22,5.74.33,11.47.8,17.18,1.45l-2.41-1.84c.76,2.81.55,5.58-.47,8.29-.75,1.98,1.4,3.33,3.08,3.08,24.63-3.78,50.09-1.7,73.85,5.76,6.68,2.1,13.21,4.62,19.56,7.57l-.51-3.93c-8.27,9-16.54,18-24.82,27-2.17,2.37,1.35,5.91,3.54,3.54,8.27-9,16.54-18,24.82-27,1-1.08,1.02-3.21-.51-3.93-23.48-10.92-49.38-16.39-75.28-15.8-7.36.17-14.7.85-21.98,1.97l3.08,3.08c1.32-3.5,1.45-7.34.47-10.94-.31-1.16-1.3-1.71-2.41-1.84-23.28-2.68-46.75-2.13-70.14-2.31-23.01-.18-46.27-1.02-68.68-6.73-10.07-2.57-20.04-5.96-29.07-11.19-7.9-4.57-15.3-10.58-20.04-18.49-2.38-3.97-4.02-8.37-4.65-12.96-.73-5.28-.12-10.67,1.29-15.78,2.9-10.55,8.97-20.11,15.64-28.67,13.12-16.84,29.94-30.4,47.7-42.05,18.94-12.43,39.03-23.15,59.4-33.01s42.1-19.16,63.52-27.87,43.24-17.14,64.82-25.79,43.17-17.6,64.3-27.41c19.75-9.17,40.03-18.7,56.45-33.3,3.89-3.46,7.5-7.21,10.76-11.25.9-1.11,1.11-3.2-.51-3.93-4.33-1.94-5.81-6.81-5.15-11.38.82-5.62,5.16-9.84,9.9-12.81,3.19-2,6.61-3.58,10.02-5.14.99-.45,1.42-1.84,1.15-2.82-.31-1.14-1.3-1.71-2.41-1.84-14.27-1.68-28.43-4.2-42.41-7.49l1.49,3.67c11.4-14.84,28.52-23.86,45.38-31.08,4.86-2.08,9.79-4.02,14.71-5.96,1.16-.45,1.99-1.43,1.79-2.74-.18-1.23-1.18-2.15-2.46-2.17-21.27-.34-42.53-.68-63.8-1.03-21.27-.34-42.53-.68-63.8-1.03-5.34-.09-10.75.06-16.08-.42-4.05-.37-8.21-1.39-11.08-4.45l-.51,3.93c12.52-9.56,26.25-17.38,40.54-23.96s29.22-11.92,44.21-16.82,30.51-9.45,45.73-14.25c15.19-4.79,30.3-9.89,44.99-16.07s28.8-13.32,41.93-22.24c1.6-1.09,3.19-2.21,4.76-3.34,2-1.45,1.32-4.5-1.26-4.66-16.69-1.04-33.38-2.14-50.07-3.28s-33.37-2.34-50.05-3.59c-16.68-1.25-33.35-2.55-50.03-3.9-16.67-1.35-33.34-2.75-50-4.21s-33.32-2.96-49.97-4.52-33.3-3.16-49.94-4.82-33.28-3.37-49.91-5.13-33.26-3.58-49.88-5.44-33.24-3.78-49.85-5.75c-16.69-1.98-33.38-4-50.06-6.08-4.03-.5-8.05-1.01-12.08-1.52-1.34-.17-2.5,1.27-2.5,2.5,0,1.49,1.15,2.33,2.5,2.5h0Z"/>
</svg>