<?xml version="1.0" encoding="UTF-8"?>
<svg id="Layer_1" xmlns="http://www.w3.org/2000/svg" version="1.1" viewBox="0 0 596.67 81.75">
  <!-- Generator: Adobe Illustrator 29.8.1, SVG Export Plug-In . SVG Version: 2.1.1 Build 2)  -->
  <defs>
    <style>
      .st0 {
        fill: none;
        stroke: #262626;
        stroke-miterlimit: 10;
        stroke-width: 4px;
      }
    </style>
  </defs>
  <path class="st0" d="M0,34.01c1.06,0,11.29,1.98,8.32,16.18,0,0,5.94-24.11,12.22-21.14s13.54,21.14,13.54,21.14c0,0,16.51-24.11,21.8-17.83,0,0,17.17,0,16.84,27.41,0,0,12.55-20.81,15.52-18.83s27.74,21.47,51.52-5.28c0,0-33.69,29.39-36.33,10.57s36-21.8,18.83,17.83c0,0,4.95-25.43,17.5-24.77s-2.97,27.74-2.97,27.74c0,0,26.09-31.05,31.38-22.13s-22.13,10.24-20.15-10.24,43.93-3.3,44.26-.99,24.11,18.83-9.58,25.1c0,0,14.2-41.15,35.01-37.98,0,0,13.54,2.31-5.94,36.33,0,0,.99,14.86,28.4.33s26.42-24.11,26.42-24.11c0,0-27.08-8.26-26.75,19.82,0,0,32.7,5.28,42.61,1.98,9.91-3.3.99-14.38-10.24-11.32-11.23,3.06-4.95,25.52-4.95,25.52,0,0,28.73-2.64,1.98-30.05,0,0-16.51-.99-7.6,9.91,8.92,10.9,11.89-19.49,22.13-15.52s16.18,11.56,15.85,15.19c0,0,4.62-11.89,6.61-9.58s2.64,28.73,17.83,27.08,37.98,4.29,43.27-8.59c0,0-35.34,2.64-35.01-9.91s13.87-17.83,25.1-10.24c11.23,7.6,6.77,29.76-18.5,26.75-25.26-3.01,32.04-34.02,39.63-30.39s44.26-.26,46.9-10.04-13.21-30.25-22.13-18.36-13.21,34.35-4.62,38.31c8.59,3.96-15.85,15.85-15.85,15.85,0,0,37.98-15.52,50.2-11.56s5.61-16.51,0-11.23-10.9,20.48-6.61,23.12,31.38,6.3,42.94-24.43c0,0-18.17-5.96-19.49,29.05,0,0,34.68,4.29,45.25-7.6,0,0-19.16,15.19-21.8,4.95s15.52-23.78,15.52-23.78c0,0,26.09-13.54,27.08,1.32s3.63,24.44,3.63,24.44c0,0,17.5-14.84,19.49-28.39s-4.95,31.03-4.95,31.03c0,0,28.73-25.41,31.71-31.03s0,20.46,0,20.46l18.5-20.46v22.78l10.96-10.57"/>
</svg>