<?xml version="1.0" encoding="UTF-8"?>
<svg id="Layer_1" xmlns="http://www.w3.org/2000/svg" version="1.1" viewBox="0 0 595.28 841.89">
  <!-- Generator: Adobe Illustrator 29.8.1, SVG Export Plug-In . SVG Version: 2.1.1 Build 2)  -->
  <defs>
    <style>
      .st0 {
        fill: #231f20;
      }
    </style>
  </defs>
  <path class="st0" d="M152.95,223.8c28.49-.17,57-.31,85.45,1.28,28.05,1.57,56.08,4.85,83.4,11.54,6.76,1.66,13.48,3.51,20.12,5.6,5.76,1.82,11.47,3.87,16.84,6.65s10.23,6.19,14.22,10.67,6.8,9.73,8.91,15.23,3.7,11.76,4.97,17.78,2.4,12.31,3.3,18.52c1.82,12.54,2.75,25.24,2.59,37.92-.31,24.61-4.95,49.49-16.33,71.48-1.4,2.7-2.89,5.35-4.48,7.95l3.93-.51c-13.13-11.18-27.89-23.87-32.14-41.36-4.78-19.7,6.86-38.81,17.18-54.65,9.96-15.29,21.14-29.71,32.21-44.2,11.02-14.44,21.99-28.97,31.45-44.49s17.05-31.46,21.58-48.72c.56-2.14,1.07-4.29,1.53-6.45.53-2.47-2.29-4.12-4.18-2.43-15.76,14.03-30.57,29.12-44.46,45.02s-26.95,32.67-39.2,49.94c-12.23,17.23-23.69,35.01-34.55,53.13s-21.35,36.98-31.32,55.85c-10.07,19.06-19.73,38.34-29.17,57.72-10.13,20.79-19.96,41.73-29.36,62.86s-18.41,42.55-26.82,64.15c-8.35,21.44-16.12,43.11-23.16,65.01s-13.39,44.17-18.82,66.6-10.61,46.96-12.08,70.96c-.36,5.82-.5,11.66-.39,17.49.04,2.39,3.47,3.52,4.66,1.26,6.86-13.04,14.74-25.52,23.46-37.39s18.17-22.93,28.28-33.5c10.27-10.74,21.18-20.88,32.53-30.47,11.32-9.57,23.09-18.59,35.19-27.16s24.66-16.8,37.37-24.62c13.61-8.37,27.48-16.31,41.47-24.03,14.87-8.2,29.89-16.13,44.94-24.01,14.98-7.84,29.99-15.62,44.92-23.54,14.91-7.92,29.75-15.98,44.4-24.38,14.63-8.4,29.06-17.14,43.16-26.42,3.46-2.28,6.9-4.59,10.32-6.93,2.63-1.8.31-5.94-2.52-4.32-15.44,8.85-29.88,19.42-43.06,31.38-13.09,11.88-24.9,25.14-35.33,39.4s-19.48,29.68-26.88,45.79c-7.38,16.06-13.21,32.84-17.23,50.06-4.02,17.26-6.27,34.98-6.52,52.71-.03,2.2-.03,4.4,0,6.6.03,2.34,3.54,3.59,4.66,1.26,6.56-13.61,14.35-26.62,23.26-38.83,8.9-12.2,18.96-23.57,29.93-33.94,6.14-5.81,12.57-11.31,19.28-16.45l-3.76-2.16c1.88,16.61,2.97,33.31,3.25,50.03.28,16.63-.24,33.28-1.56,49.87-.74,9.4-1.75,18.77-3,28.11-.28,2.1,2.97,3.38,4.27,1.77,12.28-15.19,24.55-30.38,36.83-45.57,3.5-4.33,7-8.66,10.5-12.99l-4.27-1.77c.96,26.87-11.09,51.81-14.91,78.01-1.1,7.52-1.56,15.1-.87,22.68l3.16-2.41c-27.95-10.86-55.68-22.28-83.16-34.27-27.39-11.96-54.55-24.47-81.43-37.54-26.96-13.1-53.64-26.74-80.04-40.92-26.4-14.18-52.51-28.9-78.31-44.15-25.73-15.21-51.16-30.94-76.25-47.18-3.1-2.01-6.2-4.03-9.3-6.05-2.7-1.77-5.21,2.56-2.52,4.32,25.14,16.45,50.62,32.39,76.41,47.8,25.79,15.41,51.9,30.29,78.3,44.64,26.4,14.34,53.09,28.15,80.06,41.4s53.92,25.83,81.26,37.91c27.54,12.17,55.32,23.79,83.33,34.83,3.44,1.36,6.88,2.7,10.33,4.04,1.44.56,3.3-.89,3.16-2.41-2.46-26.82,9.34-52.02,13.94-77.95,1.33-7.51,2.11-15.12,1.84-22.75-.07-1.96-2.82-3.56-4.27-1.77-12.28,15.19-24.55,30.38-36.83,45.57-3.5,4.33-7,8.66-10.5,12.99l4.27,1.77c2.22-16.57,3.65-33.25,4.27-49.95.62-16.63.44-33.28-.54-49.89-.55-9.41-1.37-18.8-2.43-28.17-.18-1.63-2.08-3.45-3.76-2.16-12.28,9.41-23.72,19.87-34.09,31.36-10.31,11.42-19.61,23.78-27.69,36.88-4.55,7.37-8.71,14.98-12.48,22.79l4.66,1.26c-.22-17.37,1.46-34.72,4.97-51.73,3.51-17,8.75-33.67,15.64-49.61s15.46-31.4,25.4-45.77c9.89-14.29,21.23-27.56,33.79-39.56,12.56-12,26.36-22.66,41.2-31.7,1.83-1.11,3.67-2.2,5.52-3.26l-2.52-4.32c-13.98,9.58-28.34,18.6-42.94,27.22-14.6,8.62-29.43,16.85-44.37,24.87-14.96,8.04-30.02,15.89-45.07,23.74-15.06,7.86-30.11,15.73-45.04,23.82-14.52,7.86-28.94,15.93-43.11,24.4-12.85,7.68-25.5,15.71-37.86,24.17-12.42,8.51-24.55,17.46-36.26,26.93-11.58,9.36-22.74,19.25-33.32,29.73-10.5,10.41-20.43,21.4-29.57,33.02-9.19,11.67-17.62,23.93-25.03,36.81-1.81,3.15-3.56,6.33-5.25,9.54l4.66,1.26c-.43-24.01,3.44-47.79,8.6-71.16,4.98-22.55,10.94-44.89,17.65-66.99,6.66-21.93,14.09-43.63,22.12-65.1,8.02-21.44,16.65-42.66,25.75-63.67,9.16-21.16,18.78-42.11,28.73-62.9,9.49-19.84,19.23-39.56,29.32-59.11,9.72-18.84,19.8-37.51,30.43-55.86s21.67-36.18,33.5-53.63c11.73-17.3,24.18-34.13,37.52-50.23,13.4-16.18,27.68-31.65,42.92-46.12,3.72-3.53,7.5-7,11.33-10.41l-4.18-2.43c-3.76,17.61-10.98,34.15-20.02,49.65-9.2,15.79-20.1,30.5-31.14,45.03-11.16,14.68-22.56,29.21-32.82,44.54-5.46,8.16-10.8,16.53-14.85,25.5-4.28,9.47-7.26,19.88-6.14,30.36,2.02,18.93,15.75,33.3,29.4,45.29,1.67,1.47,3.37,2.92,5.06,4.37,1.23,1.05,3.04.95,3.93-.51,13.35-21.93,19.72-47.28,21.17-72.75.73-12.8.24-25.65-1.16-38.39s-3.41-25.46-6.78-37.77c-1.67-6.09-3.84-12.12-6.97-17.63s-7.34-10.37-12.4-14.26c-10.22-7.86-22.95-11.75-35.19-15.23-27.62-7.84-56.18-11.96-84.78-14.08s-57.73-2.24-86.6-2.1c-3.53.02-7.07.04-10.6.06-3.22.02-3.22,5.02,0,5h0Z"/>
</svg>