<?xml version="1.0" encoding="UTF-8"?>
<svg id="Layer_1" xmlns="http://www.w3.org/2000/svg" version="1.1" viewBox="0 0 595.28 841.89">
  <!-- Generator: Adobe Illustrator 29.8.1, SVG Export Plug-In . SVG Version: 2.1.1 Build 2)  -->
  <defs>
    <style>
      .st0 {
        fill: #231f20;
      }
    </style>
  </defs>
  <path class="st0" d="M138.57,469.6c-19.85,11.64-31.06,33.27-37.1,54.76-3.3,11.74-5.52,24.17-4.42,36.4,1.1,12.11,5.72,23.52,14.42,32.16,8.09,8.05,18.83,13.35,30.05,15.26,13.23,2.25,26.97.33,39.39-4.62,10.41-4.16,20.16-10.59,26.71-19.83s8.44-21.32,5.41-32.47c-3.19-11.73-10.71-22.06-19.28-30.48-9.1-8.95-19.81-16.5-31.01-22.57-2.79-1.51-5.63-2.92-8.51-4.25-1.11-.51-2.84-.43-3.42.9-4.23,9.63-2.67,20.48,2.43,29.48s14.26,15.95,24,20.24c5.18,2.28,10.55,4.04,16.01,5.49s11.69,3.21,17.61,2.34c5.21-.77,9.81-4.17,11.43-9.3,1.48-4.67-.69-9.64-5.24-11.51s-10.45-.39-13.55,3.55c-3.8,4.81-3.79,11.59-1.61,17.1.63,1.6,2.09,2.23,3.67,1.49,5.65-2.62,8.57-8.55,9.99-14.33,1.64-6.7,2.01-13.84,2.34-20.71.7-14.74-.3-29.52-2.65-44.08s-6.1-28.89-10.95-42.83-10.93-27.92-17.79-41.23c-6.84-13.27-14.52-26.11-22.87-38.48-1.06-1.57-2.13-3.13-3.21-4.68-1.65-2.38-5.06-.89-4.57,1.93,1.63,9.4.72,19.04,2.24,28.46,1.16,7.16,3.65,14.11,7.11,20.48,6.94,12.81,18,23.51,31.04,30.01,7.47,3.72,15.51,6.04,23.83,6.77,1.35.12,2.5-1.23,2.5-2.5,0-1.45-1.15-2.38-2.5-2.5-13.61-1.18-26.56-7.4-36.61-16.56-10.17-9.27-17.56-21.55-20.21-35.11-1.96-10.01-.83-20.33-2.58-30.38l-4.57,1.93c16.62,23.95,30.93,49.69,41.14,77.04,10.01,26.82,16.09,55.25,15.85,83.96-.06,7.76-.4,15.68-1.62,23.35-.92,5.77-2.68,12.47-8.44,15.14l3.67,1.49c-1.47-3.72-2.06-8.24.1-11.82.81-1.35,1.96-2.32,3.29-2.81,1.43-.53,2.93-.65,4.23-.34,2.85.7,4.23,3.44,2.9,6.47-1.69,3.84-5.71,5.26-9.65,5.25-4.93-.01-9.9-1.54-14.62-2.85s-8.94-2.67-13.2-4.55c-8.24-3.63-16.08-8.83-21.03-16.51s-7.41-17.72-3.61-26.38l-3.42.9c11.19,5.15,21.76,11.7,31.25,19.55,8.9,7.36,16.96,15.98,22.09,26.43,4.64,9.46,6.24,20.55,1.95,30.45s-12.3,16.39-21.2,21.12c-20.26,10.78-46.69,11.97-65.7-2.04-8.73-6.43-14.64-15.72-17-26.28-2.56-11.45-1.2-23.51,1.4-34.83,4.65-20.25,13.44-41.33,30.23-54.48,2.01-1.58,4.15-2.99,6.36-4.29,2.77-1.63.26-5.95-2.52-4.32h0Z"/>
</svg>