<?xml version="1.0" encoding="UTF-8"?>
<svg id="Layer_1" xmlns="http://www.w3.org/2000/svg" version="1.1" viewBox="0 0 224.51 89.25">
  <!-- Generator: Adobe Illustrator 29.8.1, SVG Export Plug-In . SVG Version: 2.1.1 Build 2)  -->
  <defs>
    <style>
      .st0 {
        fill: none;
        stroke: #262626;
        stroke-miterlimit: 10;
        stroke-width: 4px;
      }
    </style>
  </defs>
  <path class="st0" d="M222.71,21.51s-44.59,91.82-70.68,48.88c0,0,4.29-70.02,11.89-68.37,0,0-32.15,28.07-32.92,43.6,0,0,16.95,38.31,0,41.28,0,0-50.64-40.29-35.45-60.44,0,0,20.78-10.89,30.72,11.56l.66,51.19s.88-55.16,4.07-56.81,44.48.99,39.53,16.84-66.39,18.5-80.26,9.25S37.42,25.15,39.74,17.55s50.53,31.35,20.48,28.06S.43,35.72.43,35.72"/>
</svg>