<?xml version="1.0" encoding="UTF-8"?>
<svg id="Layer_1" xmlns="http://www.w3.org/2000/svg" version="1.1" viewBox="0 0 595.28 841.89">
  <!-- Generator: Adobe Illustrator 29.8.1, SVG Export Plug-In . SVG Version: 2.1.1 Build 2)  -->
  <defs>
    <style>
      .st0 {
        fill: #231f20;
      }
    </style>
  </defs>
  <path class="st0" d="M336.58,210c-22.65-4.49-45.34-8.97-68.31-11.53-5.76-.64-11.53-1.16-17.32-1.53-5.19-.33-10.41-.55-15.6-.02s-10.18,1.73-14.76,4.18c-3.9,2.08-7.34,5.03-10.18,8.4-6.05,7.17-9.74,15.93-12.83,24.7-3.6,10.21-6.39,20.71-8.37,31.35-3.98,21.45-4.76,43.52-2.02,65.17,2.49,19.68,8.15,39.61,21.68,54.66,12.38,13.78,29.8,22.05,47.48,26.67,19.13,5,39.37,6.33,59.05,4.91,20.35-1.47,40.49-6,59.45-13.54,18.4-7.31,36.05-17.23,50.99-30.29s27.5-29.8,31.16-49.23c1.88-9.98.95-20.04-3.3-29.3-3.76-8.18-9.83-15.19-16.6-21.03-7.26-6.26-15.42-11.37-23.86-15.86-9.43-5.02-19.3-9.24-29.44-12.6s-20.83-6.22-31.55-7.16-20.83.87-29.71,6.63c-15.3,9.92-24.47,27.35-26.42,45.21s3.17,35.19,15.54,47.33c11.25,11.05,27.83,16.47,43.46,14.85,15.33-1.59,33.87-11.04,35.84-28.08.48-4.11-.61-8.23-3.38-11.35-3.16-3.55-7.97-4.91-12.51-5.55-10.11-1.41-20.5-.48-30.2,2.71-9.07,2.99-18.21,7.86-24.6,15.1s-9.4,16.66-4.87,25.42c4,7.73,13.12,12.51,21.68,10.05s14.99-11.04,13.6-20.08c-1.28-8.31-9.03-15.17-17.47-15.13-3.22.02-3.22,5.02,0,5,7.19-.04,13.61,7.06,12.62,14.26-.95,6.97-8.31,12.59-15.29,11.51-7.45-1.15-12.89-8.4-12.3-15.8.65-8.31,7.79-14.92,14.4-19.1,7.85-4.97,16.88-8.18,26.12-9.21,4.7-.53,9.47-.54,14.17,0,3.92.44,8.39,1.24,11.12,4.35,4.75,5.42.59,14.2-3.54,18.82-4.7,5.27-11.34,8.8-18.08,10.67-13.8,3.82-29.26,1.07-41.13-6.97-12.84-8.69-19.77-23.77-20.48-39-.76-16.2,4.98-32.63,16.44-44.24,6.36-6.45,14.35-11.09,23.42-12.28,10.09-1.32,20.37.89,30.1,3.41,18.87,4.9,37.36,12.72,53.57,23.63,13.67,9.2,26.92,22.48,28.48,39.75,1.71,18.88-8.74,37.1-21.09,50.56s-28.01,23.9-44.39,32.01c-17.24,8.54-35.8,14.39-54.79,17.51-18.86,3.1-38.32,3.42-57.25.76-17.16-2.41-34.4-7.33-48.98-16.94-7.03-4.63-13.36-10.45-18.26-17.32-5.4-7.58-9.14-16.16-11.71-25.07s-4.11-18.61-4.96-28.1c-.92-10.32-1.06-20.71-.44-31.06,1.22-20.5,5.48-40.89,12.7-60.13,2.89-7.7,6.57-15.49,12.44-21.39,2.93-2.94,6.41-5.33,10.32-6.76,4.41-1.61,9.07-2.2,13.74-2.31,10.5-.26,21.14.98,31.54,2.23s21.56,3.03,32.27,4.95,20.88,3.94,31.3,6.01c1.32.26,2.7-.38,3.08-1.75.34-1.23-.42-2.81-1.75-3.08h0Z"/>
</svg>