<?xml version="1.0" encoding="UTF-8"?>
<svg id="Layer_1" xmlns="http://www.w3.org/2000/svg" version="1.1" viewBox="0 0 306.69 83.83">
  <!-- Generator: Adobe Illustrator 29.8.1, SVG Export Plug-In . SVG Version: 2.1.1 Build 2)  -->
  <defs>
    <style>
      .st0 {
        fill: none;
        stroke: #262626;
        stroke-miterlimit: 10;
        stroke-width: 4px;
      }
    </style>
  </defs>
  <path class="st0" d="M1.18,57.05s58.13,42.28,113.61-27.74c0,0-12.77,48.64,14.97,40.39s74.86-40.39,74.86-40.39c0,0,15.41-11.01,3.52,8.37s-9.69,2.2,7.49-27.74-7.49,34.35-8.81,36.55,43.16-15.41,53.28-3.96-102.61,2.2-102.61,2.2l-86.75-.44s-23.78,2.57-15.85-7.96,66.05,6.64,67.82,22.49,76.18,5.72,84.11-6.17,23.78-7.93,15.41,11.89c0,0,11.01,3.96,14.97-3.08,0,0-9.69,13.65,19.38,1.76s32.15-5.28,32.15-5.28c0,0,3.52,14.53-4.4,22.46s15.41-19.82,21.14-15.41"/>
</svg>