<?xml version="1.0" encoding="UTF-8"?>
<svg id="Layer_1" xmlns="http://www.w3.org/2000/svg" version="1.1" viewBox="0 0 595.28 841.89">
  <!-- Generator: Adobe Illustrator 29.8.1, SVG Export Plug-In . SVG Version: 2.1.1 Build 2)  -->
  <defs>
    <style>
      .st0 {
        fill: #231f20;
      }
    </style>
  </defs>
  <path class="st0" d="M34.95,75.91c17.85,1.83,35.74,3.26,53.65,4.37s35.99,1.91,54,2.47c17.94.56,35.89.89,53.84,1.08,17.96.19,35.93.24,53.89.23,18.05,0,36.11-.07,54.16-.1,17.97-.03,35.94-.02,53.9.1,17.96.13,35.91.38,53.87.83s35.88,1.12,53.8,2.09,35.77,2.16,53.6,3.87c8.4.81,16.79,1.83,25.05,3.57,7.59,1.6,15.45,3.62,22.37,7.21,5.33,2.76,10.83,6.99,11.74,13.34.88,6.18-3.19,11.54-7.67,15.29-5.42,4.54-12.15,7.15-18.83,9.19-7.46,2.28-15.17,3.69-22.93,4.41-16.03,1.48-32.17.33-48.17-1.01s-32.53-3.01-48.86-2.64-32.99,3.4-48.83,8.56-31.26,12.16-46.37,19.39c-12.63,6.04-26.65,11.76-36.32,22.27-2.3,2.5-4.35,5.29-5.9,8.31-1.68,3.26-3.09,6.97-2.89,10.7.23,4.23,2.55,7.39,5.99,9.69,3.18,2.13,6.75,3.81,10.22,5.41,14.26,6.56,29.51,10.38,44.67,14.23,7.59,1.93,15.17,3.88,22.65,6.22,3.75,1.18,7.48,2.45,11.15,3.88,1.72.67,3.43,1.35,5.12,2.1.91.41,2.72,1.05,2.92,2.19.12.67-.32,1.48-.58,2.08-.43.97-.91,1.92-1.36,2.87-.95,2.01-1.9,4.01-2.85,6.02-1.86,3.94-3.72,7.87-5.59,11.81-.58,1.22-.34,2.7.9,3.42,1.09.64,2.84.33,3.42-.9,1.93-4.08,3.86-8.17,5.8-12.25.98-2.08,1.97-4.16,2.95-6.24.93-1.97,2.11-3.98,2.29-6.19.34-4.3-3.54-6.36-6.91-7.79-3.69-1.57-7.43-2.99-11.22-4.29-14.96-5.1-30.48-8.27-45.67-12.58-7.46-2.11-14.89-4.48-22.02-7.53-3.6-1.54-7.13-3.24-10.56-5.14-2.84-1.58-6.09-3.4-6.29-7.03-.19-3.39,1.33-6.74,2.99-9.61s3.67-5.3,5.98-7.56c4.86-4.74,10.73-8.29,16.69-11.46,6.85-3.63,13.91-6.9,20.92-10.22,7.51-3.55,15.06-7.01,22.74-10.16,15.49-6.36,31.57-11.59,48.2-13.89,16.2-2.24,32.67-1.45,48.92-.19s32.68,3.12,49.1,3.18,32.24-1.68,47.28-7.4c11.87-4.52,27.19-14.85,23.52-29.72-1.66-6.73-7.26-11.59-13.13-14.76-6.99-3.78-14.91-5.99-22.62-7.71-17.02-3.79-34.65-4.81-52-6.09-18.06-1.33-36.15-2.31-54.24-3.02s-36.21-1.17-54.33-1.45c-18.13-.28-36.25-.4-54.38-.43-18.14-.03-36.27.02-54.41.06s-36.27.07-54.4,0c-18.12-.07-36.24-.23-54.36-.59-18.1-.36-36.21-.9-54.29-1.73-18.08-.82-36.15-1.93-54.2-3.4-8.7-.71-17.39-1.51-26.07-2.4-1.35-.14-2.5,1.25-2.5,2.5,0,1.47,1.15,2.36,2.5,2.5h0Z"/>
</svg>