<?xml version="1.0" encoding="UTF-8"?>
<svg id="Layer_1" xmlns="http://www.w3.org/2000/svg" version="1.1" viewBox="0 0 241.72 108.63">
  <!-- Generator: Adobe Illustrator 29.8.1, SVG Export Plug-In . SVG Version: 2.1.1 Build 2)  -->
  <defs>
    <style>
      .st0 {
        fill: none;
        stroke: #262626;
        stroke-miterlimit: 10;
        stroke-width: 4px;
      }
    </style>
  </defs>
  <path class="st0" d="M81.11,97.51s4.95-18.69,9.91-36.52S68.89,3.85,68.89,3.85c0,0-3.96-8.59.33,20.81s83.89,65.39,94.46,50.2-40.29-58.46-41.28-58.79-6.61-1.65-9.91.99-24.44,87.85-18.5,79.93c5.94-7.93,4.62-89.83-2.97-94.46s-7.27,21.8-6.28,47.56-12.88,27.74-12.88,27.74c0,0-51.85,13.21-67.38-15.85-15.52-29.06,46.57-30.72,48.88-28.4s108.33,3.62,108.33,3.62"/>
  <path class="st0" d="M240.82,27.94s-52.51,67.71-45.58,76.95c6.94,9.25,29.06-62.75,20.48-85.87-8.59-23.12-6.61,26.75-6.61,26.75,0,0,6.28,33.69,11.56,31.38,0,0,13.21,19.49,7.27,21.14-5.94,1.65-28.4-29.39-27.41-63.41,0,0,26.09-5.28,26.75,29.06,0,0-7.27,8.57-37.98-4.63,0,0-27.33-25.43-28.61-21.8"/>
</svg>