<?xml version="1.0" encoding="UTF-8"?>
<svg id="Layer_1" xmlns="http://www.w3.org/2000/svg" version="1.1" viewBox="0 0 593.66 114.95">
  <!-- Generator: Adobe Illustrator 29.8.1, SVG Export Plug-In . SVG Version: 2.1.1 Build 2)  -->
  <defs>
    <style>
      .st0 {
        fill: none;
        stroke: #262626;
        stroke-miterlimit: 10;
        stroke-width: 4px;
      }
    </style>
  </defs>
  <path class="st0" d="M25.25,14.83s44.59,32.7-6.94,84.22,34.68-56.39,43.6-61.88-3.96,39.09-11.89,51.97,24.77-6.84,37.65-51.97c0,0,0,46.03,13.87,45.04s13.87-51.52,13.87-51.52c0,0,37.65,61.43,46.57,45.58s-36.66-21.8-19.82-30.72c16.84-8.92,35.67,25.76,35.67,25.76,0,0-29.29,38.76-65.39,15.85S176.84-6.97,205.58,2.94s-8.92,70.35-8.92,70.35c0,0,59.45-49.54,56.48-63.41s-48.55,56.48-37.65,72.33,70.35-32.7,68.37-50.53c0,0-12.55,83.23,21.96-.99,0,0,50.69,60.44,0,53.5s36.5-49.45,40.46-47.02,32.7,6.39,23.78,40.08c-8.92,33.69,33.69-40.08,33.69-40.08,0,0-2.97,51.97,41.61,16.3l23.78,18.83s35.67-56.48,42.61-48.55-24.77,79.34,52.51,33.73c0,0-10.9,69.32,27.74,11.85"/>
</svg>