<?xml version="1.0" encoding="UTF-8"?>
<svg id="Layer_1" xmlns="http://www.w3.org/2000/svg" version="1.1" viewBox="0 0 595.28 841.89">
  <!-- Generator: Adobe Illustrator 29.8.1, SVG Export Plug-In . SVG Version: 2.1.1 Build 2)  -->
  <defs>
    <style>
      .st0 {
        fill: #231f20;
      }
    </style>
  </defs>
  <path class="st0" d="M212.52,184.53c-5.94-4.89-11.87-9.79-17.81-14.68l-1.77,4.27c16.67-.97,33.34-1.94,50.02-2.91s33.51-1.95,50.27-2.92c8.38-.49,16.76-.97,25.13-1.46l12.44-.72c3.38-.2,7.08-.78,10.42-.05,3.15.69,4.81,2.82,5.74,5.8,1.01,3.24,1.58,6.67,2.11,10.01,1.09,6.88,1.48,13.89,1.29,20.85-.38,13.97-3.28,27.83-8.48,40.8-2.58,6.45-5.79,12.71-9.56,18.55-1.52,2.36-3.46,5.01-6.14,6.13-2.91,1.21-5.67-.57-7.87-2.39-5-4.13-9.01-9.49-11.49-15.5-1.25-3.04-2.15-6.26-2.61-9.51-.4-2.86-.45-6.07,1.86-8.14,1.94-1.73,4.79-2.34,7.3-2.7,3.47-.49,7.04-.56,10.54-.69,7.82-.27,15.65-.1,23.45.5,15.45,1.2,30.76,4.18,45.55,8.81,6.74,2.11,13.63,4.35,19.88,7.69,2.75,1.47,5.37,3.19,7.61,5.37,1.96,1.91,3.71,4.03,4.15,6.64.13.77.11,1.71-.15,2.53,0,0-.38.59-.34.55-.21.19,0,0,.05-.01-.11.05-.2.14-.31.19-.27.1-.03,0,.02,0-.17.06-.35.09-.52.12l2.82,1.15c-1.62-2.59-3.24-5.19-4.86-7.78-1.45-2.32-5.5-.86-4.57,1.93,4.75,14.14,7.95,28.78,9.43,43.62.32,3.15,4.88,3.28,5,0s.24-6.38.36-9.57-4.88-3.21-5,0-.24,6.38-.36,9.57h5c-1.53-15.29-4.72-30.38-9.61-44.95l-4.57,1.93c1.62,2.59,3.24,5.19,4.86,7.78.62,1,1.7,1.38,2.82,1.15,3.13-.63,4.71-3.46,4.96-6.43s-.81-5.92-2.52-8.27c-4.2-5.79-10.39-9.49-16.87-12.24-15.05-6.41-31.24-10.56-47.4-12.98-8.34-1.25-16.75-2.04-25.18-2.3s-16.26-.3-24.23.71c-3.18.4-6.48,1.07-9.19,2.88-3.2,2.13-4.91,5.38-5.16,9.2s.64,7.57,1.71,11.06,2.56,6.85,4.43,9.97,4.04,5.93,6.55,8.47,5.68,5.39,9.27,6.57c7.83,2.58,13.43-4.81,16.95-10.62,7.83-12.9,13.15-27.35,15.67-42.22,2.55-15,2.37-30.4-.75-45.3-.75-3.57-1.61-7.26-4.03-10.11s-6.35-3.95-10.08-4.08c-4.05-.14-8.15.33-12.19.57l-13.44.78c-17.83,1.04-35.67,2.07-53.5,3.11s-35.67,2.07-53.5,3.11l-13.19.77c-1.95.11-3.57,2.79-1.77,4.27,5.94,4.89,11.87,9.79,17.81,14.68,1.04.86,2.52,1.02,3.54,0,.88-.88,1.05-2.67,0-3.54h0Z"/>
</svg>