<?xml version="1.0" encoding="UTF-8"?>
<svg id="Layer_1" xmlns="http://www.w3.org/2000/svg" version="1.1" viewBox="0 0 595.28 841.89">
  <!-- Generator: Adobe Illustrator 29.8.1, SVG Export Plug-In . SVG Version: 2.1.1 Build 2)  -->
  <defs>
    <style>
      .st0 {
        fill: #231f20;
      }
    </style>
  </defs>
  <path class="st0" d="M499.58,395.99c-7.05-24.28-14.36-48.49-21.93-72.61-7.59-24.2-15.45-48.32-23.56-72.35-8.09-23.95-16.43-47.82-25.03-71.6-8.6-23.78-17.46-47.46-26.57-71.04s-18.53-47.22-28.18-70.68c-1.16-2.83-2.33-5.66-3.5-8.48-.8-1.92-3.35-2.58-4.57-.6-6.86,11.16-7.24,24.69-6.98,37.4.3,14.85.83,29.7,1.48,44.54,1.31,29.87,3.26,59.71,5.75,89.51,2.48,29.64,5.49,59.23,8.96,88.77,3.5,29.77,7.46,59.49,11.8,89.15,4.33,29.61,9.05,59.15,14.06,88.65.61,3.56,1.22,7.13,1.83,10.69.23,1.33,1.86,2.08,3.08,1.75,1.44-.4,1.93-1.73,1.75-3.08-3.38-24.51-6.76-49.03-10.13-73.54-3.37-24.43-6.73-48.86-10.1-73.3-1.9-13.78-3.8-27.57-5.7-41.35-.38-2.76-5.26-2.14-4.91.66,2.13,16.9,4.19,33.81,6.17,50.72s3.9,33.84,5.74,50.78,3.61,33.87,5.3,50.82c1.7,17.03,3.33,34.07,4.89,51.11,1.55,16.96,3.02,33.93,4.43,50.91,1.4,16.98,2.73,33.96,3.99,50.94s2.44,33.98,3.56,50.97c1.11,17,2.15,34,3.12,51s1.86,34.02,2.68,51.03,1.58,34.2,2.26,51.3c.16,4.13.32,8.26.48,12.39h5c-1.33-28.8-2-57.62-2.01-86.45,0-28.83.66-57.65,2-86.45.75-16.22,1.71-32.43,2.88-48.62.2-2.77-4.5-3.47-4.91-.66-3.16,21.43-13.3,41.49-28.24,57.13-7.48,7.83-16.1,14.53-25.61,19.72-2.35,1.29-4.76,2.48-7.2,3.57s-5.14,2.32-7.83,2.95c-2.41.57-4.42-.04-5.89-2.04-1.59-2.16-2.32-4.85-3.08-7.37-8.25-27.1-14.82-54.69-20.21-82.49-5.39-27.79-9.62-55.79-13.2-83.86s-6.58-56.43-9.48-84.69c-.36-3.49-.72-6.98-1.07-10.47-.14-1.34-1.05-2.5-2.5-2.5-1.35,0-2.5,1.14-2.5,2.5.06,31.63.13,63.26.19,94.89s.13,62.93.19,94.39c.04,17.81.07,35.63.11,53.44,0,3.22,4.96,3.22,5,0,.36-29.4-.6-58.8-2.64-88.13-2.04-29.32-5.15-58.56-9.05-87.69-3.92-29.26-8.64-58.41-13.9-87.45-5.27-29.04-11.07-57.99-17.17-86.87s-12.47-57.68-18.89-86.48c-.78-3.5-1.56-6.99-2.34-10.49-.63-2.82-4.84-2.09-4.91.66-.47,18.05-.86,36.1-1.17,54.15-.31,18.05-.53,36.11-.67,54.16s-.19,35.94-.17,53.92c.03,18.06.14,36.11.33,54.16s.47,36.11.83,54.16c.36,17.97.8,35.94,1.32,53.9.53,18.05,1.14,36.09,1.83,54.13.67,17.37,1.4,34.74,1.71,52.13s.19,34.56-.84,51.8-2.99,34.3-6.38,51.17c-.83,4.14-1.75,8.27-2.76,12.37h4.82c-3.66-18.49-8.1-36.83-13.32-54.94s-11.2-36.01-17.94-53.61c-3.84-10.03-7.92-19.97-12.23-29.81-.75-1.71-3.52-1.55-4.32,0-7.58,14.67-13.15,30.37-16.4,46.56-.94,4.7-1.68,9.44-2.25,14.19h5c.85-10.72,1.7-21.44,2.55-32.16.22-2.77-4.53-3.47-4.91-.66-2.94,21.7-5.88,43.4-8.82,65.09-2.94,21.7-5.88,43.4-8.82,65.09-1.65,12.21-3.31,24.42-4.96,36.63-.18,1.34.32,2.68,1.75,3.08,1.17.32,2.89-.4,3.08-1.75,2.94-21.7,5.88-43.4,8.82-65.09s5.88-43.4,8.82-65.09c1.65-12.21,3.31-24.42,4.96-36.63l-4.91-.66c-.85,10.72-1.7,21.44-2.55,32.16-.11,1.35,1.23,2.5,2.5,2.5,1.49,0,2.34-1.15,2.5-2.5,1.9-15.78,6.06-31.35,12.22-46,1.75-4.15,3.68-8.23,5.74-12.23h-4.32c7.5,17.14,14.27,34.61,20.29,52.33s11.28,35.65,15.78,53.8c2.55,10.29,4.86,20.64,6.92,31.05.48,2.45,4.25,2.32,4.82,0,4.12-16.85,6.74-34.03,8.3-51.3s2.05-34.6,2-51.92-.67-34.78-1.33-52.15c-.69-17.86-1.36-35.73-1.93-53.6s-1.06-36.26-1.46-54.4-.72-36.1-.96-54.16-.39-36.11-.46-54.16c-.07-18.06-.05-36.11.04-54.17s.28-36.11.54-54.16.61-36.11,1.04-54.16c.11-4.41.22-8.82.33-13.23l-4.91.66c6.42,28.79,12.83,57.58,18.99,86.43,6.13,28.71,12,57.48,17.37,86.34,5.39,28.97,10.27,58.04,14.38,87.22s7.36,57.89,9.64,86.97c2.29,29.3,3.54,58.69,3.5,88.08,0,3.58-.03,7.16-.07,10.74h5c-.06-31.63-.13-63.26-.19-94.89-.06-31.46-.13-62.93-.19-94.39-.04-17.81-.07-35.63-.11-53.44h-5c2.97,29.05,5.95,58.1,9.54,87.08,3.57,28.85,7.72,57.65,13.06,86.23,5.34,28.62,11.88,57.03,20.17,84.95,1.57,5.29,2.78,12.14,7.36,15.77,5.52,4.39,12.62.73,18.16-1.75,10.21-4.57,19.62-10.86,27.92-18.34,16.68-15.03,28.92-35.24,33.95-57.16.6-2.62,1.09-5.26,1.48-7.91l-4.91-.66c-2.08,28.75-3.5,57.55-4.25,86.37-.75,28.82-.83,57.65-.25,86.47.33,16.23.87,32.46,1.62,48.68.15,3.2,5.12,3.23,5,0-.64-17.02-1.35-34.04-2.14-51.05-.79-17.01-1.64-34.03-2.57-51.03-.93-17.01-1.93-34.01-3.01-51.01-1.08-17.08-2.24-34.16-3.47-51.23s-2.52-33.97-3.89-50.95-2.81-33.95-4.32-50.92-3.1-33.92-4.76-50.88-3.39-33.9-5.19-50.83c-1.8-16.94-3.68-33.87-5.63-50.79-1.96-17-3.99-34-6.09-50.98-.51-4.1-1.02-8.21-1.54-12.31l-4.91.66c3.38,24.51,6.76,49.03,10.13,73.54,3.37,24.43,6.73,48.86,10.1,73.3,1.9,13.78,3.8,27.57,5.7,41.35l4.82-1.33c-5.06-29.32-9.83-58.69-14.23-88.12-4.37-29.21-8.38-58.47-11.94-87.79-3.59-29.53-6.73-59.11-9.34-88.74s-4.67-58.96-6.14-88.5c-.74-14.93-1.33-29.87-1.76-44.82-.19-6.83-.48-13.68-.32-20.51.15-6.2.73-12.43,2.63-18.36.9-2.83,2.13-5.51,3.69-8.04l-4.57-.6c9.68,23.36,19.1,46.82,28.28,70.38,9.2,23.64,18.15,47.37,26.84,71.2,8.66,23.75,17.07,47.6,25.22,71.53,8.15,23.93,16.04,47.95,23.68,72.06s15.05,48.44,22.19,72.78c.86,2.94,1.72,5.87,2.57,8.81.9,3.08,5.72,1.77,4.82-1.33h0Z"/>
</svg>