<?xml version="1.0" encoding="UTF-8"?>
<svg id="Layer_1" xmlns="http://www.w3.org/2000/svg" version="1.1" viewBox="0 0 293.81 200.42">
  <!-- Generator: Adobe Illustrator 29.8.1, SVG Export Plug-In . SVG Version: 2.1.1 Build 2)  -->
  <defs>
    <style>
      .st0 {
        fill: none;
        stroke: #262626;
        stroke-miterlimit: 10;
        stroke-width: 4px;
      }
    </style>
  </defs>
  <path class="st0" d="M2.05,67.86s32.7.99,15.85-47.56-27.02,48.55,4.82,47.56,35.8,19.81,23.91-46.57c0,0,10.9-40.62,32.7-3.96s21.8,52.51,33.69,47.56-80.26-4.95-6.94-17.83c0,0,57.47,21.8,59.45,6.94s-42.61-11.89-39.63-11.89,83.23-3.96,96.11-16.84c12.88-12.88-54.5,37.37-58.46,44.94s83.23-6.3,87.19-19.18c3.96-12.88-87.86,79.27-73.16,101.06s1.82,59.45-18.99,41.61-3.96-46.57,40.62-38.64c44.59,7.93,39.63,15.85,67.38-1.98,27.74-17.83,32.07-44.59,15.54-32.7-16.53,11.89-37.34,80.65-25.45,77.98s26.37-30.61-4.95-75.99c0,0-74.68-25.76,30.4,62.42"/>
</svg>