<?xml version="1.0" encoding="UTF-8"?>
<svg id="Layer_1" xmlns="http://www.w3.org/2000/svg" version="1.1" viewBox="0 0 595.28 841.89">
  <!-- Generator: Adobe Illustrator 29.8.1, SVG Export Plug-In . SVG Version: 2.1.1 Build 2)  -->
  <defs>
    <style>
      .st0 {
        fill: #231f20;
      }
    </style>
  </defs>
  <path class="st0" d="M140.67,240.2c19.42,3.86,39.09,6.46,58.84,7.77s39.3,1.34,58.92.12,39.29-3.71,58.65-7.44,37.48-8.2,55.54-14.43c14.5-5,29.64-12.1,38.32-25.35,1.05-1.6,1.97-3.28,2.77-5.02.57-1.22.35-2.69-.9-3.42-1.08-.63-2.84-.33-3.42.9-5.75,12.23-9.85,25.17-12.08,38.51-.34,2.02,1.66,4.05,3.67,2.82,17.21-10.52,31.49-25.48,41.76-42.8s16.62-37.18,18.13-57.36c.85-11.31.09-22.72-2.27-33.82-.58-2.72-5.13-2.16-4.91.66,1.41,18.34,2.68,36.69,3.81,55.04s2.14,36.72,3.04,55.09,1.71,36.74,2.45,55.12c.74,18.38,1.4,36.76,2.03,55.15.63,18.39,1.21,36.77,1.78,55.16.57,18.39,1.13,36.78,1.7,55.17.57,18.39,1.16,36.78,1.8,55.16.63,18.38,1.31,36.77,2.06,55.15s1.58,36.75,2.5,55.12c.93,18.37,1.95,36.73,3.11,55.09.28,4.47.57,8.93.87,13.39l4.27-1.77c-13.41-16.75-29.99-30.95-48.56-41.7-5.26-3.04-10.67-5.79-16.22-8.26l-1.26,4.66c30.19-2.03,60.38-4.05,90.57-6.08,8.46-.57,16.92-1.14,25.38-1.7,1.35-.09,2.5-1.08,2.5-2.5,0-1.28-1.15-2.59-2.5-2.5-30.19,2.03-60.38,4.05-90.57,6.08-8.46.57-16.92,1.14-25.38,1.7-1.11.07-2.11.72-2.41,1.84-.27.98.15,2.38,1.15,2.82,19.31,8.58,36.94,20.71,51.81,35.73,4.22,4.27,8.21,8.76,11.96,13.44,1.34,1.68,4.41.3,4.27-1.77-1.22-18.35-2.31-36.71-3.29-55.08s-1.85-36.74-2.63-55.12c-.79-18.38-1.5-36.76-2.15-55.14-.66-18.39-1.26-36.77-1.85-55.16-.58-18.39-1.14-36.78-1.71-55.17s-1.14-36.78-1.75-55.16c-.61-18.39-1.25-36.77-1.95-55.15s-1.47-36.76-2.33-55.13c-.86-18.37-1.81-36.74-2.88-55.1-1.07-18.36-2.27-36.71-3.61-55.06-.33-4.46-.66-8.92-1.01-13.38l-4.91.66c4.02,18.94,2.92,38.75-2.41,57.33-5.34,18.6-14.91,36.03-27.96,50.33-7.32,8.02-15.69,15.01-24.95,20.67l3.67,2.82c2.16-12.89,6.02-25.48,11.58-37.31l-4.32-2.52c-6.4,13.82-20.41,21.51-34.09,26.63-8.19,3.07-16.64,5.51-25.07,7.83-9.36,2.57-18.81,4.85-28.32,6.81-18.88,3.9-38,6.59-57.22,8.06-19.36,1.47-38.82,1.72-58.22.73s-38.43-3.19-57.39-6.65c-2.37-.43-4.73-.88-7.1-1.35-1.32-.26-2.7.38-3.08,1.75-.34,1.23.42,2.81,1.75,3.08h0Z"/>
</svg>