<?xml version="1.0" encoding="UTF-8"?>
<svg id="Layer_1" xmlns="http://www.w3.org/2000/svg" version="1.1" viewBox="0 0 314.99 160.46">
  <!-- Generator: Adobe Illustrator 29.8.1, SVG Export Plug-In . SVG Version: 2.1.1 Build 2)  -->
  <defs>
    <style>
      .st0 {
        fill: none;
        stroke: #262626;
        stroke-miterlimit: 10;
        stroke-width: 4px;
      }
    </style>
  </defs>
  <path class="st0" d="M5.65,99.23S-11.19,26.9,27.45,46.71s19.82,56.48,19.82,56.48c0,0-68.37-24.77-27.74-77.28,22.92-29.63,36.78,8.25,40.83,48.68,3.13,31.21.41,63.93-8.5,68.24,0,0,28.53-56.49,14.43-63.75s-45.14,58.35-40.29,61.66S92.93,63.67,90.95,46.93c0,0,5.06-12.33,8.37,7.49s19.82,59.01,23.56,55.27,19.6-75.74,28.62-74.42c0,0,16.07,114.27,30.39,85.65s-19.66-68.92-56.18-52.18c-36.52,16.73-14.28,33.47-14.28,33.47,0,0,61.65-22.02,61.65-31.27s-19.6,75.08-19.6,75.08c0,0,61.65-116.04,79.27-106.13,0,0,11.59,46.89,22.68,48,2.2.22,30.39,11.23,35.89-16.73s-5.72-60.11-5.72-60.11c0,0-2.42,102.16,10.13,107.89,0,0-26.93,14.81-34.79-8.56s11.45-31.73,14.97-28.87,38.97.88,38.97.88"/>
</svg>