<?xml version="1.0" encoding="UTF-8"?>
<svg id="Layer_1" xmlns="http://www.w3.org/2000/svg" version="1.1" viewBox="0 0 595.28 841.89">
  <!-- Generator: Adobe Illustrator 29.8.1, SVG Export Plug-In . SVG Version: 2.1.1 Build 2)  -->
  <defs>
    <style>
      .st0 {
        fill: #231f20;
      }
    </style>
  </defs>
  <path class="st0" d="M425.6,207.23c-17.91-11.49-40.27-14.32-60.89-9.99s-38.18,15.76-51.88,30.97c-6.85,7.6-12.72,16.1-17.47,25.16-5.3,10.1-9.49,20.99-11.48,32.25-1.97,11.15-1.79,22.75,1.81,33.56,3.36,10.11,9.43,19.13,18.11,25.4,8.98,6.49,19.97,9.61,30.83,11.03s21.16.97,31.45-1.35,19.95-6.59,28.23-12.97c7.81-6.01,14.12-13.91,18.18-22.89,4-8.83,6.04-18.66,5.04-28.35-1.04-10.03-5.18-19.25-11.63-26.95-13.52-16.15-35.8-24.3-56.55-21.37-10.49,1.48-20.41,6.13-27.95,13.63-7.05,7.01-11.85,16.2-13.03,26.11-1.29,10.79,2.42,21.56,8.1,30.62s13.22,16.94,21.52,23.58,17.41,12.02,27.2,16.11c4.8,2,9.75,3.67,14.79,4.95,4.73,1.21,9.69,2.36,14.58,2.52,7.72.26,18.19-2.37,19.22-11.48.62-5.5-3.22-10.52-6.77-14.3-3.34-3.56-7.34-6.53-11.6-8.89-8.73-4.85-18.55-7.44-28.34-9.1-10.97-1.87-22.14-2.88-33.27-2.55s-22.05,1.98-32.46,5.61c-5.2,1.81-10.27,4.09-15.01,6.89-4.33,2.56-8.58,5.98-10.28,10.89-3.88,11.24,8.88,19.1,17.13,23.33,10.38,5.33,21.72,8.61,33.34,9.69,4.94.46,11.36.75,14.12-4.35,2.53-4.67-.21-10.3-3.54-13.77-6.83-7.12-17.55-10.26-27.2-9.89-21,.79-37.55,17.56-43.47,36.89-1.72,5.62-2.45,11.57-1.58,17.4.74,4.95,2.89,9.52,6.06,13.37,5.65,6.86,14.36,10.6,22.78,12.71,4.49,1.12,9.08,1.82,13.68,2.28,5.17.52,10.41.83,15.61.56,5.46-.28,10.88-1.21,15.92-3.37,4.65-1.99,10.51-5.46,10.78-11.14s-4.89-8.79-9.12-10.99c-5.15-2.69-10.48-5.05-15.92-7.11-10.84-4.1-22.13-6.82-33.62-8.27s-22.22-1.5-33.29-.32c-1.89.2-3.1,1.96-2.16,3.76,3.32,6.34,9.69,11,16.77,12.13,1.33.21,2.69-.34,3.08-1.75.33-1.19-.41-2.86-1.75-3.08-5.92-.95-10.99-4.52-13.78-9.84l-2.16,3.76c21.51-2.31,43.37.35,63.71,7.72,4.99,1.81,9.87,3.91,14.62,6.29,2.06,1.03,4.23,2.03,6.06,3.46,1.28,1,2.74,2.47,2.55,4.22-.23,2.01-2.27,3.48-3.84,4.48-2.03,1.3-4.21,2.32-6.5,3.07-4.67,1.52-9.57,2.01-14.46,2.05-8.86.06-17.98-.82-26.54-3.19-7.27-2.02-14.93-5.44-19.48-11.74-6.02-8.32-5.03-18.9-1.62-28.08,3.17-8.54,8.63-16.36,15.78-22.03s15.84-8.62,24.87-8.27c4.29.17,8.65,1.1,12.56,2.91s7.8,4.27,9.95,7.96c.86,1.47,1.68,3.51.99,5.13s-2.6,2.14-4.24,2.25c-5.01.34-10.35-.66-15.24-1.71-10.28-2.2-20.62-6.19-29.26-12.26-3.18-2.23-6.86-5.55-7.22-9.68s3.06-7.63,6.34-9.86c8.29-5.63,18.23-9.01,27.98-11s20.48-2.51,30.75-1.99,19.66,1.75,29.2,4.07c8.65,2.11,17.38,5.28,24.42,10.88,3.5,2.79,7.22,6.39,9.01,10.57.8,1.87.95,3.64.25,5.39-.37.94-1.41,2.1-2.43,2.77-6.53,4.3-15.52,2.34-22.72.65-9.41-2.22-18.49-5.73-26.95-10.41s-16.38-10.57-23.29-17.43-13.47-15.1-17.05-24.42c-3.42-8.89-3.81-18.32-.34-27.25,3.19-8.21,9.38-15.32,16.84-19.94,16.95-10.5,39.55-8.2,56.11,1.89,7.59,4.63,14.19,11,18.6,18.76,4.4,7.73,6.17,16.52,5.46,25.37-1.47,18.09-12.86,34.25-28.45,43.11-16.91,9.61-37.86,11.5-56.66,7.27-9.7-2.18-19.17-6.24-26.22-13.43-6.66-6.79-10.76-15.7-12.61-24.96-2.13-10.64-.99-21.72,1.85-32.11,2.68-9.82,6.82-19.25,11.96-28.02,9.44-16.13,22.67-30.21,39-39.45,16.7-9.45,36.69-13.29,55.65-9.86,9.22,1.67,18.03,4.99,25.92,10.06,2.72,1.74,5.23-2.58,2.52-4.32h0Z"/>
</svg>