<svg width="85" height="109" viewBox="0 0 85 109" fill="none" xmlns="http://www.w3.org/2000/svg">
<g clip-path="url(#clip0_250_25)">
<path d="M6.2526 23.4861V25.785C6.2526 27.9673 6.79434 28.9808 8.25099 28.9808C9.72228 28.9808 10.0672 27.4784 10.0672 25.9129C10.0672 22.7803 9.47858 21.8736 6.08907 19.0388C2.34983 15.8721 0.427509 13.9974 0.427509 9.10824C0.427509 4.36789 1.99755 0 8.28582 0C14.9628 0 15.9482 4.55249 15.9482 8.35057V10.2609H9.91986V8.2729C9.91986 6.25893 9.5887 5.26328 8.32637 5.26328C7.14825 5.26328 6.76764 6.27672 6.76764 8.15475C6.76764 10.1542 7.13037 11.1401 9.87613 13.2819C14.7579 17.1172 16.5101 19.2705 16.5101 24.7344C16.5101 29.9312 14.7336 34.2117 8.13924 34.2117C1.80647 34.2117 0 30.3942 0 25.4759V23.4862L6.2526 23.4861Z" fill="#262626"/>
<path d="M19.3303 0.529419H25.723V13.3013H29.8866V0.529419H36.3141V33.7146H29.8866V18.9303H25.723V33.7146H19.3303V0.529419Z" fill="#262626"/>
<path d="M53.4794 19.0566H46.6357V28.1033H54.6584L53.8916 33.7145H40.2422V0.529419H53.8422V6.17304H46.6357V13.4453H53.4794V19.0566Z" fill="#262626"/>
<path d="M16.4446 60.775V62.5704C16.4446 66.7587 15.6729 72.1028 8.06317 72.1028C2.44131 72.1028 0 69.1094 0 63.0092V46.7355C0 40.9639 2.87934 37.9236 8.19759 37.9236C15.2089 37.9236 16.3474 42.5376 16.3474 46.8796V48.9632H9.91986V46.1317C9.91986 44.3039 9.52958 43.3795 8.19759 43.3795C6.88264 43.3795 6.45753 44.2521 6.45753 46.1317V63.6811C6.45753 65.4522 6.75309 66.6616 8.19434 66.6616C9.57408 66.6616 9.98464 65.6449 9.98464 63.5321V60.775H16.4446Z" fill="#262626"/>
<path d="M25.2104 63.7087L24.3926 71.6058H17.8833L22.5772 38.4207H32.0971L36.9019 71.6058H30.2606L29.3464 63.7087H25.2104ZM28.8048 58.0795C28.3327 53.833 27.6711 47.3734 27.3602 44.1954H27.1093C26.9943 46.5089 26.2064 53.9755 25.7668 58.0795H28.8048Z" fill="#262626"/>
<path d="M39.1765 71.6058V38.4207H46.2405C47.2947 42.4696 50.6211 57.4999 50.885 58.957H51.0397C50.6858 54.5422 50.4583 48.505 50.4583 43.8732V38.4207H56.3862V71.6058H49.2567C48.5685 68.4489 44.9393 51.2767 44.7255 50.2163H44.553C44.8024 54.1212 44.9968 60.7216 44.9968 65.9379V71.6058L39.1765 71.6058Z" fill="#262626"/>
<path d="M0 75.8148H8.51173C14.0243 75.8148 16.7578 78.7289 16.7578 84.6073V86.6342C16.7578 92.4463 14.5635 95.9545 8.26554 95.9545H6.39267V109H0V75.8148ZM6.39267 90.782H7.4267C9.85021 90.782 10.3628 89.4253 10.3628 86.6617V84.3726C10.3628 82.2275 9.85996 80.8433 7.73278 80.8433H6.39267V90.782Z" fill="#262626"/>
<path d="M19.5505 75.8148H25.9432V103.416H33.9692L33.3991 109H19.5505V75.8148Z" fill="#262626"/>
<path d="M42.5975 101.103L41.7797 109H35.2695L39.9642 75.8148H49.4841L54.2889 109H47.6476L46.7334 101.103H42.5975ZM46.1918 95.4737C45.7198 91.2272 45.0582 84.7676 44.7473 81.5896H44.4964C44.3813 83.9031 43.5935 91.3698 43.1538 95.4737H46.1918Z" fill="#262626"/>
<path d="M58.507 109V98.3733C58.507 97.839 58.4228 97.24 58.273 96.6555L52.439 75.8148H59.3944C60.2884 80.5988 61.3321 86.0984 61.7418 90.2801H61.949C62.4883 86.3088 63.5515 80.6895 64.4163 75.8148H71.0001L65.0341 97.1881C64.9499 97.5945 64.8826 97.9248 64.8826 98.6177V109H58.507Z" fill="#262626"/>
</g>
<path d="M59.7587 1.51093C59.8526 2.47629 59.9317 3.74087 59.969 4.70429C59.9808 5.00732 59.9583 4.85139 59.9646 5.06077C59.976 5.46797 59.9994 5.84754 60.0052 6.25041C60.0067 6.38296 59.9712 6.21729 59.9729 6.35676C59.9809 7.12342 60.0043 7.84938 60.0082 8.62576C60.01 9.08289 60.0101 9.53465 60.0082 9.99631C59.9969 13.3285 60.258 16.622 60.254 20.0685C60.2505 20.3932 60.2386 20.7395 60.2128 21.0975C60.1805 21.5415 60.1434 21.9898 60.1034 22.448C60.0833 22.6772 60.0629 22.9036 60.0405 23.1328C60.0291 23.2484 60.0177 23.3605 60.0034 23.481C59.9965 23.5388 59.9886 23.601 59.9783 23.667C59.9729 23.701 59.9673 23.7351 59.9576 23.78C59.9526 23.8022 59.9478 23.8249 59.9346 23.8675C59.9282 23.8866 59.9219 23.9102 59.8963 23.9645C59.8807 23.9927 59.8705 24.0276 59.7947 24.1146C59.7528 24.1507 59.6802 24.2659 59.4163 24.3077C59.0929 24.3369 58.9216 24.1441 58.8649 24.0687C58.7194 23.8593 58.7379 23.7234 58.7307 23.668C58.729 23.5953 58.7351 23.5478 58.7393 23.5121C58.7504 23.4309 58.7616 23.3827 58.7746 23.328C58.7988 23.228 58.8245 23.1434 58.8495 23.0629C58.9022 22.8978 58.7841 22.964 58.7881 22.9303C58.8585 22.4166 58.9699 22.6439 59.1097 22.3682C59.6762 21.2878 60.2696 20.109 60.7328 19.0598C60.9318 18.6114 60.5356 18.9589 60.8512 18.5707C60.8732 18.5435 60.9168 18.7051 60.9862 18.5898C61.1427 18.3299 61.3787 17.8044 61.4901 17.5982C61.7064 17.1994 61.738 17.1332 61.9284 16.7504C62.1894 16.2271 62.5509 15.6317 62.8049 15.0573C62.8583 14.9351 62.6691 15.0365 62.744 14.8357C62.7661 14.7763 62.8042 14.6905 62.8501 14.5945C62.9601 14.3638 63.1172 14.0763 63.198 13.9652C63.3138 13.8051 63.3641 13.9286 63.4007 13.9081C63.6994 13.7524 63.7882 13.029 63.8336 12.944C63.9799 12.6501 64.1732 12.3203 64.4351 12.0439C64.5365 11.9373 64.6385 11.826 64.8388 11.6948C64.943 11.6323 65.0755 11.549 65.3262 11.5164C65.5755 11.4723 65.9479 11.6089 66.1028 11.7755C66.3701 12.0433 66.4155 12.2474 66.4718 12.412C66.5201 12.5779 66.543 12.7186 66.5608 12.8557C66.5936 13.1221 66.6006 13.3653 66.6027 13.6036C66.6052 14.0776 66.5836 14.5362 66.5734 15.0005C66.5463 16.114 66.5369 17.2863 66.4703 18.3271C66.4601 18.4824 66.4494 18.6279 66.4374 18.7784C66.3529 19.8352 66.2206 20.7738 66.1333 21.8326C66.1223 21.9629 66.322 21.8297 66.3089 21.99C66.1687 23.6556 65.9532 25.3118 65.4323 26.9629C65.3795 27.1248 65.2618 26.8714 65.199 27.0276C65.0742 27.343 64.9103 27.6971 64.7319 28.0764C64.6438 28.262 64.5537 28.4495 64.4613 28.6397C64.4161 28.733 64.3686 28.8295 64.3259 28.9182C64.3034 28.9649 64.2826 29.0085 64.2689 29.0423C64.2524 29.0558 64.2607 29.1656 64.2936 28.9207C64.2945 28.8558 64.2779 28.7304 64.1782 28.6128C64.0775 28.4879 63.91 28.4456 63.8677 28.4427C63.7509 28.4306 63.7365 28.4436 63.7255 28.4393C63.71 28.4352 63.7354 28.4147 63.755 28.391C63.7991 28.3421 63.8518 28.2758 63.8919 28.2063C63.9793 28.0627 64.0284 27.9007 64.0303 27.7239C64.5733 27.3799 65.2455 26.8992 65.8218 26.6592C66.1966 26.5012 66.0151 26.8941 66.3451 26.532C66.4205 26.4498 66.2021 26.3962 66.321 26.2848C66.8226 25.8145 67.4545 25.3965 67.9366 24.907C68.0345 24.8069 67.9074 24.7021 67.921 24.655C68.0401 24.2651 68.7102 24.2384 68.8242 24.1875C69.6766 23.8006 70.1588 23.3315 70.8455 22.8241C70.8664 22.8087 70.8792 22.7946 70.8859 22.7816C70.9324 22.6933 70.7037 22.6542 70.8379 22.5469C71.633 21.9163 72.5186 21.3328 73.4628 20.9165C73.6739 20.8251 73.5829 21.0953 73.6871 21.0614C74.1444 20.9165 74.0778 20.5402 74.5508 20.4136C74.652 20.3873 74.663 20.5629 74.6872 20.5722C75.0523 20.7253 75.1526 20.265 75.2369 20.2295C75.3865 20.1628 75.5409 20.1151 75.7211 20.0889C75.8126 20.076 75.9097 20.0681 76.0306 20.0723C76.1532 20.0826 76.288 20.0747 76.5624 20.1975C76.7772 20.2878 76.9967 20.5423 77.0565 20.7311C77.1258 20.9216 77.1214 21.05 77.1171 21.1411C77.1023 21.3273 77.0624 21.4221 77.0274 21.5117C76.9542 21.6848 76.8769 21.8021 76.8015 21.9222C76.6513 22.1557 76.5054 22.3758 76.3945 22.6441C76.3553 22.7388 76.6486 22.629 76.5264 22.8893C76.3183 23.3288 76.0943 23.7521 75.8564 24.1757C75.1589 25.4099 74.3731 26.5942 73.5794 27.6952C73.4141 27.9246 73.3755 27.6687 73.3493 27.6738C72.9329 27.7643 73.2008 28.1383 73.1684 28.2255C72.9031 28.9072 72.2596 29.3178 72.4577 29.9917C72.0129 30.6884 71.6006 31.4099 71.2574 32.1216C71.1155 32.4184 70.9877 32.713 70.9092 32.9706C70.8197 33.2353 70.8579 33.4001 70.8385 33.3253C70.7928 33.293 70.9866 33.4618 71.2594 33.5742C71.5303 33.6965 71.8481 33.8163 72.1694 33.9445C72.3921 34.0329 72.6073 34.1214 72.828 34.2151C73.3847 34.4519 73.9342 34.7075 74.4736 34.9911C74.5087 35.009 74.3736 35.1835 74.444 35.2183C75.2849 35.6372 75.2238 35.2711 75.9372 35.1011C76.118 35.059 76.404 35.6696 76.4309 35.7165C76.5299 35.8892 76.2784 36.1298 76.3177 36.1704C76.6505 36.4977 76.9297 35.5055 77.4665 35.6979C77.4829 35.7057 77.3477 35.858 77.387 35.8921C77.5097 35.9989 77.6691 35.9765 77.7867 36.0882C78.0493 36.3435 77.9881 36.8509 78.5661 36.754C78.6378 36.7404 78.7494 36.161 79.2182 36.3647C79.4034 36.4448 80.2561 36.7581 80.4791 36.8883C80.7046 37.0178 80.4717 37.1265 80.4858 37.1407C81.0306 37.6247 80.7509 37.6232 80.9238 38.0902C81.0883 38.5556 81.3466 37.7246 81.5192 37.6959C81.6379 37.6764 81.8671 37.8659 82.0259 38.0542C82.0884 38.132 82.1334 38.203 82.1543 38.2433C82.2205 38.3765 82.0211 38.3795 82.0891 38.4773C82.4803 39.1324 82.6248 38.3657 82.9255 38.4635C83.404 38.6619 83.505 39.2242 83.3801 39.721C83.3865 40.0236 83.1704 40.159 83.1049 40.1827C83.0063 40.2269 82.9539 40.2251 82.8873 40.2342C82.7759 40.2403 82.6781 40.2384 82.5853 40.2493C82.4383 40.2638 82.5833 40.3818 82.4558 40.4205C81.9459 40.5598 81.6318 40.3843 81.0915 40.6101C80.9996 40.6474 80.5758 41.0571 80.2643 40.7951C80.2208 40.7573 80.3287 40.5936 80.1184 40.5703C79.8045 40.5354 79.2444 40.5292 78.9114 40.5967C78.6691 40.6465 78.963 40.8912 78.6483 40.8251C78.5076 40.7956 78.757 40.6337 78.4957 40.5908C78.2356 40.548 77.5812 40.5829 77.328 40.5988C77.0809 40.6146 77.2247 40.8026 77.2053 40.8165C77.0867 40.8964 76.612 41.0092 76.569 41.0106C75.5267 41.0644 74.5228 41.0349 73.5229 41.0203C72.5032 41.0077 71.456 41.0474 70.5148 41.3868C70.3747 41.4404 70.5322 41.5957 70.5114 41.6057C70.0908 41.8497 70.2658 41.2158 69.8434 41.2193C70.0151 41.4583 69.9217 41.5408 69.82 41.6427C69.9151 41.5638 69.8781 41.4923 69.9079 41.5587C69.9639 41.6604 70.0873 41.545 70.1047 41.5491C70.3765 41.6038 70.2259 41.9101 70.2015 41.9864C70.1096 42.2565 70.4466 42.2691 70.3964 42.4519C70.3537 42.6416 70.001 42.542 70.2337 42.8415C70.408 42.8382 70.5293 42.3973 70.7474 42.5827C71.5631 43.2749 72.6795 44.9777 73.2282 45.6557C73.7736 46.3293 73.9781 46.5293 74.2702 46.9438C74.7998 47.6965 74.7753 47.273 75.2323 47.6348C75.6867 47.9971 75.0333 48.1877 74.9836 48.3368C74.9338 48.485 75.0951 48.4626 75.1032 48.586C75.1111 48.7091 74.9028 48.6035 75.0326 48.7994C75.1206 48.9318 75.4139 49.1245 75.6473 49.2346C75.7631 49.2897 75.8599 49.3195 75.9136 49.3132C76.2516 49.2674 76.3062 48.8406 76.6155 49.4074C76.6327 49.44 76.4343 49.4461 76.5071 49.5662C76.7434 49.971 77.0167 50.3283 77.194 50.859C77.2127 50.9303 77.2315 51.0109 77.2233 51.1172C77.2221 51.2226 77.1368 51.3881 77.0198 51.4431C76.7983 51.5453 76.6662 51.4961 76.5369 51.4783C76.2853 51.4251 76.0658 51.3361 75.8514 51.2429C75.6805 51.1672 75.5122 51.0843 75.3476 50.9977C75.2159 50.9275 75.4036 50.82 75.3283 50.7776C74.5426 50.3272 74.7243 50.7141 74.1422 50.7996C74.4149 50.4616 74.2713 50.1175 73.6472 49.8341C73.2728 49.6635 73.2627 49.8569 72.9676 49.8613C72.8794 49.8627 72.6647 49.6301 72.5819 49.6847C72.3103 49.8622 72.4328 50.2544 71.8437 49.8497C71.818 49.8317 71.9682 49.7367 71.8749 49.6844C71.2694 49.3475 71.0808 49.5689 70.3917 49.3083C69.9023 49.1265 69.1122 48.6508 68.5362 48.485C68.4759 48.4682 68.4203 48.4548 68.3694 48.4446C68.4702 48.0122 67.7513 48.0643 67.684 48.4311C67.4024 48.5032 67.2784 48.7856 67.2194 49.1583C67.1999 49.2877 67.0858 49.1996 67.0722 49.2153C66.866 49.4776 67.1671 49.6589 67.1865 49.7339C67.4279 50.665 67.5468 51.5062 68.0828 52.3144C68.1028 52.3434 68.3636 52.288 68.2889 52.6006C68.2837 52.6209 68.0474 52.3789 68.2198 52.7958C68.3905 53.2132 68.6372 54.0444 69.0285 54.5534C69.122 54.6751 69.4734 54.9258 69.4802 55.2736C69.481 55.3202 69.3981 55.313 69.3917 55.3843C69.3738 55.6135 69.6363 55.5869 69.5637 55.8882C69.4872 56.1828 69.5897 56.6742 70.0237 57.1623C70.0391 57.1812 70.2691 57.213 70.3673 57.3965C70.5131 57.6733 70.7063 58.0826 70.8519 58.3986C70.9076 58.54 70.9779 58.4194 70.9898 58.446C70.9971 58.4713 71.0056 58.491 71.001 58.5341C70.9874 58.704 70.8583 58.8622 70.7167 58.9191C70.5754 58.9813 70.4379 58.9892 70.3098 58.9869C70.0579 58.9787 69.8187 58.9175 69.5991 58.8487C69.1484 58.7044 68.7145 58.5039 68.1992 58.2619C68.0061 58.1738 67.397 58.0384 67.0758 57.7611C66.7217 57.4576 67.3427 57.2552 66.3779 56.8952C65.9899 56.7521 65.2589 56.9816 64.7475 56.3647C63.4586 55.697 62.368 54.8957 61.1449 54.1304C61.1099 54.1074 61.0099 54.0868 60.9192 54.0592C60.8483 54.0333 60.8055 54.0492 60.8025 54.0595C60.7165 54.1724 60.6674 54.3459 60.6551 54.4973C60.6325 55.1783 60.7507 55.8006 60.7996 56.456C60.8202 56.7053 60.7651 56.6236 60.7906 56.92C60.8164 57.2169 60.8933 57.4098 60.8972 57.8152C60.8991 58.0371 60.852 58.2626 60.8323 58.5224C60.8221 58.6155 60.8151 58.7203 60.8144 58.83C60.9198 58.8452 60.9247 59.1226 60.9411 59.6163C60.9442 59.7117 60.9802 59.6101 60.9833 59.6554C60.9958 59.8391 60.963 60.0071 60.9746 60.1822C60.9773 60.2244 61.0085 60.2274 61.0123 60.2621C61.0444 60.5579 60.9504 61.0388 60.9363 61.1217C60.8789 61.4382 60.9072 61.5881 60.8789 61.8317C60.8518 62.0745 60.8505 61.7094 60.8282 61.9936C60.783 62.5829 60.7554 63.3416 60.7389 63.9416C60.7327 64.1815 60.7611 64.0185 60.7608 64.0529C60.7507 64.5471 60.7289 65.0477 60.7703 65.3224C60.7284 65.4824 60.7323 65.5603 60.745 65.6647C60.7598 65.7882 60.7881 65.9503 60.775 66.3284C60.7724 66.3842 60.7411 66.4531 60.7357 66.241C60.7314 66.0892 60.7316 65.8803 60.7212 65.6656C60.7171 65.5814 60.7128 65.4903 60.7073 65.4072C60.7026 65.3358 60.6493 64.9342 60.6453 64.8773C60.6141 64.4452 60.6986 64.3853 60.7034 64.363C60.7568 64.1056 60.7116 63.6121 60.7087 63.4815C60.7022 62.8873 60.735 62.3843 60.7329 61.8877C60.7315 61.5629 60.6463 61.5271 60.6534 61.2729C60.6718 60.4285 60.8287 60.1365 60.6953 59.3419C60.6637 59.1728 60.5504 59.339 60.6223 58.7368C60.6241 58.7228 60.6368 58.6351 60.6454 58.5261C60.6539 58.3709 60.6529 58.1494 60.6014 57.9988C60.5905 57.9668 60.5514 57.9708 60.5435 57.9281C60.4907 57.642 60.5004 57.4471 60.4469 57.1339C60.3932 56.8204 60.3191 56.4453 60.2898 56.0803C60.2715 55.8607 60.3271 55.5726 60.3389 55.464C60.3725 55.1649 60.2438 54.8401 60.3188 54.645C60.3999 54.4505 60.5089 54.8243 60.5811 54.3289C60.451 54.2995 60.3198 54.2394 60.1927 54.1796C60.2149 54.0695 60.1994 53.9708 60.3491 53.7399C60.4174 53.6153 60.7087 53.455 60.9092 53.506C61.0894 53.5393 61.1632 53.6013 61.234 53.651C61.9193 54.1498 62.6769 54.6429 63.4551 55.0928C63.5673 55.1567 63.4974 55.0181 63.6195 55.0843C64.1399 55.3656 64.5599 55.6719 65.1126 55.9393C65.5402 56.1455 66.0514 56.2952 66.5054 56.487C66.6762 56.8057 67.3693 57.0633 67.8423 57.29C68.0064 57.3694 67.9703 57.4188 68.0837 57.489C68.5053 57.7464 68.3764 57.4728 68.5134 57.4944C69.093 57.5682 68.972 58.031 69.6055 58.2096C69.6498 58.2268 70.101 58.0618 70.1307 58.0409C70.4119 57.9586 70.1725 58.14 70.3267 58.1636C70.3976 58.1741 70.4373 58.1644 70.39 58.1934C70.3411 58.2117 70.2357 58.3698 70.2434 58.412C70.2217 58.6652 70.2633 58.6557 70.2589 58.6723C70.2596 58.6753 70.2566 58.6687 70.2513 58.6585C70.2405 58.6371 70.2185 58.5967 70.2002 58.5683C70.1579 58.4998 70.1022 58.4198 70.0368 58.3371C69.94 58.2112 69.6076 57.9871 69.5675 57.6535C69.5634 57.6117 69.6552 57.585 69.6442 57.5553C69.4305 57.0061 69.1627 57.1316 68.9073 56.8984C68.6444 56.6533 68.5693 56.1051 68.5737 55.9862C68.5785 55.6727 68.735 56.1351 68.7577 56.1432C69.0055 56.2091 68.7928 55.8972 68.6665 55.6355C68.9118 55.4539 68.7085 55.1129 68.5361 55.3664C68.5179 55.3953 68.6496 55.5763 68.6665 55.6355C68.2824 55.5534 68.0244 55.1813 68.0497 54.6146C68.0639 54.3496 68.3017 54.4756 67.9371 53.8763C67.7731 53.603 67.629 53.8079 67.4501 53.5795C67.0389 53.0559 66.8824 52.199 66.6188 51.5674C66.5205 51.3317 66.4843 51.6065 66.4132 51.4461C66.2296 51.0297 66.1962 50.5958 66.0523 50.1245C66.0388 50.0783 65.9256 50.2176 65.8936 50.055C65.8046 49.4581 65.6641 48.781 66.1911 47.8775C66.4614 47.4327 67.0226 47.1044 67.444 47.0269C67.9005 46.9292 68.2678 46.9623 68.6046 47.006C68.6728 47.0155 68.7472 47.0267 68.8271 47.0403C69.4921 47.1533 70.2839 47.3787 70.7468 47.5687C71.6358 47.9342 72.5866 48.5937 73.3302 48.8596C73.8147 49.033 73.7767 48.8442 74.0223 48.8332C74.4961 48.8097 75.0191 49.4424 75.0861 49.5351C75.0877 49.5383 74.6751 49.4034 74.8537 49.5693C74.9056 49.7787 75.0821 49.5343 75.0861 49.5351C75.1308 49.5974 75.9056 49.9556 76.0619 49.9746C76.1482 49.988 76.1581 49.8265 76.2015 49.8357C76.2521 49.8467 76.2998 49.8565 76.3444 49.8649C76.4629 49.8883 76.5688 49.9052 76.6574 49.9133C76.7365 49.9223 76.83 49.9122 76.7205 49.8947C76.6572 49.9054 76.5051 49.8275 76.0683 50.1153C75.8587 50.2614 75.6663 50.5577 75.6121 50.7803C75.5533 50.9971 75.5647 51.1332 75.5714 51.2198C75.6181 51.5117 75.6091 51.4035 75.5684 51.3655C75.3874 51.0987 75.0224 50.6372 74.7063 50.211C74.6958 50.1937 74.8556 50.1016 74.829 50.0619C74.8077 50.0296 74.7857 49.9982 74.7632 49.9676C74.396 49.4691 73.9628 49.2841 73.5164 48.9689C73.0431 48.635 72.7754 48.2706 72.7983 47.8118C72.483 47.5187 72.181 46.9669 72.0121 46.6461C71.8407 46.3221 71.5305 46.5326 71.5029 46.513C70.6732 45.941 70.4552 45.3859 69.8031 44.578C69.4882 44.1823 68.8177 43.4916 68.398 42.8942C68.2746 42.7134 68.1813 42.5511 68.0783 42.2578C68.0351 42.119 67.9728 41.9497 67.9564 41.6115C67.9308 41.3522 68.0366 40.6002 68.5989 40.1599C68.7973 39.9986 68.9603 39.898 69.1196 39.7944C69.1934 39.7473 69.0364 39.6335 69.0572 39.6151C69.6184 39.1217 69.4614 39.6706 69.6136 39.6851C70.115 39.792 70.3545 39.8724 70.9255 39.6139C71.0518 39.5556 71.355 38.8717 71.6092 38.798C71.9348 38.7045 71.8376 38.9418 72.1721 38.8463C72.2002 38.8388 72.1807 38.7019 72.3912 38.6851C72.7226 38.6589 73.0613 38.6463 73.4014 38.6409C74.0192 38.6326 74.6523 38.628 75.2626 38.5847C75.388 38.5763 75.2174 38.3637 75.3979 38.3477C76.2554 38.2727 77.1914 38.2306 78.0208 38.291C78.2262 38.3065 78.1053 38.4709 78.1518 38.5152C78.436 38.7839 78.8008 38.3513 78.862 38.3397C79.5854 38.2025 80.224 38.2006 80.8424 38.1946C81.149 38.1914 81.4552 38.1867 81.7321 38.1597C81.8647 38.147 82.0027 38.1258 82.0765 38.1044C82.1075 38.096 82.1388 38.0793 82.066 38.0984C82.0304 38.1111 81.97 38.1186 81.7785 38.2355C81.6727 38.3096 81.5602 38.3654 81.3357 38.6443C81.1443 38.8679 80.8817 39.4553 80.9613 40.0081C80.9638 40.0742 80.9694 40.1244 80.9737 40.1644C80.9746 40.2601 80.7091 40.6339 80.9126 40.2912C80.9381 40.279 81.1025 39.8955 80.843 40.052C80.8306 40.0628 80.7852 40.2401 80.7048 40.2032C80.7085 40.2067 80.7106 40.2078 80.7092 40.2052C80.6586 40.1492 80.1506 40.0728 79.8712 39.7211C79.7834 39.6096 79.6422 39.1261 79.1595 39.2818C79.1244 39.2912 78.306 39.7508 78.2728 39.2118C78.2691 39.1238 78.4829 38.6431 77.944 38.7326C77.8401 38.7503 77.9532 38.9159 77.7052 38.9036C77.3206 38.884 76.9066 38.5861 76.4006 38.655C76.3126 38.6677 75.8729 38.8908 75.7103 38.5462C75.6843 38.492 75.8198 38.3535 75.6903 38.287C75.0783 37.9713 74.3668 37.8472 73.7512 37.5038C73.5322 37.3822 73.7445 37.1549 73.5287 36.999C73.3107 36.8424 72.8458 36.603 72.551 36.6384C72.2543 36.6732 72.3814 37.1975 71.9908 37.1004C71.9407 37.0879 71.8906 37.0751 71.8405 37.0619C71.6089 37.0006 71.3865 36.9347 71.1595 36.8611C70.8213 36.7499 70.4796 36.6316 70.0384 36.4317C69.6302 36.198 68.9123 36.0423 68.1678 34.8233C67.8345 34.2178 67.7794 33.5424 67.8215 33.1086C67.8621 32.6632 67.958 32.3603 68.0478 32.097C68.2329 31.5808 68.4222 31.222 68.6036 30.8625C68.6398 30.7921 68.6767 30.7207 68.7143 30.6481C68.8451 30.3988 68.597 30.5298 68.7825 30.1608C69.4669 28.7997 70.5971 26.6187 71.5218 25.7372C72.2608 25.0329 71.8042 26.1985 72.2844 25.6112C72.5148 25.3282 72.2707 24.7279 72.3009 24.6463C72.5924 23.8404 73.0894 23.4492 73.3984 22.7832C73.4004 22.779 73.4023 22.7748 73.4043 22.7705C73.4691 22.629 73.2126 22.6576 73.2687 22.5402C73.4577 22.1392 73.7631 21.7831 73.9286 21.4282C74.0002 21.2719 73.845 21.2292 73.9222 21.1015C74.0058 20.9616 74.0857 20.8356 74.1427 20.7845C74.1707 20.7654 74.1912 20.7478 74.1923 20.8681C74.1967 20.9378 74.178 21.0244 74.2195 21.334C74.2452 21.4834 74.2888 21.7299 74.4756 22.0495C74.6525 22.3705 75.0481 22.7131 75.3735 22.8373C75.5778 22.919 75.7167 22.937 75.8142 22.9452C75.8899 22.9491 75.6951 22.874 75.5438 22.7613C75.4808 22.7092 75.4917 22.69 75.6321 22.7167C75.7679 22.7422 75.9669 22.7551 76.0589 22.7483C76.2888 22.7185 76.0023 22.7134 75.82 22.7711C75.6114 22.8271 75.3705 22.9358 75.177 23.114C75.0583 23.2238 75.2241 23.5334 74.814 23.4764C74.7291 23.4655 74.5947 23.0513 74.431 23.5671C74.401 23.6525 74.0892 24.4124 73.6334 24.335C73.5118 24.3145 73.125 24.1582 72.9898 24.3163C72.9722 24.3387 73.1699 24.4308 73.0428 24.5398C72.87 24.6867 72.6897 24.8273 72.5028 24.9721C72.1929 25.2117 71.8784 25.4471 71.5831 25.7059C71.4554 25.8183 71.7742 25.8234 71.5806 25.9854C71.0484 26.4311 70.3164 26.9069 69.7313 27.2654C69.5166 27.3963 69.5614 27.17 69.5364 27.1673C69.1309 27.1251 69.2191 27.5219 69.1515 27.5985C68.7391 28.0636 68.26 28.2029 67.8309 28.5758C67.712 28.6783 67.907 28.7509 67.8913 28.7817C67.7249 29.0911 67.7279 28.7021 67.5411 28.7965C67.0181 29.0593 66.5096 29.4492 66.0174 29.8169C65.8369 29.9512 66.162 29.9681 65.9951 30.0883C65.8136 30.219 65.6234 30.3516 65.3936 30.4949C65.2751 30.5676 65.1623 30.6376 64.9586 30.7404C64.9123 30.7633 64.8546 30.7911 64.7796 30.8233C64.7029 30.8553 64.639 30.8836 64.4828 30.9318C64.4099 30.9535 64.3263 30.9755 64.223 30.9944C64.0797 31.0195 63.8878 31.0459 63.6165 31.0212C63.4346 31.0195 62.6922 30.858 62.2514 30.335C61.8079 29.8375 61.719 29.2879 61.7154 28.9575C61.7331 28.3153 61.8692 28.1648 61.9033 28.0501C61.9525 27.9399 61.9758 27.8997 61.9966 27.8605C62.0333 27.7936 62.0492 27.768 62.0663 27.7387C62.0966 27.6881 62.1222 27.6448 62.1488 27.5969C62.2027 27.4998 62.2591 27.3874 62.317 27.2627C62.4324 27.0151 62.5505 26.7284 62.6666 26.4427C62.7356 26.2718 62.8468 26.4186 62.8896 26.3901C63.1901 26.1815 62.9709 25.7247 62.9625 25.6274C62.9216 25.1901 63.0809 25.053 63.1317 24.6734C63.3761 22.8337 63.7457 20.4824 63.9667 18.6717C63.9695 18.649 63.9723 18.6262 63.975 18.6035C64.1177 17.4361 64.2612 16.4037 64.3678 15.3994C64.4202 14.9009 64.4643 14.4026 64.4808 13.9274C64.4888 13.6922 64.489 13.4561 64.4758 13.263C64.4695 13.1675 64.4579 13.0808 64.4512 13.044C64.4643 13.0132 64.3798 13.0154 64.6612 13.3197C64.7436 13.3968 64.8732 13.4895 65.0369 13.5496C65.4906 13.6778 65.4694 13.6434 65.4586 13.6999C65.4304 13.7341 65.4535 13.8023 65.74 13.7429C66.0563 13.6488 66.0726 13.5868 66.0953 13.578C66.108 13.566 66.0831 13.5853 66.0526 13.6152C65.7657 13.872 65.2127 14.843 64.7932 15.5902C64.5357 16.0547 64.2814 16.5204 64.0347 16.9918C63.972 17.1109 64.1851 17.0026 64.0882 17.195C63.8914 17.5875 63.611 18.0712 63.3571 18.4411C63.2341 18.6209 63.2774 18.3177 63.1562 18.4995C62.8727 18.9261 62.6021 19.3991 62.3682 19.8645C62.2693 20.0614 62.5415 19.8278 62.4043 20.0778C62.0309 20.7615 61.6661 21.4335 61.3031 22.1035C61.122 22.4383 60.9438 22.7672 60.772 23.0948C60.6886 23.2534 60.6035 23.4194 60.5325 23.5648C60.4979 23.6354 60.4651 23.7054 60.4423 23.7551C60.4321 23.7752 60.4236 23.7967 60.4235 23.7795C60.4237 23.7656 60.4255 23.7593 60.4277 23.6888C60.4282 23.6533 60.4279 23.6048 60.4178 23.5335C60.4027 23.4389 60.3731 23.2658 60.219 23.0568C60.1624 22.9821 60.0802 22.8878 59.9395 22.7958C59.819 22.711 59.5469 22.6051 59.3006 22.6226C59.0273 22.6413 58.9053 22.7127 58.7935 22.7743C58.6881 22.8364 58.6062 22.9131 58.5697 22.9514C58.433 23.099 58.4091 23.1699 58.3863 23.2093C58.3429 23.2993 58.341 23.3175 58.333 23.3401C58.3209 23.3807 58.3212 23.3877 58.3207 23.3935C58.3207 23.4025 58.3253 23.392 58.3298 23.3789C58.339 23.3518 58.3495 23.3124 58.3597 23.2707C58.3804 23.1865 58.4009 23.0916 58.4209 22.9967C58.461 22.8058 58.5004 22.6035 58.5397 22.4045C58.5659 22.2719 58.7866 22.1746 58.7784 21.8851C58.7241 21.8589 58.6573 21.8547 58.5979 21.8404C58.6278 21.5565 58.6572 21.2746 58.6868 20.9903C58.9077 18.5387 58.9243 15.9315 59.0154 13.3453C59.0194 13.2235 58.9426 13.4347 58.9509 13.1989C58.9893 12.1183 59.029 11.0594 59.132 9.97164C59.1591 9.68088 59.1872 9.4082 59.2175 9.1127C59.2317 8.97453 59.3133 9.04952 59.3242 8.6435C59.3263 8.56951 59.3508 7.96105 59.3439 7.80243C59.3428 7.78126 59.3007 7.8905 59.3121 7.69618C59.3791 6.54977 59.4567 5.35565 59.5158 4.21172C59.5251 4.0285 59.538 4.22304 59.5444 4.09333C59.5847 3.16358 59.6033 2.14628 59.6041 1.25675C59.6035 1.13352 59.6026 1.04933 59.6009 0.981805C59.6003 0.951938 59.5997 0.924826 59.5978 0.902595C59.598 0.9017 59.5968 0.896521 59.5982 0.900387C59.601 0.901261 59.5939 0.91149 59.6253 0.919912C59.6618 0.915448 59.6552 0.898405 59.6572 0.900248C59.6585 0.896496 59.6583 0.8959 59.6583 0.895669C59.6579 0.895503 59.657 0.905141 59.6567 0.906989C59.6558 0.914151 59.6551 0.923318 59.6546 0.933272C59.6673 0.984694 59.6779 1.00673 59.8288 1.10544C59.8639 1.1334 60.1961 1.29591 60.2134 1.30363C60.257 1.32622 60.0918 1.25722 60.1574 1.29065C60.1668 1.29704 60.4475 1.40619 60.4344 1.42394C60.4344 1.42394 60.4344 1.42394 60.4344 1.42394C60.4379 1.42178 60.4181 1.40373 60.3567 1.37697C60.3396 1.36669 60.0057 1.23303 59.9248 1.19509C59.8682 1.16989 59.9685 1.21975 59.8527 1.16702C59.7712 1.11313 59.6583 1.12231 59.5792 0.933272C59.5787 0.917916 59.5782 0.909134 59.5784 0.89558C59.5786 0.890012 59.5786 0.886206 59.58 0.878762C59.5944 0.873386 59.5362 0.875198 59.6376 0.840299C59.7015 0.880161 59.6681 0.875432 59.6773 0.88355C59.6788 0.890048 59.6798 0.895271 59.6811 0.903001C59.6853 0.927528 59.6889 0.956844 59.6922 0.979083C59.7186 1.19124 59.7168 1.09401 59.7587 1.51093ZM71.2474 45.1912C71.1644 44.8227 70.631 45.2199 70.9892 45.3858C71.0073 45.3935 71.2521 45.21 71.2474 45.1912ZM62.4294 54.7223C62.7299 55.0515 63.0724 55.051 62.8643 54.8167C62.6606 54.5878 62.3378 54.6235 62.4294 54.7223ZM60.6355 56.6081C60.6561 56.1025 60.3508 56.05 60.473 56.5801C60.48 56.6106 60.6346 56.6375 60.6355 56.6081ZM59.6511 2.03376C59.6516 2.02732 59.6481 1.76611 59.6473 1.75599C59.6356 1.61357 59.6401 2.14974 59.6511 2.03376ZM60.8441 61.0023C60.8766 60.8476 60.8614 60.3948 60.8212 60.5884C60.7904 60.7433 60.8055 61.196 60.8441 61.0023ZM82.4929 39.9035C82.4986 39.9151 82.6775 39.8778 82.6558 39.8175C82.5865 39.635 82.3804 39.7414 82.4929 39.9035ZM60.6939 68.5068C60.6329 67.3964 60.8166 66.7321 60.6952 67.9344C60.6806 68.1519 60.7195 67.4639 60.6974 67.7414C60.6732 68.2391 60.6155 68.6256 60.933 69.0507C60.9641 69.0866 60.8712 68.9869 60.8024 68.8481C60.7308 68.7106 60.6981 68.5365 60.6936 68.5048C60.6937 68.5055 60.6938 68.5061 60.6939 68.5068ZM71.722 44.5269C71.7241 44.5162 71.5594 44.3126 71.5478 44.3124C71.2947 44.3419 71.63 44.7546 71.722 44.5269ZM73.7406 34.9518C73.7338 34.9271 73.1626 34.7075 73.137 34.7192C72.7082 34.9811 73.863 35.4261 73.7406 34.9518ZM68.3617 48.4319C68.0929 48.5601 67.8803 48.58 67.6848 48.431C67.867 48.3796 68.1286 48.3848 68.3617 48.4319Z" fill="#FF7700"/>
<path d="M60.6169 67.4726C60.6275 66.9253 60.6216 66.2912 60.5636 65.6716C60.5208 65.1847 60.5045 64.7052 60.4968 64.2857C60.492 63.9822 60.5109 64.1363 60.5101 63.9271C60.5098 63.5187 60.4997 63.137 60.5079 62.7347C60.511 62.6014 60.5407 62.7689 60.5438 62.629C60.5624 61.8629 60.5649 61.1378 60.572 60.3672C60.5774 59.7484 60.5781 59.1288 60.544 58.5295C60.4796 57.76 60.383 56.9798 60.2927 56.1905C60.248 55.7939 60.2034 55.3991 60.1754 54.9868C60.1624 54.779 60.151 54.5743 60.1631 54.336C60.1732 54.2154 60.1716 54.097 60.2479 53.8916C60.2909 53.8009 60.3789 53.5572 60.7341 53.4898C61.0672 53.468 61.1495 53.583 61.2437 53.6384C62.4897 54.5174 63.9007 55.3297 65.2976 56.0998C66.4028 56.7 67.7426 57.4712 68.943 57.8695C69.0794 57.9136 69.031 57.8008 69.0592 57.803C69.5088 57.8355 69.3071 57.9596 69.566 58.063C69.8 58.1524 70.0412 58.2256 70.2458 58.2514C70.3421 58.2654 70.4343 58.2567 70.4334 58.2563C70.4354 58.2362 70.2903 58.3848 70.3059 58.4221C70.2864 58.6467 70.3231 58.6378 70.319 58.6509C70.3195 58.6522 70.3169 58.6452 70.3125 58.635C70.3043 58.6152 70.2838 58.572 70.2716 58.5475C70.2429 58.4895 70.1983 58.4052 70.1648 58.3441C70.0842 58.1963 70.0099 58.0677 69.9222 57.9176C69.7627 57.6463 69.5866 57.3576 69.4274 57.104C69.1645 56.6834 69.2319 57.2087 69.0874 56.7301C69.0772 56.6966 69.2356 56.7515 69.1789 56.629C69.0486 56.3489 68.7495 55.8581 68.6418 55.6438C68.4382 55.2366 68.3995 55.1673 68.1983 54.7863C67.9227 54.2611 67.6576 53.6043 67.3655 53.0337C67.302 52.9105 67.2641 53.1277 67.1524 52.9352C67.04 52.7451 66.8166 52.2003 66.7733 52.0042C66.7272 51.8059 66.8538 51.8508 66.8625 51.8097C66.941 51.4828 66.4667 50.9165 66.4356 50.8209C66.1966 50.1098 65.9618 49.3978 66.2613 48.4211C66.409 47.9193 66.9811 47.4207 67.4782 47.3385C67.9885 47.2301 68.3601 47.2923 68.761 47.3685C68.9145 47.4003 69.0657 47.4391 69.2092 47.4785C70.3551 47.8078 71.4449 48.2288 72.4111 48.6498C73.5515 49.1538 74.474 49.6748 75.5636 50.1052C75.6772 50.1493 75.6172 49.9249 75.7536 49.9767C75.9222 50.0404 76.0874 50.1006 76.2417 50.1519C76.3661 50.1933 76.483 50.2283 76.5822 50.252C76.6723 50.2779 76.7935 50.2801 76.6938 50.2786C76.6644 50.2816 76.6144 50.2817 76.5036 50.3234C76.4076 50.3577 76.2206 50.4701 76.108 50.6527C75.891 51.0496 76.0004 51.1971 75.993 51.23C76.0146 51.2931 75.9732 51.1825 75.921 51.0994C75.692 50.7162 75.3241 50.241 74.984 49.7845C74.8187 49.5644 74.6571 49.3456 74.4954 49.1228C74.3996 48.9905 74.6694 49.0378 74.5818 48.8987C74.0395 48.0469 73.2622 46.6149 72.2747 46.6835C71.8472 46.1568 71.3155 45.5136 71.0345 44.9482C70.8511 44.5805 71.2564 44.7412 70.873 44.4293C70.7863 44.3581 70.7461 44.5807 70.6266 44.4658C70.1209 43.975 69.6776 43.3761 69.1625 42.8019C69.0576 42.6826 68.9495 42.8082 68.8976 42.7825C68.7319 42.6961 68.6209 42.5198 68.5427 42.244C68.5017 42.0923 68.4652 41.9315 68.4673 41.66C68.452 41.4203 68.6077 40.8483 68.9745 40.616C69.0861 40.5619 69.1633 40.5387 69.2008 40.5211C70.4535 40.0802 71.0165 40.0153 71.9338 39.8615C72.1404 39.8361 71.8685 39.6479 72.0679 39.6158C72.5257 39.545 72.9841 39.5022 73.4444 39.484C74.0045 39.4622 74.563 39.4625 75.1039 39.4907C75.3197 39.5024 75.1311 39.7044 75.2345 39.72C75.6888 39.7868 75.7709 39.4185 76.2096 39.4756C76.3011 39.4873 76.2572 39.6551 76.2746 39.6724C76.5462 39.9452 76.7567 39.5303 76.8212 39.5181C77.6652 39.3544 78.2197 39.7545 79.0344 39.653C79.1314 39.6403 78.9025 39.4399 79.1742 39.417C79.7917 39.3638 80.4204 39.3216 81.0425 39.2779C81.3522 39.2557 81.6617 39.2332 81.9484 39.2038C82.0957 39.1884 82.2306 39.1718 82.3428 39.1523C82.3975 39.1431 82.4457 39.1309 82.4473 39.1335C82.4444 39.1383 82.4379 39.1355 82.3645 39.19C82.3322 39.2158 82.0445 39.4351 82.0901 39.8741C82.1309 39.7661 81.8433 39.2912 81.489 39.0236C81.4739 39.0112 81.4615 38.9996 81.4515 38.9886C81.3672 38.8889 81.5344 38.8268 81.5353 38.8063C81.4744 38.4115 81.101 38.7086 81.0262 38.6916C80.3503 38.5178 79.8404 37.9483 79.2075 38.2455C76.966 37.2567 74.5888 36.6015 72.3339 35.6395C72.1134 35.5459 71.9004 35.4518 71.6821 35.352C71.3435 35.1962 71.006 35.0375 70.6535 34.8248C70.617 34.8029 70.7708 34.6422 70.698 34.5991C70.2656 34.3377 70.0631 34.2209 69.8307 34.1218C69.6173 34.0213 69.281 33.9012 69.0618 33.3264C69.0077 33.1814 69.1303 32.9282 69.2823 32.774C69.4332 32.613 69.6016 32.5189 69.6254 32.5012C69.8027 32.3791 70.0414 32.6455 70.0831 32.6002C70.4092 32.2787 69.4312 31.9496 69.69 31.3873C69.6997 31.3707 69.8362 31.5244 69.8751 31.486C69.8798 31.4814 69.8842 31.4768 69.8885 31.4722C69.9937 31.3613 69.9986 31.1992 70.1196 31.098C70.4088 30.8609 70.9025 30.9895 70.8883 30.4035C70.8865 30.3287 70.3258 30.1388 70.5995 29.6994C70.7082 29.5235 71.1462 28.7307 71.306 28.5312C71.465 28.3307 71.54 28.5743 71.5561 28.5626C72.1097 28.0985 72.0695 28.3724 72.555 28.2632C73.0393 28.1537 72.2437 27.7982 72.2304 27.6298C72.2175 27.4613 72.6448 27.1362 72.7674 27.0673C72.8901 26.998 72.9145 27.189 73.0039 27.1159C73.5932 26.63 72.7954 26.6263 72.7981 26.3534C72.8046 25.7083 73.5768 25.6605 73.8896 25.2533C73.9739 25.1438 73.7921 25.1665 73.8431 25.0535C74.0461 24.6084 74.3658 24.4565 74.4853 23.8881C74.4971 23.8328 74.465 23.6077 74.5131 23.4147C74.5489 23.277 74.6219 23.1563 74.7781 23.11C74.8331 23.0937 74.9132 23.2735 75.0454 23.1083C75.2407 22.8669 75.5354 22.3915 75.6314 22.0753C75.7015 21.8426 75.3518 21.9761 75.5503 21.7446C75.6381 21.6391 75.6729 21.926 75.8256 21.7208C75.8803 21.6468 75.9505 21.515 76.0034 21.3769C76.0296 21.3084 76.0521 21.2333 76.0598 21.1779C76.0715 21.1072 76.0394 21.1421 76.1156 21.1896C76.1146 21.185 76.016 21.1816 75.968 21.1902C75.7566 21.2259 75.9087 21.4011 75.8937 21.4157C75.8183 21.497 75.4461 21.7178 75.4117 21.7352C74.1106 22.2736 72.8151 22.9582 71.6129 23.7665C71.1389 24.0894 70.6744 24.4295 70.2242 24.8026C70.0986 24.9064 70.3034 24.9982 70.2855 25.0156C69.8885 25.4147 69.9261 24.7358 69.5101 24.8315C69.7949 25.1137 69.5654 25.1962 69.2798 25.4662C69.1401 25.5983 69.3156 25.6572 69.3112 25.6802C69.2263 26.0343 68.8899 25.9131 68.8121 25.8957C68.5279 25.8293 68.5268 26.1629 68.3349 26.1206C68.1444 26.0792 68.2417 25.728 67.9447 25.9586C67.9445 26.1346 68.3919 26.2538 68.1974 26.4757C67.4705 27.3044 65.6917 28.3061 64.9436 28.7873C64.7119 28.9369 64.5267 29.0545 64.3549 29.1522C64.2693 29.2002 64.1925 29.2425 64.0878 29.286C64.0426 29.3034 63.9839 29.3287 63.8874 29.3421C63.8205 29.3436 63.7799 29.3706 63.6122 29.2944C63.4493 29.2091 63.3958 29.0254 63.3997 28.9335C63.4209 28.6986 63.4683 28.6987 63.4867 28.6464C63.511 28.6032 63.5319 28.5692 63.5529 28.5345C63.5945 28.4665 63.6384 28.3937 63.6834 28.3187C64.1 27.5489 63.7311 27.7509 63.7888 27.2063C63.8286 26.6566 64.3551 27.0716 64.5066 27.03C64.6566 26.9865 64.5464 26.8623 64.6408 26.7868C64.7359 26.7069 64.7722 26.9418 64.8553 26.7157C64.939 26.4936 64.8424 25.7999 64.7199 25.7015C64.466 25.476 64.1145 25.6891 64.3333 25.1178C64.346 25.0838 64.4829 25.2264 64.5237 25.0942C64.8366 24.0621 64.9927 22.949 65.2154 21.8833C65.2464 21.7338 65.4017 21.8873 65.4215 21.8C65.6206 20.9226 65.3026 21.1993 65.0366 20.6886C65.4434 20.8421 65.7284 20.5758 65.7833 19.9037C65.8174 19.486 65.6316 19.545 65.5258 19.273C65.4941 19.1921 65.6382 18.9086 65.5584 18.8481C65.4076 18.734 65.2349 18.7724 65.1503 18.687C65.0888 18.6247 65.0744 18.5011 65.1485 18.2076C65.1566 18.177 65.2974 18.2861 65.3144 18.1797C65.4239 17.4946 65.1499 17.3915 65.1713 16.6476C65.1884 16.065 65.4219 15.0381 65.4605 14.3823C65.8888 14.4065 65.7947 13.7622 65.4925 13.533C65.4905 13.3417 65.4763 13.1427 65.4494 12.9612C65.4289 12.7884 65.3607 12.5949 65.3518 12.58C65.3589 12.5835 65.3799 12.5949 65.4042 12.5978C65.4882 12.592 65.4183 12.4692 65.4316 12.4576C65.3673 12.3711 65.2447 12.4529 65.2139 12.5261C65.1733 12.6039 65.1715 12.6935 65.1575 12.7457C65.1537 12.7594 65.1491 12.7707 65.1431 12.7786C64.634 13.5104 64.1236 14.2043 63.833 15.0981C63.8267 15.1183 63.8205 15.1385 63.8145 15.1589C63.8049 15.1926 64.0126 15.3631 63.7219 15.5037C63.7026 15.5126 63.7434 15.1754 63.5257 15.5738C63.306 15.9734 62.7908 16.6726 62.6029 17.2868C62.5568 17.4376 62.555 17.8706 62.2734 18.0738C62.2358 18.1005 62.1942 18.0288 62.1324 18.0635C61.9327 18.1815 62.1031 18.3834 61.8145 18.4919C61.526 18.5999 61.1807 18.9534 61.0179 19.5867C61.0119 19.608 61.1114 19.8218 61.0163 20.0025C60.8684 20.2837 60.6301 20.6745 60.483 20.975C60.4132 21.1175 60.5569 21.0752 60.5465 21.1008C60.1636 22.0598 59.6277 22.7077 59.3702 23.6911C59.2838 23.6945 59.36 23.6501 59.3523 23.6233C59.4045 23.421 59.3345 22.8039 59.4736 22.4074C59.6223 21.9681 60.0534 22.4683 60.0056 21.4251C60.0009 21.3164 59.9626 21.2056 59.915 21.0766C59.7718 20.7008 59.543 20.2631 59.7586 19.7065C59.71 18.2545 59.7982 16.9103 59.6856 15.4569C59.6804 15.3915 59.5581 15.1867 59.5582 15.0329C59.5581 14.8038 59.61 14.6785 59.6109 14.5148C59.6156 13.8317 59.5655 13.2067 59.5706 12.5476C59.5724 12.2971 59.6199 12.3851 59.6214 12.0864C59.6229 11.7885 59.5645 11.59 59.5965 11.1854C59.6214 10.8801 59.7357 10.5773 59.752 10.1734C59.7035 10.1652 59.6789 10.1011 59.6657 9.98666C59.6504 9.8501 59.6496 9.64416 59.6424 9.38282C59.6399 9.28765 59.6033 9.38938 59.6005 9.34376C59.5889 9.15713 59.6211 8.98852 59.6077 8.81719C59.6045 8.77529 59.5733 8.77377 59.5692 8.73817C59.5344 8.438 59.6169 7.96097 59.6287 7.87618C59.6776 7.56471 59.6447 7.40549 59.6651 7.16665C59.6843 6.92439 59.6975 7.29024 59.7105 7.00275C59.7362 6.41396 59.7351 5.65242 59.7354 5.05236C59.7353 4.81296 59.7112 4.97623 59.7106 4.94194C59.7075 4.44719 59.7245 3.94463 59.6864 3.67473C59.7755 3.32455 59.677 3.37787 59.6872 2.66676C59.688 2.61091 59.7177 2.53691 59.7288 2.75538C59.7402 2.96333 59.7354 3.29654 59.7503 3.58897C59.7531 3.66091 59.8062 4.06608 59.8114 4.11676C59.8469 4.55221 59.7656 4.6059 59.7608 4.6307C59.7123 4.89169 59.7721 5.38028 59.7793 5.51126C59.8049 6.10461 59.791 6.60632 59.8092 7.10703C59.8212 7.42538 59.9072 7.46563 59.9074 7.71855C59.91 8.5673 59.7607 8.85646 59.8853 9.65871C59.9074 9.79671 59.9889 9.71588 59.9734 9.99533C59.9694 10.0633 59.9594 10.1534 59.9403 10.2756C59.9352 10.3144 59.8431 10.7648 59.9071 11.0281C59.9153 11.0612 59.9546 11.0608 59.9588 11.104C59.9863 11.394 59.9587 11.588 59.9833 11.905C60.0081 12.2217 60.0473 12.6022 60.0463 12.9642C60.0462 13.182 59.97 13.463 59.9516 13.5678C59.8983 13.8636 60.0151 14.1786 59.9432 14.3627C59.8687 14.5485 59.7386 14.1893 59.6969 14.6745C59.8293 14.6903 59.9665 14.7292 60.1015 14.7558C60.1459 15.8159 60.1482 16.8592 60.1918 17.9295C60.1975 18.0622 60.2777 17.9259 60.2863 18.0678C60.3231 18.6664 60.2758 19.1943 60.3074 19.8229C60.3276 20.227 60.3986 20.6693 60.4214 21.1121C60.426 21.2033 60.4296 21.2875 60.4306 21.3752C60.2086 21.6698 60.2426 22.4202 60.182 22.9711C60.16 23.165 60.1013 23.1461 60.0689 23.2835C59.9376 23.8151 60.1632 23.5895 60.1674 23.7762C60.1659 23.8077 60.1638 23.8392 60.1532 23.8912C60.1471 23.9186 60.1425 23.9443 60.119 24.0071C60.1066 24.0355 60.098 24.0726 60.0303 24.1757C59.9803 24.2305 59.9748 24.3085 59.6954 24.4588C59.6075 24.5179 59.2424 24.5791 59.0362 24.4742C58.835 24.3885 58.7457 24.2802 58.6851 24.203C58.525 23.9893 58.5133 23.7894 58.5057 23.7341C58.4982 23.6558 58.5007 23.5956 58.5047 23.546C58.5104 23.4728 58.5236 23.409 58.5353 23.3652C58.5578 23.2822 58.5877 23.2166 58.6171 23.168C58.6788 23.0631 58.7508 22.9932 58.8239 22.9274C58.9737 22.7877 59.1382 22.6453 59.2658 22.3353C59.2782 22.3049 59.2355 21.7613 59.2441 21.701C59.3148 21.2815 59.3535 21.6779 59.475 21.4558C59.6984 21.0502 59.8921 20.7917 60.0513 20.2693C60.0986 20.1157 60.1024 19.7013 60.3553 19.484C60.388 19.4565 60.4614 19.518 60.48 19.4918C60.8154 19.0081 60.56 18.86 60.611 18.5158C60.664 18.1664 61.0702 17.8008 61.1713 17.7345C61.4324 17.5591 61.1392 17.9545 61.1474 17.9734C61.2347 18.212 61.3705 17.8632 61.511 17.6136C61.7981 17.7158 61.9633 17.3477 61.6559 17.3541C61.6219 17.3558 61.5484 17.5691 61.511 17.6136C61.3576 17.2539 61.5111 16.8352 61.9785 16.5325C62.1997 16.3876 62.242 16.656 62.4998 16.011C62.6157 15.7202 62.3674 15.7263 62.4352 15.4514C62.506 15.1639 62.6576 14.8734 62.8285 14.5834C63.0327 14.2356 63.2638 13.8983 63.4175 13.5683C63.5206 13.3478 63.2977 13.4964 63.3658 13.341C63.5546 12.925 63.803 12.6404 64.117 12.1548C64.1479 12.1098 63.9562 12.1262 64.0773 11.9783C64.1237 11.9228 64.1717 11.8698 64.2115 11.8268C64.323 11.7112 64.4337 11.5883 64.6763 11.4306C64.8031 11.3557 64.9685 11.25 65.2957 11.2085C65.6214 11.1514 66.1144 11.3342 66.3134 11.5499C66.8031 12.0837 66.7579 12.3478 66.8311 12.5972C66.8759 12.8414 66.8912 13.0476 66.9022 13.2492C66.9221 13.6503 66.9173 14.0265 66.9175 14.4244C66.919 14.9606 66.9717 15.8955 66.9329 16.4289C66.8805 17.1847 66.6822 18.0626 66.6142 18.791C66.5986 18.9619 66.5897 19.1218 66.5911 19.2684C66.5953 19.7789 66.7587 19.6838 66.8523 19.916C67.0364 20.3581 66.6042 21.0923 66.5361 21.1784C66.5339 21.1824 66.5308 20.7403 66.4302 20.9668C66.248 21.0863 66.5357 21.1729 66.5361 21.1784C66.4933 21.2505 66.3787 22.129 66.3906 22.3115C66.3983 22.4083 66.5576 22.3727 66.5587 22.4228C66.58 23.6316 66.4791 24.8479 66.1793 26.0678C66.1721 26.0884 66.0002 26.0209 65.9856 26.0695C65.7707 26.7627 65.8858 27.2682 65.8396 27.9271C65.7966 28.5741 65.5205 29.149 65.0405 29.3636C65.0265 29.3978 65.0118 29.431 65.0121 29.4341C65.0122 29.4352 65.0194 29.424 65.0376 29.3801C65.0547 29.3216 65.1171 29.233 65.1223 28.9089C65.12 28.7216 65.0704 28.3895 64.8053 28.0792C64.5374 27.7476 64.0791 27.633 63.9552 27.6307C63.619 27.6078 63.5503 27.6622 63.4936 27.6733C63.3916 27.7103 63.413 27.7134 63.4221 27.7136C63.4564 27.7095 63.5353 27.6818 63.6139 27.6533C63.7735 27.595 63.9559 27.5228 64.0866 27.4739C64.4096 27.3483 64.2323 27.0148 64.2507 26.9922C64.8617 26.2349 65.4274 26.0564 66.2424 25.4622C66.6286 25.1805 67.3477 24.5457 67.7336 24.1909C68.036 23.9114 68.2891 23.8299 68.5547 23.5503C68.5906 23.5127 68.4451 23.4062 68.4535 23.3912C68.6646 22.9644 68.7591 23.4285 68.8744 23.4352C69.2913 23.4623 69.536 23.4613 69.892 23.0268C69.9729 22.9282 69.8977 22.2097 70.0585 22.0416C70.1502 21.9468 70.2104 21.9396 70.2668 21.9429C70.3425 21.9456 70.4117 21.9655 70.5406 21.8316C70.5604 21.8116 70.4738 21.7041 70.6422 21.5878C71.4189 21.0514 72.316 20.5393 73.2249 20.0235C73.3516 19.9529 73.084 19.8455 73.2658 19.741C73.6092 19.546 73.9829 19.3546 74.424 19.1846C74.6471 19.0997 74.8858 19.0186 75.1869 18.9497C75.3426 18.9152 75.5035 18.8834 75.7386 18.8631C75.9999 18.8725 76.187 18.7386 77.0685 19.0737C77.4142 19.2215 77.8151 19.5573 78.0261 19.909C78.2471 20.2663 78.3101 20.554 78.3451 20.7726C78.4 21.1938 78.3544 21.391 78.33 21.5528C78.2699 21.8617 78.2054 22.0103 78.1472 22.1545C78.0094 22.4614 77.9328 22.2064 77.8651 22.256C77.4659 22.5098 77.6532 23.0575 77.6273 23.1305C77.4014 23.7684 77.1217 24.2559 76.8265 24.7252C76.3702 25.446 75.8801 26.0938 75.4995 26.9647C75.4653 27.0437 75.5259 27.8345 75.0478 27.8872C75.0158 27.8913 74.5305 27.937 74.6369 28.2926C74.6437 28.3148 74.9087 28.2648 74.7351 28.5222C74.5614 28.7798 74.4306 29.2788 74.0261 29.5327C73.8988 29.6126 73.3958 29.6907 73.4756 30.194C73.4808 30.2283 73.8087 31.1114 73.2741 31.0583C73.1864 31.0495 72.7434 30.7638 72.7569 31.3038C72.7605 31.4073 72.9391 31.3214 72.8936 31.5614C72.8279 31.9216 72.4901 32.2751 72.5273 32.7241C72.5276 32.7287 72.528 32.7332 72.5284 32.7378C72.534 32.8225 72.7453 33.218 72.4384 33.2668C72.3897 33.2757 72.2428 33.1661 72.1938 33.2426C72.0591 33.3987 72.1502 33.5956 72.0798 33.051C72.0308 32.7796 71.7975 32.4616 71.6901 32.3925C71.578 32.3085 71.5821 32.347 71.637 32.4044C71.733 32.495 71.5496 32.7266 71.6991 32.8697C71.8277 32.9882 72.1424 33.163 72.4243 33.2084C72.4904 33.2191 72.5529 33.2224 72.6093 33.2159C72.9065 33.1811 72.7772 32.6562 73.1697 32.7537C73.2205 32.7664 73.2711 32.7794 73.3214 32.7927C74.9706 33.2283 76.4868 34.0261 78.0836 34.6445C78.3248 34.7383 78.18 34.5134 78.5424 34.6424C79.7267 35.09 81.2815 35.4442 82.9669 36.5235C83.3071 36.772 83.5948 37.057 83.8093 37.3481C84.7443 38.8617 83.2102 37.305 83.9087 38.3879C84.0935 38.7278 84.4699 39.0722 84.6814 39.5666C84.7843 40.1468 84.5315 40.7116 84.3625 40.9462C84.1601 41.2317 84.051 41.3181 83.9496 41.4137C83.7345 41.5957 83.6784 41.6315 83.6109 41.6692C83.2505 41.8488 83.0946 41.884 82.9339 41.9333C82.7739 41.9777 82.6505 42.0028 82.5291 42.0228C82.2853 42.0621 82.09 42.0721 81.8883 42.0782C81.4944 42.0884 81.1374 42.0734 80.7407 42.1319C80.5808 42.1557 80.7528 42.3542 80.6149 42.3719C80.1395 42.4342 79.6417 42.363 79.1975 42.3976C78.9965 42.4136 79.0414 42.5697 78.8584 42.5643C78.4179 42.5532 78.0282 42.5001 77.5985 42.3677C77.5592 42.3558 77.8119 42.1518 77.4888 42.1559C76.9676 42.1627 76.316 42.0413 75.7261 42.2108C75.5489 42.2618 75.5617 42.6155 75.1685 42.3847C75.0856 42.3365 75.1688 41.909 74.7433 42.2914C74.6705 42.3539 73.9922 42.8466 73.6032 42.5931C73.5935 42.5863 73.584 42.579 73.5748 42.5711C73.4817 42.4912 73.234 42.1585 73.0396 42.2258C73.0139 42.2362 73.1341 42.4161 72.9743 42.4451C72.4179 42.5444 71.8323 42.5916 71.3569 42.7515C71.2348 42.7942 71.4622 42.9401 71.2858 42.9972C71.1572 43.0402 71.0282 43.0821 70.9368 43.1135C70.857 43.1318 70.7631 43.2063 70.9691 43.0383C71.4322 42.6722 71.6573 42.0484 71.6723 41.7092C71.6966 41.3946 71.6487 41.2224 71.6252 41.1292C71.5675 40.9372 71.543 40.9324 71.5361 40.9282C71.5232 40.9363 71.5688 41.0436 71.6129 41.1348C71.6967 41.3013 71.4991 41.2848 71.4924 41.3055C71.4005 41.6599 71.798 41.5686 71.8633 41.6209C72.2941 41.9785 72.4445 42.4352 72.8301 42.8311C72.9361 42.9403 72.9996 42.744 73.0306 42.7572C73.3437 42.8985 72.9584 42.9224 73.0608 43.0993C73.3457 43.5934 73.7634 44.0651 74.1512 44.4917C74.2939 44.6483 74.2894 44.3356 74.416 44.4784C75.1653 45.3178 75.9058 46.2395 76.526 47.1737C76.6416 47.3487 76.4469 47.3414 76.4485 47.3968C76.4588 47.7804 76.9789 47.9185 77.0658 47.9803C77.0833 47.9925 77.1001 48.0046 77.1162 48.0167C77.4698 48.2865 77.4947 48.5059 77.7675 48.8362C77.9104 49.0112 78.0565 49.1988 78.2129 49.4298C78.29 49.5443 78.3731 49.674 78.461 49.8353C78.5476 50.0059 78.6507 50.1701 78.755 50.5875C78.7947 50.8056 78.8833 51.1116 78.7231 51.689C78.5814 52.3016 77.8627 52.8899 77.4825 52.9817C76.6837 53.2125 76.4991 53.0819 76.2469 53.0651C75.8174 52.986 75.5582 52.8858 75.2982 52.7895C73.9195 52.2317 72.8485 51.6149 71.8655 51.1169C70.5326 50.4324 69.2803 49.7533 68.3388 49.4648C68.0935 49.3848 67.8979 49.4253 68.042 49.3678C68.1122 49.3363 68.2305 49.2103 68.2472 49.1526C68.2706 49.0916 68.2442 49.1235 68.2378 49.2084C68.2326 49.2737 68.3957 49.2139 68.3941 49.2691C68.3982 50.1999 68.9876 51.8691 69.6428 53.2377C69.6984 53.3544 69.7422 53.1259 69.835 53.3108C70.0248 53.6875 70.2493 54.1863 70.401 54.5941C70.4775 54.7968 70.254 54.5888 70.3337 54.7917C70.5147 55.2546 70.7551 55.7464 71.009 56.1983C71.1166 56.3895 71.0761 56.0352 71.2055 56.2865C71.346 56.5581 71.4838 56.8227 71.6233 57.0958C71.694 57.2343 71.7659 57.3762 71.8355 57.5199C71.8671 57.5855 71.9154 57.6852 71.9493 57.7621C71.9666 57.801 71.9986 57.8726 72.023 57.9358C72.0394 57.9792 72.0382 57.9717 72.0737 58.0785C72.0937 58.1881 72.1739 58.2531 72.1261 58.7153C72.0762 59.0328 71.898 59.4135 71.5921 59.6716C71.3059 59.9178 70.9946 60.01 70.7954 60.0473C70.355 60.1205 70.1117 60.0708 69.8568 60.0301C69.3851 59.9382 69.0293 59.8014 68.672 59.6542C67.974 59.3584 67.3469 59.0086 66.7378 58.6319C66.6188 58.5572 66.599 58.3122 66.3232 58.2067C66.2778 58.2466 66.2484 58.3066 66.2122 58.3559C64.1995 57.2386 62.3518 56.0212 60.5251 54.5703C60.5438 54.5771 60.5682 54.616 60.7336 54.646C60.9218 54.6977 61.2339 54.5151 61.2693 54.4225C61.3641 54.2589 61.3099 54.3131 61.3105 54.3433C61.2908 54.427 61.28 54.5724 61.2755 54.7123C61.2667 54.999 61.276 55.3106 61.2881 55.621C61.2929 55.741 61.354 55.5286 61.363 55.7595C61.4009 56.659 61.4632 57.56 61.463 58.4854L61.4636 58.4985C61.4521 58.9632 61.415 59.4228 61.3666 59.8849C61.3517 60.0247 61.2717 59.9503 61.2561 60.3589C61.254 60.4309 61.217 61.0445 61.219 61.2032C61.2195 61.2248 61.2647 61.1147 61.2478 61.3119C61.1497 62.457 61.0146 63.649 60.9418 64.7851C60.9307 64.9672 60.9195 64.7725 60.9121 64.9034C60.8989 65.1508 60.891 65.4044 60.8906 65.6592C60.8951 66.3714 60.82 67.096 60.7418 67.7421C60.6873 68.3325 60.6935 68.1147 60.699 68.4292C60.6896 68.4759 60.7821 68.8321 60.8038 68.8448C60.8217 68.8908 60.7435 68.7294 60.7699 68.7982C60.7654 68.8149 60.9314 69.0635 60.9391 69.0582C60.9393 69.058 60.9208 69.0392 60.8804 68.9862C60.8561 68.9781 60.6907 68.6536 60.6845 68.5598C60.6701 68.4988 60.6908 68.6098 60.6634 68.4848C60.6383 68.3592 60.6286 68.2179 60.6235 68.0084C60.6201 67.7983 60.6115 67.8895 60.6169 67.4726ZM65.5686 26.8534C65.94 26.7963 65.5759 26.24 65.3912 26.5832C65.3828 26.6003 65.5499 26.8565 65.5686 26.8534ZM59.9432 16.8591C59.8367 17.2896 60.0214 17.5821 60.1047 17.2778C60.1846 16.9721 59.9739 16.7275 59.9432 16.8591ZM59.7476 12.4109C59.6824 12.9128 59.9822 12.9891 59.907 12.4535C59.9027 12.4224 59.7512 12.3816 59.7476 12.4109ZM60.7753 66.9648C60.7749 66.9704 60.7542 67.2337 60.7536 67.241C60.7522 67.3828 60.7971 66.8529 60.7753 66.9648ZM59.7238 7.99324C59.6954 8.15494 59.7188 8.59863 59.7555 8.40694C59.7839 8.25511 59.7577 7.79684 59.7238 7.99324ZM74.2046 25.4233C74.1927 25.4219 74.0875 25.5808 74.1425 25.6092C74.3207 25.6987 74.4063 25.4427 74.2046 25.4233ZM59.8884 1.15554C59.7843 1.09447 59.6554 1.04975 59.6201 0.933272C59.6203 0.913479 59.6197 0.909393 59.6217 0.889412C59.6479 0.887821 59.6333 0.909434 59.6385 0.921617C59.6409 0.945391 59.643 0.973845 59.6447 0.998721C59.6482 1.05038 59.651 1.10282 59.6529 1.14558C59.6574 1.24228 59.6599 1.32614 59.6613 1.39616C59.6644 1.54323 59.6633 1.64637 59.6605 1.68262C59.6535 1.76141 59.6492 1.59562 59.6289 1.06025C59.6194 0.843481 59.6575 1.5326 59.6482 1.25245C59.6458 1.18133 59.6423 1.10708 59.6381 1.03916C59.6359 1.0048 59.6339 0.974895 59.6306 0.93775C59.6292 0.923492 59.6277 0.90355 59.6244 0.890285C59.6379 0.892077 59.6273 0.914869 59.6297 0.933272C59.8019 1.1796 60.12 1.23056 60.4299 1.41622C60.5227 1.44265 59.9426 1.18897 59.8866 1.15466C59.8872 1.15495 59.8878 1.15525 59.8884 1.15554ZM66.1995 27.3713C66.2091 27.375 66.423 27.2231 66.4237 27.2115C66.4093 26.9576 65.9786 27.2648 66.1995 27.3713ZM71.4176 34.9014C71.4232 34.9165 71.6145 34.9963 71.7836 35.0589C71.9064 35.1045 72.0143 35.1406 72.025 35.1356C72.2228 35.0142 72.0835 34.8545 71.8857 34.7638C71.6585 34.6598 71.3514 34.6451 71.4176 34.9014ZM65.4721 14.372C65.311 14.085 65.2942 13.7617 65.4924 13.5343C65.4917 13.8073 65.4887 14.0897 65.4721 14.372Z" fill="#FF7700"/>
<defs>
<clipPath id="clip0_250_25">
<rect width="71" height="109" fill="white"/>
</clipPath>
</defs>
</svg>
