<svg width="458" height="584" viewBox="0 0 458 584" fill="none" xmlns="http://www.w3.org/2000/svg">
<path d="M33.4646 125.834V138.151C33.4646 149.843 36.364 155.273 44.1602 155.273C52.0347 155.273 53.8809 147.224 53.8809 138.836C53.8809 122.052 50.7304 117.194 32.5894 102.006C12.5766 85.0398 2.28808 74.9955 2.28808 48.8001C2.28808 23.4023 10.6911 0 44.3466 0C80.0823 0 85.3564 24.3913 85.3564 44.7407V54.9761H53.0922V44.3245C53.0922 33.5341 51.3198 28.1996 44.5637 28.1996C38.2582 28.1996 36.2211 33.6294 36.2211 43.6915C36.2211 54.404 38.1625 59.6863 52.8582 71.1619C78.9859 91.7107 88.364 103.247 88.364 132.522C88.364 160.365 78.8559 183.299 43.5621 183.299C9.66842 183.299 0 162.846 0 136.494V125.834L33.4646 125.834Z" fill="#262626"/>
<path d="M103.458 2.83643H137.672V71.2654H159.956V2.83643H194.357V180.636H159.956V101.425H137.672V180.636H103.458V2.83643Z" fill="#262626"/>
<path d="M286.228 102.101H249.599V150.572H292.538L288.434 180.636H215.381V2.83643H288.169V33.0738H249.599V72.0373H286.228V102.101Z" fill="#262626"/>
<path d="M88.0132 325.62V335.24C88.0132 357.68 83.8831 386.312 43.155 386.312C13.0662 386.312 0 370.274 0 337.591V250.399C0 219.477 15.4106 203.187 43.8744 203.187C81.3999 203.187 87.4929 227.908 87.4929 251.172V262.335H53.0922V247.165C53.0922 237.371 51.0034 232.419 43.8744 232.419C36.8367 232.419 34.5614 237.094 34.5614 247.165V341.191C34.5614 350.68 36.1433 357.159 43.8571 357.159C51.2415 357.159 53.4389 351.712 53.4389 340.392V325.62H88.0132Z" fill="#262626"/>
<path d="M134.93 341.338L130.553 383.65H95.7141L120.837 205.85H171.788L197.504 383.65H161.959L157.066 341.338H134.93ZM154.167 311.178C151.64 288.426 148.1 253.817 146.436 236.79H145.093C144.477 249.185 140.26 289.19 137.907 311.178H154.167Z" fill="#262626"/>
<path d="M209.677 383.65V205.85H247.484C253.127 227.544 270.93 308.073 272.343 315.88H273.17C271.277 292.226 270.059 259.88 270.059 235.064V205.85H301.786V383.65H263.628C259.944 366.736 240.52 274.73 239.376 269.049H238.453C239.788 289.97 240.828 325.334 240.828 353.282V383.649L209.677 383.65Z" fill="#262626"/>
<path d="M0 406.2H45.5557C75.0597 406.2 89.6899 421.813 89.6899 453.309V464.168C89.6899 495.308 77.9454 514.105 44.2381 514.105H34.2143V584H0V406.2ZM34.2143 486.391H39.7485C52.7194 486.391 55.4627 479.123 55.4627 464.316V452.051C55.4627 440.558 52.7716 433.142 41.3867 433.142H34.2143V486.391Z" fill="#262626"/>
<path d="M104.637 406.2H138.851V554.083H181.807L178.756 584H104.637V406.2Z" fill="#262626"/>
<path d="M227.987 541.688L223.61 584H188.767L213.894 406.2H264.845L290.561 584H255.016L250.123 541.688H227.987ZM247.224 511.529C244.698 488.777 241.157 454.168 239.493 437.141H238.15C237.534 449.536 233.318 489.54 230.965 511.529H247.224Z" fill="#262626"/>
<path d="M313.135 584V527.064C313.135 524.202 312.685 520.992 311.883 517.861L280.659 406.2H317.885C322.67 431.832 328.256 461.297 330.448 483.702H331.558C334.444 462.425 340.134 432.318 344.763 406.2H380L348.069 520.714C347.619 522.891 347.259 524.661 347.259 528.373V584H313.135Z" fill="#262626"/>
<path d="M318.882 8.11063C319.135 13.2817 319.256 20.0495 319.287 25.2031C319.296 26.8242 319.275 25.9902 319.278 27.1103C319.283 29.2889 319.294 31.3188 319.28 33.4738C319.276 34.1828 319.248 33.2982 319.243 34.0444C319.212 38.1462 319.18 42.0284 319.108 46.1808C319.065 48.6258 319.015 51.042 318.956 53.5111C318.542 71.4388 319.644 89.1851 319.397 107.459C319.358 109.174 319.292 110.997 319.161 112.856C318.993 115.226 318.811 117.62 318.601 120.053C318.495 121.269 318.385 122.468 318.258 123.666C318.194 124.269 318.128 124.851 318.047 125.456C318.009 125.744 317.965 126.052 317.913 126.35C317.887 126.502 317.859 126.652 317.822 126.813C317.804 126.89 317.785 126.969 317.753 127.071C317.738 127.115 317.721 127.169 317.683 127.25C317.661 127.291 317.643 127.34 317.558 127.437C317.512 127.478 317.432 127.599 317.161 127.641C316.83 127.671 316.653 127.474 316.591 127.392C316.403 127.129 316.407 126.884 316.399 126.759C316.396 126.602 316.412 126.464 316.427 126.354C316.464 126.099 316.511 125.905 316.569 125.682C316.68 125.267 316.813 124.868 316.947 124.485C317.234 123.688 316.976 124.133 317.025 123.98C317.839 121.606 317.713 122.445 318.369 120.985C321.062 115.189 324.286 108.866 326.993 103.381C328.158 101.034 326.796 103.279 328.078 100.995C328.167 100.835 327.965 101.478 328.3 100.842C329.055 99.4095 330.432 96.6541 331.009 95.5397C332.126 93.3833 332.304 93.0329 333.344 90.9928C334.769 88.2032 336.514 84.9144 338.015 81.9076C338.333 81.2688 337.793 82.0553 338.291 81.0286C338.438 80.725 338.663 80.2756 338.92 79.7667C339.531 78.5567 340.339 77.0258 340.693 76.4027C341.201 75.505 341.081 75.9498 341.188 75.7959C342.046 74.5709 343.548 71.3655 343.796 70.9807C344.653 69.5248 345.582 68.0739 346.763 66.8787C347.219 66.4088 347.689 65.9451 348.313 65.5447C348.629 65.3504 348.993 65.1544 349.492 65.0932C349.99 65.0165 350.618 65.2446 350.951 65.5845C353.822 70.7611 352.466 75.3144 352.594 80.2539C352.389 86.1294 352.021 92.3765 351.641 97.9398C351.584 98.7699 351.528 99.5487 351.47 100.355C351.058 105.984 350.581 110.999 350.015 116.612C349.945 117.303 350.215 116.512 350.128 117.359C349.203 126.159 348.047 134.887 345.834 143.507C345.61 144.353 345.712 143.223 345.479 144.055C344.609 147.293 342.825 152.132 341.276 154.984C341.278 154.987 341.277 154.913 341.211 154.834C341.141 154.749 341.043 154.73 341.046 154.73C341.027 154.729 341.135 154.715 341.218 154.683C341.429 154.61 341.628 154.507 341.833 154.392C342.244 154.16 342.637 153.891 342.981 153.635C343.702 153.099 344.252 152.596 344.649 152.15C347.655 150.111 351.189 147.452 353.881 145.61C355.628 144.409 354.116 145.814 356.12 144.177C356.577 143.804 355.869 144.124 356.55 143.583C359.427 141.3 362.671 138.879 365.506 136.596C366.083 136.131 365.825 136.126 365.975 135.975C367.238 134.713 369.808 133.244 370.345 132.875C374.36 130.095 377.163 127.887 380.826 125.179C380.938 125.097 381.015 125.035 381.068 124.988C381.421 124.674 380.644 125.039 381.363 124.501C385.616 121.335 390.174 118.278 394.794 115.819C395.826 115.276 394.982 115.96 395.475 115.713C397.661 114.645 397.993 114.063 400.183 113.174C400.653 112.989 400.456 113.254 400.547 113.235C401.952 112.944 402.989 112.173 403.355 112.053C404.803 111.641 405.938 111.105 407.762 111.673C408.1 111.816 408.415 112.175 408.523 112.486C408.641 112.798 408.651 113.064 408.647 113.281C408.632 113.729 408.541 114.08 408.445 114.417C408.245 115.091 407.99 115.687 407.72 116.292C407.18 117.488 406.56 118.7 405.903 120.051C405.67 120.528 406.401 119.561 405.734 120.888C404.593 123.134 403.377 125.35 402.112 127.588C398.406 134.106 394.414 140.605 390.632 146.792C389.843 148.081 390.249 147.069 390.184 147.141C389.128 148.318 388.983 149.397 388.748 149.83C386.885 153.241 384.768 156.213 383.909 158.761C381.679 162.633 379.499 166.551 377.593 170.534C376.154 173.774 374.121 177.605 375.47 180.344C377.166 182.911 381.307 183.834 384.651 185.137C385.859 185.566 387.03 185.986 388.235 186.421C391.275 187.519 394.304 188.637 397.32 189.786C397.516 189.86 397.093 189.934 397.484 190.081C402.157 191.84 401.362 191.218 404.605 191.938C405.427 192.122 407.652 193.418 407.848 193.525C408.566 193.918 407.673 193.931 407.919 194.045C409.99 194.989 409.985 193.895 412.852 194.921C412.943 194.955 412.497 194.996 412.735 195.101C413.478 195.43 414.219 195.617 414.944 195.948C416.568 196.695 416.984 197.373 419.645 198.039C419.971 198.12 419.699 197.396 422.238 198.366C423.244 198.745 427.761 200.444 428.995 200.979C430.246 201.512 429.309 201.344 429.396 201.386C432.679 202.963 431.356 202.546 432.897 203.582C434.421 204.63 434.295 203.638 435.021 203.855C435.517 204.008 436.842 204.694 437.711 205.32C438.088 205.591 438.387 205.835 438.54 205.967C439.039 206.406 438.3 206.025 438.752 206.398C441.565 209.029 440.342 207.167 441.392 207.968C442.963 209.353 443.824 211.157 443.891 213.049C443.924 213.532 443.562 213.828 443.371 213.942C443.114 214.1 442.93 214.158 442.678 214.243C442.253 214.374 441.794 214.471 441.341 214.564C440.614 214.704 441.224 214.726 440.578 214.866C437.978 215.366 436.366 215.292 433.441 215.713C432.939 215.785 430.592 216.33 429.008 216.141C428.787 216.114 429.403 215.92 428.29 215.95C426.627 215.994 423.638 216.112 421.845 216.248C420.541 216.348 422.06 216.535 420.393 216.532C419.647 216.53 421.013 216.317 419.625 216.326C418.244 216.335 414.737 216.496 413.38 216.56C412.055 216.622 412.788 216.785 412.682 216.802C412.032 216.905 409.471 217.109 409.241 217.119C403.653 217.371 398.281 217.54 392.931 217.747C387.376 217.992 381.788 218.436 376.403 220.125C375.589 220.398 376.195 220.407 376.072 220.451C373.37 221.553 375.324 220.196 373.356 220.912C373.697 221.079 373.127 221.329 372.284 222.007C372.081 222.155 372.043 222.574 372.197 223.065C372.512 223.945 372.502 223.408 372.54 223.482C373.3 224.678 373.661 225.657 373.753 225.933C374.101 226.872 374.977 227.62 375.246 228.227C375.538 228.858 374.414 227.747 375.646 229.354C376.103 229.715 375.474 228.309 376.462 229.484C380.184 233.902 387.142 242.189 390.176 245.731C393.201 249.247 394.217 250.384 395.944 252.459C399.072 256.233 398.092 254.698 400.159 256.947C402.213 259.195 400.783 258.472 400.964 258.892C401.142 259.31 401.548 259.577 401.835 260.033C402.122 260.487 401.31 259.663 402.096 260.64C402.629 261.301 403.864 262.62 404.747 263.515C405.187 263.961 405.517 264.276 405.651 264.367C406.474 264.921 405.743 263.502 407.737 266.183C407.85 266.337 407.341 265.947 407.781 266.536C409.198 268.5 410.778 270.423 411.675 272.825C411.77 273.132 411.847 273.465 411.826 273.817C411.817 274.174 411.605 274.589 411.266 274.766C410.602 275.107 409.928 274.995 409.315 274.914C408.082 274.708 406.899 274.302 405.75 273.878C404.829 273.534 403.91 273.155 403.003 272.765C402.276 272.45 402.996 272.562 402.574 272.377C398.168 270.39 399.641 271.315 397.088 270.531C397.803 270.389 396.573 269.567 393.226 268.042C391.219 267.128 391.492 267.449 390.139 266.972C389.735 266.829 388.363 266.07 388.07 266.029C387.107 265.894 388.321 266.776 384.924 265.107C384.776 265.034 385.318 265.115 384.799 264.872C381.435 263.308 380.922 263.375 377.223 261.854C374.58 260.788 370.078 258.796 366.664 258.047C366.308 257.971 365.977 257.91 365.671 257.862C365.836 257.404 362.396 257.162 361.249 258.032C359.054 258.648 358.004 261.142 357.917 263.305C357.871 264.083 357.775 263.569 357.757 263.666C357.525 265.113 357.957 266.152 358.024 266.61C358.955 271.928 360.443 276.162 362.587 280.844C362.667 281.011 363.016 281.176 363.4 282.528C363.425 282.613 362.622 281.097 363.601 283.328C364.578 285.563 366.449 289.761 368.109 292.72C368.503 293.428 369.635 295.18 370.283 296.727C370.369 296.934 370.193 296.752 370.31 297.053C370.69 298.027 371.162 298.39 371.569 299.575C371.956 300.723 373.059 303.038 374.846 305.952C374.912 306.062 375.439 306.626 375.978 307.602C376.779 309.073 377.958 311.184 378.734 312.883C378.878 313.212 378.939 313.371 378.959 313.333C378.984 313.317 378.973 313.183 379.002 313.275C379.032 313.379 379.049 313.456 379.039 313.536C378.843 315.186 377.009 315.541 375.828 315.489C374.56 315.46 373.296 315.179 372.126 314.863C369.723 314.195 367.35 313.26 364.56 312.043C363.511 311.595 360.5 310.361 358.583 309.288C356.47 308.099 358.887 308.837 353.926 306.396C351.934 305.403 349.181 304.54 345.84 302.299C339.081 298.463 332.954 294.613 326.597 290.181C326.414 290.05 325.988 289.788 325.593 289.526C325.295 289.317 324.903 289.176 324.675 289.392C324.011 290.331 324.117 291.14 324.036 291.984C323.983 295.636 324.433 298.983 324.733 302.492C324.855 303.827 324.765 303.369 324.911 304.957C325.055 306.548 325.213 307.603 325.358 309.764C325.436 310.948 325.459 312.136 325.506 313.524C325.51 314.036 325.514 314.601 325.519 315.192C325.624 315.28 325.654 316.769 325.628 319.412C325.623 319.923 325.668 319.376 325.667 319.618C325.663 320.599 325.609 321.502 325.596 322.437C325.592 322.662 325.623 322.674 325.622 322.859C325.611 324.435 325.425 327.022 325.394 327.468C325.274 329.172 325.271 329.969 325.191 331.277C325.113 332.581 325.188 330.629 325.106 332.153C324.937 335.314 324.75 339.377 324.655 342.59C324.618 343.874 324.667 342.999 324.663 343.182C324.588 345.831 324.553 348.511 324.617 349.986C324.587 350.84 324.602 351.255 324.631 351.816C324.663 352.48 324.727 353.349 324.698 355.374C324.691 355.672 324.659 356.045 324.662 354.907C324.662 354.092 324.654 352.97 324.607 351.817C324.589 351.367 324.574 350.879 324.561 350.435C324.545 350.051 324.482 347.905 324.483 347.602C324.465 345.296 324.567 344.969 324.571 344.849C324.645 343.466 324.674 340.83 324.694 340.133C324.788 336.957 324.931 334.262 325.032 331.607C325.099 329.87 325.02 329.696 325.079 328.334C325.26 323.803 325.481 322.224 325.4 317.954C325.37 317.041 325.278 317.947 325.32 314.674C325.321 314.597 325.327 314.121 325.319 313.528C325.286 312.661 325.219 311.472 325.116 310.647C325.095 310.472 325.056 310.48 325.033 310.248C324.882 308.694 324.818 307.654 324.64 305.96C324.461 304.265 324.227 302.237 324.054 300.292C323.948 299.122 323.902 297.622 323.881 297.053C323.815 295.479 323.616 293.757 323.692 292.771C323.789 291.767 323.833 293.715 324.002 291.111C323.878 291.006 323.766 290.767 323.658 290.58C323.733 290.138 323.777 289.691 324.124 289.177C324.295 288.908 324.752 288.662 325.127 288.745C325.298 288.772 325.443 288.832 325.574 288.901C325.687 288.96 325.797 289.033 325.908 289.118C329.702 291.955 333.771 294.538 337.918 297.081C338.514 297.442 337.949 296.999 338.591 297.385C341.332 299.026 343.711 300.495 346.606 302.104C348.845 303.346 351.365 304.609 353.747 305.825C355.093 306.773 358.671 308.523 361.278 309.748C362.182 310.175 362.098 310.201 362.751 310.518C365.177 311.677 364.116 310.98 364.81 311.248C367.784 312.32 367.877 312.924 371.413 314.022C371.627 314.111 374.018 314.423 374.299 314.412C376.334 314.544 374.617 314.576 375.875 314.666C377.209 314.692 378.147 314.391 378.281 313.414C378.267 313.617 378.29 313.519 378.241 313.408C378.208 313.318 378.182 313.254 378.138 313.153C378.095 313.055 378.043 312.942 377.981 312.814C377.925 312.698 377.886 312.622 377.831 312.515C377.727 312.313 377.594 312.063 377.456 311.81C377.339 311.601 377.208 311.369 377.058 311.11C376.627 310.356 375.53 308.749 374.829 307.232C374.743 307.043 374.881 307.098 374.803 306.949C373.351 304.178 373.042 304.228 372.102 302.755C371.125 301.22 369.991 298.717 369.787 298.207C369.234 296.853 370.371 299.144 370.432 299.22C371.042 299.953 370.054 298.215 369.34 296.847C369.493 296.494 368.488 294.631 368.607 295.438C368.623 295.532 369.201 296.558 369.34 296.847C368.442 295.798 367.293 293.737 366.364 291.277C365.938 290.126 366.581 291.099 364.898 287.794C364.144 286.29 364.227 286.972 363.537 285.654C361.962 282.641 360.395 278.496 359.206 275.185C358.767 273.957 359.06 275.197 358.761 274.361C358.001 272.21 357.493 270.127 357.023 267.845C356.98 267.626 356.938 268.187 356.806 267.433C356.394 264.689 356.098 261.767 357.721 259.055C359.517 256.196 363.174 255.986 365.984 256.436C366.278 256.479 366.602 256.534 366.955 256.603C369.857 257.157 373.885 258.618 376.269 259.58C380.878 261.436 386.306 264.133 390.163 265.816C392.677 266.914 392.193 266.523 393.309 266.908C395.454 267.65 398.959 269.622 399.431 269.888C399.441 269.897 397.28 268.983 398.392 269.565C398.979 270.013 399.41 269.88 399.431 269.888C399.733 270.074 404.035 271.945 404.91 272.218C405.378 272.378 405.171 272.133 405.416 272.219C405.703 272.319 405.979 272.413 406.243 272.5C407.611 272.947 409.107 273.389 410.167 273.385C410.414 273.394 410.581 273.282 410.392 273.386C410.304 273.441 410.199 273.605 410.184 273.677C410.164 273.749 410.176 273.731 410.164 273.661C410.123 273.35 409.819 272.681 409.485 272.111C408.066 269.729 406.111 267.357 404.241 265.018C404.173 264.93 404.42 264.944 404.257 264.739C404.126 264.573 403.994 264.409 403.863 264.248C401.756 261.653 400.13 260.055 398.171 257.962C396.095 255.746 394.528 253.877 393.599 252.318C392.055 250.604 389.987 248.025 388.806 246.545C387.61 245.049 387.17 245.111 387.048 244.983C383.428 241.209 381.59 238.824 378.103 234.651C376.434 232.643 373.121 228.742 371.545 226.201C371.082 225.456 370.742 224.832 370.455 224.037C370.39 223.854 370.325 223.643 370.271 223.412C370.221 223.186 370.18 222.963 370.167 222.653C370.127 222.164 370.294 221.127 371.063 220.525C371.572 220.109 372.098 219.784 372.674 219.465C372.942 219.319 372.588 219.305 372.668 219.257C374.906 217.992 373.946 218.929 374.449 218.79C376.239 218.426 377.301 218.243 380.176 217.502C380.833 217.331 382.702 216.373 383.935 216.169C385.538 215.906 384.958 216.202 386.634 215.956C386.775 215.937 386.734 215.799 387.772 215.702C389.408 215.552 391.098 215.444 392.809 215.368C396.095 215.224 399.466 215.089 402.729 214.925C403.399 214.891 402.531 214.71 403.497 214.659C408.082 214.415 413.091 214.2 417.533 214.099C418.633 214.075 417.952 214.264 418.193 214.3C419.665 214.515 421.716 214.004 422.05 213.979C425.984 213.687 429.45 213.537 432.903 213.32C434.623 213.209 436.347 213.084 438.083 212.875C438.927 212.771 439.823 212.641 440.638 212.462C441.029 212.376 441.431 212.271 441.742 212.152C441.869 212.105 442.011 212.028 441.984 212.037C441.966 212.052 441.919 212.058 441.763 212.249C441.629 212.398 441.406 212.885 441.472 213.337C441.447 213.171 441.404 212.99 441.343 212.802C441.376 212.489 439.656 210.384 438.837 209.253C438.804 209.178 438.039 207.95 436.841 207.515C436.775 207.493 437.286 208.024 436.39 207.469C436.33 207.434 436.257 207.389 436.161 207.333C434.918 206.597 432.41 205.671 430.386 204.609C429.758 204.277 428.313 203.27 426.183 202.793C426.03 202.755 422.677 202.252 421.728 201.375C421.582 201.234 421.932 200.801 419.427 200.166C418.943 200.044 419.734 200.459 418.502 200.085C416.589 199.505 414.143 198.472 411.762 197.869C411.349 197.765 409.504 197.486 408.229 196.746C408.026 196.629 408.498 196.61 407.772 196.332C404.34 195.015 400.686 193.856 397.204 192.511C395.966 192.033 396.696 191.987 395.428 191.463C394.148 190.936 391.548 189.953 390.153 189.607C388.748 189.256 390.08 190.199 388.035 189.528C387.773 189.442 387.51 189.355 387.247 189.268C386.03 188.865 384.852 188.468 383.641 188.053C380.2 186.576 376.246 186.534 372.796 181.835C371.378 179.137 372.116 176.603 372.674 174.708C373.306 172.746 374.107 171.013 374.939 169.275C375.105 168.93 375.278 168.577 375.457 168.216C376.083 166.968 375.424 167.913 376.358 166.07C379.829 159.229 386.352 147.904 389.991 142.433C392.905 138.052 389.711 143.844 391.853 140.448C392.884 138.813 393.513 136.738 393.734 136.333C395.901 132.349 397.712 129.734 399.654 126.195C399.666 126.173 399.678 126.151 399.691 126.129C400.099 125.378 399.508 126.001 399.852 125.372C401.027 123.22 402.343 121.022 403.379 118.951C403.835 118.031 403.61 118.13 404.032 117.287C404.5 116.34 404.927 115.444 405.272 114.607C405.442 114.195 405.593 113.78 405.673 113.487C405.715 113.35 405.722 113.227 405.742 113.325C405.757 113.372 405.774 113.509 405.909 113.737C406.034 113.965 406.346 114.232 406.573 114.312C406.687 114.354 406.722 114.344 406.714 114.335C406.707 114.326 406.746 114.287 406.682 114.211C406.658 114.175 406.676 114.156 406.728 114.152C406.774 114.15 406.784 114.113 406.526 114.111C404.516 114.185 401.082 115.489 398.427 116.997C397.614 117.465 397.75 117.775 395.885 118.524C395.503 118.685 395.738 118.042 393.904 119.538C393.594 119.774 390.507 122.249 388.734 123.075C388.255 123.292 386.977 123.74 386.086 124.428C385.964 124.523 386.578 124.323 385.817 124.877C384.786 125.628 383.748 126.387 382.685 127.179C380.987 128.443 379.284 129.711 377.61 131.001C376.885 131.561 378.092 130.9 377.01 131.728C374.034 134.003 370.252 136.791 367.291 138.962C366.206 139.757 366.852 139.071 366.764 139.117C365.326 139.862 364.822 140.712 364.407 141.054C361.877 143.138 359.79 144.51 357.407 146.373C356.748 146.886 357.326 146.667 357.203 146.78C355.938 147.926 356.758 146.915 355.864 147.547C353.367 149.308 350.655 151.365 348.122 153.198C347.2 153.862 348.362 153.283 347.523 153.88C346.619 154.521 345.681 155.17 344.695 155.791C344.199 156.1 343.717 156.395 343.093 156.714C342.954 156.783 342.79 156.863 342.607 156.942C342.425 157.02 342.274 157.084 341.995 157.17C341.866 157.209 341.732 157.243 341.581 157.271C341.373 157.308 341.121 157.339 340.8 157.31C340.576 157.306 339.758 157.121 339.286 156.558C338.807 156.022 338.702 155.42 338.698 155.021C338.714 154.285 338.89 154.034 338.961 153.833C339.05 153.63 339.115 153.508 339.184 153.376C339.31 153.137 339.418 152.942 339.531 152.729C339.739 152.338 339.946 151.925 340.132 151.528C340.515 150.709 340.857 149.874 341.181 149.008C341.824 147.291 342.38 145.496 342.875 143.749C343.167 142.707 343.137 143.403 343.226 143.194C343.853 141.706 344.025 139.443 344.106 138.906C344.464 136.535 344.759 135.644 345.114 133.531C346.821 123.282 348.187 110.4 348.977 100.551C348.987 100.428 348.997 100.304 349.007 100.18C349.678 88.011 352.004 76.5545 349.509 67.1287C349.506 67.1253 349.535 67.1512 349.588 67.1702C349.735 67.2102 349.708 67.2257 349.711 67.271C349.696 67.3111 349.739 67.3511 349.757 67.347C349.626 67.3443 348.893 67.9006 348.38 68.45C345.372 71.7288 343.188 76.4684 340.864 80.7624C339.552 83.2833 338.243 85.8038 336.938 88.3376C336.607 88.9783 337.206 88.1193 336.68 89.1469C335.61 91.2416 334.217 93.8911 333.077 95.9892C332.524 97.0083 333.144 95.5807 332.591 96.6053C331.294 99.0087 329.941 101.598 328.675 104.095C328.14 105.151 329.069 103.624 328.367 104.986C324.707 112.101 320.31 120.73 317.946 126.38C317.891 126.309 317.812 126.217 317.674 126.127C317.556 126.044 317.287 125.939 317.045 125.956C316.775 125.975 316.656 126.045 316.547 126.105C316.444 126.166 316.366 126.239 316.332 126.275C316.203 126.414 316.188 126.471 316.171 126.499C316.141 126.562 316.148 126.554 316.149 126.551C316.155 126.538 316.169 126.489 316.181 126.443C316.208 126.339 316.233 126.227 316.259 126.096C316.308 125.846 316.351 125.59 316.393 125.324C316.476 124.795 316.549 124.25 316.619 123.709C316.758 122.624 316.883 121.509 317.002 120.414C317.08 119.685 317.346 119.077 317.438 117.525C317.391 117.403 317.324 117.404 317.268 117.347C317.397 115.808 317.517 114.284 317.635 112.749C318.453 99.0876 317.866 85.3307 317.887 71.474C317.885 70.8237 317.818 71.9482 317.816 70.6893C317.81 64.9212 317.847 59.2791 318.08 53.4865C318.143 51.9239 318.203 50.4583 318.265 48.8703C318.294 48.1278 318.369 48.5212 318.421 46.3432C318.431 45.9463 318.512 42.6813 318.517 41.8312C318.517 41.7177 318.466 42.3072 318.494 41.2639C318.653 35.1093 318.785 28.6992 318.832 22.5635C318.84 21.5808 318.855 22.6244 318.86 21.9288C318.884 16.9427 318.853 11.4892 318.679 6.72288C318.653 6.06238 318.63 5.61128 318.607 5.24791C318.602 5.17503 318.595 5.07742 318.589 5.00722C318.584 4.94721 318.576 4.86136 318.569 4.81317C318.567 4.80163 318.567 4.79386 318.561 4.77319C318.563 4.77079 318.554 4.77938 318.585 4.78771C318.62 4.78295 318.612 4.76844 318.614 4.77089C318.615 4.76926 318.613 4.77196 318.613 4.77611C318.609 4.79292 318.607 4.84321 318.606 4.85487C318.604 4.8958 318.603 4.94599 318.603 5.00021C318.627 5.21908 318.751 5.30911 318.875 5.43552C319.012 5.55904 319.207 5.71402 319.639 5.96623C319.833 6.11155 321.625 6.95858 321.72 6.99514C321.958 7.10636 321.083 6.71381 321.44 6.88036C321.491 6.91306 322.981 7.5346 322.909 7.62914C322.928 7.61795 322.824 7.51805 322.499 7.3649C322.408 7.30732 320.642 6.53758 320.222 6.31647C319.928 6.16881 320.457 6.44226 319.856 6.13475C319.632 6.01666 319.402 5.8894 319.161 5.7286C318.94 5.55698 318.605 5.40952 318.527 5.00021C318.527 4.92049 318.527 4.87324 318.53 4.81067C318.531 4.78636 318.532 4.76927 318.535 4.7542C318.551 4.74524 318.493 4.7438 318.597 4.70812C318.663 4.74848 318.633 4.75163 318.645 4.77517C318.65 4.79953 318.654 4.82552 318.659 4.86385C318.675 4.98781 318.689 5.14499 318.699 5.26304C318.784 6.39584 318.765 5.87835 318.882 8.11063ZM383.469 239.847C382.44 238.387 381.771 238.627 383.148 239.969C383.215 240.034 383.523 239.922 383.469 239.847ZM332.936 294.212C334.821 295.566 336.24 296.234 334.914 295.295C333.614 294.371 332.363 293.8 332.936 294.212ZM324.624 303.235C324.44 300.554 324.103 300.153 324.444 303.02C324.463 303.185 324.635 303.391 324.624 303.235ZM318.846 10.8928C318.846 10.8584 318.81 9.45881 318.807 9.40451C318.777 8.63991 318.85 11.513 318.846 10.8928ZM325.324 326.848C325.388 326.014 325.451 323.593 325.377 324.636C325.32 325.471 325.248 327.892 325.324 326.848ZM441.192 214.231C441.205 214.234 441.452 214.185 441.708 214.112C441.947 214.045 442.177 213.957 442.161 213.929C442.035 213.785 440.719 214.154 441.192 214.231ZM324.316 367.043C324.045 361.106 324.802 357.523 324.241 363.976C324.173 365.143 324.389 361.454 324.292 362.943C324.178 365.608 323.851 367.695 325.58 369.96C325.748 370.151 325.246 369.62 324.881 368.874C324.5 368.135 324.337 367.202 324.314 367.033C324.315 367.036 324.315 367.039 324.316 367.043ZM383.399 238.554C383.382 238.522 382.472 237.455 382.438 237.429C381.779 236.988 383.625 239.151 383.399 238.554ZM393.689 188.736C393.622 188.69 390.534 187.596 390.425 187.578C388.683 187.383 394.929 189.599 393.689 188.736ZM365.618 257.843C364.203 257.783 362.356 257.828 361.255 258.031C362.601 257.577 364.229 257.63 365.618 257.843Z" fill="#FF7700"/>
<path d="M324.292 361.535C324.49 358.613 324.621 355.189 324.45 351.823C324.33 349.24 324.339 346.69 324.372 344.456C324.4 342.839 324.401 343.658 324.427 342.543C324.482 340.365 324.542 338.331 324.63 336.18C324.66 335.468 324.656 336.357 324.688 335.609C324.86 331.512 325.031 327.634 325.163 323.491C325.264 320.161 325.338 316.824 325.218 313.531C324.95 309.312 324.508 305.101 324.1 300.878C323.898 298.759 323.698 296.652 323.587 294.513C323.537 293.441 323.5 292.38 323.571 291.276C323.615 290.736 323.659 290.166 323.893 289.565C324.02 289.273 324.237 288.827 324.816 288.727C325.378 288.683 325.637 288.912 325.917 289.105C332.741 294.093 340.192 298.516 347.712 302.788C353.654 306.118 360.969 310.067 367.519 312.561C368.268 312.842 367.854 312.588 367.999 312.635C370.347 313.369 369.5 313.256 371.008 313.765C372.394 314.205 373.803 314.591 375.261 314.728C376.673 314.867 378.229 314.639 378.344 313.424C377.204 310.936 375.079 307.359 373.528 304.598C372.223 302.297 373.324 304.69 372.156 302.359C372.074 302.195 372.493 302.723 372.155 302.089C371.378 300.639 369.898 297.967 369.307 296.839C368.184 294.697 367.987 294.324 366.941 292.293C365.506 289.497 363.912 286.112 362.515 283.047C362.214 282.386 362.489 283.315 362.002 282.265C361.51 281.227 360.349 278.398 360.02 277.427C359.677 276.443 359.932 276.823 359.888 276.643C359.531 275.207 358.191 271.913 358.079 271.448C357.074 267.844 356.189 264.204 357.33 260.557C358.61 256.395 363.646 256.151 366.889 256.931C367.596 257.074 368.329 257.262 369.036 257.464C374.755 259.163 380.488 261.697 385.597 263.955C391.667 266.665 396.717 269.163 402.642 271.634C403.265 271.89 402.611 271.42 403.364 271.726C404.298 272.103 405.225 272.463 406.14 272.787C407.59 273.288 409.152 273.802 410.339 273.762C410.619 273.751 410.692 273.639 410.593 273.75C410.549 273.867 410.615 273.668 410.531 273.392C410.389 272.842 410.025 272.15 409.649 271.52C408.074 268.96 406.052 266.506 404.084 264.065C403.147 262.914 402.22 261.779 401.282 260.634C400.726 259.955 401.589 260.707 401.042 260.022C397.674 255.807 392.349 249.138 389.645 247.244C387.271 244.486 384.349 241.114 382.34 238.546C381.031 236.872 382.525 238.3 380.771 236.39C380.375 235.956 380.736 236.648 380.155 235.992C377.71 233.212 375.157 230.126 372.946 227.094C372.505 226.476 372.498 226.749 372.347 226.571C371.87 226.002 371.386 225.22 371.036 224.317C370.939 224.068 370.865 223.836 370.806 223.597C370.736 223.312 370.698 223.091 370.683 222.776C370.633 222.233 370.879 221.359 371.439 220.981C371.742 220.769 371.989 220.635 372.114 220.56C376.866 218.21 380.424 217.836 384.975 217.138C386.035 217.006 384.755 216.941 385.775 216.81C388.113 216.519 390.472 216.328 392.852 216.211C395.842 216.065 398.821 215.95 401.702 215.87C402.852 215.839 401.805 216.081 402.354 216.076C404.768 216.053 405.278 215.666 407.611 215.64C408.098 215.634 407.831 215.811 407.921 215.826C409.321 216.049 410.526 215.591 410.874 215.566C415.419 215.24 418.312 215.542 422.701 215.269C423.224 215.235 422.037 215.082 423.501 215.001C429.813 214.628 438.314 214.235 442.601 213.203C442.209 210.473 439.837 208.058 437.407 206.435C437.302 206.366 437.212 206.306 437.136 206.254C436.361 205.751 437.157 206.053 437.095 205.997C435.931 204.975 434.793 204.961 434.368 204.779C430.8 203.322 427.518 201.71 424.882 201.242C412.573 196.465 400.075 192.315 387.74 187.846C386.535 187.41 385.367 186.985 384.164 186.544C382.306 185.859 380.467 185.195 378.647 184.343C378.458 184.254 378.889 184.217 378.505 184.035C376.221 182.933 375.417 182.196 374.777 181.605C374.197 180.992 373.508 180.438 373.24 178.518C373.043 177.489 374.211 175 374.336 174.842C374.727 174.079 374.743 175.011 374.857 174.75C375.808 172.708 374.713 172.654 376.011 169.831C376.054 169.742 376.048 170.198 376.178 169.967C376.193 169.939 376.209 169.912 376.224 169.884C376.59 169.224 376.869 168.503 377.265 167.854C378.207 166.328 378.935 165.997 379.967 163.462C380.101 163.141 379.329 163.323 380.669 160.943C381.2 159.99 383.558 155.796 384.267 154.65C384.972 153.5 384.672 154.396 384.727 154.316C386.753 151.301 386.156 152.541 387.382 151.157C388.611 149.771 387.609 149.771 387.899 149.083C388.19 148.393 389.713 146.205 390.105 145.68C390.497 145.153 390.185 145.915 390.515 145.435C392.694 142.255 391.005 143.762 391.531 142.603C392.775 139.866 394.514 138.188 395.956 135.867C396.345 135.242 395.915 135.685 396.239 135.109C397.52 132.833 398.487 131.583 399.814 128.922C399.943 128.663 400.303 127.757 400.769 126.827C401.103 126.163 401.481 125.498 401.887 125.003C402.03 124.829 401.858 125.463 402.435 124.497C403.283 123.081 404.734 120.452 405.464 118.832C406.003 117.633 405.124 118.876 405.897 117.428C406.236 116.77 405.809 118.076 406.426 116.841C406.645 116.394 406.982 115.65 407.258 114.84C407.394 114.435 407.522 113.994 407.574 113.579C407.63 113.16 407.571 112.755 407.315 112.665C406.879 112.491 406.366 112.547 406.036 112.577C404.751 112.767 405.486 112.865 405.387 112.888C404.785 113.024 402.412 113.915 402.222 114.015C394.705 117.078 388.169 121.406 381.795 125.973C379.307 127.783 376.828 129.625 374.341 131.531C373.647 132.062 374.23 131.869 374.126 131.952C371.785 133.816 373.352 131.983 371.58 133.103C372.064 133.235 371.023 133.929 369.38 135.23C368.576 135.866 369.113 135.65 369.048 135.719C367.984 136.818 366.973 137.211 366.717 137.329C365.788 137.754 365.083 138.625 364.451 138.919C363.824 139.211 364.927 138.091 363.328 139.317C362.957 139.776 364.385 139.146 363.188 140.133C358.714 143.821 349.965 150.203 346.095 152.844C344.9 153.666 343.942 154.296 343.093 154.792C342.674 155.035 342.294 155.245 341.861 155.428C341.681 155.502 341.442 155.594 341.199 155.626C341.04 155.637 340.944 155.669 340.693 155.554C340.46 155.429 340.38 155.182 340.382 154.997C340.408 154.581 340.563 154.402 340.656 154.198C340.765 153.99 340.873 153.795 340.979 153.598C341.191 153.206 341.415 152.773 341.629 152.331C343.579 147.873 342.618 149.431 343.442 146.522C344.158 143.593 344.347 145.172 344.597 144.786C344.836 144.406 344.826 143.894 345.022 143.412C345.221 142.912 345.032 144.062 345.36 142.838C345.691 141.646 346.18 138.172 346.113 137.751C346.001 136.783 345.432 138.195 346.136 134.996C346.176 134.807 346.223 135.454 346.37 134.726C347.508 129.053 348.298 123.073 349.029 117.301C349.131 116.492 349.223 117.236 349.284 116.763C349.883 112.019 349.424 113.629 349.359 111.01C349.718 111.665 350.129 110.135 350.427 106.546C350.609 104.313 350.397 104.691 350.379 103.275C350.374 102.854 350.613 101.296 350.55 100.998C350.431 100.436 350.242 100.695 350.183 100.264C350.139 99.95 350.162 99.2943 350.328 97.7043C350.345 97.5384 350.456 98.0781 350.506 97.5045C350.824 93.8127 350.578 93.3449 350.806 89.3517C350.985 86.2228 351.473 80.6472 351.549 77.0846C351.983 77.1709 351.914 73.7693 351.543 72.4368C351.414 70.3741 351.373 67.8162 350.2 66.3889C350.102 66.294 349.999 66.2298 349.886 66.1963C349.632 66.1363 349.557 66.1537 349.57 66.1103C349.579 66.0749 349.664 66.0349 349.622 66.032C348.358 66.1428 347.818 67.2208 347.485 67.5805C347.442 67.6345 347.401 67.6834 347.363 67.7246C344.033 71.7483 342.131 75.7755 339.903 80.2703C339.856 80.3711 339.808 80.4722 339.761 80.5735C339.683 80.7405 339.777 81.132 338.974 82.2715C338.922 82.3455 339.596 80.7728 338.476 82.9307C337.35 85.0974 335.128 89.1197 333.682 92.1856C333.327 92.9378 332.557 94.8685 331.661 96.2714C331.542 96.4568 331.589 96.2115 331.41 96.4752C330.821 97.3539 330.789 97.9518 330.047 98.9452C329.308 99.9364 328.027 102.118 326.607 105.231C326.558 105.337 326.371 106.117 325.874 107.093C325.102 108.61 323.973 110.778 323.179 112.385C322.803 113.147 323.143 112.708 323.079 112.841C320.817 117.917 318.271 121.408 317.097 127.014C317.125 126.983 317.2 126.744 317.231 126.595C317.486 125.499 317.675 122.241 317.966 120.072C318.277 117.676 318.557 120.189 318.848 114.662C318.877 114.086 318.873 113.508 318.863 112.835C318.829 110.91 318.678 108.574 318.932 105.577C318.969 97.808 318.916 90.6109 318.697 82.8186C318.686 82.4675 318.548 81.3615 318.537 80.5374C318.52 79.3107 318.563 78.6431 318.552 77.7666C318.509 74.1073 318.424 70.7568 318.415 67.227C318.412 65.8848 318.46 66.3572 318.459 64.7564C318.461 63.1599 318.403 62.0975 318.45 59.9292C318.488 58.2934 318.62 56.6626 318.679 54.493C318.631 54.4537 318.613 54.1129 318.614 53.5015C318.615 52.7722 318.639 51.6697 318.661 50.2711C318.67 49.7617 318.621 50.3106 318.624 50.0666C318.633 49.0683 318.683 48.1618 318.687 47.2455C318.688 47.0214 318.657 47.0164 318.657 46.8261C318.653 45.2214 318.777 42.6578 318.796 42.2028C318.871 40.5303 318.849 39.68 318.887 38.399C318.922 37.0999 318.911 39.0587 318.943 37.5179C319.008 34.3626 319.04 30.2836 319.049 27.069C319.053 25.7866 319.026 26.6615 319.026 26.4778C319.03 23.8269 319.039 21.135 318.992 19.6877C319.068 17.8147 318.98 18.0969 318.942 14.2872C318.938 13.9881 318.963 13.5942 318.99 14.7649C319.016 15.8792 319.03 17.6635 319.054 19.2303C319.06 19.6159 319.122 21.7868 319.127 22.0581C319.167 24.3897 319.083 24.6772 319.079 24.8101C319.03 26.2085 319.08 28.8251 319.083 29.5261C319.091 32.7029 319.05 35.39 319.035 38.0698C319.025 39.7736 319.108 39.9825 319.088 41.3359C319.02 45.8769 318.84 47.4411 318.873 51.72C318.879 52.4557 318.971 52.0136 318.922 53.5102C318.909 53.8764 318.888 54.3627 318.857 55.0223C318.846 55.2326 318.715 57.6603 318.768 59.0714C318.774 59.2486 318.814 59.2448 318.816 59.4771C318.831 61.0356 318.799 62.0796 318.821 63.7827C318.845 65.485 318.89 67.5307 318.903 69.4751C318.91 70.6453 318.847 72.1503 318.835 72.7111C318.797 74.2954 318.934 75.9916 318.874 76.9743C318.812 77.9647 318.657 76.0314 318.649 78.6282C318.783 78.7221 318.923 78.9406 319.06 79.0927C319.181 84.7799 319.28 90.367 319.371 96.0846C319.382 96.7935 319.457 96.0691 319.471 96.8263C319.529 100.02 319.489 102.832 319.473 106.156C319.461 108.291 319.474 110.612 319.369 112.871C319.347 113.353 319.324 113.799 319.298 114.264C318.98 115.895 318.774 119.875 318.477 122.765C318.371 123.78 318.317 123.708 318.218 124.428C317.803 127.153 318.154 125.896 318.06 126.682C318.041 126.796 318.021 126.907 317.988 127.039C317.971 127.105 317.955 127.167 317.917 127.268C317.898 127.311 317.88 127.369 317.801 127.488C317.746 127.551 317.734 127.636 317.446 127.791C317.355 127.852 316.984 127.914 316.774 127.807C316.568 127.719 316.476 127.608 316.412 127.526C316.218 127.274 316.186 126.978 316.177 126.875C316.165 126.74 316.169 126.613 316.179 126.494C316.194 126.319 316.232 126.121 316.267 125.971C316.334 125.688 316.427 125.407 316.512 125.185C316.604 124.936 316.692 124.738 316.787 124.53C316.885 124.315 316.982 124.118 317.082 123.92C317.494 123.104 317.974 122.2 318.688 120.589C318.755 120.427 319.565 118.042 319.683 117.76C320.506 115.758 319.915 117.475 320.506 116.272C321.594 114.074 322.397 112.58 323.599 109.969C323.953 109.2 324.68 107.345 325.537 105.934C325.646 105.754 325.677 105.9 325.758 105.751C327.239 103.006 327.017 102.795 327.719 101.173C328.433 99.5256 329.851 97.1832 330.161 96.7091C330.968 95.4681 329.711 97.7451 329.693 97.8147C329.438 98.7221 330.312 96.9304 331.021 95.5713C331.388 95.5188 332.354 93.5884 331.756 94.1609C331.689 94.2284 331.171 95.3074 331.021 95.5713C331.365 94.242 332.397 92.1093 333.826 89.9349C334.504 88.8989 334.11 90.0178 335.744 86.6919C336.48 85.1928 335.996 85.6598 336.612 84.3165C337.256 82.9113 338.06 81.3497 338.899 79.7556C339.892 77.867 340.934 75.9859 341.828 74.3084C342.426 73.1909 341.718 74.2161 342.13 73.4421C343.239 71.4052 344.285 69.6755 345.777 67.7268C345.918 67.5525 345.455 67.8839 345.957 67.294C346.149 67.0731 346.347 66.8607 346.539 66.6616C347.009 66.1802 347.488 65.7043 348.154 65.2782C348.493 65.072 348.889 64.8543 349.464 64.785C350.038 64.6961 350.785 64.9706 351.162 65.3589C353.847 69.6283 352.806 73.0816 353.005 77.2052C352.979 79.9714 352.834 84.887 352.654 87.7208C352.408 91.7323 351.94 96.4644 351.646 100.368C351.578 101.278 351.519 102.127 351.473 102.902C351.309 105.601 351.506 105.042 351.523 106.233C351.562 108.496 350.827 112.513 350.717 112.998C350.714 113.02 350.888 110.695 350.693 111.927C350.456 112.631 350.719 112.97 350.717 112.998C350.648 113.395 350.145 118.058 350.064 119.006C350.026 119.509 350.211 119.246 350.188 119.507C349.627 125.804 348.824 132.12 347.511 138.428C347.486 138.537 347.341 138.338 347.284 138.592C346.467 142.226 346.127 144.615 345.37 147.652C344.612 150.667 343.571 153.071 342.391 154.57C342.306 154.739 342.222 154.9 342.149 155.048C342.119 155.108 342.083 155.188 342.076 155.207C342.061 155.231 342.099 155.217 342.104 154.972C342.103 154.852 342.069 154.571 341.837 154.299C341.6 154.008 341.212 153.918 341.134 153.918C340.899 153.907 340.954 153.933 341 153.913C341.066 153.895 341.148 153.866 341.246 153.825C341.35 153.783 341.461 153.732 341.564 153.683C342.03 153.457 342.491 153.196 342.956 152.924C343.875 152.385 344.782 151.808 345.428 151.398C347.011 150.381 347.007 149.91 347.134 149.811C351.176 146.539 353.669 144.869 357.988 141.602C360.032 140.052 364.056 136.888 366.244 135.163C367.962 133.807 369.081 133.068 370.661 131.794C370.874 131.622 370.55 131.651 370.612 131.595C372.293 130.059 371.683 131.055 372.102 130.832C373.614 130.035 374.54 129.52 376.788 127.672C377.3 127.252 378.503 125.582 379.457 124.828C379.999 124.399 380.242 124.257 380.449 124.15C380.722 124.007 380.938 123.917 381.678 123.339C381.791 123.252 381.681 123.159 382.532 122.553C386.453 119.768 390.865 116.932 395.318 114.511C395.933 114.18 395.044 114.401 395.923 113.929C397.572 113.053 399.331 112.198 401.2 111.477C402.138 111.118 403.112 110.788 404.152 110.537C404.683 110.411 405.207 110.307 405.824 110.248C406.458 110.224 407.045 110.071 408.268 110.549C408.704 110.737 409.182 111.138 409.445 111.573C409.719 112.014 409.81 112.394 409.861 112.711C409.945 113.323 409.881 113.72 409.828 114.07C409.706 114.759 409.529 115.273 409.349 115.774C408.906 116.92 409.019 116.141 408.884 116.373C408.064 117.728 407.493 119.803 407.348 120.116C405.956 123.085 404.522 125.64 403.082 128.138C400.861 131.967 398.584 135.63 396.117 140.029C395.895 140.427 394.512 143.655 393.391 144.796C393.314 144.876 392.193 145.998 391.738 147.307C391.71 147.389 392.37 146.667 391.506 148.097C390.643 149.527 389.404 151.915 388.063 153.787C387.639 154.378 386.433 155.67 385.639 157.707C385.588 157.838 384.571 161.098 383.568 161.897C383.404 162.029 383.038 161.59 382.042 163.981C381.852 164.442 382.379 163.711 381.829 164.886C381.003 166.66 379.668 168.911 378.863 171.136C378.854 171.159 378.846 171.182 378.838 171.205C378.689 171.614 378.272 173.348 377.541 174.508C377.427 174.691 377.405 174.241 377.135 174.915C376.515 176.454 376.107 178.199 376.363 179.17C376.518 180.046 377.523 180.863 379.052 181.657C380.125 182.198 379.436 182.207 380.621 182.775C381.6 183.235 383.463 183.955 384.906 184.401C385.243 184.505 385.553 184.594 385.82 184.661C387.225 185.01 385.887 184.066 387.935 184.737C388.2 184.824 388.464 184.911 388.728 184.999C397.364 187.859 405.83 191.079 414.387 194.197C415.678 194.668 414.672 194.133 416.593 194.825C422.578 197.063 431.935 200.043 438.652 203.789C439.962 204.633 441.064 205.569 441.912 206.481C445.63 211.231 440.693 205.518 443.396 209.175C444.136 210.336 444.906 211.671 445.192 212.895C445.318 214.464 444.387 214.965 444.19 215.191C443.834 215.47 443.693 215.541 443.557 215.612C438.196 217.43 435.374 216.901 431.153 217.373C430.318 217.441 431.155 217.596 430.437 217.651C427.958 217.841 425.352 217.879 422.993 218.007C421.925 218.065 422.131 218.213 421.161 218.245C418.826 218.323 416.76 218.344 414.49 218.292C414.282 218.287 415.671 218.034 413.944 218.099C411.157 218.205 407.691 218.205 404.495 218.492C403.534 218.578 403.532 218.932 401.468 218.778C401.032 218.746 401.566 218.297 399.203 218.771C398.801 218.848 395.049 219.489 393.011 219.32C392.957 219.316 392.904 219.311 392.853 219.305C392.334 219.247 391.021 218.975 389.894 219.116C389.742 219.137 390.369 219.276 389.436 219.367C386.173 219.69 382.75 220.085 379.548 220.867C378.703 221.081 380.009 220.967 378.752 221.288C376.922 221.77 374.604 222.507 373.434 223.403C373.574 223.288 373.712 223.108 373.785 222.946C373.857 222.791 373.881 222.653 373.887 222.579C373.893 222.44 373.875 222.477 373.895 222.559C373.932 222.744 374.06 223.078 374.22 223.407C374.536 224.065 374.995 224.81 375.403 225.436C376.12 226.515 375.485 225.868 375.526 225.959C376.183 227.372 377.051 227.872 377.373 228.259C379.455 230.727 380.906 232.71 382.893 234.984C383.44 235.608 383.191 235.046 383.309 235.162C384.527 236.356 383.464 235.592 384.149 236.446C386.056 238.82 388.287 241.365 390.326 243.683C391.075 244.533 390.388 243.439 391.061 244.207C395.028 248.731 399.101 253.492 402.804 258.082C403.496 258.94 402.939 258.503 403.061 258.701C403.904 260.072 405.634 261.661 406.001 262.062C406.075 262.142 406.147 262.22 406.216 262.297C407.717 263.957 408.229 264.771 409.523 266.428C410.837 268.258 412.321 269.74 413.309 272.814C413.4 273.262 413.515 273.809 413.288 274.612C413.083 275.454 412.164 276.216 411.564 276.381C410.303 276.762 409.641 276.572 408.913 276.483C407.557 276.247 406.36 275.842 405.197 275.425C398.602 272.908 392.449 269.795 387.112 267.352C379.637 263.944 373.152 260.708 366.467 259.027C362.585 258.097 358.972 258.967 358.94 263.281C358.904 264 359.092 263.279 359.076 263.902C359.421 271.961 363.294 280.069 366.931 287.83C367.243 288.471 366.916 287.487 367.422 288.513C368.454 290.604 369.802 293.286 370.856 295.392C371.381 296.441 370.555 295.099 371.087 296.152C372.299 298.552 373.701 301.162 375.06 303.602C375.635 304.634 374.893 303.018 375.624 304.351C376.415 305.792 377.188 307.191 377.957 308.606C378.158 308.975 378.346 309.325 378.522 309.654C378.726 310.036 378.927 310.415 379.1 310.75C379.265 311.069 379.504 311.542 379.654 311.86C379.732 312.025 379.862 312.307 379.938 312.498C379.959 312.549 379.978 312.599 379.997 312.648C380.014 312.694 380.035 312.75 380.071 312.861C380.125 313.073 380.219 313.211 380.164 313.717C380.049 314.429 379.712 315.129 379.12 315.639C378.568 316.123 377.874 316.361 377.335 316.466C376.148 316.684 375.193 316.575 374.175 316.425C372.239 316.104 370.482 315.532 368.714 314.891C365.222 313.601 361.863 312.005 358.556 310.311C357.909 309.977 357.405 309.495 356.012 308.82C355.882 308.817 355.857 308.879 355.784 308.91C345.135 303.293 334.876 297.173 325.199 290.037C325.069 289.931 324.948 289.882 324.948 289.885C324.961 289.905 325.108 289.81 325.04 289.865C324.94 289.984 324.825 290.392 324.774 290.755C324.66 291.523 324.648 292.36 324.653 293.185C324.671 294.847 324.785 296.537 324.911 298.221C324.96 298.87 324.943 297.747 325.04 298.996C325.426 303.846 325.905 308.614 326.137 313.487L326.137 313.5C326.19 315.909 326.128 318.343 326.028 320.802C325.995 321.546 325.929 321.159 325.852 323.339C325.842 323.721 325.695 327.001 325.663 327.848C325.659 327.963 325.727 327.367 325.671 328.423C325.345 334.557 324.903 340.975 324.782 347.098C324.766 348.08 324.76 347.031 324.749 347.737C324.732 349.07 324.735 350.436 324.777 351.811C324.914 355.592 324.632 359.454 324.337 362.934C324.153 366.116 324.192 364.946 324.277 366.635C324.289 366.752 324.35 367.308 324.493 367.825C324.628 368.346 324.855 368.817 324.878 368.862C324.983 369.103 324.587 368.23 324.742 368.592C324.753 368.622 324.919 369.003 325.139 369.348C325.353 369.694 325.612 369.999 325.613 370C325.614 369.999 325.517 369.896 325.31 369.606C325.278 369.561 324.981 369.147 324.759 368.637C324.529 368.132 324.389 367.544 324.344 367.311C324.283 366.986 324.382 367.574 324.269 366.909C324.169 366.242 324.13 365.495 324.156 364.383C324.193 363.267 324.157 363.757 324.292 361.535ZM352.513 146.649C354.039 145.718 353.837 145.038 352.411 146.322C352.343 146.384 352.436 146.696 352.513 146.649ZM319.06 90.3466C318.984 92.6446 319.184 94.2201 319.249 92.5973C319.311 90.9684 319.082 89.6448 319.06 90.3466ZM318.589 66.4974C318.535 69.1866 318.837 69.6067 318.749 66.7289C318.744 66.5615 318.592 66.3403 318.589 66.4974ZM324.602 358.776C324.602 358.806 324.509 360.216 324.504 360.255C324.464 361.012 324.655 358.174 324.602 358.776ZM318.881 42.8217C318.839 43.6902 318.821 46.064 318.876 45.0341C318.919 44.2186 318.932 41.7672 318.881 42.8217ZM396.302 135.985C396.279 136.002 395.752 136.875 395.815 136.89C396.023 136.929 396.693 135.683 396.302 135.985ZM319.991 6.17642C319.436 5.85069 318.745 5.59301 318.568 5.00021C318.569 4.89516 318.566 4.87052 318.576 4.76897C318.625 4.76252 318.609 4.87416 318.623 4.94001C318.629 4.99841 318.636 5.07562 318.642 5.15575C318.647 5.21531 318.652 5.28097 318.657 5.35237C318.676 5.62887 318.692 5.90971 318.704 6.13866C318.731 6.65645 318.75 7.10552 318.764 7.48036C318.794 8.26777 318.807 8.81982 318.81 9.01346C318.809 9.43442 318.805 8.54569 318.658 5.6765C318.597 4.51482 318.794 8.20988 318.723 6.70903C318.706 6.32814 318.685 5.93032 318.662 5.56631C318.657 5.49248 318.649 5.37474 318.643 5.28972C318.637 5.20405 318.63 5.11967 318.621 5.02247C318.613 4.94476 318.607 4.84263 318.587 4.76283C318.581 4.78318 318.578 4.90009 318.578 5.00021C319.516 6.35977 321.216 6.60227 322.884 7.58796C323.38 7.73401 320.276 6.36382 319.982 6.17155C319.985 6.17317 319.988 6.1748 319.991 6.17642ZM353.808 146.664C353.836 146.654 354.961 145.811 354.987 145.779C355.467 145.15 353.199 146.853 353.808 146.664ZM382.276 185.526C382.323 185.557 383.354 185.933 384.265 186.251C384.927 186.484 385.504 186.682 385.549 186.689C386.353 186.778 385.457 186.356 384.367 185.956C383.113 185.499 381.606 185.055 382.276 185.526ZM351.562 77.0281C351.422 75.4857 351.394 73.6661 351.544 72.444C351.598 73.9531 351.597 75.4936 351.562 77.0281Z" fill="#FF7700"/>
</svg>
