<?xml version="1.0" encoding="UTF-8"?>
<svg id="Layer_1" xmlns="http://www.w3.org/2000/svg" version="1.1" viewBox="0 0 579.11 158.21">
  <!-- Generator: Adobe Illustrator 29.8.1, SVG Export Plug-In . SVG Version: 2.1.1 Build 2)  -->
  <defs>
    <style>
      .st0 {
        fill: none;
        stroke: #272626;
        stroke-miterlimit: 10;
        stroke-width: 4px;
      }
    </style>
  </defs>
  <path class="st0" d="M219.56,49.88c.36-2.01,38.28,8.72,64.4-11.89,11.83-9.34,16.66-21.83,18.83-20.81,4.9,2.31-31.86,60.87-11.79,87.38,8.58,11.33,26.09,14.88,38.54,13.69,14.62-1.4,27.61-9.86,26.75-12.88-1.36-4.79-35.86,10.41-49.54-3.96-12.18-12.8-2.67-43.63,10.8-60.96,5.76-7.41,15.41-16.42,18.92-14.35,1.88,1.11,1.8,5.28-1.98,20.81-7.66,31.48-14.37,43.42-9.91,47.56,3.21,2.98,11.42,1.23,16.84-2.97,19.96-15.49,4.1-66.02,5.94-66.39,2.46-.49,21.45,91.91,26.75,91.16,2.91-.41,3.1-29.13,1.98-49.54-.8-14.58-2.22-24.12,0-24.77,4.91-1.44,19.55,43.04,26.75,41.39,6.56-1.5-1.29-39.41,8.92-43.37,9.7-3.77,21.02,28.83,50.54,42.58,36.62,17.06,89.61-.31,91.15-15.83,1.87-18.77-69.49-54.38-96.11-31.71-11.46,9.76-11.26,27.44-10.9,58.46.2,17.45.52,44.96,14.86,51.52,5.58,2.55,13.45,2.01,14.86-.99,1.79-3.8-7.28-10.49-11.98-15.91-25.05-28.92,3.16-104.1,13.96-102.99,1.69.17,3.94,2.32,5.94,11.89-8.27,28.8-21.17,82.82-2.97,96.11,1.97,1.44,11.65,7.76,13.4,5.89,1.48-1.58-3.42-8.29-4.48-9.86-5.93-8.76-8.8-29.38,6.08-82.27,0,0,5.72-8.37,11.01,5.28,5.29,13.65,6.17,66.94,6.17,66.94,0,0,41.83,14.53,24.22-43.6-17.61-58.13-30.39-3.96-30.39-3.96-10.62,33.76-5.26,47,.88,52.84,12.7,12.08,41,5.95,41.47.8,1.66-17.93-330.99-69.45-329.94-75.3Z"/>
</svg>