<svg width="64" height="19" viewBox="0 0 64 19" fill="none" xmlns="http://www.w3.org/2000/svg">
<path d="M2.698 0.500061C3.11884 0.783958 3.51787 1.1047 3.89508 1.4623C4.26973 1.82263 4.62125 2.21435 4.94971 2.63747C5.27817 3.06058 5.59765 3.51644 5.90814 4.00507C6.21864 4.49371 6.50992 5.00828 6.78192 5.54877C7.0565 6.08927 7.29642 6.63386 7.50171 7.18254C7.707 7.73396 7.88017 8.26765 8.0213 8.78358C8.16244 9.29677 8.27025 9.79629 8.34467 10.2822C8.41908 10.7681 8.44345 11.2363 8.41779 11.6867C8.39213 12.1371 8.32799 12.552 8.22534 12.9315C8.1227 13.3082 8.00338 13.6412 7.86737 13.9306C7.73394 14.2172 7.54152 14.3619 7.29004 14.3646C7.04113 14.3646 6.85121 14.4246 6.72034 14.5448C6.5869 14.6649 6.43682 14.7413 6.27002 14.7741C6.10066 14.8041 5.9133 14.785 5.70801 14.7168C5.50272 14.6485 5.28972 14.5475 5.06903 14.4137C4.84835 14.28 4.62645 14.1353 4.4032 13.9797C4.18252 13.8268 3.96177 13.6617 3.74109 13.4843C3.52297 13.3095 3.31131 13.1171 3.10602 12.9069C2.9033 12.6967 2.70954 12.4865 2.52478 12.2763C2.34002 12.0661 2.16168 11.8641 1.98975 11.6703C1.82039 11.4765 1.66257 11.295 1.5163 11.1257C1.36747 10.9537 1.23401 10.7954 1.11597 10.6507C0.995363 10.5088 0.891448 10.3819 0.804201 10.2699C0.716954 10.1553 0.64514 10.0557 0.588686 9.97104C0.532232 9.88642 0.50269 9.80859 0.500124 9.73762C0.497558 9.66664 0.534775 9.59429 0.611757 9.52059C0.686174 9.44688 0.797763 9.37047 0.946596 9.29131C1.09543 9.21215 1.27378 9.14253 1.48163 9.08248C1.68948 9.02515 1.92941 8.96918 2.20142 8.91458C2.47599 8.86272 2.77372 8.80948 3.09448 8.75488C3.41525 8.70029 3.75903 8.64299 4.12598 8.58294C4.49036 8.52288 4.87398 8.46007 5.27686 8.39455C5.67717 8.32904 6.08649 8.2581 6.50476 8.18167C6.9256 8.10524 7.35027 8.01651 7.77881 7.91551C8.20991 7.8145 8.66413 7.69982 9.14142 7.57152C9.62128 7.44049 10.1281 7.31358 10.6619 7.19074C11.193 7.06517 11.7306 6.94643 12.2747 6.83451C12.8187 6.72259 13.3498 6.60247 13.8682 6.47417C14.384 6.34587 14.892 6.20938 15.3924 6.06471C15.8902 5.92276 16.365 5.7958 16.8167 5.68388C17.2657 5.57469 17.6236 5.52693 17.8905 5.54058C18.1548 5.55696 18.4345 5.53373 18.7296 5.47095C19.0273 5.40543 19.3147 5.35767 19.5919 5.32765C19.869 5.29762 20.132 5.29488 20.3809 5.31945C20.6298 5.34129 20.8441 5.38636 21.0237 5.4546C21.2033 5.52285 21.3342 5.61158 21.4163 5.72077C21.4984 5.82723 21.5446 5.9555 21.5549 6.10564C21.5651 6.25305 21.5651 6.42366 21.5549 6.61748C21.5446 6.81129 21.5216 7.02013 21.4857 7.24397C21.4497 7.47055 21.4061 7.69029 21.3547 7.90321C21.306 8.11886 21.2572 8.31406 21.2084 8.48877C21.1622 8.66348 21.1174 8.82588 21.0737 8.97601C21.0275 9.12615 20.9827 9.28039 20.939 9.43871C20.8954 9.59431 20.8634 9.75539 20.8428 9.92191C20.8223 10.0857 20.7992 10.229 20.7735 10.3518C20.7504 10.4747 20.7145 10.5661 20.6658 10.6262C20.6196 10.689 20.5721 10.734 20.5234 10.7613C20.4772 10.7913 20.4476 10.8118 20.4348 10.8227C20.4245 10.8364 20.4194 10.8473 20.4194 10.8555C20.4194 10.8609 20.4258 10.8555 20.4387 10.8391C20.4489 10.82 20.4656 10.7886 20.4886 10.7449C20.5143 10.6985 20.5426 10.6535 20.5734 10.6098C20.6067 10.5634 20.6465 10.5279 20.6927 10.5033C20.7389 10.4787 20.7889 10.4665 20.8428 10.4665C20.8967 10.4665 20.9455 10.476 20.9891 10.4951C21.0301 10.5115 21.0596 10.5279 21.0776 10.5443C21.0955 10.5606 21.0994 10.5797 21.0892 10.6016C21.0815 10.6207 21.0648 10.6534 21.0391 10.6999C21.0109 10.7463 20.9917 10.8022 20.9814 10.8677C20.9711 10.9333 20.9622 10.9851 20.9545 11.0233C20.9468 11.0616 20.9608 11.1339 20.9968 11.2404C21.0327 11.3468 21.0416 11.3605 21.0237 11.2813C21.0057 11.2049 20.9968 11.1244 20.9968 11.0397C20.9942 10.9551 20.9993 10.865 21.0121 10.7695C21.0275 10.6739 21.0507 10.562 21.0815 10.4337C21.1148 10.3027 21.1571 10.1553 21.2084 9.99148C21.2623 9.8277 21.3329 9.64892 21.4202 9.45511C21.5074 9.26129 21.6267 9.04424 21.7781 8.80402C21.9295 8.56107 22.1143 8.29357 22.3324 8.00148C22.5505 7.70666 22.7982 7.4132 23.0753 7.12111C23.355 6.82903 23.6707 6.54652 24.0222 6.27354C24.3712 6.00056 24.7599 5.73032 25.1885 5.4628C25.6144 5.19801 26.0687 4.93457 26.5511 4.67251C27.0335 4.41045 27.5313 4.16206 28.0446 3.9273C28.5603 3.69254 29.0902 3.47959 29.6342 3.28851C30.1782 3.09469 30.7261 2.93093 31.2778 2.79717C31.8295 2.66614 32.3748 2.57193 32.9137 2.51461C33.4526 2.45728 33.9902 2.44912 34.5265 2.49007C35.0628 2.52828 35.5966 2.61701 36.1278 2.75623C36.6589 2.89545 37.1708 3.07696 37.6635 3.3008C38.1588 3.52464 38.6322 3.78125 39.0839 4.0706C39.5355 4.35723 39.9627 4.67249 40.3656 5.01645C40.7685 5.35767 41.1342 5.73712 41.4627 6.15478C41.7885 6.5697 42.067 7.0174 42.2979 7.49784C42.5289 7.97555 42.7059 8.46143 42.8291 8.95552C42.9548 9.44961 43.0228 9.93964 43.0331 10.4255C43.0433 10.9142 43.0036 11.3959 42.9138 11.8709C42.8239 12.3486 42.6969 12.795 42.5327 13.2099C42.3685 13.6248 42.1671 13.9852 41.9284 14.2909C41.6898 14.5966 41.4113 14.8519 41.0931 15.0566C40.7775 15.2613 40.5068 15.6326 40.2809 16.1703C40.0551 16.7054 39.6946 17.0002 39.1993 17.0548C38.7041 17.1121 38.1921 17.0985 37.6635 17.0139C37.1375 16.9292 36.623 16.7845 36.12 16.5798C35.6145 16.3778 35.1411 16.1362 34.6997 15.8551C34.2609 15.5739 33.8593 15.2682 33.4949 14.9379C33.1306 14.6076 32.8072 14.2499 32.525 13.865C32.2427 13.4801 32.0028 13.0666 31.8052 12.6244C31.6102 12.1822 31.4536 11.7236 31.3356 11.2486C31.2175 10.7736 31.1457 10.2999 31.12 9.82769C31.0969 9.35543 31.1303 8.88867 31.2201 8.42734C31.3099 7.96874 31.4536 7.52515 31.6512 7.09657C31.8488 6.67073 32.0746 6.28717 32.3286 5.94595C32.5852 5.60199 32.8611 5.3099 33.1562 5.06968C33.4487 4.82946 33.772 4.61519 34.1262 4.42684C34.4803 4.23575 34.8665 4.05013 35.2848 3.86997C35.7031 3.6898 36.1368 3.52462 36.5858 3.37448C37.0349 3.22434 37.4839 3.10154 37.933 3.006C38.3821 2.91046 38.8427 2.82989 39.3148 2.76438C39.7844 2.69886 40.2681 2.64836 40.7659 2.61288C41.2612 2.57739 41.7552 2.56786 42.2479 2.58424C42.7406 2.60061 43.2243 2.63474 43.699 2.6866C44.1763 2.7412 44.6548 2.79443 45.1347 2.8463C45.612 2.9009 46.0726 2.9555 46.5165 3.0101C46.9605 3.06469 47.389 3.14384 47.8022 3.24757C48.2128 3.3513 48.6156 3.48916 49.0107 3.66114C49.4085 3.83311 49.7896 4.0201 50.154 4.2221C50.5209 4.42411 50.8686 4.63432 51.1971 4.8527C51.523 5.07381 51.8399 5.3113 52.1478 5.56517C52.4532 5.81904 52.7445 6.07833 53.0216 6.34312C53.2987 6.60518 53.7645 6.8454 54.4188 7.06378C55.0732 7.27943 55.512 7.59338 55.7352 8.00558C55.9559 8.4205 56.1753 8.82587 56.3934 9.22168C56.609 9.6175 56.8168 10.0024 57.017 10.3764C57.2146 10.7504 57.3955 11.1312 57.5598 11.5188C57.724 11.9037 57.8638 12.2981 57.9793 12.7022C58.0973 13.1062 58.1935 13.4965 58.2679 13.8732C58.3449 14.2527 58.4117 14.6089 58.4681 14.9419C58.5246 15.275 58.5695 15.5862 58.6028 15.8755C58.6362 16.1649 58.6464 16.4324 58.6336 16.6781C58.6208 16.9211 58.5784 17.1381 58.5066 17.3292C58.4347 17.5202 58.3359 17.6813 58.2102 17.8123C58.0845 17.9461 57.9472 18.0416 57.7984 18.099C57.6496 18.1563 57.4892 18.1795 57.3173 18.1685C57.1453 18.1576 56.9593 18.1057 56.7591 18.0129C56.5564 17.9174 56.3395 17.7823 56.1086 17.6076C55.8802 17.4329 55.6429 17.2172 55.3965 16.9606C55.1502 16.7013 54.9064 16.3997 54.6652 16.0557C54.4265 15.709 54.1955 15.3159 53.9723 14.8764C53.749 14.4342 53.5245 13.9824 53.2987 13.5211C53.0729 13.0598 52.8471 12.5998 52.6213 12.1412C52.3955 11.6826 52.1825 11.2117 51.9824 10.7285C51.7796 10.2454 51.5948 9.75534 51.428 9.25852C51.2587 8.7617 51.1163 8.27993 51.0008 7.81314C50.8828 7.34908 50.7878 6.90823 50.7159 6.49057C50.6467 6.07564 50.5903 5.68255 50.5466 5.3113C50.5056 4.94005 50.4863 4.58788 50.4889 4.25484C50.494 3.92181 50.535 3.62155 50.612 3.35404C50.689 3.08925 50.7955 2.87493 50.9315 2.71114C51.0701 2.54463 51.2459 2.42862 51.4589 2.36311C51.6744 2.29486 52.085 2.31124 52.6906 2.41224C53.2936 2.51324 53.7825 2.61835 54.1571 2.72754C54.5292 2.83673 54.9128 2.97459 55.308 3.1411C55.7006 3.31035 56.0983 3.49734 56.5012 3.70207C56.9015 3.90954 57.3095 4.13749 57.7252 4.3859C58.1384 4.63431 58.5605 4.90455 58.9916 5.19664C59.4201 5.48872 59.8512 5.79446 60.2849 6.11384C60.716 6.4305 61.1394 6.75123 61.5551 7.07608C61.9708 7.40092 62.6008 7.88274 63.445 8.52151" stroke="black" stroke-linecap="round" stroke-linejoin="round"/>
</svg>
