<svg width="114" height="19" viewBox="0 0 114 19" fill="none" xmlns="http://www.w3.org/2000/svg">
<path d="M0.5 2.34679C1.177 2.37136 1.89499 2.43824 2.65199 2.54743C3.40899 2.65662 4.184 2.81085 4.976 3.01013C5.767 3.2094 6.54401 3.45645 7.30901 3.75126C8.07401 4.04608 8.831 4.3873 9.58 4.77493C10.0668 5.02864 10.5464 5.29504 11.0183 5.57412M11.0183 5.57412C11.2725 5.72443 11.5244 5.87843 11.774 6.0361C12.487 6.48924 13.155 6.96421 13.776 7.46103C14.397 7.95785 14.955 8.48066 15.45 9.02926C15.943 9.57526 16.369 10.1363 16.728 10.7122C17.085 11.2855 17.362 11.841 17.559 12.3788C17.757 12.9193 17.874 13.4175 17.91 13.8733C17.946 14.3292 17.912 14.7318 17.81 15.0813C17.707 15.4334 17.538 15.7282 17.301 15.9657C17.065 16.2059 16.777 16.3793 16.435 16.4857C16.094 16.5922 15.727 16.6427 15.335 16.6372C14.942 16.6318 14.54 16.5922 14.13 16.5185C13.722 16.4448 13.314 16.337 12.906 16.195C12.5 16.0531 12.117 15.8702 11.755 15.6463C11.393 15.4225 11.062 15.1659 10.762 14.8765C10.461 14.5844 10.177 14.2801 9.907 13.9634C9.638 13.6495 9.536 13.0503 9.603 12.1658C9.672 11.2814 9.649 10.7095 9.534 10.4502C9.418 10.1909 9.33001 9.92606 9.26801 9.65576C9.20701 9.38276 9.169 9.11396 9.157 8.84916C9.144 8.58436 9.162 8.32496 9.211 8.07116C9.262 7.81454 9.35 7.56478 9.476 7.32183C9.599 7.07888 9.744 6.84956 9.911 6.6339C10.08 6.42098 10.251 6.23399 10.423 6.07294C10.592 5.91188 10.753 5.77405 10.904 5.65939C10.9419 5.6308 10.98 5.60237 11.0183 5.57412ZM11.0183 5.57412C11.1336 5.48908 11.2507 5.40559 11.37 5.32363C11.526 5.21717 11.703 5.09977 11.901 4.97147C12.099 4.8459 12.304 4.72444 12.517 4.60706C12.73 4.49241 12.93 4.40505 13.117 4.345C13.307 4.28494 13.49 4.24671 13.664 4.23033C13.841 4.21395 14.026 4.21124 14.218 4.22216C14.413 4.23308 14.616 4.26036 14.826 4.30403C15.039 4.34771 15.258 4.4105 15.481 4.4924C15.707 4.57429 15.953 4.67392 16.22 4.7913C16.487 4.90595 16.795 5.04792 17.144 5.21716L18.264 5.77403C18.664 5.97604 19.08 6.18488 19.511 6.40053C19.942 6.61618 20.395 6.84548 20.87 7.08843C21.342 7.33138 21.834 7.60299 22.348 7.90327C22.6399 8.07517 22.9296 8.25422 23.2169 8.44041M23.2169 8.44041C23.4316 8.57948 23.6449 8.72253 23.857 8.86956C24.354 9.21626 24.835 9.57666 25.3 9.95056C25.767 10.3246 26.212 10.7054 26.636 11.093C27.062 11.4779 27.462 11.8601 27.836 12.2396C28.211 12.6163 28.564 12.9766 28.895 13.3205C29.223 13.6645 29.529 13.9839 29.811 14.2787C30.091 14.5763 30.333 14.8492 30.539 15.0976C30.744 15.3461 30.921 15.5481 31.07 15.7037C31.221 15.8592 31.298 15.9834 31.301 16.0763C31.303 16.1691 31.256 16.2237 31.158 16.2401C31.063 16.2564 30.92 16.2305 30.727 16.1623C30.535 16.0913 30.301 15.9725 30.027 15.806C29.752 15.6368 29.447 15.4225 29.111 15.1632C28.777 14.9011 28.425 14.5995 28.056 14.2582C27.686 13.917 27.312 13.5458 26.932 13.1445C26.55 12.7459 26.169 12.3228 25.789 11.8751C25.409 11.4275 25.039 10.9716 24.68 10.5075C24.321 10.0434 23.981 9.57666 23.66 9.10706C23.5054 8.88359 23.3576 8.66137 23.2169 8.44041ZM23.2169 8.44041C23.0638 8.19982 22.9191 7.96073 22.783 7.7231C22.521 7.2645 22.309 6.82091 22.147 6.39233C21.988 5.96376 21.895 5.55974 21.866 5.1803C21.838 4.80359 21.881 4.45281 21.994 4.12797C22.106 3.80039 22.282 3.50559 22.521 3.24353C22.757 2.97874 23.048 2.76308 23.395 2.59656C23.738 2.43005 24.122 2.33042 24.546 2.29766C24.969 2.2649 25.415 2.29629 25.885 2.39183C26.355 2.48737 26.837 2.6266 27.332 2.80949C27.83 2.99239 28.329 3.20805 28.83 3.45646C29.327 3.70214 29.815 3.98057 30.292 4.29176C30.767 4.60023 31.217 4.93463 31.643 5.29496C32.072 5.65256 32.468 6.0238 32.833 6.4087C33.197 6.7936 33.537 7.15804 33.853 7.502C34.168 7.84595 34.466 8.14896 34.746 8.41096C35.023 8.67576 35.285 8.90646 35.531 9.10296C35.777 9.30226 36.008 9.48386 36.224 9.64756C36.442 9.81416 36.646 9.95746 36.836 10.0776C36.9481 10.1484 37.0543 10.2074 37.1546 10.2545M37.1546 10.2545C37.2243 10.2873 37.2911 10.3142 37.355 10.3355C37.509 10.3874 37.697 10.4843 37.917 10.6262C38.138 10.7655 38.307 10.801 38.425 10.7327C38.544 10.6617 38.669 10.5662 38.803 10.4461C38.939 10.3287 39.085 10.1949 39.241 10.0448C39.398 9.89466 39.578 9.75676 39.78 9.63116C39.983 9.50566 40.205 9.41556 40.446 9.36096C40.69 9.30636 40.943 9.27906 41.205 9.27906C41.466 9.27906 41.74 9.28726 42.024 9.30366C42.307 9.32006 42.597 9.35546 42.894 9.41006C43.192 9.46466 43.468 9.55616 43.722 9.68446C43.979 9.81276 44.192 9.96976 44.361 10.1554C44.533 10.341 44.661 10.5403 44.746 10.7532C44.83 10.9661 44.888 11.1749 44.919 11.3797C44.947 11.5817 44.952 11.7687 44.934 11.9406C44.916 12.1099 44.865 12.2737 44.78 12.432C44.696 12.5931 44.585 12.7473 44.449 12.8947C44.313 13.0449 44.163 13.18 43.999 13.3001C43.832 13.4229 43.65 13.5294 43.452 13.6195C43.255 13.7095 43.034 13.7805 42.79 13.8324C42.547 13.8842 42.28 13.8993 41.99 13.8774C41.7 13.8583 41.396 13.8119 41.078 13.7382C40.757 13.6618 40.428 13.5608 40.092 13.4352C39.759 13.3096 39.438 13.1431 39.13 12.9356C38.825 12.7255 38.547 12.4784 38.298 12.1945C38.05 11.9079 37.831 11.609 37.644 11.2978C37.459 10.9893 37.303 10.6604 37.175 10.311C37.1681 10.2922 37.1613 10.2734 37.1546 10.2545ZM37.1546 10.2545C37.0367 9.92151 36.9554 9.56763 36.909 9.19306C36.858 8.79726 36.863 8.39876 36.924 7.99744C36.988 7.59616 37.117 7.20035 37.309 6.81C37.502 6.42237 37.749 6.04702 38.052 5.68396C38.355 5.32363 38.768 4.99742 39.292 4.70533C39.818 4.41597 40.324 4.15255 40.812 3.91506C41.302 3.6803 41.833 3.46327 42.405 3.264C42.978 3.06745 43.578 2.90229 44.207 2.76853C44.833 2.6375 45.472 2.54061 46.124 2.47783C46.773 2.41231 47.429 2.37956 48.091 2.37956C48.753 2.37956 49.415 2.41776 50.077 2.4942C50.739 2.57063 51.383 2.69756 52.009 2.875C52.4457 2.99688 52.8639 3.13537 53.2633 3.29046M53.2633 3.29046C53.4364 3.35769 53.606 3.42803 53.772 3.50149C54.321 3.74444 54.836 3.99831 55.315 4.2631C55.798 4.52789 56.256 4.7995 56.69 5.07793C57.123 5.35637 57.518 5.64164 57.875 5.93373C58.232 6.22309 58.532 6.51244 58.776 6.8018C59.017 7.08843 59.204 7.37233 59.338 7.6535C59.471 7.93194 59.57 8.21036 59.634 8.48876C59.701 8.76446 59.747 9.04156 59.773 9.31996C59.801 9.59846 59.804 9.86596 59.78 10.1226C59.757 10.3792 59.701 10.6222 59.611 10.8515C59.521 11.0808 59.412 11.2978 59.284 11.5025C59.153 11.7072 59.024 11.9147 58.895 12.1249C58.769 12.3378 58.646 12.5644 58.526 12.8046C58.408 13.0448 58.297 13.2946 58.195 13.5539C58.092 13.8133 58 14.0576 57.917 14.2869C57.835 14.5135 57.751 14.7209 57.663 14.9093C57.576 15.0949 57.475 15.271 57.359 15.4375C57.246 15.604 57.126 15.7555 56.998 15.892C56.869 16.0258 56.736 16.1268 56.597 16.195C56.459 16.266 56.307 16.2878 56.143 16.2605C55.979 16.236 55.806 16.165 55.623 16.0476C55.441 15.9275 55.254 15.7705 55.061 15.5767C54.869 15.3829 54.668 15.0867 54.457 14.6882C54.247 14.2896 54.008 13.9648 53.741 13.7136C53.474 13.4625 53.213 13.1704 52.956 12.8374C52.697 12.5043 52.456 12.129 52.232 11.7113C52.006 11.2937 51.819 10.8501 51.67 10.3806C51.522 9.91376 51.424 9.42786 51.378 8.92286C51.332 8.41506 51.339 7.89507 51.401 7.36277C51.465 6.82773 51.583 6.3036 51.755 5.7904C51.927 5.2772 52.153 4.79815 52.432 4.35319C52.6688 3.9742 52.9455 3.61995 53.2633 3.29046ZM53.2633 3.29046C53.3186 3.23312 53.3752 3.17653 53.433 3.12069C53.821 2.74125 54.267 2.40959 54.773 2.12569C55.276 1.84179 55.824 1.61794 56.416 1.45416C57.009 1.29037 57.634 1.17982 58.291 1.12249C58.945 1.06243 59.637 1.05014 60.366 1.08563C61.092 1.12111 61.849 1.2071 62.637 1.34359C63.424 1.48008 64.224 1.6657 65.035 1.90046C65.845 2.13522 66.655 2.41776 67.463 2.74806C68.272 3.07837 69.072 3.451 69.865 3.86593C70.658 4.28085 71.418 4.72989 72.144 5.21306C72.87 5.69624 73.548 6.21352 74.176 6.76494C74.2497 6.83016 74.3226 6.89573 74.3948 6.96165M74.3948 6.96165C74.9364 7.45597 75.4373 7.97048 75.897 8.50516C76.418 9.11396 76.872 9.72126 77.259 10.3273C77.644 10.9361 77.939 11.5148 78.145 12.0635C78.347 12.6122 78.463 13.1144 78.491 13.5703C78.517 14.0262 78.464 14.4316 78.333 14.7864C78.202 15.1386 78.007 15.4266 77.748 15.6504C77.492 15.877 77.181 16.0367 76.817 16.1295C76.455 16.2223 76.051 16.2592 75.604 16.2401C75.16 16.2237 74.692 16.1582 74.199 16.0435C73.704 15.9289 73.195 15.7705 72.671 15.5685C72.148 15.3638 71.569 15.0267 70.935 14.5571C70.304 14.0876 69.816 13.7041 69.473 13.4065C69.126 13.1117 68.808 12.8046 68.518 12.4852C68.228 12.1686 67.975 11.8465 67.76 11.5189C67.547 11.1941 67.372 10.8706 67.236 10.5484C67.103 10.2263 67.01 9.91786 66.959 9.62306C66.91 9.32826 66.907 9.06206 66.948 8.82456C66.989 8.58436 67.068 8.38236 67.186 8.21856C67.304 8.05205 67.448 7.91282 67.617 7.8009C67.787 7.68898 67.975 7.59343 68.183 7.51427C68.391 7.43783 68.609 7.37778 68.838 7.3341C69.068 7.2877 69.298 7.24812 69.526 7.21536C69.757 7.18534 69.988 7.15393 70.219 7.12117C70.448 7.08841 70.679 7.06659 70.912 7.05567C71.146 7.04475 71.384 7.04338 71.628 7.05157C71.872 7.05976 72.116 7.05976 72.359 7.05157C72.601 7.04338 72.838 7.02837 73.072 7.00653C73.302 6.98742 73.537 6.97513 73.776 6.96967C73.9826 6.96495 74.1884 6.96229 74.3948 6.96165ZM74.3948 6.96165C74.4272 6.96156 74.4596 6.9615 74.492 6.9615C74.733 6.9615 74.97 6.95057 75.204 6.92873C75.437 6.90416 75.674 6.87412 75.912 6.83864C76.148 6.80042 76.397 6.76904 76.659 6.74447C76.918 6.7199 77.199 6.6967 77.502 6.67486C77.802 6.65576 78.118 6.63527 78.449 6.61343C78.782 6.5916 79.121 6.58341 79.465 6.58887C79.809 6.59706 80.162 6.62436 80.523 6.67077C80.883 6.71717 81.255 6.77723 81.64 6.85093C82.022 6.92737 82.407 7.01336 82.794 7.1089C83.182 7.20444 83.564 7.31773 83.942 7.44876C84.321 7.57979 84.695 7.73129 85.062 7.90327C85.2842 8.00662 85.4777 8.12264 85.6428 8.25138M85.6428 8.25138C85.7481 8.33353 85.8418 8.42085 85.924 8.51336C86.134 8.75356 86.364 8.98696 86.613 9.21356C86.862 9.44016 87.086 9.66536 87.286 9.88916C87.484 10.1103 87.665 10.3314 87.829 10.5525C87.993 10.7709 88.132 10.9811 88.245 11.1831C88.358 11.3824 88.433 11.5598 88.472 11.7154C88.508 11.8738 88.508 12.0116 88.472 12.129C88.439 12.2464 88.385 12.3542 88.31 12.4525C88.238 12.5535 88.142 12.649 88.022 12.7391C87.898 12.8292 87.741 12.8974 87.548 12.9438C87.356 12.9903 87.131 13.0025 86.875 12.9807C86.621 12.9616 86.349 12.9179 86.059 12.8497C85.769 12.7842 85.47 12.7104 85.162 12.6285C84.851 12.5494 84.545 12.4593 84.242 12.3583C83.939 12.2573 83.655 12.1345 83.391 11.9898C83.127 11.8451 82.892 11.68 82.687 11.4943C82.479 11.3087 82.308 11.1258 82.175 10.9456C82.039 10.7655 81.937 10.6112 81.871 10.4829C81.801 10.3574 81.767 10.2468 81.767 10.1513C81.769 10.0557 81.804 9.95196 81.871 9.84006C81.94 9.72816 82.044 9.60936 82.182 9.48376C82.324 9.35826 82.502 9.23266 82.718 9.10706C82.933 8.98156 83.186 8.86826 83.476 8.76726C83.763 8.66626 84.072 8.58026 84.403 8.50926C84.734 8.43556 85.086 8.36186 85.458 8.28816C85.5193 8.27612 85.5809 8.26386 85.6428 8.25138ZM85.6428 8.25138C85.9598 8.18748 86.2853 8.11784 86.62 8.04247C87.021 7.94966 87.422 7.85277 87.825 7.75177C88.226 7.65349 88.619 7.55384 89.007 7.45284C89.392 7.35184 89.781 7.24812 90.173 7.14166C90.563 7.03793 90.955 6.93146 91.347 6.82227C91.74 6.71035 92.207 6.61754 92.748 6.54383C93.29 6.4674 93.763 6.38823 94.169 6.30633C94.2037 6.2996 94.2384 6.29283 94.2731 6.28601M94.2731 6.28601C94.6461 6.21274 95.0175 6.13489 95.389 6.05247C95.792 5.96511 96.186 5.87912 96.571 5.7945C96.958 5.70988 97.317 5.63892 97.648 5.58159C97.982 5.527 98.286 5.49014 98.561 5.47103C98.833 5.45465 99.081 5.45328 99.307 5.46693C99.533 5.47785 99.738 5.50105 99.923 5.53653C100.108 5.56929 100.282 5.61708 100.447 5.67986C100.608 5.74265 100.778 5.83683 100.955 5.9624C101.129 6.0907 101.313 6.26131 101.505 6.47423C101.695 6.68715 101.885 6.93557 102.075 7.21946C102.267 7.50063 102.449 7.80499 102.621 8.13256C102.793 8.45746 102.946 8.79726 103.079 9.15216C103.21 9.50696 103.321 9.88236 103.41 10.2782C103.5 10.6713 103.571 11.0794 103.622 11.5025C103.673 11.9256 103.702 12.3528 103.707 12.7841C103.712 13.2182 103.682 13.6522 103.618 14.0863C103.554 14.5203 103.458 14.9489 103.33 15.372C103.201 15.7951 103.041 16.1855 102.848 16.5431C102.656 16.9007 102.431 17.2037 102.175 17.4521C101.918 17.7005 101.639 17.8875 101.336 18.0131C101.033 18.1386 100.712 18.2014 100.373 18.2014C100.032 18.2014 99.675 18.1318 99.303 17.9926C98.929 17.8561 98.557 17.6459 98.187 17.362C97.818 17.0781 97.469 16.7246 97.14 16.3015C96.809 15.8756 96.503 15.3911 96.22 14.8479C95.935 14.3046 95.684 13.7287 95.466 13.1199C95.245 12.5084 95.066 11.8915 94.927 11.2691C94.791 10.6495 94.71 10.0298 94.684 9.41006C94.659 8.79046 94.554 8.17346 94.369 7.5593C94.2358 7.12171 94.2035 6.69728 94.2731 6.28601ZM94.2731 6.28601C94.3011 6.12003 94.3458 5.9562 94.407 5.7945C94.618 5.22944 94.888 4.70804 95.219 4.23033C95.548 3.75262 95.938 3.31177 96.39 2.90776C96.844 2.50102 97.363 2.13797 97.949 1.81859C98.536 1.49921 99.184 1.23713 99.892 1.03239C100.598 0.827664 101.345 0.682984 102.133 0.598364C102.918 0.513744 103.724 0.483724 104.55 0.508294C105.376 0.530134 106.214 0.609304 107.063 0.745794C107.91 0.882284 108.74 1.06516 109.554 1.29446C110.365 1.52376 111.142 1.79266 111.886 2.10112M113.31 13.0298C113.146 12.9643 113.003 12.8974 112.879 12.8292C112.756 12.7582 112.664 12.6968 112.602 12.6449C112.541 12.5958 112.483 12.5958 112.429 12.6449C112.378 12.6941 112.371 12.6941 112.41 12.6449C112.448 12.5985 112.496 12.5467 112.552 12.4893C112.609 12.432 112.665 12.372 112.721 12.3092C112.775 12.2464 112.828 12.17 112.879 12.0799C112.931 11.9871 112.981 11.8833 113.029 11.7687C113.078 11.6513 113.128 11.5257 113.18 11.392C113.228 11.2609 113.284 11.1217 113.345 10.9743" stroke="black" stroke-linecap="round" stroke-linejoin="round"/>
</svg>
