<svg width="333" height="22" viewBox="0 0 333 22" fill="none" xmlns="http://www.w3.org/2000/svg">
<path d="M0.5 11.1012C1.01835 11.1203 1.49565 11.1421 1.93188 11.1667C2.37069 11.1885 2.77611 11.2076 3.14819 11.224C3.52028 11.2404 3.85133 11.2431 4.1413 11.2322C4.43383 11.2186 4.66733 11.1899 4.84183 11.1462C5.01376 11.0998 5.12924 11.0411 5.18826 10.9701C5.24728 10.8992 5.27935 10.8077 5.28448 10.6958C5.28705 10.5839 5.27423 10.4542 5.246 10.3068C5.21521 10.1621 5.16514 10.0011 5.09586 9.82364C5.02401 9.6462 4.93422 9.44829 4.82645 9.22991C4.72124 9.01152 4.60834 8.78086 4.48773 8.5379C4.36969 8.29222 4.24909 8.05337 4.12592 7.82134C4.00531 7.58931 3.89497 7.36956 3.79489 7.1621C3.69225 6.95464 3.61011 6.77036 3.54852 6.60931C3.48437 6.44552 3.4382 6.32269 3.40997 6.2408C3.38175 6.15891 3.37401 6.12068 3.38684 6.12614C3.39711 6.1316 3.42793 6.16572 3.47925 6.2285C3.53057 6.29129 3.60884 6.36498 3.71405 6.44961C3.82183 6.53423 3.92574 6.6639 4.02582 6.83861C4.1259 7.01058 4.2542 7.21395 4.41074 7.44871C4.56727 7.68347 4.73919 7.93736 4.92651 8.21034C5.11127 8.48331 5.29477 8.77267 5.47696 9.0784C5.65659 9.38414 5.81952 9.69261 5.96579 10.0038C6.11206 10.315 6.24676 10.6153 6.36993 10.9046C6.49567 11.194 6.62142 11.4574 6.74716 11.6949C6.8729 11.9324 6.99606 12.1303 7.11667 12.2886C7.23984 12.4469 7.35274 12.5848 7.45538 12.7022C7.56059 12.8168 7.653 12.9369 7.73254 13.0625C7.81466 13.1881 7.89162 13.3136 7.96347 13.4392C8.03789 13.5675 8.11744 13.6794 8.20212 13.775C8.28937 13.8705 8.39331 13.9538 8.51392 14.0248C8.63452 14.093 8.75896 14.1572 8.88727 14.2172C9.01814 14.2773 9.14776 14.3332 9.27606 14.3851C9.40693 14.4397 9.55062 14.4888 9.70715 14.5325C9.86368 14.5789 10.0471 14.6294 10.2576 14.684C10.4654 14.7386 10.6861 14.8123 10.9196 14.9051C11.1506 14.9979 11.3969 15.0976 11.6587 15.204C11.9204 15.3077 12.2091 15.4047 12.5247 15.4947C12.8403 15.5848 13.1688 15.6736 13.5101 15.7609C13.854 15.851 14.1734 15.9397 14.4685 16.0271C14.7636 16.1117 15.0318 16.1772 15.273 16.2236C15.5142 16.2673 15.7516 16.2796 15.9851 16.2605C16.216 16.2441 16.447 16.1895 16.6779 16.0967C16.9089 16.0039 17.1167 15.8687 17.3015 15.6913C17.4888 15.5111 17.6325 15.2955 17.7326 15.0443C17.8352 14.7932 17.8981 14.512 17.9212 14.2008C17.9469 13.8924 17.9481 13.5566 17.925 13.1935C17.902 12.8305 17.7903 12.4278 17.5902 11.9856C17.3926 11.5407 17.2284 11.0534 17.0975 10.5238C16.9666 9.99696 16.8216 9.46056 16.6625 8.91461C16.5034 8.36865 16.3392 7.82406 16.1698 7.28084C15.9979 6.73761 15.835 6.20666 15.681 5.688C15.5296 5.16662 15.4026 4.67527 15.2999 4.21393C15.1998 3.7526 15.128 3.32812 15.0844 2.9405C15.0433 2.55287 15.0176 2.20617 15.0074 1.90043C14.9971 1.59743 15.0138 1.34356 15.0574 1.13883C15.1036 0.931366 15.1857 0.773049 15.3038 0.663858C15.4218 0.557396 15.5655 0.502791 15.7349 0.500061C15.9017 0.500061 16.0941 0.560117 16.3123 0.680228C16.5304 0.800338 16.7883 0.990064 17.0859 1.24939C17.3836 1.50872 17.7159 1.83902 18.0829 2.2403C18.4498 2.64157 18.8373 3.10291 19.2453 3.6243C19.6533 4.14296 20.0639 4.71211 20.477 5.33177C20.8876 5.9487 21.2969 6.60521 21.7049 7.30131C22.1103 7.99467 22.5145 8.70716 22.9174 9.43874C23.3228 10.1703 23.718 10.906 24.1029 11.6457C24.4878 12.3855 24.8394 13.1076 25.1576 13.8118C25.4758 14.5161 25.7478 15.189 25.9736 15.8305C26.202 16.472 26.3919 17.063 26.5433 17.6035C26.6947 18.144 26.814 18.6244 26.9012 19.0448C26.9859 19.4625 27.0321 19.8146 27.0398 20.1013C27.0449 20.3879 27.0193 20.6049 26.9628 20.7523C26.9089 20.897 26.8397 20.9761 26.755 20.9898C26.6703 21.0034 26.5805 20.9598 26.4855 20.8588C26.3906 20.7578 26.2854 20.609 26.1699 20.4125C26.057 20.2132 25.9454 19.973 25.835 19.6918C25.7247 19.4133 25.6336 19.0953 25.5617 18.7377C25.4899 18.3801 25.4937 17.8546 25.5733 17.1613C25.6554 16.4706 25.7234 15.9274 25.7773 15.5316C25.8337 15.1358 25.8902 14.7345 25.9467 14.3278C26.0057 13.9238 26.0673 13.517 26.1314 13.1075C26.1956 12.6981 26.2918 12.2968 26.4201 11.9037C26.5484 11.5106 26.7203 11.1326 26.9359 10.7695C27.154 10.4064 27.4004 10.0557 27.6749 9.71717C27.9469 9.38141 28.2189 9.06338 28.4909 8.76311C28.7629 8.46283 29.0208 8.18848 29.2646 7.94007C29.511 7.68893 29.738 7.44326 29.9459 7.20304C30.1563 6.96282 30.3526 6.71988 30.5348 6.4742C30.7196 6.22852 30.8889 5.98693 31.0429 5.74943C31.1969 5.51467 31.329 5.3072 31.4394 5.12704C31.5497 4.94687 31.6408 4.79946 31.7126 4.6848C31.7845 4.57015 31.8563 4.48145 31.9282 4.41867C31.9975 4.35588 32.0757 4.31902 32.163 4.3081C32.2477 4.29718 32.3272 4.31903 32.4016 4.37363C32.4735 4.4255 32.5248 4.50193 32.5556 4.60293C32.5864 4.70666 32.6031 4.8213 32.6057 4.94687C32.6108 5.07517 32.6262 5.21848 32.6519 5.37681C32.6775 5.5324 32.7237 5.70167 32.7904 5.88457C32.8571 6.06746 32.9444 6.26264 33.0522 6.4701C33.1599 6.67483 33.2844 6.90003 33.4255 7.14571C33.5692 7.38866 33.7309 7.648 33.9105 7.9237C34.0901 8.19941 34.2877 8.49014 34.5033 8.79587C34.7188 9.10161 34.9536 9.40323 35.2077 9.70078C35.4617 10.0011 35.744 10.2986 36.0545 10.5934C36.365 10.8855 36.7011 11.1831 37.063 11.4861C37.4273 11.7918 37.8097 12.1044 38.21 12.4237C38.6103 12.7431 39.0209 13.0598 39.4417 13.3737C39.8651 13.6849 40.2565 13.7559 40.6157 13.5866C40.9724 13.4147 41.3547 13.4611 41.7628 13.7258C42.1708 13.9906 42.5518 14.2404 42.9059 14.4752C43.2601 14.7127 43.5795 14.9229 43.8644 15.1058C44.1492 15.2914 44.4084 15.4429 44.6419 15.5603C44.8754 15.6776 45.0794 15.7623 45.2539 15.8141C45.4284 15.8633 45.5619 15.8837 45.6542 15.8756C45.7492 15.8646 45.8069 15.8237 45.8274 15.7527C45.848 15.679 45.8441 15.5685 45.8159 15.421C45.7877 15.2736 45.744 15.1044 45.685 14.9133C45.626 14.7222 45.5593 14.5298 45.4849 14.3359C45.413 14.1394 45.336 13.9442 45.2539 13.7504C45.1718 13.5566 45.0794 13.3546 44.9768 13.1444C44.8741 12.9342 44.7625 12.7254 44.6419 12.5179C44.5239 12.3105 44.4187 12.1235 44.3263 11.9569C44.2365 11.7904 44.1698 11.658 44.1261 11.5598C44.0825 11.4642 44.0556 11.396 44.0453 11.355C44.035 11.3168 44.035 11.295 44.0453 11.2895C44.0556 11.2813 44.0684 11.2936 44.0838 11.3264C44.0992 11.3591 44.121 11.4124 44.1492 11.4861C44.1774 11.5598 44.2082 11.6403 44.2416 11.7276C44.2724 11.815 44.3006 11.9051 44.3263 11.9979C44.352 12.0907 44.375 12.1835 44.3956 12.2763C44.4161 12.3719 44.4302 12.4538 44.4379 12.522C44.4482 12.5903 44.4597 12.6367 44.4726 12.6612C44.488 12.6858 44.5123 12.6926 44.5457 12.6817C44.5816 12.6708 44.6201 12.6435 44.6612 12.5998C44.7022 12.5561 44.7356 12.4893 44.7612 12.3992C44.7869 12.3091 44.8087 12.1985 44.8267 12.0675C44.8472 11.9365 44.8857 11.7836 44.9421 11.6089C44.9986 11.4342 45.0807 11.1885 45.1885 10.8719C45.2963 10.5525 45.4348 10.2413 45.6042 9.93828C45.771 9.63527 45.9609 9.32954 46.1739 9.02107C46.3843 8.70988 46.6165 8.41507 46.8705 8.13664C47.1272 7.85547 47.4005 7.60432 47.6904 7.3832C47.9804 7.16209 48.2973 6.98192 48.6411 6.8427C48.985 6.70349 49.3584 6.60657 49.7613 6.55197C50.1641 6.50011 50.5837 6.48921 51.0199 6.51923C51.4562 6.55199 51.9052 6.62432 52.3671 6.73624C52.8316 6.84543 53.305 6.99558 53.7874 7.18667C54.2699 7.37775 54.7498 7.60431 55.2271 7.86637C55.7069 8.12843 56.1855 8.42052 56.6628 8.74264C57.14 9.06202 57.6263 9.40325 58.1216 9.76631C58.6168 10.1294 59.1159 10.5115 59.6189 10.9128C60.1219 11.3168 60.5953 11.7372 61.0392 12.174C61.4831 12.6135 61.8706 13.0502 62.2017 13.4843C62.5353 13.9156 62.8175 14.3291 63.0485 14.7249C63.2794 15.118 63.4796 15.4893 63.649 15.8387C63.8183 16.1854 63.9415 16.4966 64.0185 16.7723C64.098 17.0453 64.1198 17.2732 64.0839 17.4561C64.0454 17.639 63.9556 17.7809 63.8145 17.882C63.6708 17.9857 63.4873 18.0471 63.264 18.0662C63.0408 18.0826 62.779 18.0471 62.4788 17.9597C62.1786 17.8697 61.8629 17.7332 61.5319 17.5503C61.1983 17.3674 60.8609 17.149 60.5196 16.8951C60.1783 16.644 59.8447 16.3751 59.5188 16.0885C59.1904 15.8046 58.8812 15.5152 58.5912 15.2204C58.2987 14.9283 58.033 14.6376 57.7944 14.3482C57.5558 14.0562 57.3312 13.7723 57.1208 13.4965C56.913 13.2208 56.7282 12.9424 56.5665 12.6612C56.4049 12.3773 56.1303 12.1589 55.7428 12.0061C55.3553 11.8532 55.1218 11.6089 55.0423 11.2731C54.9653 10.9401 54.9242 10.6139 54.9191 10.2945C54.9165 9.9724 54.9563 9.66666 55.0384 9.37731C55.118 9.08522 55.2501 8.80542 55.4349 8.5379C55.6196 8.27039 55.8544 8.01787 56.1393 7.78038C56.4216 7.54288 56.7436 7.31496 57.1054 7.09657C57.4672 6.87819 57.8547 6.66253 58.2679 6.44961C58.6784 6.23941 59.0993 6.0306 59.5304 5.82314C59.9615 5.6184 60.3952 5.42049 60.8314 5.2294C61.2702 5.03559 61.7051 4.85271 62.1362 4.68073C62.5673 4.50875 62.9972 4.34633 63.4257 4.19346C63.8542 4.0406 64.2892 3.90411 64.7306 3.784C65.1694 3.66662 65.6184 3.57652 66.0778 3.51373C66.5371 3.44822 66.9823 3.42365 67.4134 3.44003C67.8445 3.45641 68.2461 3.50828 68.6182 3.59563C68.9928 3.68299 69.3444 3.80173 69.6729 3.95187C70.0013 4.10201 70.3169 4.29036 70.6197 4.51693C70.9251 4.74078 71.2253 5.00012 71.5204 5.29493C71.8155 5.59248 72.1119 5.91048 72.4096 6.24897C72.7098 6.5902 73.0126 6.95598 73.318 7.34634C73.6259 7.73943 73.9326 8.15982 74.2379 8.60751C74.5407 9.05519 74.8371 9.53017 75.127 10.0324C75.4144 10.5347 75.6865 11.0534 75.9431 11.5884C76.1971 12.1235 76.4165 12.6476 76.6013 13.1608C76.7835 13.6767 76.9182 14.1735 77.0054 14.6512C77.0927 15.129 77.144 15.5835 77.1594 16.0148C77.1748 16.4461 77.1787 16.8392 77.171 17.194C77.1633 17.5489 77.1415 17.8601 77.1055 18.1276C77.067 18.3951 77.0067 18.6122 76.9246 18.7787C76.8399 18.9479 76.7167 18.7869 76.5551 18.2955C76.3909 17.8042 76.242 17.5489 76.1086 17.5298C75.9752 17.508 75.8122 17.4452 75.6198 17.3414C75.4273 17.2377 75.213 17.1026 74.977 16.9361C74.7383 16.7723 74.4855 16.5798 74.2187 16.3587C73.9492 16.1349 73.6721 15.8756 73.3873 15.5807C73.1024 15.2859 72.8163 14.9638 72.5289 14.6144C72.2441 14.265 71.9721 13.906 71.7129 13.5375C71.4537 13.1717 71.2163 12.8018 71.0008 12.4278C70.7827 12.0511 70.5928 11.6635 70.4311 11.2649C70.2669 10.8664 70.1424 10.4692 70.0577 10.0734C69.9705 9.67759 69.9269 9.30224 69.9269 8.94737C69.9243 8.5925 69.9641 8.26765 70.0462 7.97284C70.1283 7.67802 70.2643 7.41597 70.4542 7.18667C70.6415 6.95737 70.8828 6.7649 71.1779 6.60931C71.473 6.45644 71.8155 6.34317 72.2056 6.26947C72.593 6.19849 73.0229 6.16571 73.495 6.17117C73.9646 6.17663 74.4689 6.21212 75.0078 6.27764C75.5441 6.34315 76.0945 6.43733 76.659 6.56017C77.2236 6.68301 77.7907 6.82769 78.3604 6.99421C78.93 7.16345 79.492 7.34362 80.0463 7.53471C80.6005 7.72852 81.1394 7.92917 81.6629 8.13664C82.1838 8.34683 82.6842 8.55701 83.1641 8.76721C83.6465 8.98013 84.102 9.18212 84.5305 9.37321C84.9591 9.56702 85.3568 9.7513 85.7238 9.92601C86.0881 10.1034 86.4179 10.2672 86.713 10.4173C87.0081 10.5675 87.2647 10.6931 87.4828 10.7941C87.7035 10.8951 87.8908 10.966 88.0448 11.007C88.2013 11.0452 88.336 11.0629 88.4489 11.0602C88.5619 11.0548 88.6542 11.0329 88.7261 10.9947C88.7979 10.9538 88.9044 10.891 89.0456 10.8063C89.1867 10.7217 89.2739 10.6316 89.3073 10.5361C89.3381 10.4378 89.3663 10.3518 89.392 10.2781C89.4151 10.2017 89.4356 10.1362 89.4536 10.0816C89.4689 10.0297 89.4933 9.97787 89.5267 9.92601C89.5575 9.87687 89.6011 9.83182 89.6576 9.79087C89.7115 9.7472 89.773 9.72126 89.8423 9.71307C89.9142 9.70761 89.9912 9.72673 90.0733 9.77041C90.1528 9.81135 90.24 9.88097 90.335 9.97924C90.4299 10.0748 90.5249 10.2085 90.6198 10.3805C90.7122 10.5525 90.7905 10.76 90.8546 11.0029C90.9188 11.2486 90.9637 11.5147 90.9893 11.8013C91.0176 12.088 91.0369 12.3828 91.0471 12.6858C91.0548 12.9915 91.0509 13.2918 91.0356 13.5866C91.0202 13.8787 90.9958 14.1612 90.9624 14.4342C90.929 14.7045 90.8944 14.9652 90.8585 15.2163C90.8251 15.4647 90.7866 15.6954 90.743 15.9083C90.702 16.124 90.6327 16.3082 90.5352 16.4611C90.4402 16.6167 90.3132 16.7382 90.1541 16.8255C89.995 16.9156 89.8231 16.9634 89.6383 16.9688C89.4535 16.977 89.2624 16.9361 89.0648 16.846C88.8646 16.7586 88.6606 16.629 88.4528 16.457C88.2423 16.285 88.0435 16.0789 87.8562 15.8387C87.6688 15.5985 87.5174 15.3241 87.4019 15.0157C87.289 14.7072 87.2031 14.3878 87.1441 14.0575C87.0876 13.7272 87.0555 13.401 87.0479 13.0789C87.0402 12.7568 87.0671 12.4415 87.1287 12.133C87.1928 11.8245 87.2968 11.5229 87.4405 11.2281C87.5867 10.9333 87.7676 10.648 87.9832 10.3723C88.1987 10.0993 88.4579 9.84273 88.7607 9.60251C89.0635 9.36229 89.4228 9.14118 89.8385 8.93917C90.2542 8.73444 90.6904 8.54745 91.1472 8.37821C91.6039 8.20623 92.0812 8.052 92.579 7.91551C93.0743 7.77902 93.5798 7.65891 94.0956 7.55517C94.6088 7.45144 95.1349 7.36682 95.6737 7.30131C96.21 7.23579 96.7643 7.1894 97.3366 7.1621C97.9063 7.1348 98.4823 7.11706 99.0648 7.10887C99.6448 7.10068 100.206 7.09657 100.747 7.09657C101.288 7.09657 101.791 7.10339 102.256 7.11704C102.723 7.13342 103.156 7.14435 103.557 7.14981C103.96 7.15527 104.337 7.158 104.688 7.158C105.04 7.158 105.366 7.16756 105.666 7.18667C105.964 7.20305 106.228 7.24262 106.459 7.30541C106.687 7.36819 106.875 7.45007 107.021 7.55108C107.17 7.65208 107.284 7.76129 107.364 7.87867C107.443 7.99605 107.493 8.11342 107.514 8.2308C107.534 8.34819 107.519 8.47922 107.467 8.6239C107.416 8.76585 107.324 8.93372 107.19 9.12754C107.057 9.32135 106.904 9.53564 106.732 9.77041C106.563 10.0052 106.385 10.2713 106.197 10.5689C106.01 10.8637 105.821 11.1858 105.631 11.5352C105.444 11.8819 105.254 12.2422 105.062 12.6162C104.869 12.9875 104.668 13.3573 104.458 13.7258C104.247 14.0971 104.025 14.4588 103.792 14.8109C103.558 15.1658 103.335 15.4961 103.122 15.8018C102.909 16.1076 102.722 16.3792 102.56 16.6167C102.401 16.8542 102.26 17.048 102.136 17.1981C102.013 17.351 101.903 17.4465 101.805 17.4848C101.705 17.5257 101.622 17.5121 101.555 17.4438C101.489 17.3756 101.445 17.2582 101.424 17.0917C101.401 16.9279 101.323 16.8733 101.19 16.9279C101.056 16.9825 101.001 16.8009 101.024 16.3833C101.047 15.9656 101.091 15.5043 101.155 14.9993C101.222 14.4915 101.317 13.9511 101.44 13.3778C101.563 12.8046 101.707 12.2108 101.871 11.5966C102.038 10.9824 102.226 10.3655 102.437 9.74584C102.65 9.12618 102.89 8.52153 103.156 7.9319C103.426 7.345 103.716 6.79085 104.026 6.26947C104.339 5.74808 104.668 5.27037 105.012 4.83633C105.358 4.4023 105.728 4.01739 106.12 3.68163C106.513 3.34314 106.931 3.05649 107.375 2.82173C107.822 2.58424 108.286 2.39725 108.769 2.26077C109.254 2.12155 109.756 2.03693 110.277 2.0069C110.798 1.97414 111.338 1.99462 111.898 2.06833C112.455 2.14203 113.01 2.27033 113.565 2.45323C114.119 2.63885 114.654 2.87634 115.17 3.1657C115.683 3.45505 116.181 3.77853 116.663 4.13613C117.143 4.49646 117.615 4.87181 118.08 5.26217C118.544 5.65253 118.984 6.05789 119.4 6.47827C119.813 6.89866 120.19 7.31497 120.531 7.72717C120.873 8.14209 121.174 8.53382 121.436 8.90234C121.695 9.27086 121.916 9.61479 122.098 9.93418C122.28 10.2563 122.42 10.5689 122.518 10.8719C122.615 11.1721 122.664 11.4601 122.664 11.7358C122.664 12.0143 122.629 12.26 122.56 12.4729C122.488 12.6858 122.397 12.8619 122.287 13.0011C122.176 13.1376 122.047 13.2495 121.898 13.3368C121.749 13.4215 121.58 13.4993 121.39 13.5702C121.203 13.6412 121.002 13.704 120.789 13.7586C120.579 13.8105 120.358 13.8582 120.127 13.9019C119.894 13.9456 119.631 14.2186 119.338 14.7208C119.046 15.2259 118.735 15.5016 118.407 15.548C118.078 15.5944 117.749 15.6421 117.418 15.6913C117.089 15.7432 116.764 15.7978 116.444 15.8551C116.123 15.9097 115.85 15.952 115.624 15.982C115.398 16.012 115.235 16.0298 115.135 16.0352C115.035 16.038 114.98 16.0284 114.969 16.0066C114.962 15.9875 114.982 15.9493 115.031 15.8919C115.077 15.8373 115.158 15.7677 115.274 15.6831C115.389 15.6012 115.547 15.4975 115.747 15.3719C115.945 15.2436 116.186 15.0894 116.471 14.9092C116.758 14.729 117.08 14.5284 117.437 14.3073C117.796 14.0834 118.173 13.8514 118.568 13.6112C118.961 13.371 119.361 13.1253 119.769 12.8741C120.177 12.6257 120.594 12.3609 121.02 12.0798C121.444 11.7959 121.866 11.4997 122.287 11.1912C122.71 10.8855 123.121 10.577 123.518 10.2658C123.916 9.95192 124.302 9.64482 124.677 9.34454C125.052 9.04154 125.413 8.759 125.762 8.49694C126.111 8.23216 126.454 7.97829 126.79 7.73534C127.129 7.49512 127.469 7.26719 127.81 7.05154C128.149 6.83315 128.48 6.64754 128.803 6.49467C129.127 6.34453 129.426 6.23534 129.7 6.1671C129.977 6.10158 130.239 6.06881 130.485 6.06881C130.732 6.07154 130.952 6.10566 131.147 6.17117C131.342 6.23669 131.499 6.33223 131.617 6.4578C131.732 6.58337 131.826 6.72805 131.898 6.89184C131.97 7.05563 132.053 7.22487 132.148 7.39957C132.243 7.57428 132.351 7.75719 132.471 7.94827C132.592 8.14209 132.711 8.33726 132.829 8.53381C132.948 8.72762 133.004 8.91461 132.999 9.09477C132.991 9.27221 133.055 9.43463 133.191 9.58204C133.33 9.73218 133.45 9.87004 133.553 9.99561C133.658 10.1212 133.733 10.2331 133.776 10.3314C133.823 10.4296 133.85 10.5047 133.857 10.5566C133.867 10.6084 133.866 10.6276 133.853 10.6139C133.843 10.603 133.817 10.5675 133.776 10.5074C133.733 10.4501 133.672 10.386 133.595 10.315C133.518 10.244 133.443 10.1717 133.368 10.098C133.297 10.027 133.231 9.9492 133.172 9.86457C133.113 9.77722 133.057 9.68304 133.003 9.58204C132.949 9.48377 132.898 9.39096 132.849 9.30361C132.803 9.21625 132.768 9.1562 132.745 9.12344C132.722 9.09068 132.711 9.09205 132.714 9.12754C132.714 9.16303 132.737 9.22308 132.783 9.3077C132.827 9.39506 132.897 9.5138 132.995 9.66394C133.092 9.81681 133.211 10.0134 133.349 10.2536C133.488 10.4965 133.643 10.7736 133.815 11.0848C133.984 11.3987 134.164 11.7277 134.354 12.0716C134.544 12.4183 134.748 12.7691 134.966 13.1239C135.181 13.4788 135.417 13.835 135.674 14.1926C135.928 14.553 136.196 14.9078 136.478 15.2573C136.761 15.6067 137.038 15.9383 137.31 16.2523C137.579 16.5689 137.845 16.8569 138.107 17.1162C138.366 17.3728 138.63 17.598 138.9 17.7919C139.169 17.9829 139.449 18.1317 139.739 18.2382C140.029 18.3446 140.319 18.4033 140.609 18.4143C140.899 18.4224 141.171 18.3801 141.425 18.2873C141.681 18.1918 141.911 18.0444 142.114 17.8451C142.316 17.6458 142.486 17.396 142.622 17.0958C142.76 16.7927 142.913 16.3792 143.08 15.8551C143.247 15.331 143.367 14.8491 143.442 14.4097C143.516 13.9729 143.567 13.5266 143.595 13.0707C143.621 12.6148 143.631 12.1576 143.626 11.699C143.621 11.2376 143.605 10.764 143.576 10.2781C143.551 9.79497 143.516 9.30225 143.472 8.79997C143.426 8.29769 143.38 7.80631 143.334 7.32587C143.285 6.8427 143.257 6.3841 143.249 5.95007C143.241 5.51603 143.257 5.12157 143.295 4.7667C143.334 4.41183 143.406 4.1061 143.511 3.8495C143.613 3.5929 143.761 3.3909 143.953 3.2435C144.146 3.09609 144.374 3.00191 144.639 2.96096C144.9 2.92275 145.175 2.93639 145.462 3.0019C145.75 3.06741 146.046 3.18071 146.352 3.34176C146.654 3.50282 146.962 3.71438 147.275 3.97643C147.586 4.23849 147.895 4.53332 148.203 4.8609C148.511 5.18847 148.814 5.53651 149.111 5.90503C149.406 6.27355 149.693 6.67073 149.97 7.09657C150.249 7.52242 150.518 7.97283 150.774 8.44781C151.033 8.92006 151.268 9.38824 151.479 9.8523C151.689 10.3164 151.861 10.76 151.994 11.1831C152.125 11.6062 152.221 12.0061 152.283 12.3828C152.342 12.7595 152.382 13.1116 152.402 13.4392C152.425 13.7668 152.44 14.0643 152.445 14.3319C152.447 14.5994 152.449 14.8505 152.449 15.0853C152.449 15.3228 152.443 15.5562 152.433 15.7855C152.423 16.0175 152.407 16.2373 152.387 16.4447C152.369 16.6522 152.348 16.8296 152.325 16.977C152.302 17.1244 152.278 17.2322 152.252 17.3005C152.227 17.366 152.214 17.396 152.214 17.3906C152.214 17.3879 152.202 17.6608 152.179 18.2095C152.153 18.7582 152.179 18.9739 152.256 18.8565C152.333 18.7391 152.44 18.5767 152.576 18.3692C152.714 18.1645 152.877 17.9215 153.064 17.6404C153.252 17.3619 153.466 17.0657 153.707 16.7518C153.948 16.4379 154.223 16.1172 154.531 15.7896C154.839 15.4593 155.174 15.1208 155.536 14.7741C155.895 14.4274 156.254 14.0753 156.613 13.7176C156.97 13.3573 157.311 13.0025 157.637 12.653C157.963 12.3009 158.274 11.9638 158.569 11.6417C158.866 11.3196 159.143 11.0029 159.4 10.6917C159.654 10.3832 159.871 10.0693 160.051 9.74994C160.233 9.43055 160.373 9.11116 160.47 8.79177C160.565 8.46966 160.629 8.15163 160.663 7.83771C160.696 7.52651 160.707 7.20985 160.697 6.88774C160.69 6.5629 160.666 6.23534 160.628 5.90503C160.587 5.572 160.532 5.25261 160.462 4.94687C160.393 4.64113 160.305 4.36679 160.197 4.12384C160.089 3.88362 159.968 3.68025 159.835 3.51373C159.702 3.34449 159.594 3.20937 159.512 3.10837C159.43 3.00736 159.395 2.93775 159.408 2.89953C159.423 2.86405 159.473 2.86405 159.558 2.89953C159.643 2.93775 159.744 3.021 159.862 3.1493C159.977 3.28033 160.116 3.45505 160.278 3.67343C160.442 3.89454 160.61 4.15523 160.782 4.4555C160.954 4.75578 161.123 5.09292 161.29 5.4669C161.457 5.84088 161.627 6.24761 161.802 6.68711C161.979 7.1266 162.174 7.58657 162.387 8.06701C162.603 8.55018 162.833 9.032 163.08 9.51244C163.326 9.99561 163.576 10.4665 163.83 10.9251C164.082 11.3864 164.256 11.7672 164.354 12.0675C164.451 12.3678 164.639 12.7008 164.916 13.0666C165.19 13.4324 165.459 13.7559 165.72 14.037C165.98 14.3182 166.221 14.5557 166.444 14.7495C166.667 14.9433 166.879 15.1017 167.079 15.2245C167.282 15.3501 167.479 15.4388 167.672 15.4907C167.862 15.5398 168.04 15.548 168.207 15.5152C168.371 15.4825 168.523 15.4197 168.661 15.3269C168.8 15.2313 168.928 15.1167 169.046 14.9829C169.164 14.8492 169.283 14.7004 169.404 14.5366C169.525 14.3728 169.645 14.2063 169.766 14.037C169.886 13.8705 169.998 13.7054 170.101 13.5416C170.203 13.3778 170.3 13.2072 170.389 13.0297C170.477 12.8523 170.57 12.6804 170.67 12.5138C170.768 12.3446 170.882 12.189 171.013 12.047C171.144 11.9051 171.291 11.7836 171.456 11.6826C171.62 11.5816 171.798 11.5038 171.991 11.4492C172.18 11.3973 172.379 11.366 172.587 11.355C172.795 11.3414 172.997 11.3373 173.192 11.3427C173.387 11.3482 173.575 11.3782 173.757 11.4328C173.94 11.4902 174.12 11.5748 174.3 11.6867C174.48 11.7986 174.652 11.9215 174.816 12.0552C174.978 12.189 175.117 12.3186 175.235 12.4442C175.353 12.5698 175.437 12.6844 175.486 12.7882C175.537 12.8892 175.557 12.9779 175.547 13.0543C175.534 13.1307 175.495 13.1908 175.428 13.2345C175.364 13.2809 175.266 13.3 175.135 13.2918C175.002 13.2864 174.831 13.24 174.623 13.1526C174.413 13.068 174.177 12.9492 173.915 12.7963C173.651 12.6462 173.392 12.4647 173.138 12.2518C172.881 12.0361 172.551 11.7986 172.148 11.5393C171.743 11.28 171.431 10.9811 171.213 10.6426C170.995 10.3041 170.804 9.96968 170.64 9.63937C170.478 9.30907 170.357 8.98559 170.278 8.66894C170.201 8.35228 170.167 8.03699 170.178 7.72307C170.188 7.40642 170.235 7.09658 170.32 6.79357C170.405 6.49057 170.534 6.20666 170.709 5.94187C170.886 5.67708 171.13 5.43686 171.44 5.22121C171.753 5.00282 172.137 4.81857 172.591 4.66844C173.043 4.5183 173.556 4.41185 174.131 4.34906C174.708 4.28628 175.335 4.2658 176.013 4.28763C176.69 4.3122 177.408 4.37908 178.165 4.48827C178.922 4.59746 179.697 4.75169 180.489 4.95097C181.28 5.15024 182.057 5.39729 182.822 5.6921C183.587 5.98692 184.344 6.32814 185.093 6.71577C185.842 7.10613 186.574 7.52652 187.287 7.97694C188 8.43008 188.668 8.90505 189.289 9.40187C189.91 9.89869 190.468 10.4215 190.963 10.9701C191.456 11.5161 191.882 12.0771 192.241 12.653C192.598 13.2263 192.875 13.7818 193.072 14.3196C193.27 14.8601 193.387 15.3583 193.423 15.8141C193.459 16.27 193.425 16.6726 193.323 17.0221C193.22 17.3742 193.051 17.669 192.814 17.9065C192.578 18.1467 192.29 18.3201 191.948 18.4265C191.607 18.533 191.24 18.5835 190.848 18.578C190.455 18.5726 190.053 18.533 189.643 18.4593C189.235 18.3856 188.827 18.2778 188.419 18.1358C188.013 17.9939 187.63 17.811 187.268 17.5871C186.906 17.3633 186.575 17.1067 186.275 16.8173C185.974 16.5252 185.69 16.2209 185.42 15.9042C185.151 15.5903 185.049 14.9911 185.116 14.1066C185.185 13.2222 185.162 12.6503 185.047 12.391C184.931 12.1317 184.843 11.8669 184.781 11.5966C184.72 11.3236 184.682 11.0548 184.67 10.79C184.657 10.5252 184.675 10.2658 184.724 10.012C184.775 9.75538 184.863 9.50562 184.989 9.26267C185.112 9.01972 185.257 8.7904 185.424 8.57474C185.593 8.36182 185.764 8.17483 185.936 8.01378C186.105 7.85272 186.266 7.71489 186.417 7.60023C186.569 7.48558 186.724 7.37366 186.883 7.26447C187.039 7.15801 187.216 7.04061 187.414 6.91231C187.612 6.78674 187.817 6.66528 188.03 6.5479C188.243 6.43325 188.443 6.34589 188.63 6.28584C188.82 6.22578 189.003 6.18755 189.177 6.17117C189.354 6.15479 189.539 6.15208 189.731 6.163C189.926 6.17392 190.129 6.2012 190.339 6.24487C190.552 6.28855 190.771 6.35134 190.994 6.43324C191.22 6.51513 191.466 6.61476 191.733 6.73214C192 6.84679 192.308 6.98876 192.657 7.158C193.003 7.32998 193.376 7.5156 193.777 7.71487C194.177 7.91688 194.593 8.12572 195.024 8.34137C195.455 8.55702 195.908 8.78632 196.383 9.02927C196.855 9.27222 197.347 9.54383 197.861 9.84411C198.371 10.1444 198.874 10.4665 199.37 10.8104C199.867 11.1571 200.348 11.5175 200.813 11.8914C201.28 12.2654 201.725 12.6462 202.149 13.0338C202.575 13.4187 202.975 13.8009 203.349 14.1804C203.724 14.5571 204.077 14.9174 204.408 15.2613C204.736 15.6053 205.042 15.9247 205.324 16.2195C205.604 16.5171 205.846 16.79 206.052 17.0384C206.257 17.2869 206.434 17.4889 206.583 17.6445C206.734 17.8 206.811 17.9242 206.814 18.0171C206.816 18.1099 206.769 18.1645 206.671 18.1809C206.576 18.1972 206.433 18.1713 206.24 18.1031C206.048 18.0321 205.814 17.9133 205.54 17.7468C205.265 17.5776 204.96 17.3633 204.624 17.104C204.29 16.8419 203.938 16.5403 203.569 16.199C203.199 15.8578 202.825 15.4866 202.445 15.0853C202.063 14.6867 201.682 14.2636 201.302 13.8159C200.922 13.3683 200.552 12.9124 200.193 12.4483C199.834 11.9842 199.494 11.5175 199.173 11.0479C198.85 10.5811 198.557 10.1198 198.296 9.66394C198.034 9.20534 197.822 8.76175 197.66 8.33317C197.501 7.9046 197.408 7.50058 197.379 7.12114C197.351 6.74443 197.394 6.39365 197.507 6.06881C197.619 5.74123 197.795 5.44643 198.034 5.18437C198.27 4.91958 198.561 4.70392 198.908 4.5374C199.251 4.37089 199.635 4.27126 200.059 4.2385C200.482 4.20574 200.928 4.23713 201.398 4.33267C201.868 4.42821 202.35 4.56744 202.845 4.75033C203.343 4.93323 203.842 5.14889 204.343 5.3973C204.84 5.64298 205.328 5.92141 205.805 6.2326C206.28 6.54107 206.73 6.87547 207.156 7.2358C207.585 7.5934 207.981 7.96464 208.346 8.34954C208.71 8.73444 209.05 9.09888 209.366 9.44284C209.681 9.78679 209.979 10.0898 210.259 10.3518C210.536 10.6166 210.798 10.8473 211.044 11.0438C211.29 11.2431 211.521 11.4247 211.737 11.5884C211.955 11.755 212.159 11.8983 212.349 12.0184C212.539 12.1385 212.712 12.2245 212.868 12.2763C213.022 12.3282 213.21 12.4251 213.43 12.567C213.651 12.7063 213.82 12.7418 213.938 12.6735C214.057 12.6025 214.182 12.507 214.316 12.3869C214.452 12.2695 214.598 12.1357 214.754 11.9856C214.911 11.8355 215.091 11.6976 215.293 11.572C215.496 11.4465 215.718 11.3564 215.959 11.3018C216.203 11.2472 216.456 11.2199 216.718 11.2199C216.979 11.2199 217.253 11.2281 217.537 11.2445C217.82 11.2609 218.11 11.2963 218.407 11.3509C218.705 11.4055 218.981 11.497 219.235 11.6253C219.492 11.7536 219.705 11.9106 219.874 12.0962C220.046 12.2818 220.174 12.4811 220.259 12.694C220.343 12.9069 220.401 13.1157 220.432 13.3205C220.46 13.5225 220.465 13.7095 220.447 13.8814C220.429 14.0507 220.378 14.2145 220.293 14.3728C220.209 14.5339 220.098 14.6881 219.962 14.8355C219.826 14.9857 219.676 15.1208 219.512 15.2409C219.345 15.3637 219.163 15.4702 218.965 15.5603C218.768 15.6503 218.547 15.7213 218.303 15.7732C218.06 15.825 217.793 15.8401 217.503 15.8182C217.213 15.7991 216.909 15.7527 216.591 15.679C216.27 15.6026 215.941 15.5016 215.605 15.376C215.272 15.2504 214.951 15.0839 214.643 14.8764C214.338 14.6663 214.06 14.4192 213.811 14.1353C213.563 13.8487 213.344 13.5498 213.157 13.2386C212.972 12.9301 212.816 12.6012 212.688 12.2518C212.559 11.9024 212.471 11.5297 212.422 11.1339C212.371 10.7381 212.376 10.3396 212.437 9.93828C212.501 9.537 212.63 9.14119 212.822 8.75084C213.015 8.36321 213.262 7.98786 213.565 7.6248C213.868 7.26447 214.281 6.93826 214.805 6.64617C215.331 6.35681 215.837 6.09339 216.325 5.8559C216.815 5.62114 217.346 5.40411 217.918 5.20484C218.491 5.00829 219.091 4.84313 219.72 4.70937C220.346 4.57834 220.985 4.48145 221.637 4.41867C222.286 4.35315 222.942 4.3204 223.604 4.3204C224.266 4.3204 224.928 4.3586 225.59 4.43504C226.252 4.51147 226.896 4.6384 227.522 4.81584C228.148 4.99054 228.736 5.19938 229.285 5.44233C229.834 5.68528 230.349 5.93915 230.828 6.20394C231.311 6.46873 231.769 6.74034 232.203 7.01877C232.636 7.29721 233.031 7.58248 233.388 7.87457C233.745 8.16393 234.045 8.45328 234.289 8.74264C234.53 9.02927 234.717 9.31317 234.851 9.59434C234.984 9.87278 235.083 10.1512 235.147 10.4296C235.214 10.7053 235.26 10.9824 235.286 11.2608C235.314 11.5393 235.317 11.8068 235.293 12.0634C235.27 12.32 235.214 12.563 235.124 12.7923C235.034 13.0216 234.925 13.2386 234.797 13.4433C234.666 13.648 234.537 13.8555 234.408 14.0657C234.282 14.2786 234.159 14.5052 234.039 14.7454C233.921 14.9856 233.81 15.2354 233.708 15.4947C233.605 15.7541 233.513 15.9984 233.43 16.2277C233.348 16.4543 233.264 16.6617 233.176 16.8501C233.089 17.0357 232.988 17.2118 232.872 17.3783C232.759 17.5448 232.639 17.6963 232.511 17.8328C232.382 17.9666 232.249 18.0676 232.11 18.1358C231.972 18.2068 231.82 18.2286 231.656 18.2013C231.492 18.1768 231.319 18.1058 231.136 17.9884C230.954 17.8683 230.767 17.7113 230.574 17.5175C230.382 17.3237 230.181 17.0275 229.97 16.629C229.76 16.2304 229.521 15.9056 229.254 15.6544C228.987 15.4033 228.726 15.1112 228.469 14.7782C228.21 14.4451 227.969 14.0698 227.745 13.6521C227.519 13.2345 227.332 12.7909 227.183 12.3214C227.035 11.8546 226.937 11.3687 226.891 10.8637C226.845 10.3559 226.852 9.83591 226.914 9.30361C226.978 8.76857 227.096 8.24444 227.268 7.73124C227.44 7.21804 227.666 6.73899 227.945 6.29403C228.223 5.84908 228.556 5.43824 228.946 5.06153C229.334 4.68209 229.78 4.35043 230.286 4.06653C230.789 3.78263 231.337 3.55878 231.929 3.395C232.522 3.23121 233.147 3.12066 233.804 3.06333C234.458 3.00327 235.15 2.99098 235.879 3.02647C236.605 3.06195 237.362 3.14794 238.15 3.28443C238.937 3.42092 239.737 3.60654 240.548 3.8413C241.358 4.07606 242.168 4.3586 242.976 4.6889C243.785 5.01921 244.585 5.39184 245.378 5.80677C246.171 6.22169 246.931 6.67073 247.657 7.1539C248.383 7.63708 249.061 8.15436 249.689 8.70578C250.315 9.25992 250.889 9.84 251.41 10.446C251.931 11.0548 252.385 11.6621 252.772 12.2681C253.157 12.8769 253.452 13.4556 253.658 14.0043C253.86 14.553 253.976 15.0552 254.004 15.5111C254.03 15.967 253.977 16.3724 253.846 16.7272C253.715 17.0794 253.52 17.3674 253.261 17.5912C253.005 17.8178 252.694 17.9775 252.33 18.0703C251.968 18.1631 251.564 18.2 251.117 18.1809C250.673 18.1645 250.205 18.099 249.712 17.9843C249.217 17.8697 248.708 17.7113 248.184 17.5093C247.661 17.3046 247.082 16.9675 246.448 16.4979C245.817 16.0284 245.329 15.6449 244.986 15.3473C244.639 15.0525 244.321 14.7454 244.031 14.426C243.741 14.1094 243.488 13.7873 243.273 13.4597C243.06 13.1349 242.885 12.8114 242.749 12.4892C242.616 12.1671 242.523 11.8587 242.472 11.5639C242.423 11.2691 242.42 11.0029 242.461 10.7654C242.502 10.5252 242.581 10.3232 242.699 10.1594C242.817 9.99289 242.961 9.85366 243.13 9.74174C243.3 9.62982 243.488 9.53427 243.696 9.45511C243.904 9.37867 244.122 9.31862 244.351 9.27494C244.581 9.22854 244.811 9.18896 245.039 9.1562C245.27 9.12618 245.501 9.09477 245.732 9.06201C245.961 9.02925 246.192 9.00743 246.425 8.99651C246.659 8.98559 246.897 8.98422 247.141 8.99241C247.385 9.0006 247.629 9.0006 247.872 8.99241C248.114 8.98422 248.351 8.96921 248.585 8.94737C248.815 8.92826 249.05 8.91597 249.289 8.91051C249.528 8.90505 249.766 8.90234 250.005 8.90234C250.246 8.90234 250.483 8.89141 250.717 8.86957C250.95 8.845 251.187 8.81496 251.425 8.77948C251.661 8.74126 251.91 8.70988 252.172 8.68531C252.431 8.66074 252.712 8.63754 253.015 8.6157C253.315 8.5966 253.631 8.57611 253.962 8.55427C254.295 8.53244 254.634 8.52425 254.978 8.52971C255.322 8.5379 255.675 8.5652 256.036 8.61161C256.396 8.65801 256.768 8.71807 257.153 8.79177C257.535 8.86821 257.92 8.9542 258.307 9.04974C258.695 9.14528 259.077 9.25857 259.455 9.3896C259.834 9.52063 260.208 9.67213 260.575 9.84411C260.939 10.0134 261.226 10.2167 261.437 10.4542C261.647 10.6944 261.877 10.9278 262.126 11.1544C262.375 11.381 262.599 11.6062 262.799 11.83C262.997 12.0511 263.178 12.2722 263.342 12.4933C263.506 12.7117 263.645 12.9219 263.758 13.1239C263.871 13.3232 263.946 13.5006 263.985 13.6562C264.021 13.8146 264.021 13.9524 263.985 14.0698C263.952 14.1872 263.898 14.295 263.823 14.3933C263.751 14.4943 263.655 14.5898 263.535 14.6799C263.411 14.77 263.254 14.8382 263.061 14.8846C262.869 14.9311 262.644 14.9433 262.388 14.9215C262.134 14.9024 261.862 14.8587 261.572 14.7905C261.282 14.725 260.983 14.6512 260.675 14.5693C260.364 14.4902 260.058 14.4001 259.755 14.2991C259.452 14.1981 259.168 14.0753 258.904 13.9306C258.64 13.7859 258.405 13.6208 258.2 13.4351C257.992 13.2495 257.821 13.0666 257.688 12.8864C257.552 12.7063 257.45 12.552 257.384 12.4237C257.314 12.2982 257.28 12.1876 257.28 12.0921C257.282 11.9965 257.317 11.8928 257.384 11.7809C257.453 11.669 257.557 11.5502 257.695 11.4246C257.837 11.2991 258.015 11.1735 258.231 11.0479C258.446 10.9224 258.699 10.8091 258.989 10.7081C259.276 10.6071 259.585 10.5211 259.916 10.4501C260.247 10.3764 260.599 10.3027 260.971 10.229C261.346 10.1553 261.733 10.0734 262.133 9.98331C262.534 9.8905 262.935 9.79361 263.338 9.69261C263.739 9.59433 264.132 9.49468 264.52 9.39368C264.905 9.29268 265.294 9.18896 265.686 9.0825C266.076 8.97877 266.468 8.8723 266.86 8.76311C267.253 8.65119 267.72 8.55838 268.261 8.48467C268.803 8.40824 269.276 8.32907 269.682 8.24717C270.09 8.16801 270.496 8.08339 270.902 7.99331C271.305 7.90595 271.699 7.81996 272.084 7.73534C272.471 7.65072 272.83 7.57976 273.161 7.52243C273.495 7.46784 273.799 7.43098 274.074 7.41187C274.346 7.39549 274.594 7.39412 274.82 7.40777C275.046 7.41869 275.251 7.44189 275.436 7.47737C275.621 7.51013 275.795 7.55792 275.96 7.6207C276.121 7.68349 276.291 7.77767 276.468 7.90324C276.642 8.03154 276.826 8.20215 277.018 8.41507C277.208 8.62799 277.398 8.87641 277.588 9.1603C277.78 9.44147 277.962 9.74583 278.134 10.0734C278.306 10.3983 278.459 10.7381 278.592 11.093C278.723 11.4478 278.834 11.8232 278.923 12.219C279.013 12.6121 279.084 13.0202 279.135 13.4433C279.186 13.8664 279.215 14.2936 279.22 14.7249C279.225 15.159 279.195 15.593 279.131 16.0271C279.067 16.4611 278.971 16.8897 278.843 17.3128C278.714 17.7359 278.554 18.1263 278.361 18.4839C278.169 18.8415 277.944 19.1445 277.688 19.3929C277.431 19.6413 277.152 19.8283 276.849 19.9539C276.546 20.0794 276.225 20.1422 275.886 20.1422C275.545 20.1422 275.188 20.0726 274.816 19.9334C274.442 19.7969 274.07 19.5867 273.7 19.3028C273.331 19.0189 272.982 18.6654 272.653 18.2423C272.322 17.8164 272.016 17.3319 271.733 16.7887C271.448 16.2454 271.197 15.6695 270.979 15.0607C270.758 14.4492 270.579 13.8323 270.44 13.2099C270.304 12.5903 270.223 11.9706 270.197 11.3509C270.172 10.7313 270.067 10.1143 269.882 9.50014C269.695 8.88594 269.707 8.29768 269.92 7.73534C270.131 7.17028 270.401 6.64888 270.732 6.17117C271.061 5.69346 271.451 5.25261 271.903 4.8486C272.357 4.44186 272.876 4.07881 273.462 3.75943C274.049 3.44005 274.697 3.17797 275.405 2.97323C276.111 2.7685 276.858 2.62382 277.646 2.5392C278.431 2.45458 279.237 2.42456 280.063 2.44913C280.889 2.47097 281.727 2.55014 282.576 2.68663C283.423 2.82312 284.253 3.006 285.067 3.2353C285.878 3.4646 286.655 3.7335 287.399 4.04196C288.143 4.3477 288.854 4.68345 289.532 5.04924C290.209 5.4123 290.847 5.78493 291.445 6.1671C292.045 6.54927 292.593 6.9328 293.088 7.3177C293.584 7.70533 294.008 8.09976 294.362 8.50104C294.714 8.90232 294.987 9.29952 295.182 9.69261C295.377 10.0884 295.504 10.4624 295.563 10.8145C295.62 11.1667 295.624 11.5011 295.575 11.8177C295.526 12.1317 295.425 12.4224 295.271 12.6899C295.119 12.9574 294.938 13.1963 294.728 13.4065C294.518 13.6167 294.289 13.8091 294.043 13.9838C293.799 14.1585 293.537 14.3237 293.258 14.4793C292.978 14.6349 292.694 14.7659 292.407 14.8724C292.117 14.9815 291.835 15.0662 291.56 15.1262C291.286 15.1863 291.016 15.2272 290.752 15.2491C290.488 15.2709 290.237 15.2723 290.001 15.2532C289.765 15.2368 289.551 15.2013 289.358 15.1467C289.166 15.0948 288.988 15.0362 288.823 14.9706C288.659 14.9051 288.516 14.8382 288.392 14.77C288.269 14.699 288.177 14.6376 288.115 14.5857C288.054 14.5366 287.996 14.5366 287.942 14.5857C287.891 14.6349 287.884 14.6349 287.923 14.5857C287.961 14.5393 288.009 14.4875 288.065 14.4301C288.122 14.3728 288.178 14.3128 288.234 14.25C288.288 14.1872 288.341 14.1108 288.392 14.0207C288.444 13.9279 288.494 13.8241 288.542 13.7095C288.591 13.5921 288.641 13.4665 288.693 13.3328C288.741 13.2017 288.797 13.0625 288.858 12.9151C288.917 12.765 288.98 12.6135 289.047 12.4606C289.116 12.3077 289.187 12.1358 289.258 11.9447C289.333 11.7509 289.41 11.5393 289.489 11.31C289.569 11.0834 289.657 10.8555 289.755 10.6262C289.852 10.3969 289.973 10.1744 290.117 9.95874C290.258 9.74309 290.427 9.52609 290.625 9.3077C290.825 9.08932 291.06 8.87777 291.329 8.67304C291.599 8.46557 291.913 8.26766 292.272 8.0793C292.629 7.89095 293.024 7.71078 293.458 7.5388C293.894 7.36956 294.352 7.21806 294.832 7.0843C295.312 6.95327 295.817 6.85227 296.348 6.7813C296.882 6.7076 297.426 6.65844 297.981 6.63387C298.535 6.60657 299.081 6.60249 299.62 6.6216C300.159 6.63798 300.692 6.67347 301.218 6.72807C301.741 6.78266 302.271 6.8468 302.807 6.9205C303.344 6.99694 303.874 7.07611 304.397 7.158C304.921 7.24263 305.403 7.34226 305.844 7.45691C306.288 7.57429 306.664 7.70122 306.972 7.83771C307.283 7.97147 307.531 8.10796 307.719 8.24717C307.906 8.38639 308.047 8.53926 308.142 8.70578C308.237 8.86956 308.277 9.04428 308.262 9.22991C308.246 9.4128 308.177 9.58204 308.054 9.73764C307.931 9.89324 307.651 10.113 307.215 10.3969C306.776 10.6835 306.451 10.8609 306.241 10.9292C306.03 11.0002 305.812 11.0534 305.586 11.0889C305.363 11.1244 305.144 11.1544 304.928 11.179C304.715 11.2035 304.504 11.2254 304.293 11.2445C304.08 11.2636 303.875 11.2827 303.677 11.3018C303.48 11.3182 303.301 11.3428 303.142 11.3755C302.983 11.4083 302.852 11.4506 302.75 11.5024C302.644 11.5543 302.582 11.6089 302.561 11.6662C302.54 11.7236 302.552 11.7904 302.596 11.8669C302.642 11.9433 302.712 12.0375 302.807 12.1494C302.9 12.2613 303.02 12.3978 303.169 12.5589C303.318 12.7199 303.503 12.9069 303.723 13.1198C303.947 13.3328 304.192 13.5675 304.459 13.8241C304.728 14.0807 305.003 14.3428 305.282 14.6103C305.562 14.8751 305.842 15.1276 306.121 15.3678C306.404 15.6053 306.687 15.8278 306.972 16.0352C307.26 16.24 307.544 16.4283 307.827 16.6003C308.106 16.7723 308.374 16.9197 308.631 17.0425C308.888 17.1654 309.112 17.2405 309.305 17.2677C309.497 17.295 309.651 17.2609 309.767 17.1654C309.885 17.0726 309.978 16.9252 310.048 16.7232C310.117 16.5211 310.182 16.2741 310.244 15.982C310.305 15.6872 310.368 15.3528 310.432 14.9788C310.494 14.6048 310.569 14.1995 310.656 13.7627C310.743 13.3259 310.851 12.8578 310.979 12.3582C311.11 11.8587 311.256 11.3441 311.418 10.8145C311.582 10.2877 311.754 9.7786 311.934 9.28724C312.111 8.79315 312.311 8.31952 312.534 7.86637C312.755 7.41323 313.001 6.9792 313.273 6.56427C313.548 6.14934 313.777 5.63888 313.962 5.03287C314.149 4.42413 314.423 3.95734 314.782 3.6325C315.144 3.30765 315.525 3.01964 315.925 2.7685C316.323 2.51463 316.731 2.31674 317.149 2.17479C317.565 2.03284 317.974 1.94275 318.377 1.90453C318.783 1.86631 319.164 1.87176 319.52 1.9209C319.877 1.97004 320.207 2.07106 320.51 2.22393C320.815 2.37679 321.097 2.59654 321.356 2.88316C321.618 3.16979 321.852 3.50828 322.057 3.89863C322.26 4.29172 322.429 4.70801 322.565 5.1475C322.701 5.58973 322.793 6.04835 322.842 6.52333C322.893 6.99832 322.902 7.48693 322.869 7.98921C322.836 8.49149 322.773 8.99924 322.68 9.51244C322.588 10.0284 322.471 10.5416 322.33 11.052C322.189 11.5625 322.011 12.0607 321.795 12.5466C321.577 13.0298 321.337 13.4883 321.075 13.9224C320.814 14.3537 320.553 14.7523 320.294 15.118C320.032 15.4838 319.773 15.8114 319.516 16.1008C319.257 16.3901 319.005 16.6317 318.758 16.8255C318.509 17.0193 318.281 17.1681 318.073 17.2718C317.863 17.3783 317.691 17.4356 317.557 17.4438C317.424 17.4493 317.338 17.4179 317.299 17.3496C317.258 17.2787 317.269 17.1872 317.33 17.0753C317.389 16.9634 317.498 16.8405 317.657 16.7068C317.814 16.573 318.024 16.4202 318.289 16.2482C318.555 16.0789 318.871 15.8933 319.235 15.6913C319.602 15.4866 320.001 15.2777 320.433 15.0648C320.866 14.8519 321.314 14.639 321.776 14.426C322.24 14.2131 322.714 14.0084 323.196 13.8118C323.679 13.6153 324.155 13.4228 324.624 13.2345C325.094 13.0434 325.481 12.8865 325.787 12.7636C326.089 12.638 326.439 12.4579 326.834 12.2231C327.226 11.9883 327.61 11.7618 327.985 11.5434C328.357 11.3223 328.711 11.1039 329.047 10.8882C329.383 10.6726 329.682 10.4542 329.944 10.2331C330.205 10.0093 330.427 9.77449 330.61 9.52881C330.789 9.2804 330.941 9.03062 331.064 8.77948C331.19 8.52834 331.29 8.28677 331.364 8.05474C331.439 7.82271 331.523 7.47601 331.618 7.01467" stroke="black" stroke-linecap="round" stroke-linejoin="round"/>
</svg>
