<svg width="59" height="18" viewBox="0 0 59 18" fill="none" xmlns="http://www.w3.org/2000/svg">
<path d="M0.5 4.84866C1.17745 3.95329 1.6804 3.32816 2.00886 2.97329C2.33732 2.61842 2.66963 2.29765 3.00579 2.01103C3.34195 1.7244 3.68324 1.48146 4.02966 1.28219C4.37608 1.08291 4.7302 0.925942 5.09202 0.811291C5.45127 0.693911 5.80796 0.621584 6.16208 0.594287C6.5162 0.564259 6.86519 0.582005 7.20904 0.647519C7.5529 0.713034 7.90445 0.833146 8.26371 1.00785C8.62552 1.18529 8.98991 1.41048 9.35686 1.68346C9.72381 1.95644 10.0856 2.25809 10.4423 2.58839C10.799 2.91596 11.1364 3.26127 11.4546 3.62433C11.7703 3.98739 12.0692 4.36821 12.3515 4.76676C12.6312 5.16258 12.907 5.57613 13.1791 6.00743C13.4485 6.43601 13.7115 6.86596 13.9681 7.29726C14.2273 7.7313 14.4762 8.15032 14.7149 8.55433C14.9561 8.96107 15.1922 9.34049 15.4231 9.69263C15.6566 10.0448 15.8914 10.3642 16.1275 10.6508C16.361 10.9374 16.5958 11.1899 16.8319 11.4083C17.0654 11.6267 17.3015 11.8191 17.5401 11.9857C17.7788 12.1522 18.0072 12.2873 18.2253 12.391C18.446 12.4948 18.6538 12.5739 18.8488 12.6285C19.0439 12.6859 19.2363 12.7254 19.4262 12.7473C19.6135 12.7691 19.8111 12.7677 20.019 12.7432C20.2268 12.7213 20.4385 12.6695 20.6541 12.5876C20.8696 12.5084 21.0775 12.4156 21.2776 12.3091C21.4778 12.2027 21.669 12.0921 21.8512 11.9775C22.0308 11.8628 22.1963 11.7427 22.3477 11.6171C22.4965 11.4916 22.6159 11.366 22.7057 11.2404C22.7929 11.1121 22.8507 11.0016 22.8789 10.9088C22.9045 10.8132 22.9161 10.7204 22.9135 10.6303C22.911 10.5375 22.97 10.457 23.0906 10.3887C23.2086 10.3232 23.2137 10.2372 23.106 10.1308C23.0008 10.0243 22.8648 9.93013 22.698 9.84823C22.5337 9.76634 22.3438 9.69538 22.1283 9.63533C21.9153 9.57527 21.6959 9.51522 21.4701 9.45516C21.2443 9.39784 21.0313 9.33912 20.8311 9.27907C20.631 9.22174 20.4462 9.16853 20.2769 9.1194C20.1049 9.07026 19.9407 9.02795 19.7842 8.99246C19.6251 8.95698 19.4775 8.92285 19.3415 8.89009C19.2055 8.86007 19.0811 8.8314 18.9682 8.8041C18.8552 8.77953 18.7526 8.75633 18.6602 8.7345C18.5678 8.71539 18.4921 8.68263 18.4331 8.63623C18.3767 8.59255 18.3484 8.52294 18.3484 8.4274C18.3459 8.33185 18.3805 8.21037 18.4524 8.06296C18.5242 7.91283 18.6346 7.76541 18.7834 7.62073C18.9322 7.47878 19.1196 7.34366 19.3454 7.21536C19.5738 7.08979 19.8342 6.96423 20.1267 6.83866C20.4218 6.71582 20.7349 6.59571 21.0659 6.47833C21.3944 6.36095 21.7229 6.24357 22.0513 6.12619C22.3772 6.00608 22.7249 5.88597 23.0944 5.76586C23.4614 5.64575 23.8617 5.53656 24.2954 5.43829C24.729 5.34275 25.1755 5.25676 25.6349 5.18032C26.0942 5.10389 26.5394 5.03017 26.9705 4.9592C27.4016 4.88549 27.8199 4.82135 28.2253 4.76676C28.6308 4.71489 29.0324 4.68896 29.4301 4.68896C29.8278 4.69169 30.2166 4.72444 30.5964 4.78723C30.9787 4.84728 31.338 4.92645 31.6742 5.02472C32.0103 5.12027 32.3247 5.23353 32.6172 5.36456C32.9072 5.49559 33.183 5.64438 33.4448 5.81089C33.7039 5.97741 33.9451 6.15621 34.1684 6.3473C34.3916 6.54111 34.6123 6.74311 34.8304 6.9533C35.0486 7.16349 35.2231 7.40235 35.3539 7.66987C35.4848 7.94011 35.6169 8.19945 35.7504 8.44786C35.8813 8.69627 36.0108 8.9242 36.1391 9.13167C36.2649 9.33913 36.3701 9.53431 36.4548 9.7172C36.5369 9.90283 36.5998 10.0721 36.6434 10.225C36.6844 10.3806 36.7204 10.5157 36.7512 10.6303C36.7794 10.745 36.8063 10.846 36.832 10.9333C36.8577 11.0207 36.8897 11.1026 36.9282 11.179C36.9667 11.2527 37.0193 11.3101 37.086 11.351C37.1528 11.3892 37.2374 11.3987 37.3401 11.3796C37.4453 11.3578 37.5531 11.3196 37.6634 11.265C37.7763 11.2104 37.8815 11.1558 37.979 11.1012C38.0765 11.0439 38.1676 10.9784 38.2523 10.9047C38.337 10.831 38.4089 10.7463 38.4679 10.6508C38.5269 10.5525 38.5718 10.4502 38.6026 10.3437C38.6334 10.2372 38.6514 10.1308 38.6565 10.0243C38.6616 9.91784 38.6667 9.81413 38.6719 9.71313C38.677 9.61213 38.6719 9.52614 38.6565 9.45516C38.6437 9.38692 38.6077 9.31048 38.5487 9.22586C38.4923 9.14397 38.4063 9.04431 38.2908 8.92693C38.1779 8.80955 38.0445 8.69081 37.8905 8.5707C37.7391 8.45059 37.5774 8.34548 37.4055 8.2554C37.2336 8.16259 37.0591 8.06844 36.882 7.97289C36.7024 7.88008 36.5164 7.78998 36.3239 7.70263C36.1315 7.61801 35.9351 7.53884 35.735 7.46513C35.5374 7.39416 35.3475 7.3232 35.1653 7.25223C34.9857 7.17852 34.8227 7.09116 34.6765 6.99016C34.5302 6.88643 34.4058 6.77996 34.3031 6.67077C34.2005 6.55884 34.144 6.44695 34.1338 6.33502C34.1209 6.22583 34.2813 6.1603 34.6149 6.13846C34.9485 6.11663 35.1987 6.07979 35.3655 6.02792C35.5323 5.97606 35.7247 5.92419 35.9428 5.87232C36.161 5.82046 36.4253 5.76585 36.7358 5.70853C37.0463 5.65393 37.394 5.59388 37.7789 5.52836C38.1638 5.46285 38.568 5.39186 38.9914 5.31543C39.4148 5.23627 39.8587 5.15301 40.3232 5.06566C40.7876 4.97831 41.2906 4.89369 41.832 4.81179C42.3709 4.72717 42.9354 4.65074 43.5256 4.58249C44.1133 4.51152 44.6996 4.45009 45.2847 4.39823C45.8698 4.34636 46.4459 4.31361 47.013 4.29996C47.5801 4.28358 48.1459 4.2904 48.7104 4.32043C49.275 4.34773 49.8369 4.40641 50.3963 4.4965C50.9583 4.58658 51.5075 4.70943 52.0438 4.86503C52.5801 5.02062 53.0741 5.20624 53.5257 5.4219C53.9799 5.63755 54.3776 5.88596 54.7189 6.16713C55.0602 6.45103 55.354 6.7595 55.6004 7.09253C55.8442 7.42829 56.0494 7.77907 56.2162 8.14486C56.383 8.51065 56.5126 8.89145 56.605 9.28727C56.6948 9.68581 56.7449 10.0871 56.7551 10.4911C56.7628 10.8924 56.7256 11.2964 56.6435 11.7031C56.5639 12.1126 56.451 12.518 56.3048 12.9192C56.1611 13.3232 56.002 13.7095 55.8275 14.078C55.6556 14.4438 55.4746 14.7809 55.2847 15.0894C55.0974 15.3979 54.9024 15.6709 54.6997 15.9083C54.4944 16.1458 54.2878 16.3437 54.08 16.5021C53.8695 16.6631 53.663 16.7792 53.4603 16.8501C53.2575 16.9238 53.0612 16.9457 52.8713 16.9156C52.6814 16.8883 52.507 16.8119 52.3479 16.6863C52.1888 16.558 52.0348 16.4065 51.886 16.2318C51.7346 16.0544 51.5742 15.8101 51.4048 15.4989C51.238 15.1877 51.0866 14.8819 50.9506 14.5817C50.8172 14.2814 50.6979 13.9525 50.5927 13.5949C50.4874 13.24 50.3976 12.8769 50.3232 12.5057C50.2488 12.1344 50.1885 11.74 50.1423 11.3223C50.0987 10.9047 50.0692 10.4624 50.0538 9.99564C50.0409 9.53157 50.0435 9.06479 50.0615 8.59527C50.0794 8.12574 50.1115 7.66715 50.1577 7.21946C50.2039 6.77178 50.2526 6.32956 50.304 5.89279C50.3553 5.45876 50.431 5.0411 50.5311 4.63982C50.6311 4.24128 50.7607 3.86319 50.9198 3.50559C51.0815 3.15072 51.2598 2.81769 51.4549 2.50649C51.6499 2.19257 51.8577 1.9114 52.0784 1.66299C52.3017 1.41731 52.5531 1.20713 52.8329 1.03242C53.1151 0.860443 53.4154 0.728036 53.7335 0.635223C54.0492 0.542411 54.3699 0.497387 54.6958 0.500117C55.0217 0.502847 55.3566 0.549239 55.7005 0.639322C56.0443 0.726675 56.4113 0.842681 56.8013 0.987359C57.1888 1.13204 57.584 1.30402 57.9868 1.50329" stroke="black" stroke-linecap="round" stroke-linejoin="round"/>
</svg>
