<?xml version="1.0" encoding="UTF-8"?>
<svg id="Layer_1" xmlns="http://www.w3.org/2000/svg" version="1.1" viewBox="0 0 375.57 123.53">
  <!-- Generator: Adobe Illustrator 29.8.1, SVG Export Plug-In . SVG Version: 2.1.1 Build 2)  -->
  <defs>
    <style>
      .st0 {
        fill: none;
        stroke: #262626;
        stroke-miterlimit: 10;
        stroke-width: 4px;
      }
    </style>
  </defs>
  <path class="st0" d="M195.46,68.6c-3.7-1.37-7.06-3.38-9.25-6.83-.35-.55-3.8-6.14-1.65-10.01,2.07-3.74,8.26-3.91,11.89-3.96,31.37-.47,47.05-.7,52.67,6.62,6.04,7.87,5.8,20.11,3.02,21.29-1.61.68-4.84-1.84-10.51-10.28,0,0-12.33-19.38-11.45-24.66.88-5.28-4.84-73.54-6.17,2.2s2.2,61.65,2.2,61.65c0,0,6.61,17.17,18.94-63.85,0,0,2.64-38.78-1.76-38.77-4.4,0-12.77,83.68-22.02,90.73s-14.09,11.98-16.73-3.92,7.93-30.87,7.93-30.87c0,0,11.47-15.24,15.41-11.89,0,0,12.47.68,11.01,6.61-1.35,5.49-37.02,8.92-37.87,5.28-1.09-4.66,55.05-26.86,61.38-17.08,3.16,4.88-6.67,16.84-13.94,22.79,0,0-20.74,16.96-53.1,4.95Z"/>
</svg>