<svg width="58" height="20" viewBox="0 0 58 20" fill="none" xmlns="http://www.w3.org/2000/svg">
<path d="M0.500122 11.7444C0.79009 10.8873 0.926094 10.3004 0.908131 9.98372C0.890168 9.66706 0.926093 9.35314 1.01591 9.04195C1.10315 8.73348 1.23787 8.44276 1.42007 8.16978C1.59969 7.89407 1.79471 7.65385 2.00513 7.44911C2.21299 7.24165 2.42726 7.0683 2.64794 6.92908C2.86862 6.79259 3.10086 6.67796 3.34463 6.58514C3.58841 6.49233 3.83732 6.41453 4.09137 6.35175C4.34541 6.28623 4.59304 6.23026 4.83425 6.18385C5.07546 6.13471 5.32437 6.10878 5.58098 6.10605C5.83759 6.10332 6.10446 6.12791 6.3816 6.17978C6.65874 6.22891 6.92433 6.2876 7.17837 6.35584C7.43498 6.42409 7.66337 6.48549 7.86352 6.54008C8.06368 6.59468 8.23689 6.65339 8.38315 6.71618C8.52685 6.77896 8.67954 6.83628 8.8412 6.88815C9.0003 6.94274 9.18762 6.97823 9.40317 6.99461C9.61873 7.01099 9.84583 7.01781 10.0845 7.01508C10.3231 7.00962 10.5553 7.02326 10.7812 7.05602C11.0044 7.08604 11.2341 7.13383 11.4702 7.19935C11.7088 7.26486 11.9423 7.33174 12.1707 7.39998C12.3991 7.46822 12.6159 7.54329 12.8212 7.62518C13.0239 7.70708 13.2202 7.80536 13.4101 7.92001C13.6 8.03739 13.7886 8.16432 13.9759 8.30081C14.1607 8.4373 14.3403 8.57379 14.5148 8.71028C14.6893 8.84677 14.8779 8.9969 15.0807 9.16068C15.2834 9.32174 15.5066 9.49646 15.7504 9.68481C15.9942 9.87317 16.2469 10.0697 16.5087 10.2744C16.773 10.4819 17.0334 10.6921 17.2901 10.905C17.5467 11.1207 17.7892 11.339 18.0175 11.5602C18.2459 11.7813 18.4628 12.0065 18.668 12.2358C18.8733 12.4624 19.1684 12.8323 19.5533 13.3455C19.9383 13.8559 20.2359 14.204 20.4463 14.3896C20.6568 14.5725 20.8492 14.7226 21.0237 14.84C21.1982 14.9574 21.3663 15.0461 21.528 15.1062C21.687 15.1635 21.8346 15.1839 21.9706 15.1676C22.104 15.1485 22.2234 15.0802 22.3286 14.9628C22.4338 14.8454 22.5287 14.6871 22.6134 14.4879C22.7007 14.2859 22.7918 14.0579 22.8867 13.8041C22.9842 13.5529 23.0689 13.2799 23.1407 12.9851C23.2126 12.693 23.2806 12.3955 23.3447 12.0925C23.4089 11.7922 23.482 11.5042 23.5641 11.2285C23.6463 10.9528 23.7245 10.6921 23.7989 10.4464C23.8759 10.2007 23.926 9.96733 23.9491 9.74622C23.9747 9.52511 23.9863 9.31492 23.9837 9.11565C23.9837 8.91364 23.985 8.73074 23.9876 8.56695C23.9927 8.40316 24.0055 8.27486 24.026 8.18205C24.0466 8.08651 24.0671 8.01963 24.0876 7.98142C24.1082 7.94593 24.112 7.91044 24.0992 7.87495C24.0838 7.83946 24.0491 7.79715 23.9953 7.74802C23.9414 7.69888 23.8721 7.65931 23.7874 7.62928C23.7027 7.59652 23.6052 7.58288 23.4949 7.58834C23.3871 7.5938 23.2767 7.61563 23.1638 7.65385C23.0509 7.69207 22.9611 7.73574 22.8944 7.78488C22.8277 7.83402 22.7853 7.88997 22.7674 7.95275C22.7494 8.01554 22.734 8.08378 22.7212 8.15748C22.7109 8.22846 22.6955 8.2967 22.675 8.36222C22.657 8.42773 22.6506 8.48371 22.6557 8.53011C22.6583 8.57925 22.6878 8.62156 22.7443 8.65705C22.7982 8.69253 22.8713 8.71984 22.9637 8.73895C23.0535 8.76078 23.1831 8.7676 23.3524 8.75941C23.5218 8.75122 23.7399 8.71847 24.0068 8.66115C24.2711 8.60382 24.5688 8.54785 24.8998 8.49325C25.2308 8.44138 25.5657 8.37725 25.9044 8.30081C26.2431 8.22711 26.6024 8.15476 26.9822 8.08378C27.362 8.01554 27.7571 7.94456 28.1677 7.87085C28.5757 7.79715 28.9812 7.71663 29.384 7.62928C29.7895 7.54466 30.1924 7.46412 30.5927 7.38768C30.993 7.31398 31.4087 7.26622 31.8398 7.24438C32.2735 7.22254 32.7058 7.2321 33.1369 7.27305C33.5681 7.31672 33.985 7.39316 34.3879 7.50235C34.7882 7.61154 35.1603 7.7494 35.5042 7.91591C35.8455 8.0797 36.1611 8.26532 36.4511 8.47278C36.741 8.68298 37.0143 8.91772 37.2709 9.17705C37.525 9.43911 37.7559 9.72439 37.9638 10.0329C38.1691 10.3386 38.3525 10.6402 38.5142 10.9378C38.6759 11.2326 38.8208 11.5056 38.9491 11.7567C39.0774 12.0079 39.1839 12.2508 39.2686 12.4856C39.3559 12.7203 39.4149 12.9537 39.4457 13.1858C39.4739 13.4205 39.488 13.6375 39.488 13.8368C39.488 14.0361 39.4867 14.204 39.4842 14.3405C39.4842 14.4769 39.4867 14.5711 39.4919 14.623C39.497 14.6776 39.5034 14.698 39.5111 14.6844C39.5188 14.6707 39.5355 14.6394 39.5612 14.5902C39.5868 14.5411 39.6304 14.4824 39.692 14.4142C39.7536 14.3432 39.819 14.2599 39.8883 14.1644C39.9576 14.0716 40.0359 13.9637 40.1231 13.8409C40.2104 13.7181 40.3156 13.5857 40.4388 13.4437C40.5619 13.3018 40.6813 13.1448 40.7967 12.9728C40.9122 12.8008 41.0136 12.6207 41.1008 12.4323C41.1881 12.2467 41.274 12.0679 41.3587 11.8959C41.4434 11.7239 41.3433 11.6503 41.0585 11.6748C40.7762 11.6994 40.6517 11.627 40.6851 11.4578C40.721 11.2858 40.757 11.1029 40.7929 10.9091C40.8288 10.7126 40.8647 10.5119 40.9007 10.3072C40.934 10.1025 40.9699 9.89364 41.0084 9.68071C41.0495 9.46779 41.0982 9.26577 41.1547 9.07469C41.2137 8.8836 41.2702 8.69935 41.3241 8.52192C41.3754 8.34448 41.4075 8.15475 41.4203 7.95275C41.4331 7.75075 41.446 7.53646 41.4588 7.30988C41.4742 7.08331 41.4844 6.84719 41.4896 6.60151C41.4947 6.35583 41.4909 6.08968 41.478 5.80305C41.4626 5.51642 41.4498 5.21343 41.4395 4.89404C41.4293 4.57466 41.4472 4.25526 41.4934 3.93588C41.5396 3.61922 41.6127 3.31623 41.7128 3.02687C41.8129 2.73752 41.9232 2.46999 42.0438 2.22431C42.1645 1.9759 42.2902 1.7466 42.4211 1.53641C42.5519 1.32621 42.7008 1.14331 42.8676 0.987709C43.0344 0.832112 43.2281 0.713369 43.4488 0.631475C43.6695 0.549582 43.9171 0.505902 44.1917 0.500443C44.4637 0.494983 44.7498 0.540031 45.05 0.635574C45.3477 0.733846 45.6543 0.886712 45.97 1.09417C46.2856 1.30164 46.6128 1.56098 46.9515 1.87217C47.2928 2.18064 47.6405 2.53413 47.9946 2.93268C48.3462 3.3285 48.7016 3.76255 49.0608 4.23481C49.4175 4.70706 49.7691 5.20249 50.1155 5.72115C50.4619 6.23981 50.7981 6.77349 51.124 7.32218C51.4499 7.86814 51.7629 8.42773 52.0632 9.00099C52.3608 9.57151 52.6431 10.1489 52.91 10.733C53.1743 11.3172 53.4116 11.9055 53.622 12.4979C53.835 13.0902 54.0378 13.6771 54.2302 14.2586C54.4252 14.8427 54.601 15.3709 54.7575 15.8432C54.9115 16.3182 55.1091 16.7795 55.3503 17.2272C55.5915 17.6749 55.8032 18.083 55.9854 18.4515C56.1676 18.8173 56.3164 19.138 56.4319 19.4137M56.5166 12.547C56.4524 12.0638 56.3921 11.5861 56.3357 11.1139C56.2767 10.6416 56.2228 10.1762 56.174 9.71755C56.1227 9.25622 56.0817 8.80855 56.0509 8.37451C56.0226 7.94048 56.0162 7.53646 56.0316 7.16248C56.047 6.79123 56.0983 6.45138 56.1856 6.14291C56.2703 5.83445 56.3691 5.55191 56.482 5.29531" stroke="black" stroke-linecap="round" stroke-linejoin="round"/>
</svg>
