<?xml version="1.0" encoding="UTF-8"?>
<svg id="Layer_1" xmlns="http://www.w3.org/2000/svg" version="1.1" viewBox="0 0 596.67 81.75">
  <!-- Generator: Adobe Illustrator 29.8.1, SVG Export Plug-In . SVG Version: 2.1.1 Build 2)  -->
  <defs>
    <style>
      .st0 {
        fill: none;
        stroke: #262626;
        stroke-miterlimit: 10;
        stroke-width: 4px;
      }
    </style>
  </defs>
  <path class="st0" d="M0,34.01c1.57.44,3.99,1.34,6.19,3.31,10.49,9.42,4.07,32.62,4.49,32.69.55.08,5.74-41,9.86-40.96,4.11.04,7.06,41.09,10.62,40.96,2.55-.1-.54-21.19,11.84-31.09,6.13-4.91,16.25-7.21,21.43-3.13,9.4,7.4-1.06,33.02,2.4,34.2,2.79.96,7.15-16.48,21.41-29.05,17.49-15.41,44.52-18.79,47.77-12.99,2.61,4.65-9.56,16.23-19.08,21.35-3,1.61-7.77,4.11-10.93,2.09-1.71-1.1-2.61-3.31-2.57-5.15.17-7.11,14.5-14.49,18.34-11.38,5.8,4.69-10.78,34.5-9.37,35.16,1.42.67,14.32-31.51,27.36-30.72.85.05,2.28.16,3.29,1.21,5.4,5.59-11.31,27.57-8.85,29.52,2.98,2.36,28.95-28.62,33.97-25.12.83.58.83,2,.58,2.93-1.62,5.98-22.46,4.78-20.73-13.17,1.98-20.48,43.93-3.3,44.26-.99.45,3.15,9.93,8.9,8.26,15.39-2.46,9.57-23.35,12.22-25.38,8.38-1.58-2.99,7.76-10.86,17.25-18.85,9.9-8.34,18.95-14.11,25.31-17.8,1.05.83,3.07,2.6,4.34,5.41,5.85,12.95-12.73,28.91-8.36,35.03,3.46,4.84,18.6-.18,26.48-3.78,14.18-6.48,28.76-19.32,26.42-24.11-1.93-3.95-16.19-4.06-21.06,3.1-4.93,7.25,1.16,19.92,9.55,24.3,7.48,3.91,15.03.3,27.37-5.6,2.29-1.1,4.02-2.11,4.16-3.61.41-4.32-12.6-9.91-14.4-7.71-1.95,2.38,10.71,12.13,7.81,18.1-1.72,3.53-8.55,5.05-13.04,2.79-8.64-4.36-7.61-22.2-7.75-22.18-.06.01-.02,3.7,2.41,6.67,1.4,1.71,2.65,2.4,3.8,2.37,6.77-.16,12.78-18.57,18.33-17.89,6.41.78,6.63,28.23,10.95,28.38,4.02.14,8.18-23.54,11.09-23.05.21.04.34.19.42.28,2.88,3.36,14.41,23.05,17.83,27.08,11.89,14.01,58.77-4.44,57.85-9.59-.88-4.96-45.94,2.99-49.59-8.91-1.22-3.98,2.76-8.38,3.23-8.94,4.75-5.59,13.89-6.69,21.87-1.3,11.23,7.6,6.77,29.76-18.5,26.75-25.26-3.01,32.04-34.02,39.63-30.39s44.26-.26,46.9-10.04c2.64-9.78-13.21-30.25-22.13-18.36-7.95,10.59-.47,22.25-4.62,38.31-3.57,13.81-13.26,20.34-11.51,22.13,3.15,3.22,30.91-21.45,45.86-17.84,1.08.26,3.83.97,5.4-.28,4.08-3.24-.97-15.12-5.4-10.95-5.61,5.28-10.9,20.48-6.61,23.12,5.72,3.52,15.69,1.11,24.3-1.91,14.45-5.06,32.03-15.96,30.25-21.39-1.28-3.9-12.78-5.68-18.19-.95-7,6.13-4.23,23.57,5.75,29.53,13.14,7.86,32.71-9.42,31.6-12.54-1.17-3.28-24.52,4.43-25.57,1.35-1.29-3.78,31.2-23.23,41.36-14.58,7.12,6.06.35,23.4,3.63,24.44,4.37,1.38,17.39-29.22,19.49-28.39,2,.79-9.05,28.84-4.95,31.03,4.88,2.6,27.15-33.51,31.71-31.03,3.97,2.16-8.79,31.86-6.22,33.03,2.64,1.2,17.54-29.44,21.8-27.79,3.94,1.52-4.7,29.4-1.32,30.65,2.11.78,7.93-9.12,15.21-23.67"/>
</svg>