<?xml version="1.0" encoding="UTF-8"?>
<svg id="Layer_1" xmlns="http://www.w3.org/2000/svg" version="1.1" viewBox="0 0 224.51 89.25">
  <!-- Generator: Adobe Illustrator 29.8.1, SVG Export Plug-In . SVG Version: 2.1.1 Build 2)  -->
  <defs>
    <style>
      .st0 {
        fill: none;
        stroke: #262626;
        stroke-miterlimit: 10;
        stroke-width: 4px;
      }
    </style>
  </defs>
  <path class="st0" d="M222.71,21.51c-38.04,53.81-51.93,62.67-57.38,59.99-6.1-2.99-.26-19.78-10.2-45.92-6.31-16.58-16.16-29.53-19.04-28.37-5,2.01,16.15,44.38,1.27,57.93-7.44,6.78-21.45,4.1-29.78-.91-17.15-10.33-20.88-37-12.45-44.25,4.88-4.19,15.15-3.02,21.14,1.76,7.55,6.03,5.32,15.4,10.13,16.73,5.98,1.66,10.35-12.55,26.42-19.82,1.82-.82,14.83-6.7,19.38-2.11,6,6.07-6.04,27.09-13.01,37.06-8.84,12.65-18.14,25.96-31.47,26.69-13.37.74-14.8-12.07-37.45-21.83-21.4-9.22-31.83-2.83-42.7-13.95-8.01-8.19-12.34-21.88-7.83-26.99,6.77-7.67,35.86,1.3,37.06,13.59.16,1.63.11,6.28-7.13,12.49"/>
</svg>