<svg width="90" height="21" viewBox="0 0 90 21" fill="none" xmlns="http://www.w3.org/2000/svg">
<path d="M1.22363 4.78758C1.73172 4.96502 2.20518 5.17659 2.64398 5.42228C3.08278 5.66796 3.47539 5.94093 3.82181 6.24121C4.16823 6.53876 4.45436 6.83219 4.68018 7.12155C4.90599 7.41091 5.07919 7.69344 5.1998 7.96915C5.3204 8.24486 5.39868 8.51238 5.4346 8.77171C5.46796 9.03377 5.46412 9.28764 5.42306 9.53332C5.37944 9.78173 5.29474 10.0165 5.16901 10.2376C5.0407 10.4614 4.87006 10.6716 4.65707 10.8682C4.44152 11.0647 4.18749 11.2422 3.89496 11.4005C3.60242 11.5588 3.30347 11.7076 2.99811 11.8468C2.69018 11.9833 2.38608 12.1102 2.08585 12.2276C1.78305 12.3477 1.4777 12.4501 1.16977 12.5347M0.5 8.34178C0.687325 8.1234 0.892625 7.89955 1.11588 7.67025C1.33913 7.44094 1.57135 7.20346 1.81256 6.95778C2.05634 6.7121 2.28859 6.46368 2.50928 6.21254C2.72996 5.9614 2.95061 5.71299 3.17129 5.46731C3.39198 5.22436 3.64348 4.98824 3.92575 4.75894C4.20802 4.52964 4.51596 4.31261 4.84955 4.10788C5.18571 3.90041 5.53853 3.70932 5.90805 3.53461C6.275 3.35718 6.67147 3.18793 7.09744 3.02688C7.52341 2.86855 7.98015 2.71705 8.46771 2.57237C8.95783 2.43043 9.45694 2.30076 9.96503 2.18338C10.4731 2.06327 10.9838 1.97046 11.497 1.90494C12.0128 1.84216 12.5324 1.80395 13.0559 1.7903C13.5794 1.77938 14.1029 1.79984 14.6263 1.85171C15.1473 1.90084 15.6643 1.98683 16.1775 2.10968C16.6908 2.23252 17.2065 2.39357 17.7249 2.59284C18.2407 2.78939 18.7539 3.02416 19.2645 3.29714C19.7752 3.57012 20.264 3.88404 20.731 4.23891C21.1955 4.59378 21.6523 4.97458 22.1013 5.38131C22.5504 5.78805 22.9392 6.24939 23.2676 6.76531C23.5987 7.28124 23.872 7.82312 24.0875 8.39091C24.3031 8.96144 24.4494 9.55379 24.5263 10.168C24.6007 10.7849 24.629 11.4019 24.611 12.0188C24.5905 12.6357 24.5366 13.239 24.4493 13.8286C24.3595 14.4183 24.221 14.9861 24.0336 15.532C23.8463 16.078 23.5987 16.5803 23.2907 17.0389C22.9802 17.4975 22.6287 17.8987 22.2361 18.2427C21.846 18.5866 21.4252 18.8705 20.9736 19.0944C20.5219 19.3209 20.0562 19.4929 19.5763 19.6103C19.0965 19.7277 18.6102 19.7877 18.1175 19.7905C17.6274 19.7932 17.1309 19.7277 16.6279 19.5939C16.1249 19.4602 15.6143 19.2595 15.0959 18.992C14.5776 18.7272 14.0875 18.4092 13.6256 18.038C13.1611 17.6694 12.7403 17.26 12.363 16.8096C11.9858 16.3619 11.6484 15.8773 11.3507 15.3559C11.053 14.8373 10.8067 14.2872 10.6117 13.7058C10.4167 13.1271 10.2935 12.5211 10.2422 11.8878C10.1908 11.2544 10.1921 10.6211 10.246 9.98782C10.2999 9.35451 10.4 8.74305 10.5463 8.15341C10.6925 7.56378 10.8927 6.99326 11.1467 6.44184C11.4008 5.89043 11.7023 5.35948 12.0513 4.84901C12.4028 4.33854 12.7839 3.86083 13.1945 3.41588C13.605 2.97092 14.0541 2.57238 14.5417 2.22024C15.0318 1.86537 15.5565 1.56646 16.1159 1.3235C16.6753 1.08055 17.2502 0.893566 17.8404 0.762537C18.4306 0.631507 19.0182 0.549599 19.6033 0.516841C20.1883 0.484084 20.7734 0.499117 21.3585 0.561902C21.9435 0.624687 22.5158 0.731135 23.0752 0.881273C23.6346 1.03141 24.1735 1.20613 24.6918 1.4054C25.2076 1.60468 25.6952 1.83535 26.1545 2.0974C26.6138 2.35946 27.0462 2.63515 27.4517 2.92451C27.8571 3.21387 28.2356 3.51552 28.5872 3.82944C28.9413 4.1461 29.2556 4.4532 29.5302 4.75074C29.8073 5.05102 30.0383 5.32673 30.223 5.57787C30.4078 5.82628 30.5643 6.05421 30.6926 6.26168C30.8235 6.46914 30.9428 6.67114 31.0506 6.86768C31.1609 7.0615 31.252 7.24848 31.3239 7.42865C31.3957 7.60881 31.4727 7.76987 31.5548 7.91182C31.637 8.05377 31.7357 8.1807 31.8512 8.29262C31.9693 8.40181 32.0911 8.50146 32.2169 8.59155C32.3426 8.68436 32.4607 8.76079 32.571 8.82085C32.6788 8.8809 32.7853 8.92048 32.8905 8.93958C32.9931 8.96142 33.0958 8.96961 33.1984 8.96415C33.2985 8.96142 33.396 8.94368 33.491 8.91092C33.5859 8.88089 33.677 8.84132 33.7642 8.79218C33.8541 8.74305 33.9477 8.70755 34.0452 8.68572C34.1402 8.66388 34.239 8.65706 34.3416 8.66525C34.4417 8.67617 34.5379 8.69391 34.6303 8.71848C34.7253 8.74305 34.8112 8.77035 34.8882 8.80038C34.9652 8.83041 35.0332 8.86861 35.0922 8.91502C35.1512 8.96415 35.2038 9.02147 35.25 9.08699C35.2962 9.14977 35.3308 9.22075 35.3539 9.29992C35.377 9.37635 35.3783 9.46234 35.3578 9.55788C35.3373 9.65343 35.2936 9.76398 35.2269 9.88955C35.1602 10.0124 35.0717 10.1434 34.9613 10.2826C34.851 10.4191 34.7201 10.5502 34.5687 10.6757C34.4148 10.8013 34.248 10.9064 34.0683 10.991C33.8861 11.0756 33.7001 11.1453 33.5102 11.1999C33.3203 11.2517 33.1535 11.2613 33.0098 11.2285C32.8636 11.1958 32.7057 11.1725 32.5364 11.1589C32.3696 11.148 32.2092 11.107 32.0552 11.0361C31.9013 10.9651 31.7653 10.8805 31.6472 10.7822C31.5266 10.6839 31.4201 10.5652 31.3278 10.426C31.2354 10.2867 31.1609 10.1284 31.1045 9.95098C31.048 9.77355 31.0172 9.58108 31.0121 9.37362C31.0044 9.16615 31.0275 8.9546 31.0814 8.73895C31.1353 8.5233 31.22 8.30492 31.3354 8.08381C31.4509 7.8627 31.6126 7.64022 31.8204 7.41638C32.0309 7.18981 32.2964 6.95503 32.6172 6.71208C32.9354 6.46913 33.3024 6.21664 33.7181 5.95458C34.1363 5.69525 34.5854 5.43728 35.0653 5.18068C35.5426 4.92408 36.0455 4.67704 36.5741 4.43954C37.1027 4.20205 37.6519 3.9905 38.2215 3.80487C38.7912 3.61925 39.3686 3.45546 39.9536 3.31351C40.5413 3.17429 41.1289 3.05418 41.7165 2.95318C42.3042 2.85217 42.8828 2.78256 43.4525 2.74434C44.0247 2.70613 44.5778 2.70205 45.1115 2.73207C45.6453 2.75937 46.1674 2.79757 46.6781 2.84671C47.1887 2.89858 47.6904 2.95455 48.1831 3.01461C48.6758 3.07739 49.1492 3.15382 49.6034 3.24391C50.0576 3.33399 50.4721 3.43499 50.8467 3.54691C51.2239 3.6561 51.5665 3.77211 51.8744 3.89495C52.1798 4.01779 52.4556 4.1652 52.702 4.33718C52.9458 4.50915 53.1587 4.70707 53.3409 4.93091C53.5206 5.15202 53.6681 5.38814 53.7836 5.63928C53.8991 5.88769 53.9761 6.14566 54.0145 6.41318C54.0556 6.67797 54.062 6.94549 54.0338 7.21574C54.0081 7.48599 53.9607 7.76305 53.8914 8.04695C53.8247 8.33085 53.7117 8.6202 53.5526 8.91502C53.3935 9.20983 53.2524 9.50329 53.1293 9.79538C53.0035 10.0875 52.8867 10.3713 52.779 10.6471C52.6712 10.9228 52.5737 11.1889 52.4864 11.4455C52.4018 11.7021 52.2991 11.9355 52.1785 12.1457C52.0579 12.3586 51.9129 12.5456 51.7436 12.7067C51.5742 12.8705 51.4035 13.0165 51.2316 13.1448C51.0597 13.2704 50.9083 13.3796 50.7774 13.4724C50.644 13.5625 50.5349 13.6225 50.4502 13.6526C50.3656 13.6826 50.295 13.6894 50.2385 13.673C50.1847 13.6539 50.1308 13.6225 50.0769 13.5789C50.0256 13.5379 49.9742 13.4833 49.9229 13.4151C49.8716 13.3441 49.8356 13.2554 49.8151 13.1489C49.792 13.0425 49.7741 12.9319 49.7613 12.8173C49.7484 12.7026 49.7317 12.5825 49.7112 12.4569C49.6907 12.3313 49.665 12.1962 49.6342 12.0515C49.606 11.9069 49.5739 11.7526 49.538 11.5889C49.5046 11.4223 49.4713 11.2531 49.4379 11.0811C49.402 10.9064 49.3827 10.7262 49.3802 10.5406C49.3776 10.3577 49.3892 10.1748 49.4148 9.99192C49.4405 9.81175 49.479 9.63158 49.5303 9.45142C49.5791 9.27125 49.6471 9.08972 49.7343 8.90682C49.8216 8.7212 49.9332 8.53013 50.0692 8.33358C50.2052 8.13704 50.3553 7.92548 50.5195 7.69891C50.6812 7.46961 50.8749 7.23484 51.1008 6.99461C51.3266 6.75439 51.6011 6.51691 51.9245 6.28215C52.2478 6.05012 52.6083 5.81808 53.0061 5.58605C53.4064 5.35129 53.8144 5.10561 54.2301 4.84901C54.6484 4.58968 55.0769 4.33719 55.5157 4.09151C55.9571 3.84856 56.4293 3.6329 56.9322 3.44454C57.4352 3.25346 57.9945 2.95863 58.6104 2.56008C59.2263 2.16426 59.8832 1.92677 60.5812 1.84761C61.2791 1.77118 61.9694 1.72887 62.652 1.72068C63.3371 1.71249 64.0018 1.73842 64.6459 1.79848C65.29 1.85853 65.9058 1.9377 66.4935 2.03597C67.0785 2.13152 67.62 2.24618 68.1178 2.37994C68.6131 2.5137 69.0583 2.67338 69.4535 2.85901C69.8461 3.0419 70.2028 3.25209 70.5235 3.48958C70.8443 3.72707 71.1227 3.99186 71.3588 4.28394C71.5923 4.57876 71.777 4.90771 71.913 5.27077C72.0491 5.63384 72.1337 6.02419 72.1671 6.44184C72.2005 6.85677 72.1799 7.28262 72.1055 7.71938C72.0285 8.15615 71.899 8.59563 71.7168 9.03785C71.5371 9.48281 71.3139 9.92231 71.047 10.3563C70.7827 10.7904 70.4773 11.2053 70.1309 11.6011C69.7845 11.9969 69.4111 12.3614 69.0108 12.6944C68.6105 13.0274 68.2012 13.3291 67.783 13.5993C67.3647 13.8668 66.9425 14.1111 66.5165 14.3323C66.0906 14.5561 65.6672 14.7472 65.2464 14.9055C64.8255 15.0639 64.4162 15.1771 64.0185 15.2454C63.6181 15.3109 63.241 15.3232 62.8868 15.2822C62.5301 15.2386 62.2081 15.1498 61.9207 15.0161C61.6333 14.8851 61.392 14.7267 61.197 14.5411C61.002 14.3555 60.857 14.1439 60.7621 13.9064C60.6697 13.6689 60.6235 13.3932 60.6235 13.0793C60.6235 12.7654 60.662 12.416 60.739 12.0311C60.816 11.6434 60.925 11.2408 61.0662 10.8231C61.2099 10.4028 61.3805 9.98237 61.5781 9.56198C61.7783 9.1416 61.9964 8.72531 62.2324 8.31311C62.4685 7.90092 62.7392 7.48871 63.0446 7.07651C63.35 6.66159 63.649 6.17842 63.9415 5.62701C64.234 5.07559 64.5817 4.58422 64.9846 4.15291C65.39 3.72161 65.7968 3.32715 66.2048 2.96955C66.6153 2.60921 67.0285 2.29803 67.4442 2.03597C67.8625 1.77119 68.2782 1.54871 68.6913 1.36854C69.1019 1.18837 69.5176 1.05871 69.9384 0.979541C70.3618 0.900378 70.7865 0.871731 71.2125 0.893569C71.6385 0.912678 72.0478 0.965889 72.4404 1.05324C72.8356 1.13787 73.209 1.2416 73.5605 1.36444C73.9146 1.48728 74.2534 1.63743 74.5767 1.81487C74.9 1.99231 75.2054 2.19293 75.4928 2.41678C75.7802 2.64335 76.0509 2.87947 76.3049 3.12515C76.5564 3.37356 76.8053 3.63016 77.0516 3.89495C77.298 4.16246 77.5418 4.44363 77.783 4.73845C78.0242 5.03053 78.259 5.32945 78.4874 5.63518C78.7183 5.94092 78.9365 6.24665 79.1417 6.55238C79.347 6.86085 79.5433 7.16524 79.7306 7.46551C79.9179 7.76579 80.0963 8.05377 80.2656 8.32948C80.4324 8.60246 80.5877 8.84677 80.7314 9.06242C80.8726 9.27807 81.0239 9.46917 81.1856 9.63568C81.3447 9.8022 81.5154 9.94143 81.6976 10.0533C81.8823 10.168 82.0671 10.2471 82.2518 10.2908C82.434 10.3372 82.6124 10.3563 82.7869 10.3482C82.9588 10.34 83.1218 10.3195 83.2757 10.2867C83.4323 10.254 83.5644 10.1939 83.6722 10.1066C83.7799 10.0192 83.8646 9.90593 83.9262 9.76672C83.9852 9.63023 84.025 9.48555 84.0455 9.33268C84.0686 9.17981 84.0789 9.03514 84.0763 8.89865C84.0738 8.76216 84.0712 8.63112 84.0686 8.50555C84.0635 8.37725 84.0391 8.26261 83.9955 8.16161C83.9493 8.06334 83.8915 8.01147 83.8223 8.00601C83.753 7.99782 83.6721 7.9869 83.5798 7.97325C83.49 7.9596 83.395 7.96368 83.2949 7.98552C83.1948 8.01009 83.091 8.05924 82.9832 8.13295C82.878 8.20665 82.7663 8.30765 82.6483 8.43595C82.5303 8.56698 82.4071 8.71984 82.2788 8.89455C82.1479 9.07198 82.0158 9.25897 81.8823 9.45552C81.7463 9.65206 81.618 9.84998 81.4974 10.0492C81.3742 10.2485 81.2626 10.4423 81.1625 10.6307C81.0625 10.8163 80.9919 11.006 80.9508 11.1999C80.9072 11.3937 80.8918 11.6011 80.9046 11.8222C80.9175 12.0406 80.956 12.2658 81.0201 12.4979C81.0843 12.7326 81.1818 12.9483 81.3127 13.1448C81.4435 13.3441 81.6052 13.5202 81.7977 13.673C81.9876 13.8259 82.1877 13.9446 82.3981 14.0293C82.6085 14.1112 82.8151 14.1494 83.0178 14.1439C83.2205 14.1412 83.4348 14.0948 83.6606 14.0047C83.8865 13.9146 84.1341 13.7863 84.4035 13.6198C84.6755 13.4533 84.9526 13.2513 85.2349 13.0138C85.5198 12.7763 85.8084 12.5197 86.101 12.244C86.3935 11.9683 86.6989 11.668 87.0171 11.3432C87.3378 11.0183 87.6676 10.6675 88.0063 10.2908C88.3424 9.91411 88.6645 9.53058 88.9724 9.14022" stroke="black" stroke-linecap="round" stroke-linejoin="round"/>
</svg>
