<?xml version="1.0" encoding="UTF-8"?>
<svg id="Layer_1" xmlns="http://www.w3.org/2000/svg" version="1.1" viewBox="0 0 306.69 83.83">
  <!-- Generator: Adobe Illustrator 29.8.1, SVG Export Plug-In . SVG Version: 2.1.1 Build 2)  -->
  <defs>
    <style>
      .st0 {
        fill: none;
        stroke: #262626;
        stroke-miterlimit: 10;
        stroke-width: 4px;
      }
    </style>
  </defs>
  <path class="st0" d="M12.55,61.77c8.66,2.63,26.9,6.86,48.88,1.76,30.63-7.1,48.12-27.56,53.36-34.22-1.08,4.47-7.72,33.13,3.57,39.9,2.68,1.61,6.38,1.98,11.4.49,27.74-8.25,74.86-40.39,74.86-40.39,0,0,15.41-11.01,3.52,8.37s-9.69,2.2,7.49-27.74c17.18-29.94-7.49,34.35-8.81,36.55s43.16-15.41,53.28-3.96c.54.61.66,1.03.63,1.54-.97,14.57-203.4,20.65-207.31-3.05-.27-1.65.51-3.42,1.47-4.69,7.93-10.53,66.05,6.64,67.82,22.49s76.18,5.72,84.11-6.17c1.57-2.36,10.05-7.98,14.58-5.49,5.6,3.07,3.31,17.92,6.83,18.48,1.9.31,3.71-3.84,5.6-3.21,1.41.47.97,2.95,2.18,4.4,2.62,3.17,11.48.1,20.57-3.62,14.94-6.11,31.29-7.53,32.15-5.28,0,0,0,0,0,0"/>
</svg>