<svg width="70" height="20" viewBox="0 0 70 20" fill="none" xmlns="http://www.w3.org/2000/svg">
<path d="M0.5 7.26121C1.08507 7.19842 1.66372 7.15337 2.23596 7.12608C2.80563 7.09605 3.36248 7.07148 3.90649 7.05238C4.44794 7.03327 4.95472 7.01007 5.42688 6.98277C5.89647 6.95548 6.33016 6.94047 6.72791 6.93774C7.12822 6.93228 7.51183 6.9623 7.87878 7.02781C8.24574 7.09059 8.58964 7.18206 8.9104 7.30217C9.23116 7.41955 9.50697 7.55467 9.73792 7.70754C9.97143 7.8604 10.1614 8.03783 10.3076 8.23984C10.4539 8.43911 10.568 8.66023 10.6501 8.90318C10.6978 9.04412 10.7316 9.18139 10.7516 9.31499M10.7516 9.31499C10.7661 9.41168 10.7734 9.50644 10.7734 9.59927C10.7734 9.82312 10.7284 10.0456 10.6386 10.2667C10.5514 10.4878 10.4398 10.7103 10.3038 10.9341C10.1678 11.1607 10.0215 11.3777 9.86493 11.5852C9.7084 11.7926 9.54034 11.9756 9.36072 12.1339C9.18109 12.2949 8.99635 12.4273 8.80646 12.5311C8.61657 12.6375 8.4292 12.7262 8.24445 12.7972C8.05712 12.8655 7.88005 12.9241 7.71326 12.9733C7.54646 13.0197 7.39638 13.047 7.26294 13.0552C7.1295 13.0606 7.0089 13.0429 6.90112 13.0019C6.79591 12.961 6.69456 12.9132 6.59705 12.8586C6.5021 12.8013 6.42127 12.7399 6.35455 12.6744C6.2904 12.6089 6.24033 12.5161 6.20441 12.3959C6.16848 12.2758 6.14412 12.138 6.13129 11.9824C6.12102 11.824 6.1287 11.6739 6.15436 11.532C6.17745 11.3873 6.22113 11.2522 6.28528 11.1266C6.34943 11.001 6.41229 10.87 6.47388 10.7335C6.53546 10.597 6.59065 10.481 6.6394 10.3854C6.69073 10.2899 6.74585 10.2899 6.80487 10.3854C6.86389 10.4783 6.90367 10.5329 6.92419 10.5492C6.94216 10.5656 6.95373 10.5697 6.95886 10.5615C6.96399 10.5561 6.96399 10.5492 6.95886 10.541C6.9563 10.5301 6.96909 10.5397 6.99731 10.5697C7.02811 10.6025 7.08457 10.6598 7.16669 10.7417C7.25137 10.8236 7.35272 10.9082 7.47076 10.9955C7.5888 11.0802 7.70685 11.1361 7.82489 11.1634C7.9455 11.1907 8.06482 11.173 8.18286 11.1102C8.3009 11.0474 8.45361 10.9491 8.64093 10.8154C8.82825 10.6789 9.06946 10.5124 9.36456 10.3158C9.6571 10.1166 9.99327 9.87771 10.373 9.59927C10.496 9.50823 10.6222 9.41347 10.7516 9.31499ZM10.7516 9.31499C11.0219 9.10932 11.3063 8.88743 11.6047 8.64931C12.0487 8.29717 12.5196 7.93138 13.0174 7.55194C13.5127 7.1725 14.0284 6.78215 14.5648 6.38087C15.0985 5.98232 15.6451 5.57693 16.2045 5.16473C16.7639 4.74981 17.331 4.34308 17.9058 3.94453C18.4781 3.54599 19.0477 3.17064 19.6148 2.8185C20.1845 2.46636 20.7388 2.13332 21.2776 1.8194C21.8191 1.50547 22.3311 1.24069 22.8135 1.02503C23.2985 0.80938 23.7449 0.660591 24.153 0.578698C24.561 0.494075 24.9253 0.477699 25.2461 0.529564C25.5669 0.578701 25.8402 0.696074 26.066 0.881699C26.2944 1.06732 26.4817 1.31984 26.6279 1.63923C26.7716 1.95861 26.8615 2.31622 26.8974 2.71204C26.9333 3.10786 26.9141 3.5214 26.8397 3.95271C26.7652 4.38401 26.6536 4.83716 26.5048 5.31214C26.3559 5.78712 26.1853 6.29077 25.9929 6.82307C25.8004 7.35538 25.5861 7.89044 25.35 8.42821C25.114 8.96598 24.8702 9.50782 24.6187 10.0538C24.3647 10.597 24.1299 11.1348 23.9143 11.6671C23.7013 12.1994 23.4948 12.7099 23.2946 13.1985C23.097 13.6898 22.92 14.1525 22.7634 14.5866C22.6095 15.0206 22.4889 15.4287 22.4016 15.8109C22.3144 16.1958 22.2399 16.5384 22.1783 16.8387C22.1142 17.1417 22.0475 17.3983 21.9782 17.6085C21.9089 17.8214 21.8525 17.9934 21.8088 18.1244C21.7626 18.2554 21.7472 18.3523 21.7626 18.4151C21.778 18.4751 21.814 18.5025 21.8704 18.497C21.9269 18.4915 21.9923 18.4506 22.0667 18.3742C22.1411 18.295 22.2232 18.179 22.313 18.0261C22.4054 17.8733 22.5132 17.6835 22.6364 17.457C22.7595 17.2277 22.9033 16.9751 23.0675 16.6994C23.2317 16.4237 23.4114 16.1303 23.6064 15.8191C23.8014 15.5106 23.9952 15.1994 24.1876 14.8855C24.3826 14.5743 24.5751 14.2522 24.765 13.9191C24.9548 13.5861 25.1473 13.2381 25.3423 12.875C25.5374 12.5147 25.7337 12.1612 25.9313 11.8145C26.1289 11.4651 26.3264 11.117 26.524 10.7703C26.7216 10.4237 26.9333 10.0838 27.1591 9.75078C27.3824 9.41775 27.6261 9.09698 27.8904 8.78851C28.1573 8.47732 28.4422 8.17977 28.745 7.89587C29.0452 7.61198 29.3531 7.34174 29.6688 7.08514C29.9844 6.83127 30.3115 6.57878 30.6503 6.32764C30.9864 6.07377 31.3277 5.82398 31.6741 5.5783C32.018 5.33262 32.3683 5.09785 32.725 4.87401C33.0817 4.65017 33.4409 4.4318 33.8027 4.21887C34.162 4.00868 34.5097 3.7903 34.8458 3.56373C35.1845 3.33716 35.5169 3.12424 35.8428 2.92497C36.1687 2.72569 36.4997 2.54005 36.8359 2.36807C37.172 2.1961 37.5274 2.30665 37.902 2.69974C38.2767 3.0901 38.5744 3.22796 38.795 3.1133C39.0157 2.99592 39.2159 2.91267 39.3955 2.86353C39.5726 2.81713 39.7291 2.79802 39.8651 2.80621C40.0011 2.81713 40.105 2.86625 40.1769 2.95361C40.2513 3.03823 40.2847 3.172 40.277 3.3549C40.2718 3.53506 40.2359 3.75891 40.1692 4.02643C40.1025 4.29395 40.0229 4.59286 39.9305 4.92316C39.8382 5.25074 39.7317 5.61105 39.6111 6.00414C39.4879 6.39996 39.366 6.82309 39.2454 7.27351C39.1274 7.72119 39.0273 8.18797 38.9452 8.67387C38.8656 9.15705 38.8079 9.65932 38.772 10.1807C38.736 10.7021 38.7194 11.2385 38.7219 11.7899C38.7219 12.3441 38.7425 12.9037 38.7835 13.4688C38.8246 14.0338 38.8759 14.5661 38.9375 15.0657C39.0017 15.5679 39.0735 16.0129 39.153 16.4005C39.2351 16.7854 39.325 17.1212 39.4225 17.4078C39.52 17.6944 39.6277 17.9374 39.7458 18.1367C39.8613 18.3332 39.9922 18.4738 40.1384 18.5584C40.2821 18.643 40.4463 18.6867 40.6311 18.6895C40.8159 18.6895 41.016 18.6635 41.2316 18.6116C41.4497 18.5598 41.6806 18.4752 41.9244 18.3578C42.1682 18.2431 42.4261 18.0821 42.6981 17.8746C42.9675 17.6671 43.2472 17.4242 43.5372 17.1458C43.8271 16.8646 44.1004 16.5507 44.3571 16.204C44.6162 15.86 44.8498 15.4983 45.0576 15.1189C45.268 14.7394 45.4644 14.3559 45.6465 13.9683C45.8287 13.5779 46.0006 13.1944 46.1623 12.8177C46.324 12.4382 46.4638 12.0765 46.5818 11.7326C46.7025 11.3859 46.8167 11.0665 46.9244 10.7744C47.0348 10.4824 47.2157 10.2285 47.4672 10.0128C47.7186 9.79992 47.8777 9.59653 47.9445 9.40271C48.0112 9.2089 48.0586 9.04103 48.0869 8.89908C48.0935 8.86484 48.0996 8.83174 48.105 8.7998M48.105 8.7998C48.1224 8.69676 48.133 8.60566 48.1369 8.52647C48.142 8.42274 48.1433 8.35313 48.1407 8.31764C48.1382 8.28216 48.1292 8.28489 48.1138 8.32584C48.0959 8.36678 48.0766 8.42136 48.0561 8.48961C48.0356 8.56058 48.0265 8.62201 48.0291 8.67387C48.0317 8.72301 48.0535 8.76258 48.0945 8.79261C48.0979 8.79514 48.1014 8.79753 48.105 8.7998ZM48.105 8.7998C48.1478 8.82692 48.2059 8.83546 48.2794 8.82538C48.3563 8.81719 48.4436 8.78852 48.5411 8.73938C48.636 8.68752 48.7399 8.62746 48.8528 8.55921C48.9658 8.48824 49.0954 8.40636 49.2416 8.31355C49.3905 8.22346 49.5547 8.11564 49.7343 7.99007C49.9114 7.86723 50.0769 7.74849 50.2308 7.63384C50.3848 7.51918 50.5285 7.42635 50.6619 7.35538C50.7979 7.28713 50.9352 7.23255 51.0738 7.19161C51.2124 7.15339 51.3407 7.11927 51.4587 7.08924C51.5768 7.05921 51.682 7.04692 51.7744 7.05238C51.8642 7.05784 51.9399 7.08651 52.0015 7.13837C52.063 7.19297 52.1105 7.26395 52.1439 7.3513C52.1772 7.44139 52.2068 7.54646 52.2324 7.66657C52.2607 7.78941 52.2952 7.92727 52.3363 8.08014C52.3799 8.23574 52.4287 8.40772 52.4826 8.59608C52.5365 8.7817 52.607 8.98099 52.6943 9.19391C52.7815 9.40956 52.8957 9.62519 53.0369 9.84084C53.1806 10.0565 53.3461 10.2653 53.5334 10.4673C53.7233 10.6721 53.9221 10.8741 54.13 11.0733C54.3379 11.2754 54.5534 11.4623 54.7767 11.6343C55.0025 11.809 55.2488 11.9633 55.5157 12.097C55.7851 12.2335 56.1008 12.3618 56.4626 12.4819C56.8244 12.6048 57.1555 12.6935 57.4557 12.7481C57.7585 12.8054 58.0728 12.8341 58.3987 12.8341C58.7246 12.8341 59.0698 12.804 59.4341 12.744C59.7985 12.6839 60.168 12.5979 60.5427 12.486C60.9173 12.3768 61.2817 12.254 61.6358 12.1175C61.9925 11.9783 62.339 11.8363 62.6751 11.6917L63.6913 11.2494C64.0274 11.102 64.3366 10.9641 64.6189 10.8358C64.9037 10.7075 65.1552 10.597 65.3734 10.5042C65.594 10.4114 65.7852 10.3295 65.9469 10.2585C66.106 10.1875 66.224 10.1275 66.301 10.0783C66.378 10.0292 66.3934 10.006 66.3472 10.0087C66.301 10.0087 66.2035 10.0224 66.0546 10.0497C65.9032 10.0797 65.7313 10.1288 65.5389 10.1971C65.3464 10.2681 65.1514 10.3609 64.9538 10.4755C64.7536 10.5929 64.5406 10.7157 64.3148 10.844C64.089 10.9723 63.8427 11.0884 63.5758 11.1921C63.3089 11.2958 63.0407 11.3764 62.7713 11.4337C62.5019 11.4883 62.253 11.5156 62.0246 11.5156C61.7962 11.5183 61.5909 11.4937 61.4088 11.4419C61.2266 11.39 61.0751 11.3149 60.9545 11.2167C60.8339 11.1184 60.7608 10.9983 60.7351 10.8563C60.7094 10.7144 60.7249 10.5574 60.7813 10.3854C60.8378 10.2135 60.9084 10.0224 60.993 9.81218C61.0777 9.60199 61.1727 9.37269 61.2779 9.12428C61.3805 8.87587 61.4998 8.61519 61.6358 8.34221C61.7718 8.0665 61.9271 7.78533 62.1016 7.4987C62.2786 7.20935 62.4788 6.90633 62.702 6.58968C62.9253 6.27302 63.1806 5.9714 63.468 5.68477C63.7554 5.39814 64.0582 5.19478 64.3764 5.07467C64.6972 4.95729 65.041 4.81669 65.408 4.6529C65.7775 4.48911 66.1688 4.34718 66.582 4.22707C66.9977 4.10696 67.4314 4.03052 67.883 3.99777C68.3321 3.96228 68.7696 3.97047 69.1956 4.02233" stroke="black" stroke-linecap="round" stroke-linejoin="round"/>
</svg>
