<svg width="65" height="17" viewBox="0 0 65 17" fill="none" xmlns="http://www.w3.org/2000/svg">
<path d="M0.500122 12.6648C0.861941 12.8696 1.23533 13.0388 1.62024 13.1726C2.00772 13.3036 2.39904 13.3964 2.79422 13.451C3.1894 13.5029 3.58459 13.5179 3.97977 13.496C4.37494 13.4769 4.77525 13.4251 5.18069 13.3405C5.5887 13.2531 5.98773 13.1507 6.37778 13.0333C6.77039 12.916 7.13604 12.7918 7.47476 12.6607C7.81092 12.5324 8.1163 12.4014 8.39087 12.2676C8.66544 12.1312 8.91052 11.9824 9.12607 11.8213C9.34419 11.6603 9.51611 11.4938 9.64185 11.3218C9.76758 11.1498 9.86127 10.9778 9.92285 10.8058C9.987 10.6366 10.0191 10.4837 10.0191 10.3472C10.0191 10.2108 9.98953 10.0934 9.93051 9.99509C9.86893 9.89408 9.7881 9.79856 9.68802 9.70848C9.58794 9.6184 9.46862 9.53377 9.33005 9.45461C9.19148 9.37818 9.02982 9.31675 8.84506 9.27035C8.6603 9.22394 8.41526 9.17889 8.10989 9.13521C7.8071 9.09427 7.55946 9.04651 7.367 8.99191C7.17711 8.93459 6.98594 8.88954 6.79349 8.85678C6.59846 8.82129 6.40854 8.80765 6.22379 8.81584C6.03646 8.82403 5.86713 8.82948 5.71573 8.83221C5.56176 8.83767 5.42575 8.83767 5.30771 8.83221C5.19223 8.82675 5.0896 8.81993 4.99979 8.81174C4.91254 8.80629 4.84453 8.7981 4.79578 8.78718C4.74445 8.77353 4.71111 8.74759 4.69571 8.70938C4.67775 8.66843 4.68545 8.60701 4.71881 8.52511C4.75474 8.44049 4.8176 8.33675 4.90741 8.21391C4.99722 8.08834 5.11012 7.95596 5.24612 7.81674C5.37956 7.67752 5.53354 7.54648 5.70804 7.42364C5.88253 7.29807 6.08652 7.18207 6.32004 7.07561C6.55099 6.97188 6.79091 6.86403 7.03983 6.75211C7.28617 6.64292 7.52738 6.52692 7.76346 6.40408C7.99954 6.28123 8.23947 6.1652 8.48325 6.05601C8.72702 5.94682 8.98748 5.85538 9.26462 5.78168C9.54176 5.70797 9.83044 5.65747 10.1307 5.63018C10.4283 5.60015 10.7221 5.58514 11.0121 5.58514C11.2995 5.58514 11.5818 5.59741 11.8589 5.62198C12.1335 5.64382 12.4107 5.68613 12.6904 5.74891C12.9701 5.80897 13.2523 5.89088 13.5372 5.99461C13.822 6.09561 14.0992 6.21298 14.3686 6.34674C14.6406 6.4805 14.9177 6.62381 15.2 6.77668C15.4797 6.93228 15.7735 7.09333 16.0815 7.25985C16.3894 7.42909 16.7012 7.60655 17.0168 7.79218C17.3324 7.97507 17.6365 8.15795 17.929 8.34085C18.219 8.52374 18.5013 8.69846 18.7758 8.86498C19.0504 9.03149 19.3404 9.20892 19.6457 9.39728C19.9485 9.58563 20.2321 9.81901 20.4964 10.0975C20.7607 10.3732 21.0314 10.5984 21.3086 10.7731C21.5883 10.9505 21.8615 11.1143 22.1284 11.2644C22.3953 11.4146 22.6532 11.5538 22.9021 11.6821C23.151 11.8104 23.4012 11.9278 23.6527 12.0342C23.9042 12.138 24.1595 12.2335 24.4187 12.3209C24.6753 12.4082 24.9229 12.4901 25.1616 12.5666C25.4002 12.6457 25.6145 12.7303 25.8044 12.8204C25.9942 12.9132 26.1688 13.017 26.3279 13.1316C26.4844 13.2435 26.6178 13.3555 26.7281 13.4674C26.8359 13.5766 26.9052 13.6789 26.936 13.7745C26.9694 13.87 26.9668 13.9642 26.9283 14.057C26.8924 14.1471 26.8359 14.2331 26.7589 14.315C26.682 14.3969 26.5857 14.476 26.4703 14.5525C26.3522 14.6262 26.1995 14.6876 26.0122 14.7367C25.8249 14.7859 25.6145 14.8077 25.381 14.8023C25.1474 14.7968 24.8998 14.7627 24.6381 14.6999C24.3764 14.6344 24.0928 14.5552 23.7874 14.4624C23.4846 14.3696 23.169 14.2508 22.8405 14.1062C22.5121 13.9642 22.1977 13.8045 21.8975 13.6271C21.5973 13.4496 21.3278 13.2613 21.0892 13.062C20.8531 12.8627 20.6427 12.643 20.4579 12.4028C20.2732 12.1625 20.1051 11.8855 19.9537 11.5715C19.8023 11.2576 19.6714 10.9082 19.5611 10.5233C19.4507 10.1384 19.3802 9.72213 19.3494 9.27444C19.3186 8.82949 19.3314 8.35997 19.3878 7.86588C19.4417 7.37179 19.5367 6.86814 19.6727 6.35494C19.8087 5.84174 19.9999 5.33262 20.2462 4.82761C20.4926 4.31987 20.8005 3.82441 21.17 3.34124C21.5395 2.85534 21.9501 2.41723 22.4017 2.02687C22.8559 1.63378 23.2844 1.3608 23.6873 1.20794C24.0902 1.05507 24.5893 0.909022 25.1847 0.769803C25.78 0.633314 26.383 0.548693 26.9937 0.515936C27.6019 0.483178 28.205 0.500924 28.8029 0.569168C29.3982 0.637413 29.9922 0.754787 30.585 0.921304C31.1778 1.08509 31.7667 1.29801 32.3517 1.56007C32.9368 1.82213 33.5001 2.12649 34.0415 2.47318C34.5855 2.81986 35.0846 3.1952 35.5388 3.59921C35.9956 4.00322 36.4023 4.42224 36.759 4.85628C37.1157 5.29031 37.4454 5.73938 37.7482 6.20344C38.0485 6.67023 38.3384 7.15066 38.6181 7.64475C38.8978 8.13611 39.1557 8.63157 39.3918 9.13112C39.6279 9.63067 39.8255 10.1152 39.9846 10.5847C40.1437 11.057 40.2746 11.5087 40.3772 11.9401C40.4773 12.3714 40.5517 12.7713 40.6004 13.1398C40.6466 13.5083 40.6774 13.8304 40.6928 14.1062C40.7057 14.3819 40.7133 14.6166 40.7159 14.8104C40.7185 15.0042 40.7133 15.1612 40.7005 15.2813C40.6877 15.4042 40.6672 15.4847 40.6389 15.5229C40.6133 15.5584 40.5838 15.572 40.5504 15.5639C40.5196 15.5529 40.4863 15.5243 40.4503 15.4779C40.4119 15.4315 40.3708 15.3605 40.3271 15.265C40.2835 15.1721 40.2437 15.0643 40.2078 14.9415C40.1719 14.8186 40.1424 14.6931 40.1193 14.5648C40.0936 14.4392 40.068 14.3095 40.0423 14.1758C40.0167 14.042 39.9884 13.9082 39.9576 13.7745C39.9294 13.6407 39.8948 13.5097 39.8537 13.3814C39.8126 13.2558 39.7562 13.1289 39.6844 13.0006C39.6125 12.8696 39.515 12.7249 39.3918 12.5666C39.2712 12.4082 39.1467 12.2294 39.0184 12.0301C38.8927 11.8309 38.7926 11.622 38.7182 11.4037C38.6438 11.1825 38.5232 10.9492 38.3564 10.7035C38.1871 10.4578 38.0164 10.1793 37.8445 9.86815C37.6725 9.55696 37.5083 9.22258 37.3518 8.86498C37.1952 8.51011 37.0554 8.14295 36.9322 7.76351C36.809 7.38407 36.7192 7.00325 36.6628 6.62108C36.6089 6.24164 36.5884 5.86766 36.6012 5.49914C36.614 5.13062 36.6461 4.78258 36.6974 4.45501C36.7513 4.12743 36.8193 3.82715 36.9014 3.55417C36.9861 3.2812 37.1041 3.0396 37.2555 2.82941C37.4044 2.62195 37.6007 2.44999 37.8445 2.3135C38.0857 2.17701 38.3705 2.08147 38.6989 2.02687C39.0248 1.97227 39.3841 1.96272 39.7767 1.9982C40.1668 2.03369 40.5915 2.10876 41.0508 2.22341C41.5127 2.33806 42.0067 2.48684 42.5327 2.66974C43.0588 2.8499 43.6117 3.06419 44.1917 3.3126C44.7742 3.55828 45.3798 3.83397 46.0085 4.13971C46.6372 4.44545 47.271 4.76892 47.91 5.11015C48.5515 5.45137 49.184 5.8117 49.8076 6.19114C50.4311 6.57331 51.0316 6.97596 51.609 7.39908C52.1863 7.82219 52.7291 8.25078 53.2372 8.68481C53.7478 9.11612 54.2212 9.54333 54.6575 9.96644C55.0937 10.3868 55.4876 10.7963 55.8392 11.1948C56.1907 11.5934 56.4871 11.9756 56.7283 12.3413C56.9695 12.7071 57.1787 13.0456 57.3557 13.3568C57.5328 13.6707 57.6855 13.9465 57.8138 14.184C57.9447 14.4214 58.0409 14.6194 58.1025 14.7777C58.1641 14.936 58.1923 15.0616 58.1871 15.1544C58.1846 15.2472 58.1538 15.3059 58.0948 15.3305C58.0383 15.3523 57.9562 15.3277 57.8484 15.2568C57.7406 15.1858 57.4751 15.0916 57.0517 14.9742C56.6283 14.8596 56.3485 14.6876 56.2125 14.4583C56.074 14.2317 55.9367 13.9874 55.8007 13.7254C55.6621 13.4606 55.5235 13.1958 55.385 12.931C55.249 12.6662 55.1271 12.4028 55.0193 12.1407C54.9141 11.8787 54.841 11.6152 54.7999 11.3504C54.7614 11.0829 54.7486 10.8318 54.7614 10.597C54.7742 10.3595 54.7845 10.1602 54.7922 9.99918C54.7973 9.8354 54.8025 9.70028 54.8076 9.59382C54.8102 9.48462 54.8192 9.4 54.8346 9.33995C54.85 9.27989 54.8718 9.23758 54.9 9.21301C54.9308 9.18845 54.9629 9.1707 54.9962 9.15978C55.0296 9.14886 55.0655 9.13659 55.104 9.12294C55.1425 9.10657 55.1912 9.0929 55.2502 9.08198C55.3093 9.07106 55.3722 9.05605 55.4389 9.03695C55.5056 9.01511 55.5736 8.99462 55.6429 8.97552C55.7121 8.95641 55.7891 8.93047 55.8738 8.89772C55.9559 8.86496 56.0457 8.81446 56.1432 8.74622C56.2433 8.6807 56.3331 8.59334 56.4127 8.48415C56.4922 8.37769 56.5769 8.25486 56.6667 8.11565C56.7566 7.97643 56.8605 7.83857 56.9785 7.70208C57.0991 7.56559 57.2274 7.4291 57.3634 7.29261C57.4969 7.15612 57.6367 7.00599 57.783 6.84221C57.9318 6.67569 58.1025 6.49824 58.2949 6.30988C58.4874 6.12153 58.6824 5.95091 58.88 5.79805C59.0802 5.64791 59.2662 5.53327 59.4381 5.45411C59.61 5.37494 59.7768 5.32581 59.9385 5.30671C60.1002 5.2876 60.2772 5.28486 60.4697 5.29851C60.6622 5.31489 60.87 5.34901 61.0933 5.40088C61.3165 5.45274 61.5616 5.53462 61.8284 5.64655C62.0953 5.75574 62.3814 5.89907 62.6868 6.07651C62.9947 6.25667 63.3001 6.44774 63.6029 6.64975" stroke="black" stroke-linecap="round" stroke-linejoin="round"/>
</svg>
