<?xml version="1.0" encoding="UTF-8"?>
<svg id="Layer_1" xmlns="http://www.w3.org/2000/svg" version="1.1" viewBox="0 0 241.72 108.63">
  <!-- Generator: Adobe Illustrator 29.8.1, SVG Export Plug-In . SVG Version: 2.1.1 Build 2)  -->
  <defs>
    <style>
      .st0 {
        fill: none;
        stroke: #262626;
        stroke-miterlimit: 10;
        stroke-width: 4px;
      }
    </style>
  </defs>
  <path class="st0" d="M81.11,97.51c3.9-7.17,9.54-19.96,9.91-36.52.73-32.33-19.05-59.75-23.19-58.3-2.58.9.14,13.45,1.39,21.97,4.83,33.09,84.82,63.88,94.46,50.2,8.35-11.86-30.85-63.55-51.19-57.8-21.98,6.22-22.57,79.5-19.19,80.44.17.05.4-.12.69-.51,7.69-10.26,13.94-85.97-2.97-94.46-1.23-.62-1.9-.54-2.28-.42-5.4,1.64,3.43,23.8-4,47.98-3.31,10.78-4.67,21.05-12.88,27.74-18.57,15.13-57.95,5.13-67.38-15.85-.66-1.46-3.27-7.29-2.08-11.85,3.51-13.45,42.08-23.48,193.79-9.42"/>
  <path class="st0" d="M240.82,27.94c-47.54,62.03-47.81,73.95-45.58,76.95.45.61.93.75,1.1.79,7.9,1.64,27.54-64.65,19.38-86.66-8.59-23.12-6.61,26.75-6.61,26.75-.12,4.37.39,10.57,3.8,16.56,4.02,7.06,8.68,7.9,12.58,14.48,5.09,8.57,5.11,20.48,2.45,21.48-6.45,2.42-39.77-54.75-29.97-63.76,4.67-4.29,17.99,3.34,19.17,4.02,7.13,4.09,17.32,13.3,14.96,20.42-1.69,5.1-9.05,6.83-12.29,7.6-14.02,3.32-26.41-4.44-30.51-7.26l-28.61-21.8"/>
</svg>