<?xml version="1.0" encoding="UTF-8"?>
<svg id="Layer_1" xmlns="http://www.w3.org/2000/svg" version="1.1" viewBox="0 0 593.66 114.95">
  <!-- Generator: Adobe Illustrator 29.8.1, SVG Export Plug-In . SVG Version: 2.1.1 Build 2)  -->
  <defs>
    <style>
      .st0 {
        fill: none;
        stroke: #262626;
        stroke-miterlimit: 10;
        stroke-width: 4px;
      }
    </style>
  </defs>
  <path class="st0" d="M25.25,14.83s44.59,32.7-6.94,84.22,34.68-56.39,43.6-61.88c8.92-5.49-3.96,39.09-11.89,51.97,0,0-1.41,3.44-1.01,3.64,1.55.79,24.55-54.67,37.79-52.05,10.74,2.13,10.36,41.54,14.74,41.49,5.32-.07,4.53-58.11,16.35-60.05,12.44-2.04,36.91,58.42,41.77,56.37.33-.14,1.56-.91,2.32-2.26,7.56-13.43-24-19.75-23.58-26.79.14-2.38,3.17-4.32,3.76-3.93,2.25,1.49-17.43,43.85-29.72,41.61-3.37-.61-5.76-4.51-6.67-7.49-6.73-22.06,44.63-69.17,99.81-76.73,24.09-3.3,46.73,1.23,47.56,6.94,1.06,7.25-33.96,10.02-43.92,34.37-5.24,12.81-3.49,31.46,6.27,37.96,13.79,9.19,31.06-14.23,68.82-13.88,20.8.19,42.32,7.55,42.1,11.72-.16,2.95-11.22,5.42-20.59,4.14-50.69-6.94,36.5-49.45,40.46-47.02s32.7,6.39,23.78,40.08c-1.49,5.63-1.54,8.26-.59,8.73,3.28,1.64,25.06-51.32,34.28-48.81,5.63,1.53.64,22,10.17,27.56,7.37,4.3,19.76-2.45,31.44-11.26,44.72-32.57,60.57-34.68,66.39-29.72,8.42,7.17-5.23,28.17,4.88,46.2,9.13,16.28,32.39,20.77,51.21,21.94"/>
</svg>