<svg width="124" height="19" viewBox="0 0 124 19" fill="none" xmlns="http://www.w3.org/2000/svg">
<path d="M0.5 1.327C1.1056 1.39252 1.69455 1.50307 2.26678 1.65867C2.84159 1.81154 3.38559 2.02173 3.8988 2.28925C4.41202 2.55404 4.89447 2.86387 5.3461 3.21874C5.79773 3.57361 6.21214 3.96124 6.58936 4.38163C6.96657 4.80474 7.29372 5.24015 7.57086 5.68783C7.84543 6.13824 8.07382 6.58866 8.25601 7.03907C8.43564 7.48949 8.58706 7.9358 8.71024 8.37803C8.83341 8.81752 8.92834 9.25292 8.99506 9.68423C9.06434 10.1155 9.10409 10.51 9.11435 10.8676C9.12461 11.2252 9.11051 11.535 9.07202 11.7971C9.03353 12.0619 8.98221 12.2857 8.91806 12.4686C8.85391 12.6542 8.78721 12.8139 8.71793 12.9477C8.64864 13.0787 8.57936 13.1729 8.51007 13.2302C8.44079 13.2875 8.36891 13.3203 8.29449 13.3285C8.21751 13.3339 8.13924 13.3421 8.05969 13.3531C7.98014 13.364 7.90833 13.3735 7.84418 13.3817C7.77746 13.3872 7.71716 13.3831 7.66327 13.3694C7.60938 13.3558 7.55161 13.3394 7.49002 13.3203C7.42843 13.3039 7.37712 13.2834 7.33606 13.2589C7.29244 13.2316 7.2963 13.0173 7.34763 12.616C7.39638 12.2147 7.44255 12.0168 7.48618 12.0223C7.5298 12.0277 7.56187 12.0359 7.5824 12.0469C7.60549 12.0578 7.62605 12.0714 7.64401 12.0878C7.66198 12.1042 7.6684 12.1233 7.66327 12.1451C7.6607 12.167 7.63116 12.1902 7.57471 12.2147C7.52082 12.2366 7.45156 12.253 7.36688 12.2639C7.28477 12.2748 7.21548 12.2789 7.15903 12.2762C7.10257 12.2734 7.05123 12.2557 7.00504 12.2229C6.95885 12.1902 6.90113 12.1342 6.83185 12.055C6.76513 11.9759 6.68686 11.8653 6.59705 11.7234C6.5098 11.5842 6.42769 11.4108 6.35071 11.2034C6.27373 10.9986 6.21854 10.7734 6.18518 10.5277C6.15182 10.2848 6.14923 10.0268 6.17746 9.75384C6.20825 9.48086 6.25829 9.19969 6.32758 8.91033C6.39686 8.62371 6.48415 8.34118 6.58936 8.06274C6.69457 7.7843 6.82671 7.51542 6.98581 7.25609C7.14747 6.99676 7.34376 6.74835 7.57471 6.51086C7.80309 6.27064 8.06227 6.04953 8.35223 5.84752C8.6422 5.64279 8.94371 5.46535 9.25677 5.31521C9.56984 5.16781 9.88164 5.06134 10.1921 4.99583C10.5001 4.93031 10.8119 4.91394 11.1275 4.94669C11.4406 4.97945 11.769 5.05862 12.1129 5.18419C12.4567 5.30976 12.8095 5.48037 13.1714 5.69602C13.5332 5.90894 13.8989 6.15872 14.2684 6.44535C14.6353 6.7347 15.001 7.04999 15.3654 7.39121C15.7272 7.73244 16.0813 8.08185 16.4277 8.43945C16.7741 8.79432 17.1142 9.13554 17.4478 9.46312C17.7839 9.79342 18.1214 10.0923 18.4601 10.3599C18.7988 10.6274 19.126 10.8744 19.4416 11.101C19.7572 11.3276 20.1165 11.5541 20.5193 11.7807C20.9197 12.0073 21.2764 12.1642 21.5894 12.2516C21.8999 12.3389 22.2155 12.384 22.5363 12.3867C22.8545 12.3867 23.174 12.3567 23.4947 12.2966C23.8155 12.2338 24.1324 12.1287 24.4455 11.9813C24.7611 11.8339 25.0716 11.651 25.377 11.4327C25.6849 11.2143 25.9915 10.985 26.2969 10.7448C26.5997 10.5045 26.8948 10.2848 27.1822 10.0855C27.4671 9.88351 27.7236 9.7047 27.952 9.5491C28.1804 9.3935 28.3934 9.27612 28.591 9.19696C28.7886 9.11507 28.9772 9.07822 29.1569 9.08641C29.3365 9.0946 29.4917 9.14373 29.6226 9.23382C29.7534 9.32663 29.8458 9.45902 29.8997 9.631C29.9536 9.80025 29.9793 9.99679 29.9767 10.2206C29.9741 10.4417 29.9305 10.6738 29.8458 10.9167C29.7611 11.1569 29.6226 11.4013 29.4301 11.6497C29.2351 11.8981 28.999 12.1383 28.7219 12.3703C28.4473 12.6024 28.1547 12.8085 27.8442 12.9886C27.5363 13.1688 27.2092 13.3285 26.8627 13.4677C26.5189 13.6042 26.1802 13.7079 25.8466 13.7789C25.513 13.8526 25.1973 13.8731 24.8997 13.8403C24.5994 13.8103 24.3172 13.7284 24.0529 13.5946C23.7886 13.4636 23.5435 13.3012 23.3177 13.1074C23.0919 12.9108 22.8892 12.6897 22.7095 12.444C22.5299 12.1956 22.3772 11.9226 22.2515 11.6251C22.1232 11.3276 22.0321 11.0095 21.9782 10.671C21.9243 10.3326 21.9076 9.98723 21.9281 9.63509C21.9487 9.28022 21.9936 8.93217 22.0629 8.59095C22.1322 8.25246 22.2322 7.92215 22.3631 7.60004C22.4965 7.27793 22.6608 6.95854 22.8558 6.64189C23.0534 6.32796 23.0906 5.969 22.9674 5.56499C22.8417 5.16371 22.9276 4.80202 23.2253 4.4799C23.5204 4.15779 23.8527 3.88208 24.2222 3.65278C24.5943 3.42075 24.9921 3.24195 25.4155 3.11638C25.8389 2.99354 26.261 2.90891 26.6818 2.86251C27.1027 2.81883 27.5184 2.80791 27.929 2.82975C28.337 2.84886 28.7386 2.90618 29.1337 3.00173C29.5289 3.09727 29.9087 3.22557 30.2731 3.38662C30.6375 3.54768 30.9865 3.72375 31.3201 3.91484C31.6537 4.10865 31.9783 4.31612 32.2939 4.53723C32.6095 4.75834 32.9187 4.99037 33.2215 5.23332C33.5217 5.47627 33.8117 5.7124 34.0914 5.9417C34.3711 6.17373 34.638 6.39757 34.892 6.61322C35.1461 6.82615 35.3886 7.04044 35.6195 7.25609C35.8479 7.47174 36.075 7.67648 36.3008 7.87029C36.524 8.06683 36.7486 8.26474 36.9744 8.46402C37.1977 8.66056 37.4235 8.87212 37.6519 9.09869C37.8802 9.32526 38.124 9.56275 38.3832 9.81116C38.6398 10.0596 38.9131 10.3148 39.2031 10.5769C39.493 10.8362 39.7689 11.1078 40.0306 11.3917C40.2924 11.6756 40.5272 11.9704 40.735 12.2762C40.9429 12.5792 41.1392 12.8849 41.324 13.1934C41.5062 13.4991 41.6908 13.7939 41.8782 14.0778C42.0655 14.3644 42.2452 14.6347 42.4171 14.8886C42.5916 15.1424 42.7597 15.3922 42.9213 15.6379C43.083 15.8836 43.2421 16.1279 43.3986 16.3708C43.5552 16.6138 43.7015 16.839 43.8375 17.0465C43.9735 17.2566 44.0889 17.4273 44.1838 17.5583C44.2788 17.6893 44.3584 17.7876 44.4225 17.8531C44.4893 17.9159 44.5379 17.9432 44.5687 17.935C44.5995 17.9268 44.3494 17.718 43.8182 17.3085C43.2844 16.9018 42.9983 16.6151 42.9598 16.4486C42.9188 16.2848 42.8828 16.0787 42.8521 15.8303C42.8213 15.5847 42.8007 15.2871 42.7905 14.9377C42.7802 14.5855 42.7648 14.1856 42.7443 13.738C42.7237 13.2903 42.6904 12.8126 42.6442 12.3048C42.598 11.7971 42.5556 11.2702 42.5172 10.7243C42.4787 10.1783 42.462 9.62418 42.4671 9.06184C42.4722 8.50224 42.4876 7.95082 42.5133 7.40759C42.5415 6.86436 42.5672 6.33478 42.5903 5.81886C42.6134 5.30566 42.6391 4.81566 42.6673 4.34887C42.6955 3.87935 42.7366 3.44258 42.7905 3.03858C42.8444 2.63457 42.9226 2.26332 43.0253 1.92482C43.1279 1.58906 43.2587 1.30244 43.4178 1.06494C43.5769 0.824723 43.7463 0.6623 43.926 0.577677C44.1056 0.490324 44.2839 0.476676 44.461 0.536731C44.6381 0.596786 44.819 0.716899 45.0037 0.897064C45.1885 1.07996 45.3822 1.32291 45.5849 1.62592C45.7876 1.92892 45.993 2.28516 46.2008 2.69463C46.4087 3.10409 46.6216 3.5354 46.8397 3.98854C47.0553 4.44168 47.2747 4.89483 47.498 5.34797C47.7187 5.80111 47.9419 6.24744 48.1677 6.68693C48.3961 7.12643 48.6322 7.56183 48.876 7.99313C49.1198 8.42717 49.3661 8.84073 49.615 9.23382C49.8639 9.62417 50.1013 9.99269 50.3271 10.3394C50.5555 10.6888 50.7697 11.0177 50.9698 11.3262C51.17 11.6347 51.3638 11.9254 51.5511 12.1984C51.7384 12.4713 51.9295 12.7129 52.1246 12.9231C52.3222 13.1333 52.5364 13.3217 52.7674 13.4882C53.0009 13.6574 53.2268 13.7966 53.4449 13.9058C53.6656 14.0178 53.8054 13.9836 53.8644 13.8035C53.9209 13.6206 54.0261 13.5114 54.1801 13.4759C54.3315 13.4404 54.5008 13.4117 54.6881 13.3899C54.8729 13.3708 55.0641 13.3653 55.2617 13.3735C55.4567 13.3817 55.6453 13.3885 55.8275 13.394C56.0071 13.3967 56.1752 13.3913 56.3317 13.3776C56.4908 13.3667 56.6371 13.3572 56.7705 13.349C56.9039 13.3435 57.0245 13.3421 57.1323 13.3449C57.2401 13.3449 57.3466 13.3353 57.4518 13.3162C57.5571 13.2944 57.6494 13.2657 57.7289 13.2302C57.8059 13.1975 57.8586 13.1524 57.8868 13.0951C57.9124 13.0405 57.9214 12.9627 57.9137 12.8617C57.906 12.758 57.9022 12.6297 57.9022 12.4768C57.9047 12.3212 57.9227 12.1519 57.9561 11.9691C57.9868 11.7862 58.0176 11.5746 58.0484 11.3344C58.0766 11.0969 58.1011 10.8239 58.1216 10.5154C58.1447 10.2042 58.1793 9.87804 58.2255 9.53682C58.2691 9.19287 58.3358 8.8612 58.4257 8.54182C58.5155 8.2197 58.6143 7.91396 58.722 7.62461C58.8324 7.33252 58.9645 7.03634 59.1185 6.73606C59.275 6.43852 59.456 6.13824 59.6613 5.83524C59.8691 5.53223 60.0949 5.25516 60.3387 5.00402C60.5825 4.75561 60.8468 4.54405 61.1316 4.36934C61.4139 4.19737 61.7205 4.05815 62.0515 3.95169C62.38 3.84796 62.7021 3.7879 63.0177 3.77152C63.3308 3.75787 63.6169 3.78654 63.876 3.85751C64.1326 3.93121 64.3726 4.03904 64.5958 4.18099C64.8191 4.32294 65.0398 4.50037 65.2579 4.7133C65.4734 4.92622 65.6684 5.17736 65.8429 5.46672C66.02 5.75608 66.174 6.05498 66.3049 6.36345C66.4357 6.67464 66.6512 6.96946 66.9515 7.2479C67.2517 7.52634 67.4301 7.80887 67.4865 8.0955C67.543 8.38213 67.5597 8.65237 67.5366 8.90624C67.516 9.15738 67.4596 9.37577 67.3672 9.56139C67.2774 9.74975 67.1747 9.89442 67.0593 9.99543C66.9464 10.0964 66.8412 10.151 66.7437 10.1592C66.6436 10.1647 66.5473 10.1305 66.455 10.0568C66.3626 9.98314 66.2612 9.87668 66.1509 9.73746C66.0405 9.60097 65.9378 9.45356 65.8429 9.29523C65.7454 9.13691 65.6582 8.98131 65.5812 8.82844C65.5043 8.67557 65.4298 8.52407 65.3579 8.37393C65.2835 8.22107 65.2245 8.08048 65.1809 7.95218C65.1347 7.82661 65.1295 7.74199 65.1655 7.69831C65.204 7.65464 65.2784 7.64918 65.3887 7.68193C65.4991 7.71196 65.6261 7.77611 65.7698 7.87438C65.9135 7.97265 66.0611 8.10641 66.2125 8.27566C66.3639 8.44218 66.5204 8.64009 66.6821 8.86939C66.8463 9.09869 67.0182 9.343 67.1978 9.60233C67.3749 9.86166 67.5571 10.1319 67.7444 10.4131C67.9318 10.6915 68.1255 10.9809 68.3256 11.2812C68.5258 11.5814 68.7337 11.8899 68.9492 12.2065C69.1648 12.5232 69.3828 12.8371 69.6035 13.1483C69.8242 13.4595 70.0474 13.7502 70.2733 14.0205C70.4965 14.288 70.7301 14.5296 70.9739 14.7452C71.2177 14.9609 71.4576 15.1383 71.6937 15.2776C71.9323 15.4168 72.1683 15.4959 72.4019 15.515C72.6379 15.5342 72.883 15.485 73.1371 15.3676C73.3911 15.2503 73.6464 15.0892 73.903 14.8845C74.1571 14.677 74.4022 14.4259 74.6382 14.131C74.8718 13.8362 75.1181 13.5005 75.3773 13.1238C75.6364 12.747 75.7994 12.3198 75.8661 11.8421C75.9302 11.3644 76.0791 10.9031 76.3126 10.4581C76.5461 10.0104 76.7783 9.56821 77.0093 9.13145C77.2428 8.69195 77.4892 8.27566 77.7484 7.88257C78.0101 7.48949 78.2743 7.12097 78.5412 6.77701C78.8081 6.43306 79.0622 6.11231 79.3034 5.81476C79.5421 5.51449 79.773 5.24287 79.9962 4.99992C80.2169 4.75424 80.4466 4.54268 80.6852 4.36525C80.9213 4.18508 81.1522 4.03358 81.3781 3.91074C81.6064 3.78517 81.8194 3.6869 82.017 3.61593C82.2146 3.54768 82.4032 3.50127 82.5828 3.47671C82.765 3.45487 82.9395 3.45896 83.1063 3.48899C83.2757 3.52175 83.4284 3.57361 83.5644 3.64459C83.7004 3.71829 83.8197 3.80565 83.9224 3.90665C84.0224 4.00765 84.1097 4.12366 84.1841 4.25469C84.2559 4.38299 84.3175 4.5304 84.3688 4.69692C84.4202 4.86071 84.4638 5.03951 84.4997 5.23332C84.5356 5.42714 84.5741 5.62641 84.6152 5.83115C84.6588 6.03588 84.7062 6.2488 84.7576 6.46991C84.8089 6.69103 84.8641 6.91896 84.9231 7.15372C84.9847 7.39121 85.0489 7.62734 85.1156 7.8621C85.1823 8.09686 85.2554 8.33298 85.335 8.57048C85.4119 8.8107 85.4966 9.06047 85.589 9.3198C85.6814 9.58186 85.7789 9.86576 85.8815 10.1715C85.9867 10.4745 86.0855 10.7898 86.1779 11.1174C86.2703 11.4422 86.3511 11.7766 86.4204 12.1206C86.4897 12.4618 86.5474 12.8098 86.5936 13.1647C86.6424 13.5168 86.677 13.8717 86.6976 14.2293C86.7207 14.5842 86.7245 14.9281 86.7091 15.2612C86.6911 15.5969 86.6616 15.9122 86.6205 16.207C86.5769 16.4991 86.5538 16.5578 86.5513 16.3831C86.5487 16.2057 86.5487 16.2016 86.5513 16.3708C86.5564 16.5401 86.5346 16.6684 86.4858 16.7557C86.4345 16.8458 86.3575 16.8949 86.2549 16.9031C86.1497 16.9141 86.0445 16.8922 85.9393 16.8376C85.8341 16.7803 85.7417 16.6834 85.6621 16.5469C85.5826 16.4104 85.5095 16.2289 85.4427 16.0023C85.376 15.7785 85.3054 15.5137 85.231 15.2079C85.1566 14.9049 85.0886 14.5637 85.027 14.1843C84.9655 13.8048 84.9397 13.394 84.95 12.9518C84.9577 12.5068 85.0232 12.0482 85.1464 11.576C85.2695 11.1037 85.435 10.6192 85.6429 10.1224C85.8507 9.62554 86.0779 9.1178 86.3242 8.59914C86.568 8.07775 86.831 7.54545 87.1133 7.00222C87.3981 6.459 87.7163 5.92668 88.0678 5.4053C88.4194 4.88391 88.8005 4.39528 89.2111 3.9394C89.6191 3.48353 90.0502 3.06861 90.5044 2.69463C90.9612 2.32065 91.4474 1.99989 91.9631 1.73237C92.4789 1.46213 93.0179 1.25603 93.5798 1.11408C94.1418 0.972133 94.7102 0.902522 95.285 0.905252C95.8598 0.907982 96.4384 0.983052 97.0209 1.13046C97.606 1.27514 98.1872 1.48533 98.7646 1.76104C99.3394 2.03675 99.8937 2.36296 100.427 2.73967C100.961 3.11638 101.471 3.52994 101.956 3.98035C102.443 4.43077 102.892 4.8921 103.303 5.36435C103.713 5.83661 104.082 6.30749 104.407 6.77701C104.731 7.24381 105.016 7.69695 105.262 8.13644C105.506 8.57321 105.711 8.97995 105.878 9.35666C106.045 9.7361 106.163 10.0841 106.232 10.4008C106.301 10.7202 106.346 11.0054 106.367 11.2566C106.39 11.5105 106.515 11.7452 106.744 11.9609C106.97 12.1792 107.071 12.3444 107.048 12.4563C107.025 12.571 106.965 12.6515 106.867 12.6979C106.77 12.747 106.646 12.7607 106.497 12.7389C106.346 12.717 106.182 12.6583 106.005 12.5628C105.828 12.4645 105.643 12.3376 105.451 12.182C105.261 12.0264 105.061 11.8571 104.85 11.6742C104.642 11.4913 104.425 11.3248 104.2 11.1747C103.974 11.0273 103.747 10.8976 103.518 10.7857C103.287 10.6738 103.074 10.5837 102.879 10.5154C102.687 10.4445 102.521 10.4049 102.383 10.3967C102.244 10.3885 102.122 10.409 102.017 10.4581C101.912 10.5045 101.82 10.5646 101.74 10.6383C101.66 10.712 101.586 10.798 101.517 10.8963C101.45 10.9945 101.383 11.1146 101.317 11.2566C101.252 11.3958 101.195 11.5514 101.143 11.7234C101.092 11.8981 101.05 12.0673 101.016 12.2311C100.983 12.3976 100.964 12.5396 100.959 12.657C100.951 12.7743 100.965 12.8644 101.001 12.9272C101.039 12.9927 101.088 13.0337 101.147 13.05C101.209 13.0637 101.273 13.0555 101.34 13.0255C101.406 12.9955 101.487 12.9463 101.582 12.8781C101.675 12.8098 101.782 12.7184 101.906 12.6037C102.029 12.4891 102.165 12.3471 102.313 12.1779C102.462 12.0059 102.637 11.823 102.837 11.6292C103.037 11.4354 103.265 11.2443 103.522 11.0559C103.776 10.8649 104.048 10.6738 104.338 10.4827C104.628 10.2889 104.928 10.0841 105.239 9.86849C105.547 9.65557 105.868 9.43172 106.201 9.19696C106.535 8.9622 106.873 8.72607 107.217 8.48858C107.561 8.25109 107.89 8.02998 108.203 7.82525C108.516 7.62052 108.824 7.42124 109.126 7.22742C109.429 7.03634 109.745 6.84935 110.073 6.66646C110.402 6.48356 110.733 6.30885 111.066 6.14234C111.403 5.97855 111.728 5.84616 112.044 5.74515C112.36 5.64688 112.66 5.5882 112.945 5.56909C113.23 5.54998 113.508 5.5527 113.78 5.57727C114.05 5.60457 114.315 5.63597 114.577 5.67145C114.839 5.70967 115.095 5.74925 115.347 5.7902C115.601 5.83387 115.843 5.88983 116.074 5.95808C116.305 6.02632 116.523 6.10685 116.729 6.19966C116.931 6.29521 117.125 6.38938 117.31 6.4822C117.497 6.57774 117.684 6.67055 117.872 6.76063C118.059 6.85344 118.255 6.95035 118.461 7.05136C118.663 7.15236 118.867 7.25063 119.073 7.34617C119.28 7.44172 119.484 7.51815 119.685 7.57547C119.885 7.63553 120.084 7.68876 120.281 7.73517C120.479 7.78157 120.67 7.84708 120.855 7.93171C121.04 8.01906 121.219 8.1187 121.394 8.23062C121.568 8.34527 121.734 8.46811 121.89 8.59914C122.047 8.73017 122.196 8.88441 122.337 9.06184C122.48 9.23928 122.619 9.44264 122.752 9.67194C122.888 9.90124 123.01 10.1401 123.118 10.3885C123.223 10.6369 123.309 10.8908 123.376 11.1501C123.443 11.4094 123.475 11.6756 123.472 11.9486C123.472 12.2243 123.423 12.4959 123.326 12.7634C123.231 13.0309 123.098 13.2862 122.926 13.5291C122.754 13.7721 122.568 14.0164 122.368 14.2621C122.17 14.505 121.958 14.748 121.732 14.9909C121.507 15.2339 121.272 15.4564 121.028 15.6584C120.784 15.8604 120.56 15.7907 120.354 15.4495C120.147 15.1056 119.935 14.9991 119.719 15.1301C119.504 15.2612 119.273 15.3526 119.026 15.4045C118.783 15.4591 118.527 15.455 118.26 15.3922C117.996 15.3294 117.727 15.2216 117.452 15.0687C117.178 14.9159 116.913 14.733 116.659 14.52C116.405 14.3071 116.174 14.0587 115.966 13.7748C115.761 13.4882 115.584 13.1538 115.435 12.7716C115.289 12.3894 115.144 11.7602 115 10.884" stroke="black" stroke-linecap="round" stroke-linejoin="round"/>
</svg>
