<svg width="62" height="19" viewBox="0 0 62 19" fill="none" xmlns="http://www.w3.org/2000/svg">
<path d="M1.05977 10.2909C1.36514 10.4574 1.67052 10.6226 1.97588 10.7864C2.28381 10.9474 2.58532 11.1098 2.88042 11.2736C3.17552 11.4347 3.45395 11.593 3.71569 11.7486C3.97743 11.9042 4.22505 12.0393 4.45856 12.154C4.69208 12.2686 4.91918 12.3587 5.13987 12.4242C5.35798 12.4897 5.55171 12.5362 5.72107 12.5635C5.88787 12.5935 6.02516 12.6071 6.13294 12.6044C6.24328 12.6017 6.33309 12.5798 6.40238 12.5389C6.47166 12.5007 6.51785 12.4433 6.54094 12.3669C6.56147 12.2932 6.55891 12.199 6.53325 12.0844C6.51016 11.967 6.4691 11.8414 6.41008 11.7077C6.35106 11.5712 6.27665 11.4292 6.18683 11.2818C6.09702 11.1344 5.98924 10.9843 5.8635 10.8314C5.74033 10.6785 5.59662 10.5284 5.43239 10.381C5.26816 10.2336 5.0834 10.0957 4.87812 9.96743C4.67283 9.84186 4.456 9.7354 4.22762 9.64805C3.99924 9.56069 3.767 9.49927 3.53092 9.46378C3.29484 9.42829 3.06389 9.41465 2.83808 9.42284C2.6097 9.43103 2.38902 9.45014 2.17603 9.48016C1.96304 9.50746 1.75776 9.55113 1.56017 9.61119C1.36258 9.67125 1.18295 9.7354 1.02129 9.80364C0.862193 9.87188 0.776233 9.95924 0.763402 10.0657C0.750572 10.1694 0.712076 10.2445 0.647924 10.2909C0.583772 10.3373 0.541438 10.3864 0.52091 10.4383C0.497815 10.4902 0.493962 10.5366 0.509359 10.5775C0.524755 10.6157 0.567088 10.6226 0.636373 10.598C0.705657 10.5762 0.81216 10.5066 0.955861 10.3892C1.09956 10.2718 1.27919 10.1189 1.49474 9.93057C1.70773 9.74222 1.94508 9.53612 2.20682 9.31228C2.46856 9.08844 2.75083 8.84549 3.05362 8.58343C3.35642 8.3241 3.67205 8.04839 4.00051 7.7563C4.3264 7.46422 4.67028 7.16394 5.03209 6.85548C5.39648 6.54974 5.77241 6.23991 6.15989 5.92598C6.54993 5.61479 6.9387 5.30633 7.32618 5.00059C7.71366 4.69759 8.0947 4.40414 8.46935 4.12024C8.844 3.83907 9.24176 3.57155 9.6626 3.31768C10.0834 3.06654 10.5376 2.8427 11.0252 2.64615C11.5127 2.44961 12.008 2.28719 12.5109 2.15889C13.0139 2.03059 13.4963 1.9405 13.9582 1.88864C14.4227 1.83404 14.8692 1.82449 15.2977 1.85998C15.7237 1.89547 16.1356 1.97736 16.5333 2.10565C16.931 2.23122 17.3147 2.40047 17.6842 2.6134C18.0537 2.82632 18.4078 3.07883 18.7465 3.37091C19.0878 3.663 19.4112 3.9933 19.7165 4.36182C20.0219 4.73034 20.3106 5.1248 20.5826 5.54518C20.8546 5.9683 21.1073 6.40779 21.3409 6.86367C21.5769 7.31954 21.7899 7.78633 21.9798 8.26405C22.1672 8.74176 22.3275 9.22629 22.461 9.71766C22.5918 10.209 22.697 10.6949 22.7766 11.1754C22.8561 11.6585 22.91 12.1158 22.9382 12.5471C22.9665 12.9811 22.9896 13.3742 23.0075 13.7263C23.0281 14.0757 23.2359 14.5071 23.6311 15.0203C24.0288 15.5307 24.2239 15.902 24.2162 16.134C24.211 16.366 24.1931 16.5544 24.1623 16.6991C24.1315 16.841 24.0917 16.942 24.043 17.0021C23.9942 17.0594 23.9172 17.084 23.812 17.0758C23.7042 17.0649 23.5516 17.0253 23.354 16.957C23.1538 16.8888 22.9216 16.7837 22.6573 16.6417C22.3904 16.5025 22.1209 16.321 21.8489 16.0972C21.5769 15.876 21.3036 15.6317 21.0291 15.3642C20.7545 15.094 20.4774 14.8032 20.1977 14.492C19.9205 14.1808 19.6473 13.8437 19.3778 13.4807C19.1109 13.1176 18.8556 12.7409 18.6118 12.3505C18.3681 11.9574 18.1294 11.5766 17.8959 11.2081C17.6624 10.8396 17.4225 10.482 17.1761 10.1353C16.9323 9.78863 16.7014 9.44195 16.4833 9.09526C16.2626 8.74585 16.0688 8.38825 15.902 8.02246C15.7327 7.65667 15.5877 7.28815 15.4671 6.91689C15.3465 6.54837 15.2503 6.19487 15.1784 5.85638C15.1091 5.52061 15.0822 5.19714 15.0976 4.88594C15.1155 4.57475 15.1835 4.28266 15.3016 4.00968C15.4196 3.7367 15.5864 3.47601 15.802 3.2276C16.0201 2.97919 16.2818 2.7376 16.5872 2.50284C16.8926 2.26808 17.2338 2.05106 17.611 1.85179C17.9883 1.65251 18.395 1.48326 18.8312 1.34405C19.2649 1.2021 19.7448 1.0738 20.2708 0.959152C20.7968 0.844501 21.3768 0.744859 22.0106 0.660236C22.6419 0.578343 23.3129 0.527844 24.0237 0.508735C24.7371 0.486897 25.4697 0.506005 26.2216 0.566061C26.976 0.623386 27.7407 0.717564 28.5156 0.848594C29.2906 0.979623 30.0617 1.14205 30.829 1.33586C31.5988 1.53241 32.2185 1.93778 32.6881 2.55198C33.1603 3.16618 33.7107 3.5852 34.3394 3.80904C34.9655 4.03288 35.5519 4.28129 36.0984 4.55427C36.645 4.82998 37.1493 5.13435 37.6112 5.46738C38.0705 5.80042 38.4965 6.16075 38.8891 6.54838C39.2791 6.93874 39.6358 7.35093 39.9591 7.78497C40.2824 8.21901 40.5634 8.66396 40.8021 9.11983C41.0407 9.5757 41.2281 10.0411 41.3641 10.5161C41.5001 10.9884 41.577 11.4633 41.595 11.9411C41.613 12.4215 41.5694 12.8883 41.4641 13.3414C41.3564 13.7946 41.2037 14.2163 41.0061 14.6067C40.8059 14.997 40.5737 15.3519 40.3094 15.6713C40.0477 15.9907 39.7539 16.2814 39.428 16.5435C39.1021 16.8028 38.7633 17.0239 38.4118 17.2068C38.0577 17.3897 37.6933 17.5248 37.3186 17.6122C36.9414 17.6968 36.5462 17.7323 36.1331 17.7186C35.7225 17.7023 35.312 17.6368 34.9014 17.5221C34.4934 17.4102 34.12 17.2396 33.7813 17.0103C33.4425 16.781 33.1436 16.5053 32.8844 16.1831C32.6253 15.8638 32.402 15.5075 32.2147 15.1144C32.0299 14.7241 31.8875 14.3051 31.7874 13.8574C31.6848 13.407 31.627 12.9374 31.6142 12.4488C31.5988 11.9602 31.6117 11.4593 31.6527 10.9461C31.6938 10.4329 31.7541 9.92648 31.8336 9.42693C31.9132 8.92738 32.0145 8.44421 32.1377 7.97742C32.2583 7.51063 32.4084 7.05748 32.588 6.61799C32.7677 6.17576 32.9704 5.75128 33.1962 5.34454C33.4195 4.9378 33.6517 4.57338 33.8929 4.25127C34.1341 3.92915 34.3856 3.65617 34.6473 3.43233C34.9091 3.20576 35.1708 3.0174 35.4326 2.86726C35.6943 2.7144 35.965 2.64752 36.2447 2.66663C36.5219 2.68574 36.7528 2.67618 36.9376 2.63796C37.1223 2.59975 37.3032 2.59156 37.4803 2.6134C37.6574 2.63523 37.8395 2.67891 38.0269 2.74443C38.2168 2.80994 38.4195 2.89047 38.635 2.98601C38.8532 3.08156 39.0815 3.19894 39.3202 3.33816C39.5588 3.47737 39.8064 3.6398 40.063 3.82542C40.3197 4.01378 40.5865 4.20486 40.8637 4.39867C41.1408 4.59249 41.4257 4.78221 41.7182 4.96783C42.0107 5.15346 42.3174 5.33908 42.6381 5.52471C42.9563 5.71033 43.2951 5.90551 43.6543 6.11024C44.0136 6.31225 44.3882 6.51971 44.7782 6.73264C45.1709 6.94556 45.5622 7.15166 45.9522 7.35094C46.3448 7.55021 46.7285 7.74265 47.1031 7.92828C47.4803 8.11391 47.8576 8.30636 48.2348 8.50563C48.6146 8.7049 49.0033 8.91373 49.4011 9.13211C49.7988 9.3505 50.2004 9.57024 50.6059 9.79136C51.0113 10.0097 51.4026 10.2254 51.7798 10.4383C52.157 10.6512 52.5112 10.8683 52.8422 11.0894C53.1758 11.3077 53.485 11.5302 53.7698 11.7568C54.0572 11.9806 54.3228 12.1963 54.5666 12.4038C54.8078 12.6112 55.0234 12.8119 55.2133 13.0057C55.4031 13.1995 55.5584 13.3933 55.679 13.5871C55.797 13.7809 55.8869 13.9707 55.9485 14.1563C56.01 14.3419 56.0447 14.5098 56.0524 14.6599C56.0601 14.8073 56.0306 14.9288 55.9638 15.0243C55.8946 15.1199 55.7868 15.1868 55.6405 15.225C55.4943 15.2632 55.3082 15.2796 55.0824 15.2741C54.854 15.2687 54.5858 15.24 54.2779 15.1881C53.97 15.1363 53.6531 15.0448 53.3272 14.9138C52.9987 14.7855 52.7331 14.5985 52.5304 14.3528C52.3277 14.1071 52.0942 13.8492 51.8299 13.5789C51.5681 13.3087 51.3089 13.0125 51.0523 12.6904C50.7957 12.3683 50.552 12.0339 50.321 11.6872C50.0926 11.3405 49.8783 10.9979 49.6782 10.6594C49.478 10.3182 49.2984 9.98654 49.1393 9.66442C48.9802 9.34231 48.8532 9.03385 48.7583 8.73903C48.6608 8.44421 48.6017 8.17805 48.5812 7.94056C48.5632 7.70034 48.5889 7.48606 48.6582 7.2977C48.7275 7.10662 48.8301 6.93464 48.9661 6.78178C49.1047 6.62891 49.2676 6.49788 49.455 6.38869C49.6423 6.28222 49.854 6.20033 50.0901 6.143C50.3287 6.08295 50.5879 6.04473 50.8676 6.02835C51.1499 6.01197 51.4424 6.01197 51.7452 6.02835C52.048 6.042 52.3546 6.08159 52.6651 6.1471C52.9756 6.21534 53.2887 6.30679 53.6043 6.42144C53.9199 6.53609 54.2369 6.66166 54.5551 6.79815C54.8758 6.93191 55.1953 7.0684 55.5135 7.20762C55.8343 7.34411 56.1473 7.4806 56.4527 7.61709C56.7606 7.75358 57.0737 7.89007 57.3919 8.02655C57.7101 8.16031 58.027 8.29816 58.3426 8.44011C58.6582 8.58206 58.9559 8.71719 59.2356 8.84549C59.5127 8.97379 59.7719 9.0707 60.0131 9.13621C60.2543 9.20173 60.4879 9.2454 60.7137 9.26724" stroke="black" stroke-linecap="round" stroke-linejoin="round"/>
</svg>
