<svg width="120" height="24" viewBox="0 0 120 24" fill="none" xmlns="http://www.w3.org/2000/svg">
<path d="M0.5 8.53853C0.772 8.72415 1.06701 8.94115 1.38501 9.18956C1.70601 9.43525 2.03001 9.69869 2.35901 9.97986C2.69001 10.2638 3.01801 10.5626 3.34401 10.8766C3.67001 11.1878 4.00001 11.5195 4.33301 11.8716C4.66401 12.2265 4.992 12.595 5.315 12.9771C5.636 13.3593 5.93201 13.7442 6.20401 14.1319C6.47601 14.5195 6.72 14.9207 6.935 15.3357C7.154 15.7479 7.35 16.1778 7.524 16.6255C7.699 17.0732 7.84601 17.5168 7.96701 17.9563C8.08501 18.3958 8.17001 18.7916 8.22101 19.1437C8.27201 19.4959 8.305 19.7907 8.317 20.0282C8.333 20.2684 8.331 20.4567 8.313 20.5932C8.296 20.7297 8.25801 20.8184 8.20201 20.8594C8.14801 20.8976 8.084 20.8853 8.009 20.8225C7.935 20.757 7.86301 20.6246 7.79401 20.4254C7.72701 20.2261 7.66701 19.9572 7.61301 19.6187C7.55901 19.283 7.524 18.898 7.509 18.464C7.494 18.0327 7.474 17.6014 7.451 17.1701C7.428 16.7388 7.473 16.2433 7.586 15.6837C7.701 15.1268 7.85201 14.5441 8.03601 13.9353C8.22401 13.3266 8.434 12.7192 8.668 12.1132C8.899 11.5072 9.15801 10.9162 9.44501 10.3402C9.73301 9.76421 10.057 9.20598 10.419 8.66549C10.778 8.12226 11.167 7.60084 11.585 7.10129C12.001 6.59901 12.423 6.13494 12.852 5.70909C13.28 5.28325 13.718 4.90653 14.164 4.57896C14.608 4.25412 15.07 3.98798 15.55 3.78052C16.03 3.57579 16.516 3.43656 17.009 3.36285C17.504 3.28915 17.984 3.27551 18.448 3.32192C18.915 3.36559 19.366 3.45706 19.799 3.59628C20.236 3.73823 20.651 3.91563 21.046 4.12856C21.442 4.34148 21.791 4.59129 22.093 4.87791C22.396 5.16454 22.644 5.48528 22.836 5.84015C23.026 6.19502 23.171 6.56763 23.271 6.95799C23.369 7.35108 23.425 7.74143 23.441 8.12906C23.456 8.51396 23.437 8.89204 23.383 9.26329C23.329 9.63181 23.252 10.0058 23.152 10.3852C23.052 10.7647 22.925 11.1495 22.771 11.5399C22.619 11.9303 22.441 12.3138 22.236 12.6905C22.028 13.07 21.798 13.4235 21.547 13.751C21.295 14.0813 21.03 14.3884 20.75 14.6723C20.473 14.959 20.192 15.2238 19.907 15.4667C19.622 15.7097 19.334 15.9348 19.041 16.1423C18.746 16.3498 18.46 16.5477 18.183 16.7361C17.903 16.9217 17.653 17.1018 17.432 17.2765C17.211 17.4485 17.018 17.6096 16.851 17.7597C16.684 17.9126 16.534 18.0341 16.401 18.1242C16.27 18.2143 16.29 17.9808 16.462 17.4239C16.634 16.8643 16.721 16.5696 16.724 16.5395C16.729 16.5095 16.779 16.474 16.874 16.4331C16.969 16.3921 17.1 16.343 17.267 16.2857C17.433 16.2311 17.612 16.1573 17.802 16.0645C17.992 15.9745 18.187 15.8707 18.387 15.7533C18.587 15.636 18.808 15.5077 19.049 15.3685C19.287 15.2292 19.552 15.0668 19.842 14.8812C20.132 14.6955 20.446 14.4881 20.785 14.2588C21.121 14.0295 21.465 13.7947 21.816 13.5545C22.168 13.3143 22.508 13.0795 22.836 12.8502C23.167 12.6237 23.491 12.3957 23.806 12.1664C24.122 11.9398 24.449 11.6996 24.788 11.4457C25.124 11.1919 25.475 10.9203 25.842 10.6309C26.207 10.3443 26.569 10.0618 26.928 9.78332C27.287 9.50488 27.645 9.24691 28.002 9.00942C28.358 8.77193 28.714 8.54261 29.068 8.3215C29.422 8.10038 29.757 7.88475 30.073 7.67456C30.391 7.46436 30.678 7.26642 30.935 7.0808C31.191 6.89517 31.435 6.73414 31.666 6.59766C31.9 6.46117 32.124 6.35606 32.34 6.28236C32.553 6.20865 32.749 6.16363 32.929 6.14725C33.108 6.1336 33.274 6.14998 33.425 6.19639C33.579 6.24006 33.728 6.31241 33.872 6.41342C34.015 6.51715 34.158 6.64542 34.299 6.79829C34.438 6.95116 34.577 7.12588 34.719 7.32242C34.857 7.51896 34.996 7.7346 35.134 7.96936C35.273 8.20412 35.406 8.45799 35.535 8.73096C35.663 9.00394 35.775 9.27966 35.869 9.5581C35.967 9.83926 36.052 10.1341 36.123 10.4426C36.195 10.751 36.292 11.1086 36.412 11.5154C36.533 11.9221 36.589 12.3056 36.582 12.6659C36.571 13.0263 36.548 13.3511 36.512 13.6405C36.476 13.9298 36.443 14.1742 36.412 14.3734C36.379 14.5727 36.339 14.7392 36.293 14.873C36.249 15.004 36.195 15.116 36.131 15.2088C36.067 15.3043 36.008 15.3739 35.954 15.4176C35.898 15.4613 35.855 15.4585 35.827 15.4094C35.796 15.3603 35.767 15.2784 35.739 15.1637C35.71 15.0491 35.686 14.929 35.665 14.8034C35.642 14.6751 35.632 14.555 35.635 14.4431C35.637 14.3311 35.649 14.2247 35.669 14.1237C35.687 14.0199 35.708 13.9162 35.731 13.8125C35.754 13.7115 35.782 13.6132 35.816 13.5177C35.849 13.4248 35.891 13.3498 35.943 13.2924C35.994 13.2324 36.049 13.2024 36.108 13.2024C36.17 13.1996 36.23 13.2229 36.289 13.272C36.348 13.3211 36.402 13.3853 36.451 13.4644C36.502 13.5436 36.548 13.6336 36.589 13.7346C36.633 13.8356 36.684 13.9517 36.743 14.0827C36.802 14.2138 36.886 14.3598 36.993 14.5208C37.101 14.6846 37.231 14.8552 37.382 15.0327C37.534 15.2128 37.69 15.3834 37.852 15.5445C38.013 15.7056 38.185 15.8462 38.368 15.9663C38.55 16.0864 38.727 16.1887 38.899 16.2734C39.071 16.358 39.236 16.4194 39.395 16.4576C39.552 16.4958 39.711 16.5122 39.873 16.5067C40.034 16.4986 40.201 16.4617 40.373 16.3962C40.545 16.3307 40.728 16.242 40.923 16.1301C41.116 16.0181 41.333 15.8803 41.574 15.7165C41.815 15.55 42.095 15.337 42.413 15.0777C42.731 14.8211 43.046 14.585 43.356 14.3693C43.666 14.1537 44.008 13.9094 44.38 13.6364C44.752 13.3661 45.138 13.0618 45.538 12.7233C45.939 12.382 46.334 12.0327 46.724 11.6751C47.117 11.3175 47.508 10.9667 47.898 10.6227C48.288 10.2787 48.677 9.94026 49.064 9.60723C49.449 9.27693 49.814 8.95619 50.157 8.64499C50.501 8.3338 50.83 8.04307 51.143 7.77282C51.456 7.49985 51.759 7.25825 52.051 7.04806C52.341 6.8406 52.618 6.66998 52.883 6.53623C53.147 6.40247 53.397 6.30284 53.633 6.23732C53.872 6.17454 54.104 6.14589 54.33 6.15135C54.556 6.15681 54.773 6.21005 54.98 6.31105C55.191 6.40932 55.379 6.54307 55.546 6.71232C55.71 6.87884 55.849 7.06856 55.962 7.28148C56.075 7.49714 56.163 7.73868 56.228 8.0062C56.292 8.27372 56.329 8.57813 56.339 8.91935C56.349 9.26058 56.322 9.62771 56.258 10.0208C56.192 10.4139 56.121 10.822 56.047 11.2451C55.972 11.6709 55.916 12.1064 55.877 12.5513C55.841 12.9935 55.804 13.433 55.766 13.8698C55.73 14.3066 55.666 14.7242 55.573 15.1227C55.478 15.5186 55.363 15.883 55.227 16.216C55.088 16.5491 54.944 16.8439 54.796 17.1005C54.647 17.3571 54.494 17.5714 54.338 17.7433C54.184 17.9153 54.032 18.0436 53.883 18.1283C53.735 18.2156 53.61 18.2675 53.51 18.2839C53.413 18.2975 53.343 18.2825 53.302 18.2388C53.264 18.1924 53.242 18.1323 53.237 18.0586C53.229 17.9849 53.138 17.9781 52.963 18.0381C52.789 18.0982 52.73 18.0859 52.786 18.0013C52.84 17.914 52.89 17.8157 52.937 17.7065C52.983 17.5973 53.025 17.4731 53.064 17.3339C53.102 17.1919 53.151 17.0513 53.21 16.9121C53.271 16.7702 53.343 16.6433 53.425 16.5313C53.507 16.4194 53.592 16.3116 53.679 16.2078C53.767 16.1014 53.867 15.984 53.98 15.8557C54.093 15.7274 54.209 15.5814 54.33 15.4176C54.453 15.2538 54.578 15.0681 54.703 14.8607C54.829 14.6532 54.971 14.4226 55.131 14.1687C55.29 13.9148 55.464 13.6446 55.654 13.358C55.844 13.0686 56.026 12.7642 56.201 12.4449C56.378 12.1255 56.56 11.8061 56.747 11.4867C56.932 11.17 57.141 10.8548 57.375 10.5408C57.608 10.2242 57.87 9.89796 58.16 9.56219C58.447 9.22643 58.755 8.88932 59.084 8.55082C59.415 8.2096 59.76 7.89702 60.119 7.61313C60.481 7.32923 60.863 7.0631 61.266 6.81469C61.672 6.569 62.087 6.33557 62.513 6.11446C62.939 5.89608 63.37 5.70909 63.806 5.55349C64.245 5.40063 64.696 5.2901 65.158 5.22185C65.622 5.15361 66.11 5.11401 66.62 5.10309C67.133 5.08944 67.659 5.10856 68.198 5.16042C68.735 5.21502 69.263 5.31875 69.784 5.47162C70.308 5.62176 70.809 5.82102 71.289 6.06943C71.769 6.31511 72.223 6.59219 72.652 6.90066C73.078 7.21185 73.478 7.54623 73.853 7.90383C74.227 8.26416 74.57 8.65046 74.88 9.06266C75.194 9.47758 75.483 9.91843 75.75 10.3852C76.017 10.8547 76.444 11.4171 77.032 12.0722C77.62 12.7301 77.967 13.3552 78.075 13.9476C78.183 14.5427 78.237 15.1118 78.237 15.6551C78.237 16.201 78.186 16.7115 78.083 17.1865C77.978 17.6615 77.81 18.09 77.579 18.4722C77.348 18.8544 77.051 19.1765 76.69 19.4385C76.33 19.7006 75.926 19.8985 75.477 20.0322C75.025 20.1633 74.557 20.2356 74.072 20.2493C73.587 20.2629 73.089 20.2165 72.579 20.1101C72.065 20.0036 71.554 19.848 71.043 19.6433C70.532 19.4358 70.047 19.1847 69.588 18.8899C69.131 18.5951 68.71 18.262 68.325 17.8907C67.943 17.5195 67.585 17.1237 67.251 16.7033C66.918 16.2829 66.611 15.8544 66.331 15.4176C66.054 14.9781 65.816 14.5277 65.616 14.0663C65.418 13.605 65.272 13.1341 65.177 12.6537C65.084 12.1732 65.039 11.7023 65.042 11.241C65.045 10.7769 65.075 10.3333 65.134 9.91023C65.191 9.48439 65.291 9.08313 65.435 8.70642C65.578 8.33244 65.78 7.99122 66.039 7.68275C66.301 7.37702 66.619 7.12315 66.994 6.92115C67.371 6.71642 67.784 6.56624 68.233 6.4707C68.685 6.37515 69.154 6.31649 69.642 6.29465C70.127 6.27555 70.616 6.29603 71.108 6.35608C71.601 6.41614 72.103 6.50076 72.613 6.60995C73.124 6.72187 73.646 6.84062 74.18 6.96619C74.711 7.08903 75.244 7.22004 75.777 7.35926C76.308 7.49575 76.828 7.64588 77.336 7.80966C77.844 7.97072 78.331 8.13317 78.795 8.29695C79.259 8.46347 79.711 8.62587 80.15 8.7842C80.586 8.93979 80.952 9.19776 81.247 9.5581C81.539 9.91843 81.861 10.1545 82.213 10.2665C82.562 10.3757 82.898 10.463 83.222 10.5285C83.545 10.5968 83.854 10.6432 84.149 10.6677C84.444 10.695 84.718 10.706 84.969 10.7005C85.218 10.6951 85.449 10.6787 85.662 10.6514C85.875 10.6241 86.072 10.5845 86.255 10.5326C86.437 10.4835 86.597 10.4221 86.736 10.3484C86.877 10.2747 87.009 10.2105 87.132 10.1559C87.255 10.0986 87.384 10.0631 87.517 10.0494C87.653 10.0385 87.799 10.044 87.956 10.0658C88.112 10.0849 88.274 10.1273 88.441 10.1928C88.608 10.2583 88.766 10.3702 88.914 10.5285C89.063 10.6869 89.19 10.8807 89.295 11.11C89.401 11.342 89.493 11.5931 89.573 11.8634C89.652 12.1336 89.727 12.4216 89.796 12.7274C89.865 13.0304 89.925 13.3388 89.977 13.6528C90.026 13.9694 90.049 14.271 90.046 14.5577C90.043 14.8443 90.017 15.105 89.965 15.3398C89.914 15.5773 89.864 15.7929 89.815 15.9867C89.766 16.1805 89.721 16.358 89.68 16.519C89.642 16.6774 89.591 16.8152 89.526 16.9326C89.465 17.0473 89.394 17.1319 89.315 17.1865C89.235 17.2383 89.153 17.2547 89.068 17.2356C88.986 17.2165 88.89 17.1687 88.78 17.0923C88.669 17.0159 88.549 16.9162 88.418 16.7934C88.287 16.6678 88.154 16.5204 88.018 16.3511C87.884 16.1792 87.744 16.0018 87.598 15.8189C87.452 15.6387 87.299 15.4558 87.14 15.2701C86.983 15.0845 86.836 14.8825 86.697 14.6641C86.559 14.4458 86.378 14.256 86.155 14.095C85.929 13.9339 85.776 13.7292 85.697 13.4808C85.617 13.2324 85.539 12.9785 85.462 12.7192C85.382 12.4598 85.306 12.1923 85.235 11.9166C85.163 11.6409 85.106 11.3802 85.065 11.1345C85.024 10.8889 85.006 10.6623 85.011 10.4549C85.016 10.2501 85.049 10.0494 85.108 9.8529C85.167 9.65909 85.254 9.4721 85.369 9.29193C85.487 9.11177 85.63 8.95211 85.797 8.81289C85.963 8.67094 86.162 8.54261 86.393 8.42796C86.624 8.31331 86.891 8.21094 87.194 8.12086C87.497 8.02805 87.826 7.95027 88.183 7.88749C88.54 7.8247 88.913 7.77283 89.303 7.73189C89.691 7.69094 90.1 7.64861 90.531 7.60493C90.965 7.56125 91.427 7.52439 91.917 7.49436C92.407 7.46161 92.928 7.44117 93.479 7.43298C94.029 7.4248 94.602 7.41521 95.2 7.40429C95.795 7.3961 96.407 7.38247 97.036 7.36336C97.662 7.34698 98.304 7.33608 98.961 7.33062C99.618 7.32516 100.283 7.34153 100.958 7.37975C101.633 7.41524 102.298 7.47938 102.952 7.57219C103.607 7.665 104.238 7.78922 104.846 7.94482C105.454 8.10042 106.033 8.2874 106.582 8.50579C107.128 8.7269 107.637 8.97666 108.106 9.25509C108.576 9.5308 109.003 9.827 109.388 10.1437C109.773 10.4603 110.115 10.7974 110.416 11.155C110.716 11.5154 110.966 11.9002 111.166 12.3097C111.366 12.7219 111.497 13.1505 111.559 13.5954C111.62 14.0404 111.614 14.4895 111.54 14.9426C111.468 15.3957 111.346 15.8407 111.174 16.2775C110.999 16.7142 110.847 17.4499 110.716 18.4845C110.585 19.5164 110.344 20.2507 109.992 20.6874C109.638 21.1242 109.264 21.5159 108.868 21.8626C108.476 22.2066 108.075 22.4904 107.667 22.7143C107.259 22.9381 106.835 23.1033 106.393 23.2097C105.952 23.3162 105.498 23.3708 105.031 23.3735C104.564 23.379 104.103 23.3203 103.649 23.1975C103.192 23.0719 102.757 22.8699 102.344 22.5914C101.928 22.3103 101.54 21.9622 101.178 21.5473C100.816 21.1324 100.494 20.6806 100.212 20.1919C99.927 19.7033 99.683 19.1915 99.48 18.6564C99.278 18.1187 99.118 17.5563 99.003 16.9694C98.885 16.3853 98.818 15.7683 98.803 15.1186C98.787 14.469 98.822 13.8016 98.907 13.1164C98.994 12.4312 99.118 11.7392 99.28 11.0404C99.442 10.3415 99.628 9.64956 99.838 8.96439C100.046 8.28194 100.28 7.61993 100.539 6.97843C100.798 6.33693 101.09 5.72547 101.416 5.14403C101.742 4.56531 102.099 4.03436 102.486 3.55119C102.871 3.06802 103.279 2.63812 103.71 2.26141C104.139 1.8847 104.579 1.56391 105.031 1.29912C105.48 1.03433 105.93 0.833708 106.382 0.697219C106.833 0.558 107.284 0.492493 107.733 0.500683C108.179 0.508872 108.616 0.58533 109.042 0.730008C109.468 0.871957 109.887 1.07395 110.3 1.33601C110.713 1.59534 111.116 1.90924 111.509 2.27776C111.899 2.64355 112.275 3.05849 112.637 3.52255C112.998 3.98662 113.353 4.48618 113.699 5.02122C114.048 5.55898 114.385 6.12269 114.711 6.71232C115.04 7.30195 115.354 7.90246 115.654 8.51393C115.952 9.12268 115.983 9.7997 115.747 10.5449C115.513 11.2902 115.536 11.8525 115.816 12.2319C116.096 12.6114 116.375 12.984 116.655 13.3498C116.932 13.7156 117.203 14.0623 117.467 14.3898C117.732 14.7174 117.996 15.0081 118.26 15.262C118.525 15.5159 118.79 15.722 119.057 15.8803M118.572 13.9189C118.369 13.8179 118.193 13.7019 118.045 13.5709C117.896 13.4371 117.774 13.2897 117.679 13.1286C117.581 12.9649 117.519 12.7765 117.49 12.5636C117.46 12.3506 117.472 12.1173 117.529 11.8634C117.585 11.6095 117.679 11.3543 117.81 11.0977C117.943 10.8438 118.186 10.605 118.537 10.3811" stroke="black" stroke-linecap="round" stroke-linejoin="round"/>
</svg>
