<svg width="616" height="23" viewBox="0 0 616 23" fill="none" xmlns="http://www.w3.org/2000/svg">
<path d="M5.31829 18.3285C4.86666 17.3621 4.55616 16.8435 4.3868 16.7725C4.21744 16.7015 4.03781 16.636 3.84792 16.576C3.6606 16.5187 3.46943 16.4641 3.2744 16.4122C3.07681 16.3631 2.88307 16.303 2.69318 16.232C2.50073 16.1583 2.3057 16.0764 2.10811 15.9863C1.90796 15.8963 1.7078 15.7966 1.50765 15.6874C1.30493 15.5782 1.12658 15.4458 0.972619 15.2902C0.818654 15.1374 0.707028 14.9545 0.637744 14.7416C0.565893 14.5314 0.52227 14.3103 0.506873 14.0782C0.494043 13.8489 0.499175 13.606 0.52227 13.3494C0.545365 13.09 0.59412 12.8143 0.668537 12.5223C0.742954 12.2329 0.845598 11.934 0.976468 11.6255C1.10734 11.3198 1.269 11.0059 1.46146 10.6837C1.65392 10.3616 1.87203 10.0409 2.11581 9.7215C2.35702 9.39939 2.61107 9.09501 2.87794 8.80839C3.14225 8.51903 3.4181 8.24605 3.70551 7.98945C3.99291 7.73012 4.30212 7.48034 4.63315 7.24012C4.96161 6.99717 5.29263 6.79108 5.62622 6.62183C5.95982 6.44986 6.29341 6.31746 6.627 6.22465C6.95802 6.13457 7.30445 6.07451 7.66627 6.04448C8.02552 6.01718 8.3899 6.02128 8.75942 6.05677C9.12894 6.09225 9.48178 6.18097 9.81793 6.32292C10.1541 6.46214 10.4736 6.6464 10.7764 6.8757C11.0817 7.10773 11.3691 7.36433 11.6386 7.6455C11.908 7.92667 12.171 8.22831 12.4276 8.55042C12.6868 8.8698 12.9409 9.21103 13.1898 9.57409C13.4387 9.93988 13.6684 10.3302 13.8788 10.7452C14.0918 11.1574 14.274 11.59 14.4254 12.0432C14.5767 12.4963 14.7192 12.9536 14.8526 13.4149C14.9886 13.879 15.1272 14.4072 15.2683 14.9995C15.4094 15.5919 15.5365 16.1051 15.6494 16.5391C15.7648 16.9704 15.8688 17.3676 15.9612 17.7307C16.051 18.091 16.1331 18.4118 16.2075 18.6929C16.2819 18.9714 16.3563 19.1952 16.4307 19.3645C16.5026 19.5364 16.5809 19.6538 16.6655 19.7166C16.7528 19.7794 16.8477 19.7944 16.9504 19.7616C17.053 19.7289 17.1595 19.647 17.2699 19.516C17.3802 19.3877 17.497 19.202 17.6201 18.9591C17.7433 18.7134 17.8857 18.4309 18.0474 18.1115C18.2116 17.7894 18.3951 17.455 18.5978 17.1083C18.8005 16.7616 19.0097 16.4067 19.2252 16.0437C19.4433 15.6779 19.6653 15.3039 19.8911 14.9217C20.1169 14.5396 20.3607 14.1601 20.6225 13.7834C20.8868 13.4094 21.1549 13.0641 21.4269 12.7475C21.6989 12.4335 21.962 12.166 22.216 11.9449C22.4726 11.7238 22.7202 11.5382 22.9589 11.388C23.1975 11.2352 23.4182 11.0946 23.6209 10.9663C23.8237 10.8352 23.9815 10.7124 24.0944 10.5978C24.2099 10.4831 24.2958 10.3958 24.3523 10.3357C24.4087 10.2729 24.4434 10.2429 24.4562 10.2456C24.469 10.2456 24.4536 10.2702 24.41 10.3193C24.369 10.3685 24.3061 10.4285 24.2214 10.4995C24.1393 10.5705 24.0495 10.6414 23.952 10.7124C23.8544 10.7834 23.7492 10.8434 23.6363 10.8926C23.5209 10.9444 23.3964 10.9772 23.263 10.9908C23.127 11.0072 22.9935 11.0059 22.8627 10.9868C22.7318 10.9676 22.6099 10.9431 22.497 10.913C22.3841 10.8857 22.2776 10.8694 22.1775 10.8639C22.08 10.8584 22.0017 10.8489 21.9427 10.8352C21.8837 10.8243 21.8567 10.8912 21.8619 11.0359C21.8644 11.1833 21.8978 11.2174 21.962 11.1383C22.0287 11.0564 22.1069 11.0004 22.1968 10.9704C22.2891 10.9403 22.3982 10.9308 22.5239 10.9417C22.6522 10.9554 22.8113 10.9663 23.0012 10.9745C23.1911 10.9827 23.4131 10.9936 23.6671 11.0072C23.9186 11.0209 24.1932 11.0523 24.4908 11.1014C24.7859 11.1505 25.1029 11.2174 25.4416 11.302C25.7829 11.3894 26.1306 11.5027 26.4847 11.6419C26.8388 11.7811 27.1852 11.9408 27.524 12.121C27.8627 12.3011 28.1886 12.4895 28.5016 12.686C28.8147 12.8826 29.1188 13.0873 29.4139 13.3002C29.7064 13.5104 29.99 13.7288 30.2645 13.9554C30.5391 14.1792 30.797 14.3963 31.0382 14.6064C31.282 14.8139 31.504 15.0118 31.7041 15.2002C31.9043 15.3885 32.0929 15.5605 32.2699 15.7161C32.4496 15.869 32.6228 15.9973 32.7896 16.101C32.9564 16.2047 33.1039 16.2839 33.2322 16.3385C33.3605 16.3931 33.4811 16.4122 33.594 16.3958C33.7095 16.3794 33.8173 16.3276 33.9174 16.2402C34.02 16.1529 34.1098 16.0368 34.1868 15.8922C34.2612 15.7448 34.3241 15.5741 34.3754 15.3803C34.4242 15.1865 34.4742 14.9763 34.5255 14.7498C34.5794 14.5259 34.6436 14.2966 34.718 14.0618C34.795 13.8298 34.8938 13.6155 35.0144 13.419C35.1324 13.2224 35.2736 13.0668 35.4378 12.9522C35.5994 12.8403 35.7765 12.7652 35.969 12.727C36.1614 12.686 36.3744 12.6574 36.6079 12.641C36.8389 12.6246 37.0775 12.6192 37.3239 12.6246C37.5676 12.6328 37.8063 12.6628 38.0398 12.7147C38.2707 12.7693 38.4209 12.8976 38.4901 13.0996C38.5594 13.3043 38.6775 13.4736 38.8443 13.6073C39.0111 13.7411 39.1714 13.8517 39.3254 13.939C39.4794 14.0264 39.6346 14.0878 39.7912 14.1233C39.9477 14.1588 40.0965 14.1888 40.2377 14.2133C40.3788 14.2379 40.502 14.2598 40.6072 14.2789C40.7098 14.298 40.8035 14.2884 40.8882 14.2502C40.9754 14.2147 41.0665 14.1287 41.1614 13.9922C41.2564 13.8585 41.3411 13.6769 41.4155 13.4476C41.4899 13.2183 41.5489 12.9617 41.5926 12.6778C41.6362 12.3939 41.6747 12.0978 41.708 11.7893C41.7388 11.4808 41.7709 11.1696 41.8043 10.8557C41.8376 10.5391 41.8684 10.221 41.8966 9.90166C41.9249 9.57954 41.9582 9.26699 41.9967 8.96399C42.0378 8.65825 42.0865 8.38253 42.143 8.13685C42.202 7.89117 42.27 7.68918 42.347 7.53085C42.424 7.37252 42.5022 7.25787 42.5818 7.1869C42.6613 7.11592 42.7306 7.07361 42.7896 7.05996C42.8487 7.04632 42.9013 7.06814 42.9474 7.12547C42.9911 7.18006 43.0385 7.27424 43.0899 7.408C43.1438 7.54176 43.2195 7.70965 43.317 7.91165C43.4145 8.11366 43.53 8.3416 43.6634 8.59547C43.7968 8.84934 43.9226 9.12367 44.0406 9.41849C44.1586 9.71057 44.2587 10.0122 44.3408 10.3234C44.4204 10.6346 44.5063 10.9485 44.5987 11.2652C44.6885 11.5846 44.7912 11.8889 44.9067 12.1783C45.0247 12.4704 45.1427 12.742 45.2608 12.9931C45.3788 13.2443 45.4917 13.4886 45.5995 13.7261C45.7073 13.9636 45.8215 14.1901 45.9421 14.4058C46.0601 14.6242 46.209 14.8153 46.3886 14.9791C46.5682 15.1428 46.6773 15.2793 46.7157 15.3885C46.7517 15.4977 46.9762 15.581 47.3893 15.6383C47.7999 15.6956 48.2143 15.7393 48.6326 15.7693C49.0509 15.7966 49.4666 15.8239 49.8797 15.8512C50.2929 15.8758 50.6983 15.9099 51.0961 15.9536C51.4964 15.9973 51.8954 16.0505 52.2931 16.1133C52.6909 16.1788 53.0797 16.2511 53.4594 16.3303C53.8367 16.4122 54.1831 16.4955 54.4987 16.5801C54.8118 16.6647 55.0876 16.7398 55.3263 16.8053C55.5649 16.8708 55.7882 16.9322 55.996 16.9895C56.2039 17.0469 56.4104 17.0974 56.6157 17.141C56.821 17.182 57.0083 17.2107 57.1777 17.227C57.3496 17.2434 57.4767 17.2434 57.5588 17.227C57.6434 17.2079 57.6961 17.1888 57.7166 17.1697C57.7371 17.1506 57.7345 17.1069 57.7089 17.0387C57.6807 16.9732 57.6242 16.8667 57.5395 16.7193C57.4548 16.5746 57.3509 16.3999 57.2277 16.1952C57.1071 15.9904 56.9891 15.7734 56.8736 15.5441C56.7607 15.3148 56.6581 15.0569 56.5657 14.7702C56.4733 14.4809 56.3938 14.1615 56.327 13.8121C56.2578 13.4627 56.1975 13.0914 56.1461 12.6983C56.0922 12.3025 56.0512 11.8958 56.023 11.4781C55.9922 11.0577 55.987 10.6332 56.0076 10.2047C56.0281 9.77337 56.0845 9.35162 56.1769 8.93942C56.2719 8.52722 56.3886 8.13822 56.5272 7.77243C56.6658 7.40391 56.8108 7.06406 56.9622 6.75286C57.1136 6.43894 57.2778 6.16185 57.4548 5.92163C57.6319 5.68141 57.841 5.47942 58.0822 5.31563C58.3209 5.15457 58.5698 5.03856 58.829 4.96758C59.0882 4.89934 59.3499 4.88023 59.6142 4.91026C59.8759 4.94029 60.248 4.62499 60.7305 3.96438C61.2129 3.30377 61.6324 3.13316 61.9891 3.45255C62.3484 3.77466 62.673 4.14319 62.963 4.55811C63.2555 4.97031 63.507 5.42346 63.7174 5.91755C63.9278 6.41164 64.128 6.95759 64.3178 7.55542C64.5052 8.15324 64.6951 8.79337 64.8875 9.47582C65.0774 10.161 65.2416 10.8584 65.3802 11.5682C65.5213 12.2752 65.6112 12.9768 65.6497 13.6729C65.6881 14.3662 65.6946 15.0377 65.6689 15.6874C65.6432 16.3344 65.5932 16.939 65.5188 17.5014C65.4444 18.0637 65.3379 18.581 65.1993 19.0533C65.0582 19.5282 64.8965 19.9527 64.7143 20.3267C64.5321 20.7007 64.3615 21.0214 64.2024 21.289C64.0407 21.5592 63.8893 21.7735 63.7482 21.9318C63.6096 22.0929 63.4672 22.2034 63.3209 22.2635C63.1772 22.3208 63.0387 22.3331 62.9052 22.3003C62.7743 22.2676 62.6653 22.1898 62.578 22.0669C62.4908 21.9441 62.4382 21.768 62.4202 21.5387C62.4023 21.3122 62.4266 21.0501 62.4934 20.7526C62.5626 20.4577 62.6512 20.1547 62.759 19.8435C62.8693 19.5323 62.9848 19.2334 63.1054 18.9468C63.2285 18.6574 63.3722 18.3749 63.5365 18.0992C63.7007 17.8207 63.8996 17.5341 64.1331 17.2393C64.364 16.9472 64.6219 16.6429 64.9068 16.3262C65.1916 16.0095 65.4995 15.6929 65.8306 15.3762C66.1616 15.0623 66.5208 14.7593 66.9083 14.4672C67.2958 14.1751 67.7089 13.8926 68.1477 13.6196C68.5891 13.3494 69.042 13.0887 69.5065 12.8375C69.9709 12.5864 70.4239 12.3462 70.8652 12.1169C71.3092 11.8848 71.7467 11.6651 72.1778 11.4576C72.6063 11.2474 72.904 11.0618 73.0708 10.9008C73.2376 10.7397 73.5019 10.5827 73.8637 10.4299C74.223 10.277 74.5527 10.1187 74.8529 9.95489C75.1532 9.78837 75.438 9.60685 75.7074 9.4103C75.9743 9.21103 76.2335 9.00902 76.485 8.80429C76.739 8.59955 76.9777 8.39346 77.2009 8.186C77.4267 7.97581 77.6359 7.76287 77.8283 7.54722C78.0182 7.32884 78.1991 7.12138 78.371 6.92483C78.543 6.72556 78.6892 6.55632 78.8098 6.4171C78.9305 6.27788 79.0344 6.16323 79.1216 6.07315C79.2063 5.98306 79.291 5.91891 79.3757 5.8807C79.4578 5.83975 79.5271 5.83838 79.5835 5.8766C79.64 5.91482 79.6656 5.98988 79.6605 6.1018C79.6554 6.21645 79.6284 6.35294 79.5797 6.51127C79.5284 6.67232 79.4834 6.86478 79.445 7.08862C79.4065 7.31246 79.3846 7.57452 79.3795 7.8748C79.3718 8.17508 79.3667 8.50128 79.3641 8.85342C79.359 9.20556 79.3436 9.57272 79.3179 9.95489C79.2923 10.3343 79.2563 10.7274 79.2102 11.1342C79.164 11.5409 79.1101 11.9504 79.0485 12.3626C78.9843 12.7748 78.9022 13.1719 78.8021 13.5541C78.7046 13.9335 78.593 14.2693 78.4673 14.5614C78.3415 14.8535 78.2273 15.0923 78.1247 15.278C78.0246 15.4663 77.9489 15.6028 77.8976 15.6874C77.8488 15.7748 77.8129 15.828 77.7898 15.8471C77.7667 15.869 77.7552 15.8662 77.7552 15.8389C77.7526 15.8116 77.7744 15.7516 77.8206 15.6588C77.8642 15.5687 77.9322 15.4513 78.0246 15.3066C78.1196 15.162 78.2312 15.0036 78.3595 14.8316C78.4904 14.6569 78.6379 14.47 78.8021 14.2707C78.9664 14.0714 79.1383 13.8394 79.3179 13.5746C79.4976 13.3098 79.6913 13.1201 79.8992 13.0054C80.107 12.8935 80.3341 12.7857 80.5804 12.6819C80.8268 12.5782 81.0988 12.4786 81.3965 12.383C81.6941 12.2848 81.9854 12.2029 82.2702 12.1374C82.5551 12.0691 82.8155 12.02 83.0516 11.9899C83.2902 11.9626 83.525 11.9449 83.756 11.9367C83.9869 11.9312 84.2281 11.9258 84.4796 11.9203C84.7311 11.9122 84.9697 11.9094 85.1956 11.9121C85.4188 11.9149 85.619 11.9381 85.796 11.9818C85.9705 12.0254 86.1348 12.0923 86.2887 12.1824C86.4401 12.2725 86.5851 12.3707 86.7237 12.4772C86.8648 12.5809 86.9893 12.6833 87.097 12.7843C87.2048 12.8826 87.31 12.9645 87.4127 13.03C87.5179 13.0955 87.6282 13.1351 87.7437 13.1487C87.8592 13.1624 87.99 13.1446 88.1363 13.0955C88.2826 13.0464 88.4391 12.9645 88.6059 12.8498C88.7727 12.7352 88.9408 12.5864 89.1101 12.4035C89.2795 12.2179 89.4617 12.0104 89.6567 11.7811C89.8517 11.5518 90.0647 11.3116 90.2957 11.0605C90.5241 10.8093 90.7537 10.5527 90.9847 10.2907C91.2156 10.0313 91.453 9.76926 91.6968 9.50447C91.9405 9.23968 92.2177 8.98036 92.5282 8.72649C92.8387 8.47262 93.1723 8.22831 93.5289 7.99355C93.8856 7.75879 94.2256 7.55815 94.549 7.39163C94.8697 7.22512 95.1571 7.10091 95.4112 7.01902C95.6678 6.93439 95.9039 6.88116 96.1194 6.85932C96.3324 6.83748 96.5428 6.85113 96.7507 6.90027C96.9585 6.9494 97.1484 7.03402 97.3203 7.15413C97.4897 7.27697 97.6373 7.42848 97.763 7.60865C97.8862 7.79155 98.0927 8.03722 98.3827 8.34569C98.6727 8.65415 98.7997 8.95169 98.7638 9.23832C98.7304 9.52768 98.6637 9.81021 98.5636 10.0859C98.4635 10.3644 98.3442 10.6264 98.2056 10.8721C98.0671 11.1151 97.9041 11.3566 97.7168 11.5969C97.5269 11.8343 97.3062 12.0814 97.0548 12.338C96.8033 12.5973 96.5338 12.8526 96.2464 13.1037C95.9565 13.3548 95.6703 13.5759 95.3881 13.767C95.1058 13.9581 94.8338 14.1274 94.5721 14.2748C94.3103 14.4195 94.0653 14.5437 93.8369 14.6474C93.6085 14.7511 93.4019 14.8262 93.2172 14.8726C93.0298 14.919 92.8784 14.9408 92.763 14.9381C92.6475 14.9354 92.5859 14.9149 92.5782 14.8767C92.5731 14.8412 92.6205 14.7907 92.7206 14.7252C92.8207 14.6597 92.9529 14.5887 93.1171 14.5123C93.2813 14.4358 93.4712 14.3649 93.6868 14.2993C93.9023 14.2338 94.1538 14.1738 94.4412 14.1192C94.7312 14.0619 95.0596 14.0073 95.4266 13.9554C95.7935 13.9008 96.1836 13.8421 96.5967 13.7793C97.0073 13.7165 97.4281 13.6565 97.8592 13.5991C98.2903 13.5391 98.7278 13.4831 99.1718 13.4313C99.6131 13.3821 100.053 13.3357 100.492 13.292C100.933 13.2484 101.364 13.217 101.785 13.1979C102.206 13.1815 102.614 13.1801 103.009 13.1938C103.405 13.2102 103.796 13.2238 104.183 13.2347C104.573 13.2456 104.961 13.2361 105.346 13.2061C105.731 13.1733 106.099 13.1255 106.45 13.0627C106.802 13 107.115 12.9276 107.39 12.8457C107.667 12.7666 107.914 12.6697 108.133 12.555C108.351 12.4431 108.561 12.2957 108.764 12.1128C108.964 11.9326 109.158 11.7211 109.345 11.4781C109.535 11.2379 109.726 10.9786 109.919 10.7001C110.114 10.4244 110.316 10.1392 110.527 9.84434C110.737 9.54952 110.948 9.25198 111.158 8.9517C111.371 8.65143 111.576 8.36343 111.774 8.08772C111.971 7.80928 112.16 7.55405 112.34 7.32202C112.522 7.08999 112.704 6.88935 112.886 6.7201C113.071 6.55085 113.256 6.41846 113.441 6.32292C113.628 6.22737 113.813 6.17688 113.995 6.17142C114.174 6.16596 114.357 6.20827 114.541 6.29835C114.726 6.38843 114.926 6.53448 115.142 6.73648C115.357 6.94122 115.579 7.19645 115.808 7.50218C116.034 7.81065 116.234 8.15187 116.408 8.52585C116.585 8.90256 116.742 9.29838 116.878 9.7133C117.014 10.1255 117.133 10.5568 117.236 11.0072C117.338 11.4604 117.418 11.9176 117.474 12.3789C117.531 12.8375 117.559 13.2839 117.559 13.7179C117.559 14.1492 117.537 14.5546 117.494 14.934C117.447 15.3135 117.374 15.6615 117.274 15.9782C117.174 16.2948 117.055 16.5869 116.916 16.8544C116.778 17.1219 116.634 17.3512 116.485 17.5423C116.339 17.7307 116.18 17.8781 116.008 17.9845C115.836 18.091 115.638 18.162 115.415 18.1975C115.194 18.233 114.97 18.2343 114.742 18.2016C114.513 18.1715 114.289 18.1115 114.068 18.0214C113.847 17.9313 113.623 17.8235 113.394 17.6979C113.169 17.5751 112.953 17.4468 112.748 17.313C112.54 17.1765 112.365 17.0414 112.224 16.9076C112.083 16.7739 111.959 16.6442 111.851 16.5186C111.743 16.3958 111.658 16.2648 111.597 16.1256C111.535 15.9891 111.553 16.0887 111.651 16.4245C111.748 16.7602 111.794 16.8053 111.789 16.5596C111.784 16.3112 111.807 16.071 111.859 15.8389C111.91 15.6069 112.005 15.3872 112.143 15.1797C112.282 14.9722 112.45 14.7552 112.648 14.5286C112.843 14.3048 113.053 14.0509 113.279 13.767C113.505 13.4859 113.751 13.1897 114.018 12.8785C114.287 12.5646 114.589 12.2602 114.922 11.9654C115.256 11.6678 115.617 11.3676 116.004 11.0646C116.394 10.7588 116.798 10.4422 117.217 10.1146C117.637 9.78428 118.066 9.45671 118.502 9.13187C118.936 8.80702 119.386 8.4849 119.853 8.16552C120.318 7.84613 120.805 7.51993 121.316 7.1869C121.829 6.85114 122.356 6.51264 122.898 6.17142C123.442 5.83019 123.967 5.49716 124.472 5.17231C124.978 4.84747 125.456 4.54174 125.908 4.25511C126.357 3.96848 126.783 3.71188 127.186 3.48531C127.589 3.25874 127.971 3.07038 128.333 2.92024C128.692 2.77011 129.03 2.67456 129.345 2.63361C129.661 2.5954 129.96 2.61724 130.242 2.69913C130.527 2.78102 130.785 2.92161 131.016 3.12088C131.249 3.32288 131.447 3.57676 131.608 3.88249C131.773 4.1855 131.9 4.53764 131.99 4.93891C132.079 5.34019 132.132 5.77696 132.147 6.24922C132.16 6.72147 132.152 7.22647 132.124 7.76424C132.093 8.302 132.06 8.87799 132.024 9.49219C131.986 10.1037 131.943 10.7411 131.897 11.4044C131.848 12.065 131.778 12.7065 131.685 13.3289C131.59 13.954 131.48 14.5286 131.354 15.0528C131.226 15.5796 131.086 16.0587 130.935 16.49C130.783 16.924 130.52 17.1779 130.146 17.2516C129.774 17.328 129.511 17.4645 129.357 17.6611C129.203 17.8576 129.069 18.0078 128.956 18.1115C128.846 18.2125 128.747 18.2889 128.66 18.3408C128.573 18.3899 128.509 18.4077 128.468 18.394C128.426 18.3804 128.416 18.3312 128.437 18.2466C128.455 18.1647 128.496 18.0624 128.56 17.9395C128.624 17.8194 128.706 17.6925 128.806 17.5587C128.906 17.4277 129.019 17.2871 129.145 17.1369C129.271 16.9868 129.393 16.8217 129.511 16.6415C129.629 16.4613 129.743 16.2716 129.853 16.0723C129.961 15.8731 130.073 15.6724 130.188 15.4704C130.304 15.2711 130.428 15.0746 130.561 14.8808C130.695 14.6842 130.844 14.4904 131.008 14.2993C131.172 14.111 131.335 13.9404 131.497 13.7875C131.658 13.6346 131.806 13.4982 131.939 13.378C132.073 13.2552 132.202 13.1392 132.328 13.03C132.454 12.9181 132.596 12.828 132.755 12.7597C132.917 12.6888 133.089 12.6437 133.271 12.6246C133.453 12.6055 133.633 12.5782 133.81 12.5427C133.987 12.5072 134.155 12.4554 134.314 12.3871C134.476 12.3189 134.633 12.2465 134.784 12.1701C134.935 12.0937 135.088 12.0145 135.242 11.9326C135.396 11.848 135.554 11.7552 135.715 11.6542C135.877 11.5559 136.063 11.4522 136.274 11.343C136.481 11.2338 136.733 11.1164 137.028 10.9908C137.323 10.868 137.648 10.7383 138.002 10.6019C138.353 10.4654 138.7 10.3412 139.041 10.2292C139.382 10.12 139.712 10.0136 140.03 9.90985C140.349 9.80612 140.681 9.69283 141.027 9.56999C141.371 9.44715 141.673 9.38574 141.932 9.38574C142.191 9.38847 142.528 9.33387 142.944 9.22195C143.357 9.11276 143.756 9.00902 144.141 8.91075C144.526 8.81521 144.883 8.73741 145.211 8.67735C145.54 8.62003 145.864 8.58727 146.185 8.57909C146.506 8.5709 146.822 8.59274 147.132 8.6446C147.443 8.69647 147.726 8.77699 147.983 8.88619C148.239 8.99538 148.451 9.12777 148.618 9.28337C148.787 9.43624 148.918 9.6082 149.01 9.79929C149.103 9.9931 149.168 10.2224 149.207 10.4872C149.245 10.752 149.266 11.0468 149.268 11.3717C149.271 11.6938 149.249 12.0118 149.203 12.3257C149.157 12.6369 149.077 12.9263 148.964 13.1938C148.854 13.4586 148.711 13.7097 148.537 13.9472C148.362 14.182 148.175 14.3894 147.975 14.5696C147.775 14.747 147.58 14.8835 147.39 14.9791C147.203 15.0746 147.027 15.1388 146.863 15.1715C146.698 15.207 146.55 15.2384 146.416 15.2657C146.283 15.2957 146.174 15.308 146.089 15.3025C146.007 15.2971 145.935 15.2698 145.873 15.2206C145.812 15.1715 145.758 15.1128 145.712 15.0446C145.665 14.9763 145.642 14.8985 145.642 14.8112C145.64 14.7238 145.664 14.6201 145.716 14.5C145.767 14.3771 145.839 14.2461 145.931 14.1069C146.023 13.9677 146.144 13.8448 146.293 13.7384C146.442 13.6292 146.611 13.55 146.801 13.5009C146.988 13.4517 147.186 13.4231 147.394 13.4149C147.602 13.4094 147.821 13.419 148.052 13.4436C148.283 13.4681 148.529 13.5159 148.791 13.5869C149.05 13.6551 149.32 13.7329 149.599 13.8203C149.876 13.9103 150.184 14.0496 150.523 14.2379C150.862 14.4263 151.167 14.5764 151.439 14.6883C151.711 14.8003 151.969 14.919 152.213 15.0446C152.459 15.1701 152.682 15.2957 152.883 15.4213C153.083 15.5496 153.264 15.6492 153.425 15.7202C153.584 15.7912 153.74 15.8212 153.891 15.8103C154.042 15.8021 154.191 15.7543 154.338 15.667C154.484 15.5796 154.617 15.4595 154.738 15.3066C154.859 15.1565 154.975 14.9695 155.088 14.7457C155.199 14.5218 155.306 14.272 155.411 13.9963C155.519 13.7234 155.608 13.4476 155.677 13.1692C155.749 12.8935 155.809 12.6164 155.858 12.338C155.907 12.0623 155.984 11.7729 156.089 11.4699C156.194 11.1669 156.335 10.8584 156.512 10.5445C156.687 10.2279 156.879 9.92623 157.09 9.6396C157.298 9.35025 157.517 9.08273 157.748 8.83705C157.976 8.59137 158.219 8.37571 158.475 8.19009C158.729 8.00446 158.989 7.85023 159.253 7.72739C159.52 7.60455 159.775 7.51037 160.019 7.44485C160.265 7.37934 160.515 7.35887 160.77 7.38344C161.026 7.40527 161.302 7.48035 161.597 7.60865C161.892 7.73422 162.195 7.89255 162.505 8.08363C162.816 8.27472 163.1 8.47808 163.356 8.69374C163.615 8.90939 163.833 9.14415 164.01 9.39802C164.188 9.65189 164.348 9.91122 164.492 10.176C164.635 10.4435 164.778 10.6878 164.919 10.909C165.06 11.1328 165.188 11.3403 165.304 11.5313C165.419 11.7197 165.507 11.9149 165.566 12.1169C165.622 12.3189 165.671 12.5209 165.712 12.7229C165.75 12.9276 165.776 13.1105 165.789 13.2716C165.799 13.4354 165.832 13.565 165.889 13.6606C165.945 13.7588 165.939 13.8885 165.87 14.0496C165.803 14.2106 165.721 14.3662 165.623 14.5164C165.528 14.6665 165.414 14.8016 165.281 14.9217C165.147 15.0391 165.018 15.1551 164.892 15.2698C164.766 15.3817 164.649 15.4963 164.542 15.6137C164.434 15.7311 164.325 15.8403 164.214 15.9413C164.107 16.0423 163.993 16.1324 163.872 16.2115C163.751 16.2907 163.627 16.3603 163.499 16.4204C163.368 16.4804 163.246 16.5323 163.133 16.576C163.017 16.6224 162.919 16.6606 162.836 16.6906C162.752 16.7234 162.681 16.748 162.625 16.7643C162.568 16.7807 162.521 16.7821 162.482 16.7684C162.444 16.7548 162.43 16.7288 162.44 16.6906C162.45 16.6524 162.484 16.5937 162.54 16.5146C162.597 16.4381 162.672 16.3303 162.767 16.1911C162.86 16.0546 162.979 15.8976 163.125 15.7202C163.274 15.5455 163.463 15.3558 163.691 15.151C163.922 14.9463 164.176 14.7129 164.453 14.4508C164.73 14.1915 165.034 13.8981 165.365 13.5705C165.696 13.2456 166.063 12.8976 166.466 12.5263C166.869 12.1578 167.292 11.7688 167.736 11.3594C168.183 10.9526 168.626 10.5322 169.064 10.0982C169.506 9.66417 169.948 9.22467 170.392 8.77972C170.839 8.33204 171.297 7.9021 171.766 7.4899C172.239 7.08043 172.725 6.70509 173.225 6.36387C173.726 6.02537 174.226 5.7169 174.726 5.43847C175.224 5.16003 175.7 4.9007 176.154 4.66048C176.606 4.41753 177.036 4.19779 177.444 4.00124C177.852 3.8047 178.238 3.66412 178.603 3.57949C178.967 3.49487 179.437 2.92161 180.011 1.85973C180.586 0.80057 181.054 0.361075 181.416 0.54124C181.776 0.724136 182.128 0.972549 182.475 1.28647C182.821 1.6004 183.152 1.97847 183.468 2.42069C183.783 2.86292 184.057 3.36656 184.288 3.93163C184.521 4.49396 184.697 5.09588 184.815 5.73738C184.933 6.37615 185.001 7.03676 185.019 7.7192C185.037 8.39892 185.018 9.08818 184.961 9.78701C184.905 10.4858 184.812 11.1833 184.684 11.8794C184.556 12.5728 184.413 13.2566 184.257 13.9308C184.1 14.6051 183.941 15.2589 183.78 15.8922C183.618 16.5227 183.442 17.1206 183.252 17.6856C183.062 18.248 182.844 18.7707 182.598 19.2539C182.352 19.7343 182.098 20.1738 181.836 20.5724C181.577 20.9682 181.31 21.3026 181.035 21.5756C180.761 21.8486 180.477 22.0465 180.185 22.1693C179.892 22.2921 179.612 22.3508 179.345 22.3454C179.079 22.3372 178.849 22.2826 178.656 22.1816C178.467 22.0806 178.302 21.9373 178.164 21.7517C178.028 21.566 177.906 21.3504 177.798 21.1047C177.69 20.8617 177.597 20.5928 177.517 20.298C177.435 20.0032 177.371 19.6907 177.325 19.3604C177.278 19.0273 177.255 18.6834 177.255 18.3285C177.253 17.9709 177.264 17.6092 177.29 17.2434C177.316 16.8749 177.353 16.4955 177.402 16.1051C177.45 15.7175 177.518 15.3148 177.606 14.8972C177.693 14.4822 177.796 14.0564 177.914 13.6196C178.032 13.1856 178.15 12.7625 178.268 12.3503C178.388 11.9381 178.517 11.53 178.653 11.126C178.789 10.7247 178.941 10.3111 179.111 9.88529C179.283 9.46217 179.653 9.28337 180.223 9.34889C180.795 9.4144 181.194 9.29429 181.42 8.98855C181.648 8.68282 181.91 8.37707 182.205 8.07134C182.5 7.7656 182.837 7.46533 183.214 7.17052C183.591 6.8757 183.994 6.58498 184.422 6.29835C184.854 6.01172 185.308 5.74284 185.785 5.4917C186.262 5.23783 186.769 5.02081 187.305 4.84065C187.839 4.65775 188.383 4.51717 188.937 4.4189C189.492 4.32062 190.045 4.26876 190.596 4.2633C191.148 4.26057 191.713 4.3138 192.29 4.42299C192.867 4.53219 193.447 4.70552 194.03 4.94301C194.615 5.17777 195.19 5.47259 195.754 5.82746C196.321 6.18234 196.877 6.58362 197.421 7.0313C197.968 7.47898 198.49 7.96898 198.988 8.50129C199.485 9.03086 199.951 9.5891 200.385 10.176C200.818 10.7629 201.22 11.3676 201.59 11.9899C201.957 12.6123 202.28 13.2402 202.56 13.8735C202.837 14.5068 203.051 15.121 203.202 15.7161C203.351 16.3112 203.459 16.8831 203.526 17.4318C203.592 17.9777 203.618 18.4923 203.603 18.9755C203.587 19.4586 203.513 19.8995 203.379 20.298C203.243 20.6993 203.054 21.0378 202.81 21.3135C202.563 21.5892 202.29 21.8035 201.99 21.9564C201.69 22.1093 201.368 22.1925 201.024 22.2062C200.677 22.2198 200.308 22.1529 199.915 22.0055C199.52 21.8581 199.106 21.6302 198.672 21.3217C198.236 21.016 197.801 20.6502 197.367 20.2243C196.931 19.7957 196.515 19.3344 196.12 18.8403C195.725 18.3462 195.355 17.8276 195.011 17.2844C194.67 16.7384 194.351 16.1897 194.053 15.6383C193.755 15.0869 193.512 14.5273 193.322 13.9595C193.132 13.3917 192.934 12.8812 192.729 12.4281C192.524 11.9722 192.347 11.5409 192.198 11.1342C192.046 10.7274 191.928 10.3466 191.844 9.99174C191.756 9.63687 191.696 9.30794 191.663 9.00493C191.632 8.6992 191.634 8.41666 191.67 8.15733C191.704 7.89801 191.778 7.6646 191.894 7.45714C192.009 7.24694 192.158 7.06814 192.34 6.92074C192.52 6.77333 192.715 6.66277 192.925 6.58907C193.136 6.51536 193.378 6.47305 193.653 6.46213C193.927 6.44848 194.239 6.47032 194.588 6.52765C194.934 6.58498 195.3 6.67097 195.685 6.78562C196.07 6.89754 196.452 7.03675 196.832 7.20327C197.212 7.36979 197.592 7.55268 197.971 7.75195C198.351 7.95123 198.751 8.14368 199.172 8.3293C199.596 8.51493 200.049 8.68691 200.531 8.84524C201.013 9.00083 201.504 9.14961 202.001 9.29155C202.499 9.4335 202.971 9.56862 203.418 9.69692C203.867 9.82795 204.289 9.94534 204.684 10.0491C205.079 10.1555 205.466 10.262 205.843 10.3685C206.22 10.4749 206.601 10.5896 206.986 10.7124C207.368 10.838 207.748 10.9622 208.125 11.085C208.503 11.2106 208.872 11.3334 209.234 11.4535C209.596 11.5737 209.941 11.6951 210.269 11.818C210.6 11.9408 210.901 12.0637 211.17 12.1865C211.442 12.3121 211.682 12.4335 211.89 12.5509C212.095 12.6656 212.275 12.7775 212.429 12.8867C212.583 12.9931 212.725 13.1078 212.856 13.2306C212.984 13.3507 213.116 13.4845 213.252 13.6319C213.388 13.7766 213.509 13.9308 213.614 14.0946C213.722 14.2611 213.727 14.4508 213.63 14.6638C213.535 14.8767 213.5 15.0678 213.526 15.237C213.554 15.4063 213.601 15.5837 213.668 15.7693C213.737 15.955 213.814 16.1419 213.899 16.3303C213.986 16.5187 214.057 16.6784 214.111 16.8094C214.167 16.9404 214.207 17.0441 214.23 17.1206C214.256 17.197 214.278 17.253 214.296 17.2884C214.314 17.3212 214.326 17.3198 214.334 17.2844C214.342 17.2489 214.357 17.1724 214.38 17.0551C214.401 16.9404 214.43 16.7889 214.469 16.6005C214.507 16.4149 214.543 16.2006 214.577 15.9577C214.612 15.7175 214.641 15.4581 214.661 15.1797C214.684 14.9013 214.705 14.6187 214.723 14.3321C214.743 14.0455 214.757 13.7547 214.765 13.4599C214.775 13.1651 214.791 12.8812 214.811 12.6082C214.834 12.3353 214.863 12.0828 214.896 11.8507C214.929 11.6187 214.965 11.4058 215.004 11.212C215.04 11.0181 215.083 10.8352 215.135 10.6633C215.183 10.4913 215.231 10.3371 215.277 10.2006C215.321 10.0641 215.355 9.96581 215.381 9.90576C215.409 9.8457 215.42 9.82523 215.412 9.84434C215.404 9.86618 215.376 9.91121 215.327 9.97946C215.278 10.0477 215.218 10.1378 215.146 10.2497C215.074 10.3616 214.996 10.4968 214.911 10.6551C214.827 10.8134 214.752 10.9799 214.688 11.1546C214.621 11.3321 214.589 11.4986 214.592 11.6542C214.592 11.807 214.62 11.9545 214.677 12.0964C214.736 12.2356 214.792 12.3748 214.846 12.5141C214.9 12.6533 214.95 12.7707 214.996 12.8662C215.045 12.9618 215.113 13.03 215.2 13.0709C215.287 13.1119 215.523 13.1092 215.908 13.0627C216.293 13.0136 216.587 12.9563 216.79 12.8908C216.993 12.8253 217.199 12.7215 217.41 12.5796C217.62 12.4376 217.839 12.2738 218.068 12.0882C218.296 11.9053 218.559 11.7211 218.857 11.5354C219.157 11.3525 219.503 11.1888 219.896 11.0441C220.289 10.8967 220.706 10.7656 221.147 10.651C221.586 10.5336 222.023 10.4271 222.46 10.3316C222.893 10.2388 223.322 10.1692 223.745 10.1228C224.169 10.0791 224.596 10.0695 225.027 10.0941C225.461 10.1187 225.903 10.1733 226.355 10.2579C226.809 10.3425 227.261 10.4613 227.71 10.6141C228.159 10.767 228.591 10.9663 229.007 11.212C229.423 11.4576 229.81 11.7415 230.169 12.0636C230.529 12.3858 230.862 12.7161 231.17 13.0546C231.478 13.3931 231.768 13.7275 232.04 14.0578C232.315 14.3881 232.56 14.7211 232.775 15.0569C232.991 15.3926 233.155 15.7256 233.268 16.0559C233.381 16.389 233.446 16.7125 233.464 17.0264C233.485 17.3403 233.464 17.6447 233.403 17.9395C233.341 18.2371 233.24 18.5059 233.099 18.7462C232.957 18.9891 232.787 19.1898 232.587 19.3481C232.387 19.5064 232.175 19.6279 231.952 19.7125C231.728 19.7944 231.499 19.8381 231.263 19.8435C231.027 19.849 230.796 19.7957 230.57 19.6838C230.344 19.5719 230.122 19.3904 229.904 19.1392C229.686 18.8854 229.482 18.5878 229.292 18.2466C229.102 17.9054 228.947 17.5491 228.826 17.1779C228.705 16.8066 228.617 16.4245 228.56 16.0314C228.504 15.6356 228.472 15.2357 228.464 14.8316C228.454 14.4249 228.457 14.0141 228.472 13.5991C228.487 13.1815 228.504 12.8034 228.522 12.4649C228.537 12.1264 228.567 11.8125 228.611 11.5232C228.652 11.2338 228.711 10.9745 228.788 10.7452C228.862 10.5131 228.957 10.2988 229.072 10.1023C229.19 9.90303 229.325 9.7133 229.477 9.53314C229.631 9.35297 229.796 9.18919 229.973 9.04179C230.153 8.89165 230.339 8.75516 230.531 8.63232C230.724 8.51221 230.911 8.40301 231.093 8.30474C231.273 8.20646 231.456 8.12184 231.644 8.05087C231.831 7.97989 232.021 7.92121 232.213 7.8748C232.406 7.82566 232.596 7.77517 232.783 7.7233C232.973 7.67143 233.168 7.61547 233.368 7.55542C233.566 7.49809 233.79 7.4435 234.042 7.39163C234.293 7.3425 234.543 7.28789 234.792 7.22784C235.044 7.16778 235.28 7.1009 235.5 7.0272C235.724 6.95077 235.955 6.88252 236.193 6.82247C236.432 6.76241 236.695 6.72283 236.982 6.70372C237.267 6.68461 237.555 6.69554 237.845 6.73648C238.132 6.77743 238.416 6.85523 238.695 6.96988C238.972 7.08453 239.246 7.24012 239.515 7.43667C239.785 7.63321 240.046 7.87889 240.3 8.1737C240.554 8.46852 240.801 8.81794 241.039 9.22195C241.281 9.62596 241.519 10.0586 241.755 10.52C241.989 10.9813 242.216 11.459 242.437 11.9531C242.657 12.4472 242.87 12.9385 243.076 13.4272C243.278 13.9158 243.475 14.4003 243.664 14.8808C243.852 15.3585 244.033 15.8389 244.207 16.3221C244.379 16.8053 244.545 17.2844 244.704 17.7593C244.865 18.2343 245.025 18.682 245.181 19.1024C245.338 19.5228 245.486 19.7234 245.628 19.7043C245.766 19.6879 245.933 19.8012 246.128 20.0442C246.323 20.2871 246.496 20.4932 246.648 20.6625C246.796 20.8317 246.92 20.9655 247.017 21.0638C247.112 21.1648 247.208 21.2193 247.306 21.2275C247.403 21.2357 247.512 21.1948 247.633 21.1047C247.751 21.0146 247.868 20.8809 247.983 20.7034C248.099 20.5233 248.204 20.298 248.299 20.0278C248.394 19.7548 248.472 19.4259 248.534 19.041C248.595 18.6561 248.641 18.2398 248.672 17.7921C248.7 17.3417 248.72 16.8653 248.73 16.363C248.738 15.858 248.749 15.3285 248.765 14.7743C248.777 14.2202 248.792 13.651 248.807 13.0668C248.822 12.4854 248.84 11.9162 248.861 11.3594C248.881 10.8025 248.901 10.2606 248.919 9.73379C248.937 9.20694 248.961 8.69373 248.992 8.19418C249.022 7.69736 249.053 7.24285 249.084 6.83065C249.112 6.41572 249.124 6.06496 249.119 5.77833C249.116 5.48897 249.106 5.24602 249.088 5.04948C249.07 4.85293 249.066 4.69596 249.076 4.57858C249.087 4.4612 249.13 4.39433 249.207 4.37795C249.282 4.35884 249.383 4.39024 249.511 4.47213C249.637 4.55129 249.76 4.66731 249.881 4.82018C250.004 4.97305 250.114 5.16413 250.212 5.39343C250.312 5.62546 250.422 5.908 250.543 6.24103C250.661 6.57679 250.797 6.9494 250.951 7.35887C251.102 7.77107 251.264 8.19828 251.436 8.6405C251.61 9.08273 251.785 9.52769 251.959 9.97537C252.136 10.4231 252.317 10.8598 252.502 11.2857C252.687 11.7142 252.884 12.121 253.095 12.5059C253.308 12.8908 253.432 13.2661 253.468 13.6319C253.504 13.9977 253.654 14.2993 253.919 14.5368C254.183 14.777 254.437 14.9736 254.681 15.1265C254.927 15.2821 255.153 15.3954 255.358 15.4663C255.566 15.5373 255.77 15.5919 255.97 15.6301C256.17 15.6683 256.369 15.6888 256.567 15.6915C256.762 15.697 256.948 15.6902 257.125 15.6711C257.299 15.6492 257.473 15.6356 257.645 15.6301C257.814 15.6247 257.996 15.641 258.191 15.6792C258.389 15.7202 258.589 15.7598 258.792 15.798C258.994 15.8389 259.194 15.8662 259.392 15.8799C259.592 15.8935 259.794 15.9072 259.996 15.9208C260.199 15.9345 260.398 15.9618 260.593 16.0027C260.785 16.0437 260.954 16.0996 261.097 16.1706C261.241 16.2416 261.373 16.3098 261.494 16.3753C261.612 16.4409 261.722 16.4818 261.825 16.4982C261.927 16.5173 262.017 16.5146 262.094 16.49C262.171 16.4654 262.238 16.4354 262.294 16.3999C262.353 16.3644 262.416 16.3153 262.483 16.2525C262.55 16.1924 262.627 16.0955 262.714 15.9618C262.801 15.8308 262.901 15.6642 263.014 15.4622C263.127 15.2602 263.251 15.035 263.387 14.7866C263.526 14.5409 263.676 14.2707 263.838 13.9759C263.999 13.681 264.17 13.3617 264.35 13.0177C264.529 12.6738 264.733 12.338 264.962 12.0104C265.19 11.6828 265.439 11.373 265.708 11.0809C265.981 10.7861 266.263 10.5036 266.555 10.2333C266.845 9.96309 267.14 9.71194 267.441 9.47991C267.741 9.2506 268.04 9.04587 268.337 8.8657C268.635 8.68554 268.919 8.53541 269.188 8.4153C269.458 8.29246 269.585 7.92666 269.569 7.31792C269.554 6.70918 269.705 6.43757 270.023 6.50308C270.342 6.57133 270.623 6.67916 270.866 6.82657C271.113 6.97397 271.315 7.15004 271.474 7.35477C271.634 7.5595 271.757 7.79563 271.844 8.06315C271.929 8.32794 271.983 8.61594 272.006 8.92713C272.029 9.2356 272.015 9.55225 271.963 9.87709C271.909 10.1992 271.815 10.52 271.679 10.8393C271.545 11.1587 271.386 11.4768 271.201 11.7934C271.014 12.1073 270.836 12.4131 270.666 12.7106C270.494 13.0054 270.334 13.2784 270.185 13.5295C270.039 13.778 269.898 13.9963 269.762 14.1847C269.628 14.3703 269.505 14.5164 269.392 14.6228C269.277 14.7293 269.171 14.8016 269.076 14.8398C268.982 14.8781 268.898 14.8835 268.826 14.8562C268.752 14.8316 268.699 14.788 268.668 14.7252C268.635 14.6597 268.63 14.586 268.653 14.5041C268.674 14.4195 268.72 14.3212 268.792 14.2093C268.864 14.0973 268.97 13.9786 269.111 13.853C269.252 13.7275 269.427 13.6237 269.635 13.5418C269.845 13.4599 270.082 13.4081 270.347 13.3862C270.611 13.3644 270.893 13.3712 271.194 13.4067C271.491 13.4422 271.797 13.5009 272.11 13.5828C272.42 13.6647 272.725 13.7711 273.026 13.9022C273.326 14.0305 273.633 14.182 273.946 14.3567C274.259 14.5286 274.578 14.7211 274.904 14.934C275.227 15.1469 275.544 15.3653 275.855 15.5892C276.168 15.8103 276.468 16.0123 276.756 16.1952C277.043 16.3781 277.315 16.5323 277.572 16.6579C277.828 16.7862 278.073 16.8817 278.307 16.9445C278.54 17.0073 278.833 17.0223 279.184 16.9895C279.538 16.9595 279.843 16.8776 280.097 16.7439C280.351 16.6101 280.579 16.4518 280.782 16.2689C280.984 16.086 281.16 15.8935 281.309 15.6915C281.458 15.4895 281.6 15.2739 281.736 15.0446C281.872 14.818 282.022 14.5832 282.187 14.3403C282.351 14.0946 282.519 13.853 282.691 13.6155C282.86 13.378 283.008 13.1405 283.134 12.9031C283.259 12.6656 283.373 12.4185 283.476 12.1619C283.581 11.9026 283.68 11.6419 283.772 11.3798C283.865 11.1178 283.953 10.8653 284.038 10.6223C284.123 10.3766 284.211 10.1432 284.304 9.92214C284.396 9.70102 284.5 9.50175 284.615 9.32432C284.731 9.14688 284.853 9.00766 284.981 8.90665C285.109 8.80565 285.244 8.72922 285.385 8.67735C285.526 8.62822 285.674 8.59273 285.828 8.57089C285.982 8.54905 286.142 8.5436 286.309 8.55452C286.478 8.56817 286.645 8.60774 286.809 8.67325C286.974 8.73877 287.126 8.8234 287.268 8.92713C287.406 9.03087 287.541 9.13186 287.672 9.23014C287.803 9.32841 287.923 9.4144 288.033 9.4881C288.144 9.56181 288.244 9.62459 288.334 9.67645C288.421 9.72559 288.511 9.76244 288.603 9.78701C288.693 9.81157 288.798 9.83206 288.919 9.84844C289.039 9.86209 289.16 9.87437 289.281 9.88529C289.404 9.89621 289.515 9.90166 289.615 9.90166C289.716 9.90439 289.814 9.89484 289.912 9.873C290.012 9.85389 290.127 9.82796 290.258 9.7952C290.389 9.76245 290.533 9.73242 290.689 9.70512C290.846 9.67782 290.99 9.67645 291.12 9.70102C291.251 9.72559 291.303 9.82386 291.274 9.99584C291.249 10.1678 291.267 10.3343 291.328 10.4954C291.387 10.6537 291.445 10.8271 291.502 11.0154C291.555 11.2038 291.599 11.4126 291.632 11.6419C291.666 11.8712 291.689 12.1319 291.702 12.424C291.715 12.7161 291.727 13.0163 291.74 13.3248C291.75 13.636 291.754 13.954 291.752 14.2789C291.749 14.6037 291.739 14.9504 291.721 15.3189C291.703 15.6902 291.685 16.071 291.667 16.4613C291.652 16.8517 291.644 17.2379 291.644 17.6201C291.647 18.0023 291.664 18.3735 291.698 18.7339C291.731 19.0969 291.775 19.4436 291.829 19.7739C291.885 20.1015 291.94 20.4072 291.994 20.6911C292.046 20.975 292.093 21.218 292.137 21.42C292.178 21.6247 292.229 21.7762 292.291 21.8745C292.35 21.97 292.427 22.0151 292.522 22.0096C292.614 22.0014 292.715 21.9455 292.826 21.8417C292.936 21.738 293.057 21.5797 293.187 21.3668C293.318 21.1511 293.466 20.8931 293.63 20.5929C293.792 20.2898 293.988 19.9322 294.219 19.5201C294.453 19.1079 294.713 18.6301 295 18.0869C295.288 17.5464 295.592 16.9704 295.913 16.359C296.236 15.7502 296.575 15.1347 296.929 14.5123C297.283 13.8899 297.65 13.277 298.03 12.6738C298.409 12.0705 298.789 11.4931 299.169 10.9417C299.546 10.3876 299.922 9.86208 300.297 9.36526C300.669 8.86843 301.037 8.41393 301.402 8.00173C301.763 7.58954 302.114 7.23057 302.452 6.92483C302.791 6.6191 303.118 6.35568 303.434 6.13456C303.747 5.91345 304.027 5.72919 304.273 5.58178C304.517 5.43164 304.598 5.41799 304.515 5.54083C304.431 5.66367 304.437 5.73056 304.535 5.74148C304.635 5.75513 304.722 5.78379 304.796 5.82746C304.873 5.87387 304.95 5.95577 305.027 6.07315C305.102 6.19053 305.16 6.34475 305.201 6.53583C305.239 6.72419 305.247 6.93712 305.224 7.17462C305.203 7.41211 305.166 7.66188 305.112 7.92393C305.061 8.18599 305.021 8.46034 304.993 8.74697C304.965 9.03633 304.947 9.32431 304.939 9.61094C304.929 9.89757 304.923 10.1787 304.923 10.4544C304.923 10.7329 304.941 11.0072 304.977 11.2775C305.016 11.5477 305.076 11.807 305.158 12.0555C305.243 12.3066 305.331 12.5591 305.424 12.813C305.519 13.0668 305.609 13.3316 305.693 13.6073C305.775 13.8858 305.858 14.1519 305.94 14.4058C306.019 14.6597 306.099 14.9013 306.178 15.1306C306.255 15.3571 306.33 15.5851 306.402 15.8144C306.473 16.0437 306.54 16.2743 306.602 16.5064C306.666 16.7384 306.73 16.9595 306.794 17.1697C306.861 17.3799 306.922 17.5942 306.979 17.8126C307.033 18.031 307.076 18.2548 307.11 18.4841C307.141 18.7134 307.157 18.9359 307.16 19.1515C307.162 19.3644 307.155 19.5624 307.137 19.7453C307.119 19.9254 307.088 20.0892 307.044 20.2366C307.001 20.3868 306.958 20.485 306.917 20.5314C306.874 20.5806 306.853 20.5587 306.856 20.4659C306.856 20.3758 306.879 20.2284 306.925 20.0237C306.974 19.819 307.019 19.5746 307.06 19.2908C307.101 19.0069 307.129 18.6738 307.144 18.2916C307.162 17.9122 307.196 17.4986 307.245 17.051C307.293 16.6033 307.475 16.146 307.791 15.6792C308.107 15.2125 308.344 14.7716 308.503 14.3567C308.66 13.9417 308.837 13.4995 309.034 13.03C309.232 12.5605 309.471 12.08 309.75 11.5887C310.03 11.0973 310.337 10.6169 310.67 10.1473C311.006 9.68055 311.359 9.2274 311.729 8.7879C312.101 8.35114 312.495 7.94032 312.91 7.55542C313.329 7.17052 313.779 6.82929 314.262 6.53175C314.741 6.23147 315.244 5.9776 315.77 5.77013C316.296 5.55994 316.828 5.39889 317.364 5.28696C317.898 5.17231 318.434 5.11772 318.973 5.12318C319.512 5.12864 320.052 5.1887 320.593 5.30335C321.132 5.418 321.66 5.56131 322.175 5.73328C322.691 5.90526 323.179 6.09908 323.638 6.31473C324.097 6.52765 324.539 6.78289 324.962 7.08043C325.386 7.37798 325.781 7.7233 326.148 8.11639C326.512 8.50674 326.833 8.91894 327.11 9.35297C327.387 9.78428 327.633 10.1951 327.849 10.5855C328.064 10.9758 328.258 11.3334 328.43 11.6583C328.605 11.9831 328.721 12.2875 328.78 12.5714C328.842 12.8553 328.842 13.1255 328.78 13.3821C328.721 13.636 328.62 13.8612 328.476 14.0578C328.335 14.2543 328.165 14.4058 327.964 14.5123C327.764 14.616 327.541 14.6829 327.295 14.7129C327.048 14.7402 326.794 14.7484 326.533 14.7375C326.271 14.7266 326 14.7074 325.72 14.6801C325.443 14.6528 325.162 14.6255 324.877 14.5982C324.593 14.5709 324.33 14.5355 324.088 14.4918C323.847 14.4508 323.617 14.4044 323.399 14.3526C323.179 14.3007 322.967 14.2611 322.764 14.2338C322.559 14.2038 322.292 14.3444 321.964 14.6556C321.635 14.964 321.376 15.121 321.186 15.1265C320.996 15.1319 320.815 15.1524 320.643 15.1879C320.471 15.2234 320.317 15.2711 320.181 15.3312C320.045 15.3885 319.929 15.4609 319.831 15.5482C319.734 15.6356 319.662 15.7257 319.616 15.8185C319.567 15.9113 319.539 15.9945 319.531 16.0682C319.523 16.1392 319.53 16.1788 319.55 16.187C319.571 16.1952 319.611 16.1761 319.67 16.1297C319.729 16.0833 319.839 16.0095 320.001 15.9085C320.162 15.8103 320.378 15.6833 320.647 15.5277C320.919 15.3721 321.225 15.1961 321.563 14.9995C321.902 14.803 322.263 14.6078 322.645 14.414C323.027 14.2229 323.44 14.0318 323.884 13.8407C324.328 13.6497 324.789 13.434 325.266 13.1938C325.746 12.9536 326.217 12.686 326.679 12.3912C327.138 12.0964 327.591 11.8043 328.038 11.515C328.481 11.2256 328.938 10.9676 329.408 10.7411C329.88 10.5145 330.343 10.3125 330.797 10.1351C331.254 9.96035 331.696 9.7952 332.121 9.6396C332.55 9.48401 332.97 9.34889 333.38 9.23424C333.793 9.12231 334.187 9.04177 334.562 8.99264C334.939 8.9435 335.28 8.92031 335.586 8.92304C335.891 8.9285 336.163 8.96399 336.402 9.0295C336.638 9.09502 336.858 9.19601 337.064 9.3325C337.272 9.46899 337.472 9.62595 337.664 9.80339C337.859 9.98082 338.041 10.1719 338.211 10.3766C338.38 10.5814 338.533 10.8052 338.669 11.0482C338.805 11.2911 338.936 11.5327 339.061 11.7729C339.185 12.0159 339.296 12.2465 339.396 12.4649C339.496 12.6833 339.514 12.8962 339.45 13.1037C339.386 13.3112 339.385 13.4968 339.446 13.6606C339.508 13.8216 339.575 13.9527 339.647 14.0537C339.718 14.1547 339.802 14.227 339.897 14.2707C339.992 14.3144 340.078 14.3294 340.155 14.3157C340.234 14.3021 340.298 14.2638 340.347 14.2011C340.396 14.1355 340.443 14.0482 340.489 13.939C340.538 13.8271 340.597 13.6947 340.667 13.5418C340.738 13.389 340.813 13.2252 340.89 13.0505C340.969 12.8785 341.06 12.727 341.163 12.596C341.263 12.4677 341.386 12.3667 341.533 12.293C341.679 12.2193 341.833 12.1646 341.995 12.1292C342.159 12.0937 342.297 12.0882 342.41 12.1128C342.526 12.1374 342.609 12.1974 342.66 12.293C342.714 12.3885 342.741 12.5223 342.741 12.6942C342.741 12.8689 342.721 13.0791 342.68 13.3248C342.641 13.5732 342.577 13.8462 342.487 14.1437C342.397 14.444 342.283 14.7443 342.145 15.0446C342.003 15.3421 341.833 15.6397 341.633 15.9372C341.433 16.2348 341.225 16.5227 341.009 16.8012C340.794 17.0769 340.583 17.3294 340.378 17.5587C340.175 17.7907 339.972 17.9941 339.77 18.1688C339.567 18.3435 339.36 18.4991 339.15 18.6356C338.94 18.7721 338.751 18.8867 338.584 18.9796C338.42 19.0724 338.28 19.1229 338.165 19.1311C338.052 19.1392 337.955 19.0956 337.876 19C337.796 18.9045 337.745 18.7735 337.722 18.6069C337.699 18.4404 337.731 18.263 337.818 18.0746C337.905 17.8863 338.047 17.6843 338.242 17.4686C338.437 17.2502 338.665 17.0114 338.927 16.752C339.188 16.4927 339.521 16.0955 339.924 15.5605C340.329 15.0282 340.762 14.6296 341.221 14.3649C341.683 14.1001 342.168 13.8216 342.676 13.5295C343.184 13.2375 343.7 12.9426 344.223 12.6451C344.749 12.3448 345.293 12.0609 345.855 11.7934C346.42 11.5259 346.998 11.2829 347.591 11.0646C348.186 10.8462 348.782 10.6455 349.377 10.4626C349.975 10.2825 350.56 10.1228 351.132 9.98355C351.702 9.84434 352.255 9.73241 352.791 9.64779C353.325 9.56044 353.84 9.50312 354.335 9.47582C354.83 9.44579 355.3 9.43351 355.744 9.43897C356.188 9.44443 356.597 9.45807 356.972 9.47991C357.349 9.49901 357.682 9.53314 357.972 9.58227C358.262 9.63141 358.521 9.69283 358.75 9.76654C358.978 9.83751 359.173 9.89347 359.335 9.93442C359.499 9.97264 359.634 9.99174 359.739 9.99174C359.844 9.99447 359.935 9.99447 360.012 9.99174C360.089 9.98901 360.159 9.98492 360.22 9.97946C360.284 9.974 360.327 9.95489 360.347 9.92214C360.368 9.88665 360.369 9.86754 360.351 9.86481C360.333 9.85935 360.3 9.87846 360.251 9.92214C360.205 9.96581 360.148 10.019 360.082 10.0818C360.017 10.1473 359.948 10.2115 359.874 10.2743C359.799 10.3371 359.72 10.4121 359.635 10.4995C359.55 10.5868 359.48 10.7083 359.423 10.8639C359.367 11.0222 359.336 11.2283 359.331 11.4822C359.323 11.7361 359.322 12.0309 359.327 12.3667C359.332 12.7024 359.319 13.0464 359.289 13.3985C359.258 13.7507 359.203 14.0987 359.123 14.4427C359.044 14.7893 358.967 15.1401 358.892 15.495C358.815 15.8526 358.873 16.5883 359.065 17.702C359.258 18.8158 359.281 19.5801 359.135 19.995C358.988 20.4099 358.819 20.7771 358.627 21.0965C358.432 21.4131 358.225 21.6793 358.007 21.895C357.786 22.1133 357.566 22.2689 357.345 22.3618C357.122 22.4573 356.9 22.4791 356.679 22.4273C356.458 22.3781 356.248 22.2539 356.048 22.0547C355.845 21.8527 355.668 21.5879 355.517 21.2603C355.363 20.93 355.236 20.5369 355.135 20.081C355.035 19.6251 354.961 19.127 354.912 18.5865C354.861 18.0487 354.838 17.4823 354.843 16.8872C354.846 16.2921 354.88 15.682 354.947 15.0569C355.014 14.4345 355.119 13.8121 355.262 13.1897C355.406 12.57 355.595 11.9736 355.828 11.4003C356.062 10.8298 356.321 10.2647 356.606 9.70512C356.891 9.14824 357.19 8.60092 357.503 8.06315C357.816 7.52266 358.151 7.02038 358.507 6.55632C358.864 6.09225 359.246 5.68279 359.654 5.32791C360.065 4.97304 360.488 4.66731 360.925 4.41071C361.361 4.15138 361.809 3.95347 362.268 3.81698C362.727 3.67776 363.193 3.60679 363.665 3.60406C364.137 3.60133 364.617 3.65455 365.105 3.76375C365.595 3.87567 366.1 4.0299 366.621 4.22645C367.142 4.42299 367.685 4.65912 368.249 4.93483C368.811 5.21054 369.366 5.50534 369.912 5.81927C370.459 6.13592 370.978 6.46214 371.471 6.7979C371.964 7.13366 372.442 7.48035 372.907 7.83795C373.374 8.19555 373.844 8.55452 374.316 8.91485C374.788 9.27518 375.257 9.63688 375.725 9.99994C376.189 10.363 376.638 10.7233 377.072 11.0809C377.505 11.4385 378.017 11.7797 378.608 12.1046C379.198 12.4322 379.671 12.7611 380.028 13.0914C380.385 13.4244 380.712 13.7466 381.009 14.0578C381.307 14.3717 381.567 14.6733 381.791 14.9627C382.011 15.252 382.178 15.5441 382.291 15.8389C382.404 16.1365 382.459 16.4258 382.457 16.707C382.454 16.9909 382.401 17.2557 382.299 17.5014C382.196 17.7471 382.042 17.9873 381.837 18.222C381.632 18.4595 381.376 18.6847 381.071 18.8977C380.766 19.1106 380.428 19.3126 380.059 19.5037C379.689 19.6948 379.3 19.8667 378.892 20.0196C378.484 20.1725 378.06 20.2967 377.618 20.3922C377.179 20.485 376.723 20.5451 376.248 20.5724C375.773 20.597 375.291 20.5792 374.801 20.5192C374.311 20.4618 373.818 20.3581 373.323 20.208C372.827 20.0578 372.341 19.8654 371.864 19.6306C371.387 19.3959 370.926 19.1174 370.482 18.7953C370.041 18.4759 369.613 18.1047 369.2 17.6815C368.787 17.2584 368.415 16.808 368.084 16.3303C367.75 15.8499 367.476 15.3394 367.26 14.7989C367.042 14.2557 366.88 13.692 366.775 13.1078C366.67 12.5209 366.616 11.9326 366.614 11.343C366.611 10.7506 366.671 10.1801 366.795 9.63142C366.918 9.08 367.1 8.54633 367.341 8.0304C367.585 7.5172 367.874 7.04085 368.207 6.60135C368.541 6.16186 368.91 5.77423 369.316 5.43847C369.721 5.10543 370.16 4.82563 370.632 4.59906C371.104 4.37249 371.616 4.18823 372.168 4.04628C372.722 3.9016 373.302 3.80333 373.908 3.75146C374.513 3.6996 375.146 3.69278 375.805 3.73099C376.465 3.76648 377.101 4.12408 377.714 4.8038C378.328 5.48078 378.969 5.91072 379.639 6.09362C380.309 6.27651 380.961 6.51127 381.594 6.7979C382.231 7.08726 382.842 7.41757 383.427 7.78882C384.009 8.16007 384.553 8.54086 385.059 8.93122C385.567 9.32158 386.026 9.6942 386.437 10.0491C386.85 10.4012 387.219 10.7397 387.545 11.0646C387.874 11.3894 388.167 11.7074 388.427 12.0186C388.686 12.3298 388.919 12.6205 389.127 12.8908C389.332 13.161 389.52 13.4176 389.689 13.6606C389.859 13.9035 390.018 14.141 390.166 14.373C390.318 14.6023 390.463 14.8166 390.601 15.0159C390.743 15.2125 390.886 15.3749 391.033 15.5032C391.176 15.6315 391.326 15.7366 391.483 15.8185C391.639 15.9004 391.783 15.9618 391.914 16.0027C392.042 16.0437 392.155 16.071 392.253 16.0846C392.35 16.0983 392.444 16.1105 392.534 16.1215C392.626 16.1324 392.717 16.1406 392.807 16.146C392.897 16.1542 392.975 16.1638 393.042 16.1747C393.108 16.1856 393.18 16.1924 393.257 16.1952C393.334 16.2006 393.418 16.1979 393.508 16.187C393.595 16.1733 393.677 16.1515 393.754 16.1215C393.828 16.0914 393.889 16.0601 393.935 16.0273C393.978 15.9945 394.012 15.9509 394.035 15.8963C394.058 15.8444 394.069 15.7912 394.069 15.7366C394.072 15.6847 394.061 15.6465 394.035 15.6219C394.007 15.5946 393.964 15.5714 393.908 15.5523C393.849 15.5332 393.785 15.4977 393.715 15.4458C393.643 15.394 393.569 15.3271 393.492 15.2452C393.413 15.166 393.329 15.0582 393.242 14.9217C393.152 14.7825 393.076 14.6351 393.015 14.4795C392.953 14.3212 392.857 14.1274 392.726 13.8981C392.595 13.666 392.476 13.4149 392.368 13.1446C392.258 12.8771 392.162 12.5809 392.079 12.2561C391.997 11.9312 391.908 11.6037 391.81 11.2734C391.713 10.9431 391.614 10.6292 391.514 10.3316C391.411 10.0341 391.328 9.75015 391.263 9.47991C391.199 9.20966 391.148 8.94214 391.11 8.67735C391.071 8.41256 391.045 8.16689 391.033 7.94032C391.02 7.71375 391.022 7.5172 391.04 7.35068C391.058 7.1869 391.09 7.05587 391.136 6.9576C391.18 6.85933 391.247 6.78971 391.337 6.74877C391.424 6.71055 391.542 6.70645 391.691 6.73648C391.84 6.76651 392.015 6.83611 392.218 6.9453C392.418 7.05176 392.654 7.19372 392.926 7.37115C393.198 7.54586 393.514 7.74377 393.873 7.96488C394.23 8.186 394.624 8.42076 395.055 8.66917C395.483 8.92031 395.926 9.18645 396.383 9.46762C396.84 9.74879 397.3 10.0341 397.765 10.3234C398.227 10.6155 398.705 10.898 399.2 11.171C399.696 11.4467 400.2 11.7142 400.713 11.9736C401.224 12.2356 401.725 12.4881 402.218 12.7311C402.711 12.974 403.193 13.1924 403.665 13.3862C404.138 13.5828 404.603 13.752 405.063 13.894C405.522 14.0386 405.962 14.1588 406.383 14.2543C406.804 14.3471 407.191 14.4126 407.545 14.4508C407.899 14.4891 408.228 14.4959 408.531 14.4713C408.833 14.444 409.125 14.3881 409.404 14.3034C409.682 14.2188 409.934 14.1219 410.163 14.0127C410.391 13.9062 410.59 13.7998 410.759 13.6933C410.931 13.5896 411.12 13.5186 411.325 13.4804C411.53 13.4422 411.668 13.3835 411.737 13.3043C411.806 13.2252 411.832 13.1706 411.814 13.1405C411.793 13.1105 411.736 13.1051 411.641 13.1242C411.546 13.1433 411.443 13.1965 411.333 13.2839C411.225 13.3685 411.117 13.4913 411.01 13.6524C410.902 13.8134 410.78 13.9936 410.644 14.1929C410.51 14.3922 410.351 14.5901 410.167 14.7866C409.979 14.9859 409.783 15.1783 409.578 15.364C409.372 15.5469 409.171 15.7175 408.973 15.8758C408.776 16.0314 408.581 16.1679 408.388 16.2853C408.196 16.4026 408.016 16.5023 407.849 16.5842C407.68 16.6661 407.54 16.7234 407.43 16.7561C407.319 16.7862 407.232 16.7916 407.168 16.7725C407.106 16.7534 407.047 16.7016 406.991 16.6169C406.935 16.535 406.877 16.4163 406.818 16.2607C406.756 16.1051 406.704 15.9208 406.66 15.7079C406.614 15.495 406.582 15.2561 406.564 14.9913C406.546 14.7238 406.55 14.4208 406.575 14.0823C406.601 13.7438 406.664 13.3971 406.764 13.0423C406.861 12.6901 406.987 12.3434 407.141 12.0022C407.293 11.6637 407.461 11.3307 407.645 11.0031C407.828 10.6783 408.033 10.3589 408.261 10.045C408.49 9.73378 408.735 9.44989 408.996 9.19329C409.261 8.93942 409.513 8.70875 409.755 8.50129C409.996 8.29109 410.211 8.09727 410.401 7.91984C410.589 7.7424 410.766 7.58953 410.933 7.46123C411.099 7.33021 411.279 7.2333 411.471 7.17052C411.664 7.11046 411.863 7.07497 412.068 7.06405C412.273 7.05313 412.477 7.06541 412.68 7.1009C412.88 7.13366 413.17 7.2838 413.55 7.55132C413.93 7.81884 414.226 8.01129 414.439 8.12867C414.652 8.24878 414.87 8.39209 415.093 8.5586C415.317 8.72512 415.548 8.91348 415.786 9.12367C416.028 9.33113 416.267 9.53996 416.506 9.75016C416.745 9.95762 416.983 10.1692 417.222 10.3848C417.463 10.6005 417.711 10.8202 417.965 11.0441C418.221 11.2679 418.486 11.4849 418.758 11.6951C419.027 11.9053 419.31 12.1073 419.605 12.3011C419.897 12.4922 420.21 12.6819 420.544 12.8703C420.875 13.0586 421.223 13.247 421.587 13.4354C421.949 13.621 422.316 13.808 422.688 13.9963C423.057 14.1847 423.426 14.3771 423.792 14.5737C424.162 14.7702 424.53 14.9777 424.897 15.1961C425.267 15.4172 425.616 15.641 425.944 15.8676C426.275 16.0969 426.578 16.3235 426.853 16.5473C427.127 16.7712 427.372 16.9909 427.588 17.2066C427.801 17.4222 427.984 17.6351 428.138 17.8453C428.29 18.0582 428.414 18.2616 428.512 18.4554C428.609 18.6465 428.685 18.8185 428.739 18.9714C428.795 19.1242 428.823 19.2539 428.823 19.3604C428.826 19.4695 428.804 19.5555 428.758 19.6183C428.714 19.6838 428.658 19.7193 428.589 19.7248C428.522 19.7302 428.428 19.7016 428.307 19.6388C428.187 19.576 428.034 19.4709 427.849 19.3235C427.665 19.1788 427.441 18.985 427.18 18.7421C426.921 18.4991 426.634 18.2152 426.321 17.8904C426.011 17.5655 425.7 17.212 425.39 16.8298C425.079 16.4449 424.779 16.0341 424.489 15.5973C424.202 15.1606 423.927 14.7034 423.665 14.2256C423.406 13.7479 423.089 13.1979 422.715 12.5755C422.343 11.9531 422.109 11.3416 422.014 10.7411C421.917 10.1405 421.86 9.55088 421.845 8.97217C421.827 8.39073 421.864 7.83249 421.956 7.29745C422.046 6.75968 422.194 6.24239 422.399 5.74557C422.602 5.24602 422.853 4.77786 423.154 4.3411C423.454 3.9016 423.799 3.51944 424.189 3.19459C424.579 2.86702 425.002 2.62133 425.459 2.45754C425.913 2.29649 426.377 2.20777 426.849 2.19139C427.323 2.17774 427.812 2.23508 428.315 2.36337C428.818 2.48894 429.33 2.68822 429.851 2.96119C430.374 3.23144 430.888 3.56311 431.391 3.9562C431.894 4.35201 432.384 4.78878 432.861 5.2665C433.338 5.74694 433.813 6.26832 434.285 6.83065C434.757 7.39572 435.2 7.99491 435.613 8.62822C436.024 9.26426 436.386 9.90986 436.699 10.565C437.012 11.2202 437.294 11.8671 437.545 12.5059C437.797 13.1419 438.033 13.7725 438.254 14.3976C438.477 15.02 438.662 15.6383 438.808 16.2525C438.954 16.8694 439.053 17.4509 439.104 17.9968C439.156 18.5455 439.176 19.0287 439.166 19.4464C439.156 19.8613 439.121 20.2161 439.062 20.511C439 20.8085 438.908 21.0583 438.785 21.2603C438.662 21.4596 438.527 21.6042 438.381 21.6943C438.237 21.7817 438.111 21.8172 438.003 21.8008C437.896 21.7844 437.805 21.7325 437.73 21.6452C437.656 21.5606 437.59 21.4432 437.534 21.2931C437.477 21.1429 437.434 20.9505 437.403 20.7157C437.37 20.4837 437.353 20.223 437.353 19.9336C437.35 19.6443 437.366 19.3372 437.399 19.0123C437.43 18.6875 437.603 18.2371 437.919 17.6611C438.234 17.0851 438.462 16.6483 438.6 16.3508C438.739 16.0559 438.872 15.7611 439 15.4663C439.129 15.1715 439.252 14.8699 439.37 14.5614C439.488 14.2502 439.619 13.9513 439.763 13.6647C439.909 13.378 440.067 13.1051 440.236 12.8457C440.408 12.5837 440.584 12.3257 440.763 12.0718C440.943 11.8152 441.137 11.5668 441.345 11.3266C441.552 11.0864 441.781 10.8571 442.03 10.6387C442.279 10.4203 442.512 10.206 442.73 9.99584C442.948 9.78565 443.137 9.57954 443.296 9.37754C443.455 9.17281 443.599 8.9749 443.727 8.78382C443.853 8.59 443.981 8.39892 444.112 8.21057C444.243 8.02494 444.38 7.83522 444.524 7.6414C444.67 7.44759 444.811 7.26469 444.947 7.09272C445.083 6.91801 445.2 6.76378 445.298 6.63002C445.395 6.49626 445.48 6.38298 445.552 6.29016C445.623 6.19735 445.708 6.12637 445.806 6.07723C445.901 6.02537 445.997 6.01173 446.094 6.0363C446.194 6.06086 446.27 6.12091 446.321 6.21645C446.375 6.30926 446.413 6.42938 446.433 6.57678C446.451 6.72419 446.468 6.90436 446.483 7.11728C446.501 7.32748 446.511 7.57862 446.514 7.8707C446.519 8.16552 446.513 8.49446 446.495 8.85752C446.477 9.21785 446.472 9.60548 446.479 10.0204C446.49 10.4326 446.518 10.8639 446.564 11.3143C446.61 11.7647 446.664 12.2343 446.726 12.7229C446.787 13.2115 446.859 13.7165 446.941 14.2379C447.023 14.7593 447.111 15.2848 447.203 15.8144C447.295 16.3439 447.397 16.8421 447.507 17.3089C447.615 17.7757 447.744 18.0446 447.896 18.1156C448.047 18.1893 448.223 18.3476 448.423 18.5906C448.623 18.8335 448.829 19.056 449.039 19.258C449.252 19.4573 449.464 19.6347 449.674 19.7903C449.887 19.9459 450.103 20.0592 450.321 20.1302C450.541 20.1984 450.766 20.2189 450.994 20.1916C451.225 20.1616 451.456 20.0851 451.687 19.9623C451.918 19.8394 452.154 19.6661 452.395 19.4423C452.634 19.2157 452.886 18.9318 453.15 18.5906C453.412 18.2493 453.681 17.8808 453.958 17.485C454.238 17.0892 454.521 16.6975 454.809 16.3098C455.096 15.9222 455.384 15.5387 455.671 15.1592C455.958 14.7771 456.236 14.3867 456.502 13.9881C456.769 13.5896 457.026 13.2006 457.272 12.8212C457.519 12.4445 457.753 12.0991 457.977 11.7852C458.2 11.4713 458.418 11.1901 458.631 10.9417C458.847 10.6906 459.058 10.4613 459.266 10.2538C459.474 10.0463 459.663 9.85935 459.832 9.69284C460.004 9.52632 460.149 9.39119 460.267 9.28746C460.382 9.18099 460.482 9.09774 460.567 9.03769C460.652 8.97763 460.733 8.92849 460.81 8.89027C460.884 8.85205 460.956 8.8234 461.025 8.80429C461.092 8.78791 461.156 8.78791 461.218 8.80429C461.279 8.8234 461.345 8.8507 461.414 8.88619C461.481 8.9244 461.549 8.95443 461.618 8.97627C461.687 8.99811 461.767 9.00493 461.857 8.99674C461.949 8.99128 462.05 8.97627 462.161 8.9517C462.268 8.92713 462.371 8.9012 462.469 8.8739C462.566 8.84387 462.665 8.81248 462.765 8.77972C462.865 8.74969 462.97 8.72785 463.081 8.7142C463.191 8.70055 463.228 8.77289 463.192 8.93122C463.154 9.08682 463.163 9.16325 463.219 9.16052C463.276 9.15506 463.347 9.1578 463.435 9.16872C463.522 9.18237 463.628 9.20284 463.754 9.23014C463.883 9.25743 464.011 9.30247 464.139 9.36526C464.27 9.42804 464.397 9.50447 464.52 9.59456C464.641 9.68464 464.764 9.79247 464.89 9.91804C465.015 10.0409 465.128 10.2006 465.228 10.3971C465.329 10.5937 465.391 10.8271 465.417 11.0973C465.445 11.3648 465.448 11.6474 465.425 11.9449C465.404 12.2425 465.361 12.5386 465.294 12.8334C465.23 13.1255 465.136 13.4176 465.013 13.7097C464.887 14.0045 464.74 14.298 464.57 14.5901C464.398 14.8849 464.226 15.1565 464.054 15.4049C463.882 15.656 463.703 15.8731 463.516 16.0559C463.328 16.2388 463.136 16.3876 462.938 16.5023C462.741 16.6142 462.557 16.6947 462.388 16.7439C462.221 16.7903 462.089 16.8026 461.991 16.7807C461.896 16.7589 461.84 16.7097 461.822 16.6333C461.801 16.5569 461.807 16.4395 461.837 16.2812C461.866 16.1201 461.914 15.9236 461.984 15.6915C462.055 15.4622 462.157 15.2111 462.288 14.9381C462.421 14.6624 462.593 14.3771 462.803 14.0823C463.014 13.7848 463.273 13.479 463.581 13.1651C463.886 12.8539 464.235 12.5646 464.628 12.297C465.021 12.0295 465.45 11.803 465.917 11.6173C466.382 11.4344 466.872 11.2843 467.388 11.1669C467.904 11.0495 468.432 10.9595 468.974 10.8967C469.518 10.8366 470.066 10.8066 470.617 10.8066C471.169 10.8066 471.73 10.8366 472.299 10.8967C472.866 10.9567 473.381 11.0332 473.843 11.126C474.307 11.2161 474.801 11.3525 475.325 11.5354C475.848 11.7156 476.336 11.9094 476.787 12.1169C477.236 12.3243 477.647 12.5263 478.019 12.7229C478.389 12.9167 478.726 13.0887 479.031 13.2388C479.337 13.389 479.601 13.5063 479.824 13.591C480.045 13.6756 480.223 13.722 480.359 13.7302C480.495 13.7384 480.613 13.7083 480.713 13.6401C480.814 13.5691 480.893 13.4695 480.952 13.3412C481.014 13.2102 481.052 13.0559 481.068 12.8785C481.083 12.7011 481.079 12.51 481.056 12.3052C481.03 12.0978 480.996 11.8917 480.952 11.6869C480.911 11.4822 480.869 11.2952 480.825 11.126C480.782 10.9595 480.73 10.823 480.671 10.7165C480.612 10.6128 480.542 10.5322 480.459 10.4749C480.377 10.4203 480.29 10.3807 480.198 10.3562C480.108 10.3289 480.021 10.3316 479.936 10.3644C479.849 10.3971 479.764 10.4735 479.682 10.5937C479.6 10.7138 479.537 10.8762 479.493 11.0809C479.45 11.2829 479.409 11.5109 479.37 11.7647C479.332 12.0186 479.284 12.282 479.228 12.555C479.171 12.8253 479.123 13.0928 479.081 13.3576C479.04 13.6196 479.024 13.8708 479.031 14.111C479.039 14.3485 479.07 14.5573 479.124 14.7375C479.175 14.9176 479.243 15.0787 479.328 15.2206C479.415 15.3626 479.51 15.4991 479.613 15.6301C479.715 15.7611 479.831 15.8717 479.959 15.9618C480.087 16.0546 480.232 16.1092 480.394 16.1256C480.556 16.1419 480.719 16.1215 480.883 16.0641C481.05 16.0096 481.211 15.9372 481.368 15.8471C481.527 15.7598 481.698 15.6615 481.88 15.5523C482.059 15.4459 482.228 15.3626 482.384 15.3025C482.538 15.2397 482.673 15.1647 482.788 15.0773C482.906 14.99 483.027 14.8931 483.15 14.7866C483.273 14.6801 483.408 14.5887 483.554 14.5123C483.698 14.4358 483.844 14.369 483.993 14.3116C484.142 14.257 484.292 14.2065 484.443 14.1601C484.595 14.1164 484.755 14.0864 484.924 14.07C485.094 14.0537 485.264 14.0537 485.436 14.07C485.608 14.0864 485.784 14.1124 485.964 14.1478C486.146 14.1861 486.324 14.2202 486.499 14.2502C486.676 14.2802 486.848 14.3062 487.015 14.328C487.181 14.3498 487.361 14.3717 487.553 14.3935C487.743 14.4126 487.958 14.4317 488.196 14.4508C488.435 14.4727 488.676 14.4577 488.92 14.4058C489.161 14.3567 489.405 14.2584 489.651 14.111C489.895 13.9663 490.154 13.7902 490.429 13.5828C490.703 13.378 490.993 13.146 491.299 12.8867C491.604 12.6273 491.908 12.3394 492.211 12.0227C492.511 11.7088 492.824 11.3921 493.15 11.0727C493.476 10.7534 493.824 10.4476 494.193 10.1555C494.565 9.86618 494.959 9.58364 495.375 9.30794C495.791 9.03223 496.226 8.75516 496.68 8.47672C497.134 8.20101 497.609 7.94304 498.104 7.70282C498.602 7.45987 499.08 7.24422 499.54 7.05587C499.999 6.86751 500.416 6.70646 500.791 6.5727C501.165 6.43621 501.505 6.34476 501.811 6.29835C502.116 6.24921 502.393 6.27242 502.642 6.36796C502.888 6.46078 503.09 6.6109 503.246 6.81837C503.4 7.0231 503.525 7.27425 503.62 7.5718C503.712 7.86935 503.875 7.95532 504.109 7.82975C504.345 7.70691 504.504 7.91574 504.586 8.45624C504.668 8.99946 504.691 9.55498 504.655 10.1228C504.617 10.6906 504.526 11.2693 504.382 11.8589C504.236 12.4485 504.05 13.0245 503.824 13.5869C503.598 14.1492 503.335 14.6706 503.035 15.151C502.734 15.6342 502.409 16.0764 502.057 16.4777C501.705 16.8763 501.356 17.2393 501.01 17.5669C500.661 17.8945 500.324 18.1702 499.998 18.394C499.669 18.6179 499.359 18.8007 499.066 18.9427C498.774 19.0874 498.516 19.2075 498.293 19.303C498.069 19.4013 497.883 19.4668 497.734 19.4996C497.586 19.5323 497.447 19.5187 497.319 19.4586C497.19 19.3958 497.07 19.3017 496.957 19.1761C496.844 19.0478 496.771 18.9045 496.737 18.7462C496.704 18.5906 496.727 18.4322 496.807 18.2712C496.889 18.1129 497.009 17.9518 497.169 17.788C497.33 17.627 497.494 17.4563 497.661 17.2762C497.825 17.0933 497.986 16.8995 498.142 16.6947C498.301 16.4873 498.472 16.2757 498.654 16.06C498.839 15.8471 499.049 15.6206 499.286 15.3803C499.522 15.1428 499.767 14.8849 500.021 14.6064C500.277 14.328 500.519 14.0441 500.744 13.7547C500.973 13.4627 501.195 13.1706 501.41 12.8785C501.623 12.5864 501.847 12.2807 502.08 11.9613C502.311 11.6392 502.562 11.3048 502.834 10.9581C503.109 10.6114 503.394 10.2552 503.689 9.88937C503.984 9.52358 504.275 9.14279 504.563 8.74697C504.85 8.35115 505.135 7.94987 505.417 7.54313C505.7 7.13367 505.995 6.74058 506.303 6.36387C506.613 5.98989 506.843 5.35384 506.992 4.45575C507.143 3.55492 507.396 2.96119 507.75 2.67456C508.104 2.38793 508.464 2.14226 508.831 1.93753C509.198 1.73552 509.568 1.57582 509.94 1.45844C510.312 1.34106 510.692 1.29056 511.079 1.30694C511.467 1.32059 511.861 1.41068 512.261 1.57719C512.664 1.74644 513.06 1.97848 513.45 2.27329C513.84 2.57084 514.202 2.92025 514.536 3.32153C514.872 3.7228 515.189 4.17184 515.487 4.66867C515.787 5.16276 516.073 5.6978 516.345 6.27378C516.617 6.84977 516.863 7.44759 517.084 8.06725C517.302 8.68964 517.5 9.32568 517.677 9.97537C517.854 10.6251 518.026 11.2693 518.193 11.9081C518.359 12.5496 518.517 13.1788 518.666 13.7957C518.815 14.4126 518.919 15.0077 518.978 15.581C519.039 16.1542 519.044 16.6783 518.993 17.1533C518.942 17.631 518.86 18.0596 518.747 18.4391C518.631 18.8185 518.507 19.1625 518.373 19.4709C518.24 19.7767 518.092 20.0469 517.931 20.2817C517.769 20.5191 517.59 20.7102 517.392 20.8549C517.194 21.0023 516.989 21.1088 516.776 21.1743C516.566 21.2371 516.355 21.2671 516.145 21.2644C515.934 21.2589 515.719 21.2084 515.498 21.1129C515.275 21.0173 515.061 20.8699 514.855 20.6707C514.65 20.4741 514.459 20.2584 514.282 20.0237C514.107 19.7889 513.939 19.5569 513.778 19.3276C513.616 19.0956 513.468 18.8649 513.335 18.6356C513.199 18.4063 513.096 18.1579 513.027 17.8904C512.958 17.6201 512.908 17.3471 512.877 17.0714C512.844 16.793 512.826 16.5309 512.823 16.2853C512.823 16.0369 512.814 15.7311 512.796 15.368C512.778 15.0077 512.823 14.7511 512.931 14.5982C513.039 14.4454 513.158 14.3062 513.289 14.1806C513.422 14.055 513.572 13.9404 513.739 13.8366C513.908 13.7356 514.1 13.6251 514.313 13.505C514.526 13.3849 514.768 13.247 515.04 13.0914C515.312 12.9331 515.61 12.7543 515.933 12.555C516.254 12.353 516.589 12.136 516.938 11.904C517.284 11.6692 517.641 11.4126 518.008 11.1342C518.375 10.8584 518.776 10.5718 519.213 10.2743C519.649 9.97673 520.109 9.67646 520.594 9.37345C521.079 9.07318 521.568 8.7729 522.061 8.47262C522.554 8.17234 523.05 7.88299 523.551 7.60455C524.051 7.32611 524.558 7.07907 525.071 6.86342C525.582 6.64776 526.097 6.45394 526.618 6.28197C527.139 6.10999 527.665 5.9544 528.196 5.81518C528.728 5.67323 529.249 5.56131 529.759 5.47941C530.27 5.40025 530.746 5.36613 531.187 5.37705C531.629 5.3907 532.037 5.45075 532.411 5.55721C532.788 5.66368 533.128 5.82337 533.431 6.0363C533.734 6.25195 533.988 6.50854 534.193 6.80608C534.401 7.10363 534.568 7.43531 534.694 7.8011C534.82 8.16962 534.921 8.58181 534.998 9.03769C535.075 9.49356 535.122 9.98219 535.14 10.5036C535.158 11.025 535.129 11.5423 535.052 12.0555C534.975 12.5659 534.844 13.0532 534.659 13.5173C534.477 13.9813 534.261 14.4167 534.012 14.8235C533.764 15.2302 533.516 15.6014 533.27 15.9372C533.023 16.273 532.781 16.561 532.542 16.8012C532.303 17.0414 532.062 17.2489 531.818 17.4236C531.575 17.5983 531.314 17.586 531.037 17.3867C530.76 17.1874 530.542 17.1056 530.383 17.141C530.226 17.1738 530.074 17.1656 529.925 17.1165C529.776 17.0673 529.636 16.9841 529.505 16.8667C529.377 16.752 529.273 16.6087 529.193 16.4368C529.116 16.2675 529.068 16.0778 529.047 15.8676C529.024 15.6574 529.019 15.439 529.032 15.2124C529.045 14.9886 529.074 14.7648 529.12 14.5409C529.166 14.3171 529.236 14.0973 529.328 13.8817C529.42 13.666 529.541 13.4722 529.69 13.3002C529.839 13.1283 530.003 12.9945 530.183 12.899C530.362 12.8034 530.547 12.7434 530.737 12.7188C530.927 12.6942 531.132 12.6847 531.353 12.6901C531.573 12.6956 531.807 12.7188 532.053 12.7597C532.3 12.8034 532.524 12.8607 532.727 12.9317C532.927 13 533.102 13.0709 533.25 13.1446C533.399 13.2183 533.538 13.2948 533.666 13.3739C533.792 13.4531 533.903 13.5527 534.001 13.6729C534.098 13.793 534.17 13.9267 534.216 14.0741C534.26 14.2215 534.308 14.358 534.359 14.4836C534.413 14.6092 534.491 14.6897 534.594 14.7252C534.694 14.7634 534.805 14.7675 534.929 14.7375C535.049 14.7102 535.167 14.6692 535.283 14.6146C535.396 14.5628 535.519 14.4931 535.652 14.4058C535.783 14.3184 535.951 14.2038 536.156 14.0618C536.359 13.9199 536.616 13.7547 536.926 13.5664C537.239 13.3808 537.591 13.1842 537.981 12.9768C538.371 12.7666 538.765 12.5482 539.163 12.3216C539.558 12.0923 539.947 11.8603 540.329 11.6255C540.709 11.3908 541.097 11.1437 541.495 10.8844C541.893 10.6251 542.327 10.3657 542.796 10.1064C543.266 9.84706 543.723 9.5932 544.166 9.34479C544.613 9.09638 545.052 8.87527 545.483 8.68145C545.914 8.48764 546.346 8.33477 546.78 8.22285C547.211 8.1082 547.636 8.03449 548.054 8.00173C548.47 7.97171 548.866 7.96624 549.244 7.98535C549.618 8.00446 549.963 8.0536 550.279 8.13277C550.597 8.2092 550.879 8.33476 551.126 8.50947C551.372 8.68418 551.568 8.8971 551.715 9.14824C551.861 9.40211 551.971 9.67236 552.046 9.95899C552.12 10.2483 552.171 10.5514 552.2 10.868C552.225 11.1874 552.221 11.515 552.188 11.8507C552.157 12.1838 552.097 12.5113 552.007 12.8334C551.92 13.1556 551.816 13.4695 551.695 13.7752C551.577 14.0837 551.418 14.373 551.218 14.6433C551.018 14.9135 550.772 15.1565 550.479 15.3721C550.184 15.5905 549.868 15.7884 549.532 15.9659C549.199 16.146 548.866 16.3207 548.535 16.49C548.207 16.6592 547.88 16.8094 547.554 16.9404C547.23 17.0742 546.933 17.1683 546.661 17.2229C546.391 17.2748 546.166 17.283 545.983 17.2475C545.804 17.2093 545.661 17.1479 545.556 17.0632C545.451 16.9786 545.378 16.8872 545.337 16.7889C545.296 16.6906 545.292 16.5992 545.325 16.5146C545.358 16.4299 545.41 16.3549 545.479 16.2893C545.546 16.2238 545.633 16.1692 545.741 16.1256C545.849 16.0819 545.981 16.0532 546.137 16.0396C546.294 16.0259 546.473 16.0273 546.676 16.0437C546.879 16.0628 547.102 16.0846 547.346 16.1092C547.587 16.1337 547.835 16.1638 548.089 16.1993C548.34 16.2348 548.72 16.2375 549.228 16.2075C549.734 16.1774 550.089 16.1597 550.294 16.1542C550.502 16.146 550.709 16.0887 550.914 15.9822C551.119 15.8731 551.322 15.7161 551.522 15.5114C551.725 15.3066 551.935 15.0814 552.153 14.8357C552.372 14.5901 552.587 14.3389 552.8 14.0823C553.011 13.8257 553.213 13.5487 553.408 13.2511C553.601 12.9536 553.8 12.6192 554.005 12.2479C554.213 11.8739 554.426 11.4781 554.644 11.0605C554.859 10.6455 555.089 10.2142 555.333 9.76654C555.574 9.32158 555.835 8.87936 556.114 8.43987C556.394 8.00037 556.692 7.57998 557.007 7.1787C557.323 6.77742 557.654 6.40482 558 6.06086C558.349 5.71418 558.703 5.40708 559.063 5.13956C559.422 4.87204 559.781 4.64956 560.14 4.47213C560.5 4.29742 560.867 4.16093 561.241 4.06266C561.616 3.96439 561.989 3.90706 562.361 3.89068C562.733 3.8743 563.088 3.91389 563.424 4.00943C563.762 4.10497 564.1 4.25102 564.436 4.44756C564.772 4.64411 565.103 4.88022 565.429 5.15593C565.758 5.43164 566.063 5.7483 566.345 6.1059C566.627 6.4635 566.884 6.85113 567.115 7.26878C567.346 7.68371 567.565 8.10683 567.773 8.53814C567.979 8.96671 568.159 9.39392 568.316 9.81977C568.475 10.2429 568.614 10.6728 568.732 11.1096C568.852 11.5464 568.965 11.9818 569.07 12.4158C569.176 12.8471 569.272 13.2648 569.359 13.6688C569.446 14.0755 569.505 14.4508 569.536 14.7948C569.57 15.1387 569.58 15.439 569.567 15.6956C569.557 15.955 569.522 16.1747 569.463 16.3549C569.404 16.5378 569.39 16.9008 569.421 17.444C569.452 17.9845 569.38 18.3203 569.205 18.4513C569.028 18.5796 568.856 18.6684 568.689 18.7175C568.525 18.7639 568.37 18.7748 568.224 18.7503C568.08 18.7257 567.92 18.6643 567.742 18.566C567.565 18.4677 567.361 18.3299 567.13 18.1524C566.897 17.9723 566.652 17.7662 566.395 17.5341C566.139 17.3021 565.894 17.066 565.66 16.8257C565.424 16.5855 565.193 16.3439 564.967 16.101C564.744 15.858 564.543 15.6137 564.363 15.368C564.183 15.1196 564.047 14.8781 563.955 14.6433C563.86 14.4058 563.8 14.1724 563.774 13.9431C563.748 13.7138 563.739 13.479 563.747 13.2388C563.752 12.9986 563.783 12.7502 563.839 12.4936C563.893 12.237 563.97 11.9831 564.07 11.732C564.168 11.4808 564.294 11.2393 564.448 11.0072C564.602 10.7752 564.786 10.5472 565.002 10.3234C565.217 10.1023 565.461 9.87573 565.733 9.6437C566.003 9.4144 566.3 9.17827 566.626 8.93532C566.952 8.69237 567.304 8.45761 567.681 8.23104C568.056 8.00446 568.446 7.79154 568.851 7.59227C569.256 7.39572 569.675 7.21009 570.106 7.03539C570.534 6.85795 570.987 6.70099 571.465 6.5645C571.942 6.42528 572.435 6.32291 572.943 6.2574C573.448 6.19462 573.978 6.14684 574.532 6.11408C575.089 6.08406 575.679 6.07177 576.303 6.07723C576.927 6.07996 577.563 6.11682 578.212 6.1878C578.864 6.25604 579.494 6.36113 580.102 6.50308C580.708 6.64503 581.289 6.81155 581.846 7.00263C582.403 7.19099 582.918 7.41073 583.393 7.66187C583.868 7.91028 584.34 8.201 584.81 8.53404C585.279 8.86434 585.663 9.20693 585.96 9.5618C586.258 9.91941 586.508 10.2879 586.711 10.6674C586.914 11.0468 587.059 11.4344 587.146 11.8303C587.233 12.2288 587.283 12.6478 587.296 13.0873C587.309 13.5241 587.302 13.9704 587.277 14.4263C587.249 14.8822 587.191 15.3312 587.104 15.7734C587.016 16.2184 586.884 16.647 586.707 17.0591C586.53 17.4741 586.325 17.8712 586.091 18.2507C585.858 18.6329 585.605 18.9673 585.333 19.2539C585.061 19.5432 584.774 19.7671 584.471 19.9254C584.171 20.0837 583.856 20.1902 583.528 20.2448C583.199 20.2994 582.868 20.3103 582.535 20.2776C582.204 20.2448 581.883 20.1657 581.572 20.0401C581.264 19.9145 580.978 19.7466 580.714 19.5364C580.45 19.3235 580.21 19.0683 579.994 18.7707C579.776 18.4732 579.588 18.1442 579.428 17.7839C579.269 17.4209 579.153 17.0346 579.078 16.6251C579.004 16.2156 578.967 15.7925 578.967 15.3558C578.964 14.919 578.99 14.4822 579.044 14.0455C579.097 13.6087 579.178 13.1815 579.286 12.7638C579.396 12.3462 579.534 11.9558 579.698 11.5928C579.862 11.2324 580.038 10.9117 580.225 10.6305C580.41 10.3493 580.599 10.1009 580.791 9.88529C580.983 9.66963 581.179 9.49083 581.376 9.34889C581.576 9.20694 581.778 9.09638 581.98 9.01722C582.186 8.93805 582.386 8.88482 582.581 8.85752C582.776 8.83022 582.963 8.83295 583.143 8.8657C583.32 8.89573 583.493 8.95579 583.663 9.04587C583.832 9.13322 583.999 9.21921 584.163 9.30384C584.327 9.38846 584.342 9.27927 584.209 8.97627C584.073 8.67326 584.067 8.54222 584.19 8.58317C584.313 8.62412 584.444 8.65824 584.582 8.68554C584.718 8.71557 584.86 8.73468 585.006 8.74287C585.152 8.75106 585.319 8.75378 585.506 8.75105C585.694 8.75105 585.913 8.75379 586.164 8.75925C586.418 8.76471 586.693 8.77972 586.988 8.80429C587.283 8.82613 587.586 8.8698 587.897 8.93532C588.204 8.9981 588.523 9.09228 588.851 9.21785C589.18 9.34069 589.516 9.49356 589.86 9.67645C590.206 9.85662 590.56 10.0641 590.922 10.2988C591.284 10.5336 591.651 10.7875 592.023 11.0605C592.395 11.3362 592.77 11.6378 593.147 11.9654C593.524 12.2957 593.909 12.6519 594.301 13.0341C594.697 13.4163 595.088 13.7916 595.475 14.1601C595.863 14.5259 596.24 14.8753 596.607 15.2084C596.974 15.5414 597.328 15.8676 597.669 16.187C598.011 16.5064 598.333 16.8121 598.636 17.1042C598.936 17.3963 599.201 17.6679 599.432 17.919C599.661 18.1729 599.875 18.4049 600.075 18.6151C600.273 18.8226 600.459 19.0082 600.633 19.172C600.808 19.3358 600.948 19.4682 601.053 19.5692C601.161 19.6702 601.226 19.7302 601.249 19.7494C601.275 19.7712 601.284 19.7493 601.276 19.6838C601.271 19.6183 601.247 19.505 601.203 19.344C601.159 19.1829 601.09 18.9659 600.995 18.6929C600.9 18.4199 600.795 18.0965 600.68 17.7225C600.561 17.3512 600.451 16.9459 600.349 16.5064C600.246 16.0669 600.141 15.6028 600.033 15.1142C599.925 14.6283 599.817 14.1369 599.71 13.6401C599.604 13.1433 599.481 12.6833 599.34 12.2602C599.199 11.8398 599.091 11.4194 599.017 10.999C598.942 10.5814 598.89 10.1801 598.859 9.7952C598.828 9.40757 598.817 9.04451 598.824 8.70602C598.832 8.37026 598.841 8.0809 598.851 7.83795C598.861 7.59773 598.872 7.40937 598.882 7.27288C598.892 7.13639 598.909 7.0504 598.932 7.01492C598.955 6.98216 598.977 6.99444 598.997 7.05177C599.018 7.10909 599.042 7.19371 599.071 7.30564C599.101 7.41756 599.141 7.55405 599.19 7.7151C599.241 7.87616 599.302 8.06179 599.371 8.27198C599.438 8.47945 599.513 8.70056 599.598 8.93532C599.68 9.17008 599.776 9.40894 599.887 9.65189C599.994 9.89484 600.12 10.1296 600.264 10.3562C600.408 10.5827 600.561 10.7957 600.726 10.9949C600.893 11.1915 601.067 11.3703 601.249 11.5313C601.431 11.6924 601.621 11.8316 601.819 11.949C602.016 12.0664 602.229 12.1606 602.458 12.2315C602.689 12.3052 602.933 12.3707 603.189 12.4281C603.448 12.4881 603.716 12.5263 603.994 12.5427C604.271 12.5591 604.558 12.5536 604.856 12.5263C605.153 12.499 605.465 12.4745 605.791 12.4526C606.115 12.4281 606.449 12.4185 606.796 12.424C607.14 12.4294 607.487 12.4445 607.839 12.469C608.188 12.4963 608.52 12.5318 608.836 12.5755C609.151 12.6219 609.441 12.6751 609.706 12.7352C609.97 12.798 610.214 12.8635 610.437 12.9317C610.663 13 610.878 13.0846 611.084 13.1856C611.289 13.2866 611.484 13.3985 611.669 13.5214C611.854 13.6415 612.031 13.7739 612.2 13.9185C612.367 14.0605 612.478 14.212 612.535 14.373C612.591 14.5341 612.672 14.6883 612.777 14.8357C612.883 14.9804 612.992 15.1237 613.105 15.2657C613.217 15.4049 613.334 15.5359 613.455 15.6588C613.575 15.7789 613.687 15.8922 613.79 15.9986C613.892 16.1051 613.981 16.2102 614.055 16.3139C614.127 16.4176 614.2 16.5146 614.275 16.6046C614.347 16.6975 614.436 16.7739 614.544 16.8339C614.649 16.894 614.81 16.9554 615.025 17.0182" stroke="black" stroke-linecap="round" stroke-linejoin="round"/>
</svg>
