<?xml version="1.0" encoding="UTF-8"?>
<svg id="Layer_1" xmlns="http://www.w3.org/2000/svg" version="1.1" viewBox="0 0 595.28 841.89">
  <!-- Generator: Adobe Illustrator 29.8.1, SVG Export Plug-In . SVG Version: 2.1.1 Build 2)  -->
  <defs>
    <style>
      .st0 {
        fill: none;
        stroke: #272626;
        stroke-miterlimit: 10;
        stroke-width: 4px;
      }
    </style>
  </defs>
  <path class="st0" d="M240.52,439.39c6.27,14.16,84.11,2.62,88.07-18.45,2.35-12.49-20.29-33.49-39.7-31.65-4.48.42-8.11,1.21-12.73,4.73-23.34,17.83-54.83,23.78-51.52,41.39,1.97,10.48,6.82,20.1,15.52,24.33,5.8,2.81,13.06,3.08,23.45-.33,36.03-11.83,72.24-56.36,65.42-64.5-7.89-9.41-74.24,28.68-71.34,37.43.97,2.92,9.91,3.24,15.85,2.2,11.49-2.02,12.51-9.24,21.58-11.01,12.52-2.44,16.67,10.14,31.71,8.81,12.19-1.08,19.78-10.26,20.7-11.4,1.82-2.27,7.57-9.44,6.17-17.22-2.13-11.82-19.33-17.09-22.46-18.06-38.27-11.74-96.93,39.7-90.72,53.72Z"/>
</svg>