<svg width="61" height="23" viewBox="0 0 61 23" fill="none" xmlns="http://www.w3.org/2000/svg">
<path d="M0.500122 10.8296C0.818322 10.8978 1.15962 10.9742 1.52402 11.0589C1.89102 11.1435 2.26302 11.2322 2.64022 11.325C3.01492 11.4151 3.38313 11.5024 3.74493 11.5871C4.10423 11.6717 4.45582 11.7631 4.79962 11.8614C5.14352 11.9624 5.47962 12.0784 5.80812 12.2095C6.13402 12.3378 6.44193 12.477 6.73193 12.6271C7.02193 12.7745 7.29512 12.9069 7.55172 13.0243C7.81092 13.1417 8.15992 13.2086 8.59872 13.2249C9.04012 13.244 9.36732 13.2672 9.58022 13.2945C9.79322 13.3218 9.96133 13.341 10.0845 13.3519C10.2076 13.3628 10.2846 13.3642 10.3154 13.356C10.3488 13.3478 10.3398 13.3273 10.2885 13.2945C10.2371 13.2618 10.1474 13.2072 10.0191 13.1308C9.89332 13.0543 9.73552 12.9602 9.54562 12.8482C9.35832 12.7363 9.14662 12.6257 8.91052 12.5166C8.67702 12.4074 8.42172 12.3023 8.14452 12.2013C7.87002 12.1003 7.57612 11.9993 7.26312 11.8983C6.95002 11.7973 6.63562 11.7004 6.32002 11.6075C6.00442 11.5175 5.69392 11.4397 5.38852 11.3741C5.08322 11.3059 4.77402 11.2377 4.46092 11.1694C4.14782 11.0984 3.85272 11.0234 3.57562 10.9442C3.29592 10.8623 3.04833 10.7954 2.83273 10.7436C2.61723 10.689 2.43373 10.6548 2.28233 10.6412C2.12833 10.6248 2.01292 10.6112 1.93592 10.6003C1.85632 10.5893 1.83062 10.5716 1.85892 10.547C1.88712 10.5252 1.95902 10.5115 2.07442 10.5061C2.18992 10.5006 2.33362 10.4911 2.50552 10.4774C2.67492 10.461 2.87372 10.4351 3.10212 10.3996C3.32792 10.3614 3.59233 10.3177 3.89513 10.2686C4.19533 10.2194 4.52372 10.1662 4.88042 10.1089C5.23972 10.0488 5.62333 9.9765 6.03133 9.89188C6.43683 9.80452 6.86152 9.70625 7.30542 9.59706C7.74932 9.48787 8.20102 9.37322 8.66032 9.25311C9.11962 9.13573 9.57902 9.00606 10.0383 8.86411C10.5002 8.72216 10.9608 8.55701 11.4201 8.36866C11.8794 8.1803 12.3336 7.98103 12.7827 7.77084C13.2318 7.56064 13.6732 7.34362 14.1068 7.11978C14.5431 6.89321 14.9049 6.54516 15.1923 6.07564C15.4797 5.60612 15.7966 5.24715 16.143 4.99874C16.4894 4.75033 16.8269 4.53195 17.1553 4.3436C17.4863 4.15797 17.8097 4.00374 18.1253 3.8809C18.4384 3.75806 18.7528 3.66797 19.0684 3.61065C19.384 3.55059 19.6983 3.53967 20.0114 3.57789C20.1839 3.59744 20.356 3.63191 20.5277 3.6813M20.5277 3.6813C20.6676 3.72155 20.8073 3.7717 20.9467 3.83176C21.2546 3.96825 21.5613 4.14023 21.8667 4.34769C22.1746 4.55515 22.4748 4.80766 22.7674 5.1052C23.0625 5.40002 23.346 5.73715 23.618 6.11659C23.8875 6.49603 24.1556 6.9014 24.4225 7.33271C24.6868 7.76401 24.9383 8.21033 25.177 8.67166C25.4131 9.133 25.608 9.61207 25.762 10.1089C25.9185 10.603 26.0443 11.0998 26.1393 11.5994C26.2342 12.1016 26.3086 12.5971 26.3625 13.0857C26.4189 13.5744 26.4574 14.0398 26.478 14.482C26.4985 14.927 26.4959 15.3378 26.4703 15.7145C26.4472 16.0885 26.3933 16.4352 26.3086 16.7545C26.2239 17.0712 26.1033 17.3578 25.9468 17.6144C25.7877 17.8683 25.6107 18.0785 25.4156 18.245C25.2206 18.4088 25.0178 18.5234 24.8074 18.589C24.5996 18.6545 24.3776 18.6763 24.1415 18.6545C23.908 18.6326 23.6501 18.5739 23.3678 18.4784C23.0856 18.3801 22.7776 18.2436 22.444 18.0689C22.1079 17.8915 21.7704 17.6745 21.4317 17.4179C21.0904 17.164 20.7632 16.8856 20.4502 16.5826C20.1371 16.2823 19.8305 15.9656 19.5303 15.6326C19.23 15.2996 18.9272 14.9447 18.6219 14.568C18.3191 14.1913 18.024 13.7955 17.7366 13.3805C17.4492 12.9683 17.1913 12.5452 16.9629 12.1112C16.7371 11.6772 16.6934 11.2772 16.832 10.9114C16.9706 10.5429 17.0643 10.1062 17.113 9.60115C17.1643 9.09341 17.2465 8.60615 17.3594 8.13936C17.4697 7.67529 17.6057 7.23989 17.7674 6.83315C17.929 6.42642 18.1356 6.03742 18.3871 5.66617C18.6411 5.29219 18.9465 4.94278 19.3031 4.61794C19.6598 4.29036 20.0537 3.98736 20.4848 3.70892C20.4991 3.6997 20.5134 3.6905 20.5277 3.6813ZM20.5277 3.6813C20.9461 3.4126 21.386 3.15156 21.8475 2.89817C22.3248 2.63885 22.8264 2.3918 23.3524 2.15704C23.8759 1.92228 24.4238 1.70936 24.996 1.51827C25.5683 1.32719 26.1662 1.16067 26.7897 1.01872C27.4107 0.879501 28.0471 0.76758 28.6989 0.682957C29.3507 0.595604 29.9922 0.539644 30.6235 0.515076C31.2573 0.490508 31.8821 0.495968 32.498 0.531455C33.1164 0.564212 33.7156 0.629727 34.2955 0.727999C34.8759 0.826271 35.4249 0.96003 35.9429 1.12928C36.4639 1.30125 36.9529 1.50462 37.4099 1.73938C37.8659 1.97687 38.3049 2.2403 38.7259 2.52966C39.1469 2.81901 39.5469 3.1343 39.9269 3.47552C40.3039 3.81675 40.6469 4.19892 40.9549 4.62203C40.9971 4.68053 41.0384 4.73986 41.0788 4.80002M41.0788 4.80002C41.331 5.17505 41.5498 5.58251 41.7359 6.02241C41.9519 6.53288 42.1299 7.07201 42.2709 7.63981C42.4119 8.2076 42.5349 8.79041 42.6409 9.38823C42.7429 9.98878 42.8269 10.5962 42.8909 11.2104C42.9549 11.8273 42.9829 12.436 42.9749 13.0366C42.9679 13.6344 42.9219 14.2199 42.8369 14.7932C42.7499 15.3665 42.6349 15.9179 42.4939 16.4474C42.3529 16.9798 42.1909 17.4861 42.0089 17.9666C41.8299 18.447 41.6349 18.9002 41.4239 19.326C41.2159 19.7546 40.9889 20.1354 40.7429 20.4684C40.4969 20.7987 40.2139 21.0444 39.8959 21.2055C39.5779 21.3665 39.2309 21.4921 38.8569 21.5822C38.4849 21.6722 38.1319 21.7146 37.7979 21.7091C37.4669 21.7009 37.1589 21.6409 36.8749 21.5289C36.5899 21.417 36.3219 21.2532 36.0699 21.0376C35.8209 20.8247 35.5849 20.579 35.3619 20.3005C35.1409 20.0194 34.9439 19.7164 34.7689 19.3915C34.5919 19.0667 34.4495 18.7036 34.3417 18.3023C34.2339 17.9038 34.157 17.4752 34.1108 17.0166C34.0646 16.558 34.0351 16.0885 34.0223 15.608C34.0094 15.1303 34.0017 14.6567 33.9991 14.1872C33.9966 13.7149 34.0017 13.2454 34.0146 12.7786C34.0274 12.3118 34.0543 11.8464 34.0954 11.3823C34.1339 10.9183 34.1878 10.472 34.2571 10.0434C34.3238 9.61753 34.4059 9.21762 34.5034 8.84364C34.6035 8.47239 34.7279 8.12844 34.8769 7.81178C35.0279 7.4924 35.2079 7.19622 35.4159 6.92324C35.6239 6.65299 35.8489 6.41413 36.0929 6.20667C36.3399 6.00194 36.5969 5.83133 36.8669 5.69484C37.1389 5.56108 37.4439 5.44097 37.7829 5.33451C38.1189 5.23077 38.4949 5.13387 38.9109 5.04378C39.3239 4.9537 39.7629 4.88682 40.2269 4.84314C40.5032 4.8173 40.7872 4.80293 41.0788 4.80002ZM41.0788 4.80002C41.2802 4.79802 41.4852 4.80147 41.6939 4.81039C42.2069 4.83223 42.7449 4.8759 43.3059 4.94142C43.8709 5.00693 44.4449 5.07245 45.0269 5.13796C45.6119 5.20348 46.1979 5.25671 46.7859 5.29765C47.3739 5.3386 47.9599 5.37409 48.5449 5.40412C49.1299 5.43687 49.6989 5.47782 50.2499 5.52696C50.8049 5.57609 51.3279 5.63069 51.8209 5.69074C52.3129 5.7508 52.7869 5.81904 53.2409 5.89547C53.6949 5.97191 54.2339 6.07155 54.8579 6.19439C55.4789 6.31723 55.9829 6.41823 56.3699 6.49739C56.7579 6.57656 57.0849 6.65026 57.3519 6.7185C57.6159 6.78675 57.8279 6.85363 57.9869 6.91914C58.1459 6.98193 58.2659 7.05154 58.3449 7.12797C58.4269 7.20441 58.4709 7.28493 58.4759 7.36956C58.4779 7.45691 58.4429 7.54699 58.3679 7.63981C58.2909 7.73535 58.1889 7.83499 58.0599 7.93872C57.9339 8.04245 57.7809 8.15164 57.5979 8.26629C57.4159 8.38367 57.2039 8.49969 56.9629 8.61434C56.7189 8.73172 56.4529 8.83545 56.1629 8.92553C55.8729 9.01562 55.5779 9.1016 55.2769 9.1835C54.9769 9.26539 54.6809 9.36503 54.3879 9.48241C54.0979 9.60252 53.8179 9.73355 53.5489 9.8755C53.2799 10.0202 53.0379 10.1621 52.8249 10.3013C52.6149 10.4378 52.4479 10.5607 52.3249 10.6699C52.2019 10.7791 52.1199 10.8869 52.0789 10.9933C52.0379 11.0971 52.0309 11.2104 52.0589 11.3332C52.0849 11.456 52.1439 11.5857 52.2359 11.7222C52.3289 11.8614 52.4569 11.9911 52.6209 12.1112C52.7879 12.2286 52.9729 12.3391 53.1759 12.4429C53.3809 12.5466 53.5909 12.6531 53.8069 12.7622C54.0249 12.8714 54.2589 12.9847 54.5069 13.1021C54.7559 13.2167 55.0259 13.33 55.3159 13.442C55.6079 13.5511 55.8889 13.6576 56.1589 13.7613C56.4309 13.8678 56.6839 13.9606 56.9169 14.0398C57.1479 14.1189 57.3739 14.1817 57.5949 14.2281C57.8129 14.2745 58.0189 14.3209 58.2139 14.3674C58.4089 14.411 58.5699 14.4643 58.6949 14.527C58.8209 14.5871 58.9329 14.639 59.0299 14.6826C59.1279 14.729 59.2159 14.7836 59.2959 14.8464C59.3729 14.9065 59.4389 14.9324 59.4959 14.9242C59.5519 14.9133 59.6019 14.8806 59.6459 14.826" stroke="black" stroke-linecap="round" stroke-linejoin="round"/>
</svg>
