<svg width="183" height="23" viewBox="0 0 183 23" fill="none" xmlns="http://www.w3.org/2000/svg">
<path d="M0.500122 14.5557C0.743901 14.9788 0.861916 15.1808 0.854218 15.1617C0.843953 15.1453 0.987703 15.2818 1.28537 15.5712C1.58304 15.8605 1.87041 16.1103 2.14755 16.3205C2.42726 16.5334 2.68768 16.7081 2.92889 16.8446C3.17267 16.9839 3.4126 17.0889 3.64868 17.1599C3.8822 17.2282 4.10802 17.2637 4.32614 17.2664C4.54683 17.2664 4.75216 17.2282 4.94205 17.1517C5.1345 17.0753 5.31026 16.9566 5.46936 16.7955C5.62589 16.6344 5.75932 16.4393 5.86966 16.21C5.98 15.9779 6.06985 15.72 6.13913 15.4361C6.20841 15.1522 6.26741 14.8464 6.31616 14.5189C6.36492 14.1886 6.3983 13.8391 6.41626 13.4706C6.43422 13.0994 6.42908 12.7117 6.40085 12.3077C6.37519 11.901 6.34309 11.4847 6.3046 11.0589C6.2661 10.633 6.21865 10.2222 6.1622 9.82636C6.10318 9.42781 6.03901 9.05793 5.96973 8.71671C5.90044 8.37275 5.83243 8.052 5.76572 7.75446C5.69643 7.45964 5.62462 7.19895 5.5502 6.97237C5.47578 6.7458 5.40391 6.55472 5.33463 6.39912C5.26534 6.24625 5.20891 6.11795 5.16528 6.01422C5.12166 5.91322 5.08313 5.84088 5.04977 5.7972C5.01385 5.75353 4.98565 5.74124 4.96512 5.76035C4.94202 5.77946 4.94973 5.81768 4.98822 5.875C5.02415 5.93233 5.08058 6.00876 5.15756 6.1043C5.23454 6.19985 5.32436 6.30085 5.427 6.40731C5.52965 6.5165 5.64382 6.62433 5.76956 6.73079C5.89787 6.83452 6.03906 6.94371 6.19302 7.05836C6.34442 7.17028 6.50733 7.28084 6.68182 7.39003C6.85632 7.49649 7.04624 7.59886 7.25153 7.69713C7.45681 7.7954 7.67491 7.88958 7.90585 7.97966C8.13424 8.06975 8.34209 8.07384 8.52942 7.99195C8.71674 7.91005 8.94257 7.91961 9.20688 8.02061C9.47119 8.12161 9.73036 8.24036 9.98441 8.37685C10.2384 8.51334 10.4873 8.66211 10.7311 8.82317C10.9723 8.98422 11.2123 9.13436 11.4509 9.27358C11.6895 9.4128 11.9282 9.53291 12.1668 9.63391C12.4029 9.73491 12.6365 9.83046 12.8674 9.92054C13.0983 10.0106 13.3177 10.113 13.5256 10.2276C13.736 10.3423 13.9298 10.4679 14.1068 10.6043C14.2864 10.7436 14.4648 10.8978 14.6418 11.067C14.8189 11.2363 14.9985 11.4151 15.1807 11.6034C15.3604 11.7918 15.54 11.9788 15.7196 12.1644C15.8993 12.3528 16.084 12.5398 16.2739 12.7254C16.4638 12.9137 16.6601 13.1007 16.8628 13.2864C17.0655 13.4747 17.2669 13.6385 17.4671 13.7777C17.6647 13.9197 17.8584 14.037 18.0483 14.1299C18.2382 14.2254 18.4307 14.3018 18.6257 14.3592C18.8207 14.4165 19.0286 14.4479 19.2493 14.4533C19.47 14.4588 19.6957 14.4411 19.9267 14.4001C20.1576 14.3564 20.3924 14.2882 20.6311 14.1954C20.8697 14.0998 21.1161 13.9688 21.3701 13.8023C21.6242 13.6385 21.8821 13.4447 22.1438 13.2208C22.4055 12.9997 22.6532 12.7786 22.8867 12.5575C23.1202 12.3391 23.3409 12.1262 23.5488 11.9187C23.7592 11.714 23.958 11.5038 24.1454 11.2882C24.3301 11.0725 24.5097 10.8459 24.6842 10.6084C24.8562 10.371 25.0101 10.1335 25.1461 9.89597C25.2796 9.65848 25.3745 9.43873 25.431 9.23673C25.4875 9.03472 25.499 8.85456 25.4656 8.69623C25.4348 8.5379 25.3886 8.38913 25.3271 8.24991C25.2655 8.11069 25.1051 7.97693 24.8459 7.84863C24.5893 7.72033 24.4186 7.60022 24.334 7.4883C24.2493 7.37365 24.13 7.28357 23.976 7.21806C23.8195 7.15254 23.6347 7.11023 23.4217 7.09112C23.2061 7.07474 22.9932 7.07474 22.7828 7.09112C22.5698 7.10477 22.3799 7.14025 22.2131 7.19758C22.0463 7.25491 21.8962 7.32588 21.7628 7.4105C21.6319 7.4924 21.5087 7.56883 21.3932 7.63981C21.2778 7.70805 21.1828 7.75992 21.1084 7.7954C21.0366 7.83089 20.9801 7.87184 20.939 7.91824C20.898 7.96465 20.8723 8.02607 20.8621 8.1025C20.8544 8.17621 20.8711 8.24855 20.9121 8.31952C20.9532 8.39323 21.0301 8.45192 21.143 8.49559C21.2559 8.53927 21.4099 8.57339 21.6049 8.59796C21.8025 8.6198 22.036 8.62799 22.3055 8.62253C22.5775 8.6198 22.8738 8.61161 23.1946 8.59796C23.5154 8.58158 23.8631 8.5652 24.2377 8.54882C24.6098 8.52971 25.0178 8.50378 25.4618 8.47102C25.9031 8.43554 26.3586 8.39732 26.8282 8.35637C27.2952 8.3127 27.7623 8.27584 28.2293 8.24582C28.6963 8.21306 29.1698 8.1803 29.6496 8.14754C30.1295 8.11479 30.6132 8.08749 31.1008 8.06565C31.5883 8.04654 32.0554 8.05337 32.5019 8.08613C32.9484 8.11888 33.3692 8.1803 33.7643 8.27039C34.1595 8.36047 34.5419 8.46556 34.9114 8.58568C35.2835 8.70852 35.6427 8.83954 35.9891 8.97876C36.3356 9.12071 36.6602 9.27631 36.963 9.44556C37.2632 9.6148 37.5314 9.80589 37.7675 10.0188C38.001 10.2317 38.1921 10.4583 38.341 10.6985C38.4898 10.9387 38.6168 11.1899 38.722 11.4519C38.8247 11.714 38.7413 11.9788 38.4719 12.2463C38.1999 12.5138 38.092 12.7704 38.1485 13.0161C38.205 13.2591 38.2216 13.487 38.1985 13.6999C38.1755 13.9156 38.1164 14.1189 38.0215 14.31C37.9265 14.5011 37.8265 14.669 37.7213 14.8137C37.616 14.9611 37.5211 15.0771 37.4364 15.1617C37.3518 15.2491 37.2645 15.3091 37.1747 15.3419C37.0875 15.3746 36.995 15.3856 36.8975 15.3746C36.8 15.3637 36.7089 15.3296 36.6243 15.2723C36.5396 15.2177 36.4729 15.1208 36.4241 14.9816C36.3728 14.8451 36.3368 14.6608 36.3163 14.4288C36.2958 14.194 36.2894 13.936 36.2971 13.6549C36.3048 13.3737 36.3292 13.0912 36.3702 12.8073C36.4113 12.5234 36.4613 12.2381 36.5203 11.9515C36.5819 11.6649 36.6525 11.3701 36.7321 11.067C36.8116 10.764 36.8975 10.4569 36.9899 10.1457C37.0823 9.83455 37.1773 9.52745 37.2748 9.22444C37.3697 8.92144 37.4621 8.63618 37.5519 8.36866C37.6443 8.10387 37.7418 7.85819 37.8445 7.63162C37.9471 7.40504 38.0446 7.18393 38.137 6.96828C38.2294 6.75536 38.314 6.54789 38.391 6.34589C38.4654 6.14662 38.5412 5.95963 38.6181 5.78492C38.6951 5.60748 38.7785 5.45325 38.8683 5.32222C38.9581 5.18846 39.062 5.07245 39.1801 4.97417C39.2956 4.87863 39.4149 4.79264 39.538 4.71621C39.6612 4.63978 39.7767 4.57017 39.8845 4.50738C39.9922 4.4446 40.109 4.38864 40.2347 4.3395C40.3605 4.29036 40.526 4.2617 40.7313 4.25351C40.9366 4.24259 41.1791 4.26853 41.4588 4.33131C41.7385 4.39137 42.0284 4.4678 42.3287 4.56061C42.6289 4.65069 42.7777 4.60292 42.7752 4.4173C42.7726 4.22894 42.9817 4.22075 43.4026 4.39273C43.8209 4.56471 44.2648 4.76944 44.7344 5.00693C45.2014 5.24715 45.6838 5.50375 46.1816 5.77673C46.6795 6.04971 47.1876 6.33634 47.7059 6.63661C48.2243 6.93689 48.7426 7.25354 49.261 7.58657C49.7767 7.91961 50.2836 8.26629 50.7814 8.62662C51.2818 8.98422 51.7719 9.34592 52.2517 9.71171C52.7342 10.0775 53.2012 10.4501 53.6528 10.8296C54.1045 11.209 54.5292 11.583 54.9269 11.9515C55.3221 12.3227 55.6852 12.6858 56.0162 13.0407C56.3447 13.3983 56.6385 13.7436 56.8977 14.0766C57.1568 14.4097 57.3711 14.7277 57.5405 15.0307C57.7098 15.331 57.8176 15.608 57.8638 15.8619C57.9126 16.1158 57.9228 16.3492 57.8946 16.5621C57.8689 16.7778 57.8137 16.9757 57.7291 17.1558C57.6444 17.3387 57.5238 17.4889 57.3672 17.6062C57.2082 17.7209 57.0106 17.7946 56.7745 17.8274C56.541 17.8574 56.2818 17.8533 55.9969 17.8151C55.7121 17.7769 55.4209 17.6963 55.1232 17.5735C54.823 17.4506 54.5176 17.2746 54.2071 17.0453C53.8966 16.8132 53.5861 16.5375 53.2756 16.2181C52.9651 15.896 52.6803 15.5534 52.4211 15.1904C52.1645 14.8246 51.9502 14.4356 51.7783 14.0234C51.6038 13.6112 51.4486 13.1744 51.3126 12.7131C51.1766 12.249 51.0431 11.7754 50.9123 11.2923C50.784 10.8091 50.6788 10.3245 50.5966 9.83864C50.5171 9.35274 50.4812 8.86957 50.4889 8.38913C50.4991 7.90596 50.5401 7.44326 50.612 7.00104C50.6839 6.55608 50.7852 6.13843 50.9161 5.74807C51.047 5.35771 51.0842 4.81312 51.0277 4.11429C50.9713 3.41547 51.0855 2.9282 51.3703 2.6525C51.6526 2.37406 51.931 2.15295 52.2056 1.98916C52.4801 1.8281 52.7509 1.71481 53.0177 1.6493C53.2872 1.58379 53.5669 1.56741 53.8568 1.60016C54.1468 1.63019 54.4535 1.70663 54.7768 1.82947C55.1027 1.95231 55.4311 2.11336 55.7621 2.31264C56.0957 2.51191 56.4063 2.74121 56.6937 3.00054C56.9836 3.25714 57.2492 3.53558 57.4904 3.83586C57.7291 4.13613 57.96 4.43095 58.1833 4.7203C58.4065 5.00966 58.6208 5.284 58.8261 5.54333C59.0314 5.79993 59.2251 6.04698 59.4073 6.28447C59.5895 6.52196 59.7665 6.76082 59.9384 7.00104C60.1104 7.24126 60.2733 7.47056 60.4273 7.68894C60.5813 7.91005 60.7276 8.12025 60.8661 8.31952C61.0047 8.52153 61.1522 8.71534 61.3088 8.90096C61.4679 9.08932 61.636 9.26539 61.813 9.42918C61.9901 9.59296 62.1607 9.73082 62.325 9.84274C62.4892 9.95466 62.6637 10.0434 62.8484 10.1089C63.0332 10.1744 63.2359 10.2358 63.4566 10.2932C63.6747 10.3505 63.9031 10.4092 64.1417 10.4692C64.3829 10.5265 64.6332 10.5839 64.8923 10.6412C65.1541 10.6985 65.444 10.7613 65.7622 10.8296C66.0804 10.8978 66.4217 10.9742 66.7861 11.0589C67.1531 11.1435 67.5251 11.2322 67.9023 11.325C68.277 11.4151 68.6452 11.5024 69.007 11.5871C69.3663 11.6717 69.7179 11.7631 70.0617 11.8614C70.4056 11.9624 70.7417 12.0784 71.0702 12.2095C71.3961 12.3378 71.704 12.477 71.994 12.6271C72.284 12.7745 72.5572 12.9069 72.8138 13.0243C73.073 13.1417 73.422 13.2086 73.8608 13.2249C74.3022 13.244 74.6294 13.2672 74.8423 13.2945C75.0553 13.3218 75.2234 13.341 75.3466 13.3519C75.4697 13.3628 75.5467 13.3642 75.5775 13.356C75.6109 13.3478 75.6019 13.3273 75.5506 13.2945C75.4992 13.2618 75.4095 13.2072 75.2812 13.1308C75.1554 13.0543 74.9976 12.9602 74.8077 12.8482C74.6204 12.7363 74.4087 12.6257 74.1726 12.5166C73.9391 12.4074 73.6838 12.3023 73.4066 12.2013C73.1321 12.1003 72.8382 11.9993 72.5252 11.8983C72.2121 11.7973 71.8977 11.7004 71.5821 11.6075C71.2665 11.5175 70.956 11.4397 70.6506 11.3741C70.3453 11.3059 70.0361 11.2377 69.723 11.1694C69.4099 11.0984 69.1148 11.0234 68.8377 10.9442C68.558 10.8623 68.3104 10.7954 68.0948 10.7436C67.8793 10.689 67.6958 10.6548 67.5444 10.6412C67.3904 10.6248 67.275 10.6112 67.198 10.6003C67.1184 10.5893 67.0927 10.5716 67.121 10.547C67.1492 10.5252 67.2211 10.5115 67.3365 10.5061C67.452 10.5006 67.5957 10.4911 67.7676 10.4774C67.937 10.461 68.1358 10.4351 68.3642 10.3996C68.59 10.3614 68.8544 10.3177 69.1572 10.2686C69.4574 10.2194 69.7858 10.1662 70.1425 10.1089C70.5018 10.0488 70.8854 9.9765 71.2934 9.89188C71.6989 9.80452 72.1236 9.70625 72.5675 9.59706C73.0114 9.48787 73.4631 9.37322 73.9224 9.25311C74.3817 9.13573 74.8411 9.00606 75.3004 8.86411C75.7623 8.72216 76.2229 8.55701 76.6822 8.36866C77.1415 8.1803 77.5957 7.98103 78.0448 7.77084C78.4939 7.56064 78.9353 7.34362 79.3689 7.11978C79.8052 6.89321 80.167 6.54516 80.4544 6.07564C80.7418 5.60612 81.0587 5.24715 81.4051 4.99874C81.7515 4.75033 82.089 4.53195 82.4174 4.3436C82.7484 4.15797 83.0718 4.00374 83.3874 3.8809C83.7005 3.75806 84.0149 3.66797 84.3305 3.61065C84.6461 3.55059 84.9604 3.53967 85.2735 3.57789C85.5866 3.61338 85.8983 3.698 86.2088 3.83176C86.5167 3.96825 86.8234 4.14023 87.1288 4.34769C87.4367 4.55515 87.7369 4.80766 88.0295 5.1052C88.3246 5.40002 88.6081 5.73715 88.8801 6.11659C89.1496 6.49603 89.4177 6.9014 89.6846 7.33271C89.9489 7.76401 90.2004 8.21033 90.4391 8.67166C90.6752 9.133 90.8701 9.61207 91.0241 10.1089C91.1806 10.603 91.3064 11.0998 91.4014 11.5994C91.4963 12.1016 91.5707 12.5971 91.6246 13.0857C91.681 13.5744 91.7195 14.0398 91.7401 14.482C91.7606 14.927 91.758 15.3378 91.7324 15.7145C91.7093 16.0885 91.6554 16.4352 91.5707 16.7545C91.486 17.0712 91.3654 17.3578 91.2089 17.6144C91.0498 17.8683 90.8728 18.0785 90.6777 18.245C90.4827 18.4088 90.2799 18.5234 90.0695 18.589C89.8617 18.6545 89.6397 18.6763 89.4036 18.6545C89.1701 18.6326 88.9122 18.5739 88.6299 18.4784C88.3477 18.3801 88.0397 18.2436 87.7061 18.0689C87.37 17.8915 87.0325 17.6745 86.6938 17.4179C86.3525 17.164 86.0253 16.8856 85.7123 16.5826C85.3992 16.2823 85.0926 15.9656 84.7924 15.6326C84.4921 15.2996 84.1893 14.9447 83.884 14.568C83.5812 14.1913 83.2861 13.7955 82.9987 13.3805C82.7113 12.9683 82.4534 12.5452 82.225 12.1112C81.9992 11.6772 81.9555 11.2772 82.0941 10.9114C82.2327 10.5429 82.3264 10.1062 82.3751 9.60115C82.4264 9.09341 82.5086 8.60615 82.6215 8.13936C82.7318 7.67529 82.8678 7.23989 83.0295 6.83315C83.1911 6.42642 83.3977 6.03742 83.6492 5.66617C83.9032 5.29219 84.2086 4.94278 84.5652 4.61794C84.9219 4.29036 85.3158 3.98736 85.7469 3.70892C86.1781 3.43048 86.6323 3.16023 87.1096 2.89817C87.5869 2.63885 88.0885 2.3918 88.6145 2.15704C89.138 1.92228 89.6859 1.70936 90.2581 1.51827C90.8304 1.32719 91.4283 1.16067 92.0518 1.01872C92.6728 0.879501 93.3092 0.76758 93.961 0.682957C94.6128 0.595604 95.2543 0.539644 95.8856 0.515076C96.5194 0.490508 97.1442 0.495968 97.7601 0.531455C98.3785 0.564212 98.9777 0.629727 99.5576 0.727999C100.138 0.826271 100.687 0.96003 101.205 1.12928C101.726 1.30125 102.215 1.50462 102.672 1.73938C103.128 1.97687 103.567 2.2403 103.988 2.52966C104.409 2.81901 104.809 3.1343 105.189 3.47552C105.566 3.81675 105.909 4.19892 106.217 4.62203C106.522 5.04515 106.782 5.51194 106.998 6.02241C107.214 6.53288 107.392 7.07201 107.533 7.63981C107.674 8.2076 107.797 8.79041 107.903 9.38823C108.005 9.98878 108.089 10.5962 108.153 11.2104C108.217 11.8273 108.245 12.436 108.237 13.0366C108.23 13.6344 108.184 14.2199 108.099 14.7932C108.012 15.3665 107.897 15.9179 107.756 16.4474C107.615 16.9798 107.453 17.4861 107.271 17.9666C107.092 18.447 106.897 18.9002 106.686 19.326C106.478 19.7546 106.251 20.1354 106.005 20.4684C105.759 20.7987 105.476 21.0444 105.158 21.2055C104.84 21.3665 104.493 21.4921 104.119 21.5822C103.747 21.6722 103.394 21.7146 103.06 21.7091C102.729 21.7009 102.421 21.6409 102.137 21.5289C101.852 21.417 101.584 21.2532 101.332 21.0376C101.083 20.8247 100.847 20.579 100.624 20.3005C100.403 20.0194 100.206 19.7164 100.031 19.3915C99.854 19.0667 99.7116 18.7036 99.6038 18.3023C99.496 17.9038 99.4191 17.4752 99.3729 17.0166C99.3267 16.558 99.2972 16.0885 99.2844 15.608C99.2715 15.1303 99.2638 14.6567 99.2612 14.1872C99.2587 13.7149 99.2638 13.2454 99.2767 12.7786C99.2895 12.3118 99.3164 11.8464 99.3575 11.3823C99.396 10.9183 99.4499 10.472 99.5192 10.0434C99.5859 9.61753 99.668 9.21762 99.7655 8.84364C99.8656 8.47239 99.99 8.12844 100.139 7.81178C100.29 7.4924 100.47 7.19622 100.678 6.92324C100.886 6.65299 101.111 6.41413 101.355 6.20667C101.602 6.00194 101.859 5.83133 102.129 5.69484C102.401 5.56108 102.706 5.44097 103.045 5.33451C103.381 5.23077 103.757 5.13387 104.173 5.04378C104.586 4.9537 105.025 4.88682 105.489 4.84314C105.956 4.79947 106.445 4.78855 106.956 4.81039C107.469 4.83223 108.007 4.8759 108.568 4.94142C109.133 5.00693 109.707 5.07245 110.289 5.13796C110.874 5.20348 111.46 5.25671 112.048 5.29765C112.636 5.3386 113.222 5.37409 113.807 5.40412C114.392 5.43687 114.961 5.47782 115.512 5.52696C116.067 5.57609 116.59 5.63069 117.083 5.69074C117.575 5.7508 118.049 5.81904 118.503 5.89547C118.957 5.97191 119.496 6.07155 120.12 6.19439C120.741 6.31723 121.245 6.41823 121.632 6.49739C122.02 6.57656 122.347 6.65026 122.614 6.7185C122.878 6.78675 123.09 6.85363 123.249 6.91914C123.408 6.98193 123.528 7.05154 123.607 7.12797C123.689 7.20441 123.733 7.28493 123.738 7.36956C123.74 7.45691 123.705 7.54699 123.63 7.63981C123.553 7.73535 123.451 7.83499 123.322 7.93872C123.196 8.04245 123.043 8.15164 122.86 8.26629C122.678 8.38367 122.466 8.49969 122.225 8.61434C121.981 8.73172 121.715 8.83545 121.425 8.92553C121.135 9.01562 120.84 9.1016 120.539 9.1835C120.239 9.26539 119.943 9.36503 119.65 9.48241C119.36 9.60252 119.08 9.73355 118.811 9.8755C118.542 10.0202 118.3 10.1621 118.087 10.3013C117.877 10.4378 117.71 10.5607 117.587 10.6699C117.464 10.7791 117.382 10.8869 117.341 10.9933C117.3 11.0971 117.293 11.2104 117.321 11.3332C117.347 11.456 117.406 11.5857 117.498 11.7222C117.591 11.8614 117.719 11.9911 117.883 12.1112C118.05 12.2286 118.235 12.3391 118.438 12.4429C118.643 12.5466 118.853 12.6531 119.069 12.7622C119.287 12.8714 119.521 12.9847 119.769 13.1021C120.018 13.2167 120.288 13.33 120.578 13.442C120.87 13.5511 121.151 13.6576 121.421 13.7613C121.693 13.8678 121.946 13.9606 122.179 14.0398C122.41 14.1189 122.636 14.1817 122.857 14.2281C123.075 14.2745 123.281 14.3209 123.476 14.3674C123.671 14.411 123.832 14.4643 123.957 14.527C124.083 14.5871 124.195 14.639 124.292 14.6826C124.39 14.729 124.478 14.7836 124.558 14.8464C124.635 14.9065 124.701 14.9324 124.758 14.9242C124.814 14.9133 124.864 14.8806 124.908 14.826C124.952 14.7686 125.003 14.6785 125.062 14.5557C125.121 14.4329 125.193 14.2773 125.278 14.0889C125.365 13.9033 125.475 13.6999 125.609 13.4788C125.742 13.2604 125.9 13.0188 126.082 12.7541C126.267 12.492 126.458 12.1972 126.656 11.8696C126.856 11.542 127.055 11.1913 127.252 10.8173C127.452 10.4406 127.669 10.0447 127.903 9.62982C128.134 9.21216 128.401 8.78768 128.703 8.35637C129.006 7.9278 129.331 7.49922 129.677 7.07065C130.024 6.6448 130.362 6.21486 130.693 5.78082C131.024 5.34679 131.348 4.91275 131.663 4.47872C131.982 4.04468 132.316 3.63658 132.668 3.25441C133.022 2.87224 133.392 2.53511 133.776 2.24303C134.161 1.95367 134.541 1.70799 134.916 1.50599C135.29 1.30398 135.645 1.13337 135.978 0.994153C136.314 0.854934 136.629 0.751202 136.921 0.682957C137.211 0.611983 137.474 0.59697 137.71 0.637917C137.946 0.676134 138.149 0.764851 138.318 0.90407C138.488 1.04329 138.631 1.22482 138.75 1.44866C138.868 1.6725 138.965 1.9564 139.042 2.30035C139.122 2.64158 139.17 3.03739 139.188 3.48781C139.206 3.93822 139.197 4.44187 139.161 4.99874C139.128 5.55289 139.074 6.1548 139 6.80449C138.923 7.45418 138.827 8.13936 138.711 8.86002C138.593 9.58068 138.448 10.3 138.276 11.0179C138.107 11.7358 137.917 12.4265 137.706 13.0898C137.499 13.7532 137.288 14.3933 137.075 15.0102C136.86 15.6299 136.435 16.0216 135.801 16.1854C135.165 16.3492 134.773 16.614 134.627 16.9798C134.478 17.3455 134.355 17.6554 134.258 17.9092C134.16 18.1658 134.101 18.3692 134.081 18.5194C134.063 18.6695 134.069 18.7828 134.1 18.8592C134.131 18.9384 134.174 18.982 134.231 18.9902C134.29 18.9984 134.376 18.9684 134.489 18.9002C134.601 18.8319 134.762 18.7309 134.97 18.5972C135.18 18.4634 135.434 18.3023 135.732 18.114C136.027 17.9256 136.341 17.71 136.675 17.467C137.006 17.2213 137.343 16.9566 137.687 16.6727C138.031 16.3888 138.384 16.0857 138.746 15.7636C139.105 15.4443 139.473 15.1017 139.85 14.7359C140.228 14.3728 140.611 13.9988 141.001 13.6139C141.391 13.2318 141.766 12.84 142.125 12.4388C142.487 12.0375 142.81 11.6335 143.095 11.2267C143.383 10.82 143.641 10.4255 143.869 10.0434C144.095 9.66394 144.321 9.30907 144.546 8.97876C144.775 8.64846 144.995 8.34409 145.208 8.06565C145.421 7.78721 145.624 7.52652 145.817 7.28357C146.012 7.04062 146.198 6.80586 146.375 6.57929C146.554 6.35271 146.727 6.13297 146.894 5.92004C147.061 5.70712 147.22 5.51194 147.372 5.33451C147.523 5.15707 147.673 4.99465 147.822 4.84724C147.971 4.69983 148.109 4.56061 148.238 4.42958C148.369 4.29855 148.488 4.17708 148.596 4.06516C148.706 3.95597 148.816 3.86179 148.927 3.78262C149.037 3.70073 149.158 3.63931 149.288 3.59837C149.417 3.55469 149.55 3.52739 149.689 3.51647C149.825 3.50828 149.971 3.52466 150.128 3.56561C150.284 3.60655 150.389 3.8304 150.443 4.23713C150.5 4.6466 150.597 4.89774 150.736 4.99055C150.877 5.08337 151.004 5.183 151.117 5.28946C151.227 5.39592 151.323 5.50375 151.406 5.61294C151.488 5.72213 151.574 5.8477 151.663 5.98965C151.756 6.12887 151.853 6.28856 151.956 6.46873C152.061 6.6489 152.159 6.84544 152.248 7.05836C152.341 7.26855 152.423 7.49649 152.495 7.74217C152.567 7.98785 152.621 8.25674 152.656 8.54882C152.692 8.84091 152.704 9.14255 152.691 9.45375C152.678 9.76767 152.653 10.0775 152.614 10.3832C152.578 10.6917 152.529 10.9933 152.468 11.2882C152.406 11.5802 152.318 11.8682 152.202 12.1521C152.089 12.4388 151.964 12.7117 151.825 12.9711C151.684 13.2304 151.535 13.4706 151.379 13.6917C151.222 13.9101 151.063 14.1148 150.901 14.3059C150.737 14.4943 150.582 14.6567 150.436 14.7932C150.289 14.9297 150.161 15.0184 150.051 15.0594C149.943 15.0976 149.858 15.088 149.797 15.0307C149.732 14.9706 149.702 14.8792 149.704 14.7563C149.704 14.6335 149.74 14.4888 149.812 14.3223C149.881 14.1558 149.984 13.9674 150.12 13.7572C150.253 13.5471 150.425 13.3259 150.636 13.0939C150.846 12.8646 151.092 12.6367 151.375 12.4101C151.657 12.1808 151.98 11.9392 152.345 11.6853C152.709 11.4342 153.117 11.168 153.569 10.8869C154.02 10.6057 154.507 10.33 155.028 10.0598C155.546 9.79224 156.082 9.54383 156.636 9.31453C157.191 9.08795 157.75 8.88322 158.315 8.70033C158.879 8.51743 159.444 8.34545 160.008 8.1844C160.57 8.02334 161.084 7.86365 161.548 7.70532C162.012 7.54699 162.506 7.40641 163.03 7.28357C163.556 7.16073 164.046 7.06792 164.5 7.00513C164.954 6.93962 165.368 6.89867 165.74 6.88229C166.109 6.86864 166.45 6.86591 166.764 6.8741C167.074 6.88229 167.354 6.89458 167.603 6.91095C167.852 6.93006 168.057 6.956 168.219 6.98875C168.38 7.02151 168.496 7.06655 168.565 7.12388C168.632 7.1812 168.659 7.25491 168.646 7.34499C168.63 7.43507 168.582 7.52788 168.5 7.62343C168.417 7.7217 168.308 7.81588 168.172 7.90596C168.039 7.99877 167.885 8.08203 167.71 8.15573C167.539 8.22944 167.351 8.28676 167.148 8.32771C166.948 8.37139 166.733 8.38913 166.502 8.38094C166.271 8.37275 166.049 8.36047 165.836 8.34409C165.623 8.32498 165.427 8.29632 165.247 8.2581C165.065 8.21988 164.904 8.16665 164.766 8.09841C164.627 8.03016 164.517 7.95783 164.435 7.88139C164.35 7.80769 164.299 7.73398 164.281 7.66028C164.26 7.5893 164.281 7.51833 164.342 7.44736C164.401 7.37911 164.507 7.32042 164.658 7.27128C164.807 7.22215 164.992 7.18939 165.212 7.17301C165.43 7.15663 165.663 7.158 165.909 7.17711C166.155 7.19622 166.418 7.23853 166.698 7.30404C166.98 7.36956 167.256 7.45282 167.526 7.55382C167.798 7.65755 168.044 7.78175 168.265 7.92643C168.485 8.07384 168.692 8.24172 168.884 8.43008C169.074 8.61843 169.271 8.81907 169.473 9.03199C169.676 9.24219 169.872 9.45648 170.062 9.67486C170.252 9.89324 170.441 10.1157 170.628 10.3423C170.815 10.5716 171.003 10.8023 171.19 11.0343C171.377 11.2663 171.561 11.4984 171.741 11.7304C171.923 11.9624 172.077 12.1808 172.202 12.3855C172.328 12.5903 172.44 12.78 172.537 12.9547C172.635 13.1294 172.721 13.2864 172.795 13.4256C172.867 13.5648 172.925 13.6754 172.968 13.7572C173.009 13.8419 173.048 13.9019 173.084 13.9374C173.12 13.9756 173.18 14.0016 173.265 14.0152C173.347 14.0289 173.457 14.0289 173.596 14.0152C173.732 14.0043 173.869 13.9756 174.008 13.9292C174.146 13.8855 174.282 13.8255 174.416 13.7491C174.549 13.6726 174.703 13.5839 174.878 13.4829C175.052 13.3819 175.248 13.2632 175.466 13.1267C175.685 12.9902 175.905 12.84 176.129 12.6763C176.352 12.5125 176.592 12.3459 176.848 12.1767C177.105 12.0075 177.388 11.8355 177.699 11.6608C178.007 11.4861 178.321 11.3059 178.642 11.1203C178.96 10.9347 179.258 10.7531 179.535 10.5757C179.812 10.3982 180.067 10.2372 180.301 10.0925C180.537 9.94784 180.764 9.80452 180.982 9.66257C181.203 9.52063 181.412 9.37185 181.61 9.21625C181.807 9.06066 181.974 8.91188 182.11 8.76993C182.249 8.63072 182.347 8.50651 182.406 8.39732C182.463 8.28813 182.481 8.1803 182.46 8.07384C182.437 7.96738 182.389 7.86501 182.314 7.76674C182.242 7.66847 182.154 7.5702 182.049 7.47192C181.946 7.37365 181.829 7.27265 181.698 7.16892C181.567 7.06519 181.426 6.96009 181.275 6.85363C181.123 6.74717 180.972 6.64071 180.821 6.53424C180.669 6.42505 180.52 6.3145 180.374 6.20258C180.23 6.09065 180.098 5.97054 179.978 5.84225C179.86 5.71395 179.771 5.60202 179.712 5.50648C179.656 5.41094 179.608 5.32905 179.57 5.2608C179.531 5.18983 179.514 5.14479 179.52 5.12568C179.525 5.10657 179.562 5.12022 179.631 5.16662C179.703 5.21576 179.804 5.29492 179.935 5.40412C180.069 5.51604 180.227 5.65935 180.409 5.83406C180.588 6.00876 180.785 6.21759 180.998 6.46054C181.211 6.70076 181.563 7.11842 182.056 7.71351" stroke="black" stroke-linecap="round" stroke-linejoin="round"/>
</svg>
