<?xml version="1.0" encoding="UTF-8"?>
<svg id="Layer_1" xmlns="http://www.w3.org/2000/svg" version="1.1" viewBox="0 0 314.99 160.46">
  <!-- Generator: Adobe Illustrator 29.8.1, SVG Export Plug-In . SVG Version: 2.1.1 Build 2)  -->
  <defs>
    <style>
      .st0 {
        fill: none;
        stroke: #262626;
        stroke-miterlimit: 10;
        stroke-width: 4px;
      }
    </style>
  </defs>
  <path class="st0" d="M10.51,44.48c3.62-.35,10.26-1.2,16.94,2.23,11.66,5.98,18.09,13.49,21.38,21.07,5.52,12.72,5.96,31.74-1.56,35.41-9.81,4.79-36.95-14.75-40.24-40.32-2.39-18.57,8.78-32.73,12.5-36.96,14.41-16.41,36.59-15.63,52.35-15.41,33.28.48,61.67,16.4,60.75,19.7-.42,1.5-6.69-.25-19.79-.33-8.83-.05-52.39-.3-59.89,17.17-1.64,3.82-.93,7.03,7.42,27.53,16.45,40.41,22.35,49.19,18.13,55.69-5.27,8.12-23.95,9.1-31.27,1.32-11.83-12.58,3.39-50.95,19.07-52.53,15.88-1.59,38.99,33.85,29.7,53.96-10.14,21.95-58.48,24.28-69.99,7.7C9.33,116.73,59.53,38.13,94.56,43.14c8.81,1.26,17.73,7.96,22.68,15.8,11.5,18.22-4.18,33.55,5.64,50.75,10.04,17.57,39.75,24.94,54.31,15.83,1.8-1.13,3.56-2.33,4.7-4.6,14.32-28.62-19.66-68.92-56.18-52.18-16.16,7.4-20.81,14.8-20.98,20.76-.13,4.42,2.13,10.76,6.7,12.71,16.97,7.24,51.53-52.63,61.73-47.23,5.58,2.95,2.18,24.52-6.17,41.83-11.98,24.86-29.26,30.81-26.86,37.87,4.01,11.79,58.54,13.78,68.7-7.05,10.71-21.96-32.73-59.36-25.1-67.82,9.25-10.25,72.23,45.59,99.25,26.35,4.35-3.1,9.27-9.21,8.34-15.01-5.01-31.18-173.92-20.59-174.08-26.75-.13-4.73,99.02-30.2,138.27,15.41,16.29,18.92,23.71,51.76,12.8,60.94-9.82,8.26-36.68-.83-39.67-13.38-2.76-11.62,14.19-29.3,44.92-40.07"/>
</svg>