<svg width="38" height="17" viewBox="0 0 38 17" fill="none" xmlns="http://www.w3.org/2000/svg">
<path d="M0.500122 2.85071C0.983122 2.58865 1.48008 2.34026 1.99408 2.1055C2.50908 1.87074 3.03913 1.65779 3.58313 1.46671C4.12713 1.27289 4.67511 1.10913 5.22711 0.975372C5.77911 0.844342 6.3241 0.750141 6.8631 0.692811C7.4021 0.635481 7.93907 0.627321 8.47607 0.668271C9.01207 0.706481 9.54609 0.795211 10.0771 0.934431C10.6081 1.07365 11.1201 1.25516 11.6131 1.479C12.1081 1.70285 12.5811 1.95945 13.0331 2.2488C13.4851 2.53543 13.9121 2.8507 14.3151 3.19465C14.7181 3.53587 15.0831 3.91532 15.4121 4.33298C15.7381 4.74791 16.0161 5.19565 16.2471 5.67605C16.4781 6.15375 16.6551 6.63965 16.7781 7.13375C16.9041 7.62785 16.9721 8.11785 16.9821 8.60375C16.9921 9.09235 16.9531 9.57415 16.8631 10.0492C16.7731 10.5269 16.6461 10.9732 16.4821 11.3881C16.3181 11.8031 16.1161 12.1634 15.8781 12.4691C15.6391 12.7749 15.3601 13.0301 15.0421 13.2348C14.7271 13.4396 14.4561 13.8108 14.2301 14.3486C14.0041 14.8836 13.6441 15.1784 13.1481 15.233C12.6531 15.2904 12.1411 15.2767 11.6131 15.1921C11.0871 15.1075 10.5721 14.9628 10.0691 14.758C9.56409 14.556 9.09011 14.3145 8.64911 14.0333C8.21011 13.7522 7.80809 13.4464 7.44409 13.1161C7.08009 12.7858 6.75612 12.4282 6.47412 12.0433C6.19212 11.6584 5.95209 11.2449 5.75409 10.8026C5.55909 10.3604 5.4031 9.90175 5.2851 9.42675C5.1671 8.95175 5.09509 8.47815 5.06909 8.00585C5.04609 7.53365 5.07913 7.06685 5.16913 6.60555C5.25913 6.14695 5.4031 5.70335 5.6001 5.27475C5.7981 4.84893 6.02408 4.46537 6.27808 4.12415C6.53408 3.78019 6.8101 3.4881 7.1051 3.24788C7.3981 3.00766 7.72113 2.79339 8.07513 2.60504C8.42913 2.41395 8.81613 2.22834 9.23413 2.04817C9.65213 1.868 10.0861 1.70282 10.5351 1.55268C10.9841 1.40254 11.4331 1.27974 11.8821 1.1842C12.3311 1.08866 12.7921 1.00809 13.2641 0.942581C13.7341 0.877061 14.2171 0.826562 14.7151 0.791082C15.2101 0.755592 15.7041 0.746061 16.1971 0.762441C16.6901 0.778821 17.1731 0.812942 17.6481 0.864802C18.1251 0.919402 18.6041 0.972642 19.0841 1.0245C19.5611 1.0791 20.0221 1.1337 20.4661 1.1883C20.9101 1.24289 21.3381 1.32204 21.7511 1.42577C22.1621 1.5295 22.5651 1.66736 22.9601 1.83934C23.3581 2.01131 23.7391 2.1983 24.1031 2.40031C24.4701 2.60231 24.8181 2.81252 25.1461 3.0309C25.4721 3.25201 25.7891 3.4895 26.0971 3.74337C26.4021 3.99724 26.6941 4.25653 26.9711 4.52132C27.2481 4.78338 27.7141 5.0236 28.3681 5.24195C29.0221 5.45765 29.4611 5.77155 29.6841 6.18375C29.9051 6.59875 30.1241 7.00405 30.3431 7.39985C30.5581 7.79575 30.7661 8.18065 30.9661 8.55465C31.1641 8.92855 31.3451 9.30935 31.5091 9.69695C31.6731 10.0819 31.8131 10.4764 31.9281 10.8804C32.0461 11.2844 32.1431 11.6748 32.2171 12.0515C32.2941 12.4309 32.3611 12.7871 32.4171 13.1202C32.4741 13.4532 32.5191 13.7644 32.5521 14.0538C32.5851 14.3431 32.5961 14.6107 32.5831 14.8564C32.5701 15.0993 32.5281 15.3163 32.4561 15.5074C32.3841 15.6985 32.2851 15.8595 32.1591 15.9905C32.0341 16.1243 31.8961 16.2199 31.7481 16.2772C31.5991 16.3345 31.4381 16.3577 31.2661 16.3468C31.0941 16.3359 30.9081 16.284 30.7081 16.1912C30.5051 16.0956 30.2891 15.9605 30.0581 15.7858C29.8291 15.6111 29.5921 15.3955 29.3461 15.1389C29.0991 14.8795 28.8551 14.5779 28.6141 14.234C28.3761 13.8873 28.1451 13.4942 27.9211 13.0547C27.6981 12.6125 27.4741 12.1607 27.2481 11.6993C27.0221 11.238 26.7961 10.778 26.5701 10.3194C26.3451 9.86075 26.1321 9.38995 25.9311 8.90675C25.7291 8.42355 25.5441 7.93355 25.3771 7.43675C25.2081 6.93995 25.0651 6.45815 24.9501 5.99135C24.8321 5.52725 24.7371 5.08645 24.6651 4.66877C24.5961 4.25384 24.5391 3.86075 24.4961 3.4895C24.4551 3.11825 24.4351 2.76608 24.4381 2.43305C24.4431 2.10001 24.4841 1.79976 24.5611 1.53224C24.6381 1.26745 24.7451 1.05313 24.8811 0.889352C25.0191 0.722832 25.1951 0.606821 25.4081 0.541311C25.6241 0.473061 26.0341 0.489441 26.6401 0.590441C27.2431 0.691441 27.7321 0.796551 28.1061 0.905741C28.4781 1.01493 28.8621 1.15279 29.2571 1.31931C29.6501 1.48855 30.0471 1.67554 30.4501 1.88027C30.8511 2.08774 31.2591 2.31569 31.6741 2.5641C32.0871 2.81251 32.5101 3.08275 32.9411 3.37484C33.3691 3.66693 33.8001 3.97266 34.2341 4.29204C34.6651 4.6087 35.0891 4.92944 35.5041 5.25425C35.9201 5.57915 36.5501 6.06095 37.3941 6.69975" stroke="black" stroke-linecap="round" stroke-linejoin="round"/>
</svg>
