<?xml version="1.0" encoding="UTF-8"?>
<svg id="Layer_1" xmlns="http://www.w3.org/2000/svg" version="1.1" viewBox="0 0 208.52 75.2">
  <!-- Generator: Adobe Illustrator 29.8.1, SVG Export Plug-In . SVG Version: 2.1.1 Build 2)  -->
  <defs>
    <style>
      .st0 {
        fill: none;
        stroke: #272626;
        stroke-miterlimit: 10;
        stroke-width: 4px;
      }
    </style>
  </defs>
  <path class="st0" d="M144.49,41.89c7.93-7.19,12.8-19.5,9.43-23.49-4.62-5.47-28.04.77-45.17,13.12-7.79,5.62-13.09,11.65-18.87,9.93-4.5-1.34-8.54-7.15-7.93-12.33,1.71-14.4,39.34-23.36,39.35-23.36h0s3.42-1.98,6.68-.58c5.52,2.37,3.27,13.52,4.55,30.97,1.56,21.33,6.57,29.34,2.27,32.6-4.11,3.11-13.83-.31-20.26-6.17-16.62-15.16-5.43-41.39-20.99-51.54-6.6-4.3-14.31-3.3-14.22-4.8.1-1.71,10.22-3.63,19.9-1.57,9.61,2.05,21.25,8.53,20.53,12.91-1.67,10.15-68.4.72-69.81,8.66-1.47,8.27,67.11,40.52,94.54,15.64Z"/>
</svg>