<svg width="615" height="24" viewBox="0 0 615 24" fill="none" xmlns="http://www.w3.org/2000/svg">
<path d="M0.500122 6.76965C0.700277 6.03534 0.868357 5.52214 1.00436 5.23005C1.14036 4.93796 1.29946 4.67999 1.48165 4.45615C1.66128 4.23231 1.86528 4.04395 2.09367 3.89108C2.32205 3.74095 2.56454 3.64132 2.82115 3.59218C3.0752 3.54304 3.34079 3.55942 3.61792 3.64131C3.89506 3.72321 4.17733 3.8597 4.46473 4.05078C4.75213 4.2446 5.0344 4.47524 5.31154 4.74276C5.58868 5.01028 5.86582 5.31601 6.14296 5.65996C6.42009 6.00664 6.6921 6.39973 6.95897 6.83923C7.22585 7.28145 7.47476 7.77011 7.70571 8.30515C7.93922 8.84292 8.14707 9.41205 8.32927 10.0126C8.50889 10.6159 8.66799 11.2219 8.80656 11.8307C8.94513 12.4421 9.06317 13.0509 9.16068 13.6569C9.25819 14.2656 9.33004 14.8634 9.37623 15.4503C9.42499 16.04 9.43525 16.6037 9.40702 17.1414C9.38136 17.6819 9.32619 18.191 9.24151 18.6687C9.15683 19.1465 9.07087 19.5859 8.98362 19.9872C8.89637 20.3885 8.79886 20.7447 8.69108 21.0559C8.58331 21.3671 8.4627 21.6223 8.32927 21.8216C8.19583 22.0182 8.06752 22.1492 7.94435 22.2147C7.82118 22.2803 7.71084 22.2844 7.61333 22.227C7.51581 22.167 7.41445 22.0578 7.30925 21.8994C7.20147 21.7411 7.09498 21.5295 6.98977 21.2647C6.88456 21 6.79988 20.6888 6.73572 20.3312C6.67414 19.9709 6.64976 19.5901 6.66259 19.1888C6.67542 18.7875 6.72161 18.3698 6.80116 17.9358C6.88071 17.5017 6.9872 17.0377 7.12064 16.5436C7.25151 16.0468 7.41574 15.5431 7.61333 15.0327C7.81091 14.5195 8.04443 14.0213 8.31387 13.5381C8.58331 13.0549 8.7886 12.58 8.92973 12.1132C9.07343 11.6464 9.34287 11.1755 9.73805 10.7005C10.1358 10.2255 10.5489 9.77374 10.9775 9.34516C11.406 8.91659 11.8371 8.5126 12.2708 8.13316C12.7045 7.75099 13.1522 7.4084 13.6141 7.10539C14.0786 6.80512 14.5546 6.54714 15.0422 6.33149C15.5323 6.11857 16.0147 5.94659 16.4894 5.81556C16.9642 5.68453 17.4286 5.58627 17.8828 5.52075C18.3345 5.45797 18.7681 5.42932 19.1838 5.43478C19.5995 5.44024 19.9986 5.46615 20.3809 5.51256C20.7633 5.55623 21.1341 5.60673 21.4933 5.66406C21.8526 5.72138 22.1939 5.78283 22.5172 5.84835C22.8379 5.91386 23.1176 5.9889 23.3563 6.07353C23.5949 6.15815 23.7848 6.26188 23.926 6.38472C24.0671 6.50756 24.1813 6.63589 24.2685 6.76965C24.3558 6.90614 24.4353 7.03989 24.5072 7.17092C24.5765 7.30195 24.6278 7.44118 24.6611 7.58858C24.6945 7.73326 24.6971 7.8875 24.6688 8.05128C24.6381 8.21507 24.5816 8.37747 24.4995 8.53853C24.4199 8.69958 24.3327 8.87156 24.2377 9.05446C24.1428 9.23735 24.0479 9.44483 23.9529 9.67686C23.858 9.90889 23.7553 10.1682 23.645 10.4549C23.5346 10.7415 23.4166 11.0499 23.2909 11.3802C23.1677 11.7105 23.0471 12.0641 22.929 12.4408C22.8136 12.8175 22.6917 13.2037 22.5634 13.5995C22.4325 13.9926 22.2811 14.3816 22.1092 14.7665C21.9347 15.1514 21.7551 15.5186 21.5703 15.868C21.383 16.2201 21.2252 16.5409 21.0968 16.8302C20.966 17.1223 20.8659 17.3721 20.7966 17.5795C20.7273 17.7897 20.6863 17.9508 20.6734 18.0627C20.658 18.1774 20.6131 18.3098 20.5387 18.4599C20.4669 18.6128 20.5002 18.6387 20.6388 18.5377C20.7774 18.4367 20.9339 18.3016 21.1084 18.1324C21.2803 17.9604 21.4638 17.7638 21.6588 17.5427C21.8538 17.3216 22.0591 17.0814 22.2747 16.822C22.4902 16.5627 22.7122 16.287 22.9406 15.9949C23.169 15.7028 23.4063 15.4053 23.6527 15.1023C23.899 14.7993 24.1646 14.5017 24.4494 14.2096C24.7368 13.9203 25.0397 13.6378 25.3578 13.3621C25.6786 13.0891 25.9955 12.8379 26.3086 12.6086C26.6216 12.3793 26.9309 12.1746 27.2362 11.9944C27.5442 11.8115 27.8547 11.656 28.1677 11.5277C28.4782 11.3994 28.7733 11.2997 29.053 11.2287C29.3327 11.1605 29.5829 11.1236 29.8036 11.1182C30.0268 11.1127 30.2437 11.1318 30.4541 11.1755C30.6671 11.2191 30.8826 11.2874 31.1008 11.3802C31.3189 11.473 31.5242 11.5809 31.7166 11.7037C31.9065 11.8293 32.0707 11.9535 32.2093 12.0763C32.3453 12.1992 32.471 12.3124 32.5865 12.4162C32.702 12.5172 32.8098 12.6059 32.9098 12.6823C33.0125 12.7615 33.1126 12.8216 33.2101 12.8625C33.3076 12.9062 33.4051 12.9307 33.5026 12.9362C33.5976 12.9417 33.6874 12.9116 33.7721 12.8461C33.8542 12.7779 33.9209 12.6714 33.9722 12.5267C34.0235 12.3793 34.0851 12.2019 34.157 11.9944C34.2288 11.7842 34.3161 11.5563 34.4187 11.3106C34.5239 11.0622 34.6355 10.8001 34.7536 10.5244C34.8716 10.2487 35.0012 9.96621 35.1423 9.67686C35.2835 9.38477 35.4516 9.07767 35.6466 8.75556C35.8442 8.43071 36.0482 8.10997 36.2586 7.79332C36.469 7.47393 36.8449 7.36198 37.3864 7.45753C37.9253 7.55034 38.2935 7.51759 38.4911 7.35926C38.6913 7.20366 38.8901 7.07128 39.0877 6.96209C39.2879 6.85563 39.4649 6.77917 39.6189 6.73276C39.7729 6.68909 39.9166 6.67955 40.05 6.70412C40.1834 6.72869 40.3079 6.79146 40.4234 6.89246C40.5414 6.99619 40.6351 7.13131 40.7043 7.29783C40.7762 7.46435 40.8185 7.65681 40.8314 7.87519C40.8416 8.09357 40.8327 8.34333 40.8044 8.6245C40.7762 8.90294 40.7236 9.21551 40.6466 9.56219C40.5696 9.91161 40.4721 10.2787 40.3541 10.6636C40.236 11.0513 40.1013 11.4444 39.9499 11.8429C39.7985 12.2442 39.642 12.6455 39.4803 13.0468C39.3187 13.448 39.157 13.8479 38.9953 14.2465C38.8337 14.645 38.6694 15.0177 38.5026 15.3644C38.3333 15.7083 38.1601 16.0154 37.983 16.2857C37.8085 16.5532 37.6404 16.7893 37.4788 16.994C37.3145 17.196 37.1708 17.3789 37.0477 17.5427C36.9245 17.7038 36.8219 17.8389 36.7397 17.9481C36.6576 18.0573 36.623 18.1282 36.6358 18.161C36.6512 18.191 36.7269 18.191 36.8629 18.161C36.9963 18.1282 37.1734 18.0764 37.3941 18.0054C37.6122 17.9344 37.8547 17.8403 38.1216 17.7229C38.3885 17.6055 38.681 17.4649 38.9992 17.3011C39.3199 17.1401 39.6676 16.9654 40.0423 16.777C40.4144 16.5886 40.8057 16.3839 41.2163 16.1628C41.6243 15.9417 42.0451 15.7069 42.4788 15.4585C42.9099 15.2129 43.3538 14.974 43.8106 14.742C44.2674 14.5099 44.7318 14.2929 45.204 14.0909C45.6787 13.8917 46.1483 13.6937 46.6128 13.4972C47.0772 13.3034 47.4994 13.1014 47.8791 12.8912C48.2589 12.681 48.6464 12.4708 49.0416 12.2606C49.4393 12.0504 49.8229 11.8429 50.1925 11.6382C50.5594 11.4334 50.9084 11.2274 51.2394 11.0199C51.5679 10.8125 51.8707 10.6077 52.1478 10.4057C52.4224 10.201 52.6687 10.0058 52.8869 9.82016C53.105 9.63181 53.3 9.45572 53.4719 9.29193C53.6413 9.12542 53.7876 8.96575 53.9107 8.81289C54.0339 8.66275 54.1442 8.50988 54.2418 8.35429C54.3418 8.19869 54.4368 8.05262 54.5266 7.91613C54.6164 7.78237 54.7088 7.66773 54.8037 7.57219C54.8987 7.47938 54.9988 7.40703 55.104 7.35516C55.2092 7.30329 55.3144 7.26507 55.4196 7.2405C55.5248 7.21593 55.6313 7.2214 55.7391 7.25689C55.8469 7.29238 55.9495 7.35925 56.047 7.45753C56.1445 7.55307 56.2356 7.67592 56.3203 7.82606C56.405 7.97347 56.4832 8.14955 56.5551 8.35429C56.6269 8.55629 56.6924 8.79783 56.7514 9.079C56.8104 9.35744 56.8605 9.67138 56.9015 10.0208C56.9426 10.3675 56.9836 10.7373 57.0247 11.1304C57.0657 11.5235 57.1145 11.9207 57.171 12.322C57.2274 12.7205 57.2851 13.1109 57.3442 13.4931C57.4057 13.8725 57.4545 14.2479 57.4904 14.6191C57.5238 14.9876 57.5405 15.348 57.5405 15.7001C57.543 16.0522 57.5289 16.3976 57.4981 16.7361C57.4673 17.0746 57.4199 17.3953 57.3557 17.6983C57.2916 18.0013 57.2082 18.2688 57.1055 18.5008C57.0054 18.7356 56.8913 18.9444 56.7629 19.1273C56.6346 19.3075 56.4948 19.4617 56.3434 19.59C56.1894 19.7211 56.0419 19.8016 55.9007 19.8316C55.757 19.8644 55.639 20.091 55.5466 20.5113C55.4542 20.9345 55.3503 21.0409 55.2348 20.8307C55.1168 20.6233 54.9988 20.3571 54.8807 20.0322C54.7601 19.7101 54.6536 19.3307 54.5612 18.894C54.4663 18.4572 54.3919 17.9835 54.338 17.4731C54.2867 16.9626 54.2623 16.4235 54.2649 15.8557C54.2674 15.2879 54.3021 14.7037 54.3688 14.1032C54.4381 13.5026 54.5343 12.8884 54.6575 12.2606C54.7806 11.63 54.9346 11.0049 55.1194 10.3852C55.3016 9.76557 55.5235 9.16501 55.7853 8.58356C56.0444 8.00212 56.3395 7.45206 56.6706 6.9334C57.0016 6.41201 57.3698 5.93161 57.7753 5.49211C58.1781 5.04989 58.6298 4.65543 59.1302 4.30875C59.628 3.95934 60.172 3.66587 60.7622 3.42838C61.3498 3.18816 61.9503 2.99981 62.5636 2.86332C63.1769 2.7241 63.7825 2.64221 64.3804 2.61765C64.9783 2.59035 65.5788 2.63127 66.1818 2.74046C66.7848 2.84965 67.3968 3.01889 68.0178 3.24819C68.6363 3.48022 69.2585 3.75183 69.8847 4.06303C70.5108 4.37149 71.1266 4.71545 71.7322 5.09489C72.3378 5.47706 72.9139 5.89201 73.4605 6.33969C74.0045 6.7901 74.5126 7.2596 74.9848 7.74823C75.4544 8.23959 75.8944 8.73099 76.305 9.22235C76.713 9.71371 77.0813 10.2132 77.4097 10.721C77.7356 11.226 78.0063 11.7269 78.2219 12.2237C78.44 12.7206 78.6004 13.1996 78.703 13.661C78.8057 14.1196 78.8531 14.5536 78.8454 14.963C78.8403 15.3725 78.7839 15.7561 78.6761 16.1137C78.5709 16.4685 78.4297 16.7879 78.2527 17.0718C78.0782 17.3557 77.8729 17.6082 77.6368 17.8293C77.4007 18.0477 77.1544 18.378 76.8978 18.8202C76.6412 19.2625 76.3474 19.5437 76.0163 19.6638C75.6853 19.7839 75.3504 19.863 75.0117 19.9012C74.6704 19.9422 74.3163 19.9408 73.9493 19.8971C73.5849 19.8507 73.2308 19.773 72.887 19.6638C72.5431 19.5546 72.2339 19.4276 71.9593 19.2829C71.6873 19.1383 71.4384 18.9772 71.2126 18.7998C70.9868 18.6224 70.7661 18.4163 70.5506 18.1815C70.335 17.944 70.131 17.6997 69.9385 17.4485C69.7435 17.1974 69.5857 16.9572 69.4651 16.7279C69.3419 16.4986 69.2739 16.287 69.2611 16.0932C69.2483 15.9021 69.2752 15.7206 69.3419 15.5486C69.4112 15.3766 69.4997 15.2155 69.6075 15.0654C69.7153 14.918 69.8423 14.7856 69.9886 14.6682C70.1323 14.5509 70.2952 14.4321 70.4774 14.312C70.657 14.1919 70.8392 14.0581 71.024 13.9107C71.2088 13.7633 71.3935 13.6009 71.5783 13.4235C71.763 13.2461 71.9696 13.0536 72.198 12.8461C72.4238 12.6387 72.6663 12.423 72.9255 12.1991C73.1846 11.9753 73.4566 11.7529 73.7415 11.5318C74.0263 11.3079 74.3214 11.0881 74.6268 10.8725C74.9322 10.6541 75.2439 10.4316 75.5621 10.205C75.8803 9.97846 76.1972 9.75735 76.5129 9.5417C76.8285 9.32605 77.1467 9.12405 77.4674 8.9357C77.7856 8.74461 78.0987 8.56989 78.4066 8.41157C78.7146 8.25051 79.0187 8.09764 79.3189 7.95297C79.6191 7.80829 79.9258 7.67317 80.2388 7.5476C80.5519 7.42203 80.865 7.32651 81.178 7.26099C81.4936 7.19821 81.808 7.16682 82.1211 7.16682C82.4341 7.16955 82.7472 7.1982 83.0602 7.25279C83.3707 7.30739 83.6915 7.38927 84.0225 7.49846C84.351 7.60765 84.6589 7.74825 84.9463 7.92023C85.2337 8.0922 85.5134 8.30652 85.7854 8.56312C86.06 8.81972 86.3282 9.11039 86.5899 9.43524C86.8542 9.76008 87.1095 10.0945 87.3559 10.4385C87.5997 10.7797 87.8293 11.1195 88.0449 11.458C88.2604 11.7993 88.4593 12.1432 88.6415 12.4899C88.8237 12.8393 88.9892 13.1887 89.138 13.5381C89.2894 13.8875 89.419 14.2274 89.5268 14.5577C89.6346 14.888 89.7449 15.1897 89.8578 15.4626C89.9707 15.7329 90.0901 15.9581 90.2158 16.1383C90.3441 16.3184 90.4609 16.4549 90.5661 16.5477C90.6713 16.6405 90.7572 16.7033 90.824 16.7361C90.8907 16.7688 90.9446 16.7702 90.9856 16.7402C91.0292 16.7101 91.0587 16.6433 91.0741 16.5395C91.0921 16.4358 91.1062 16.3088 91.1165 16.1587C91.1242 16.0086 91.128 15.8475 91.128 15.6756C91.1306 15.5036 91.1088 15.3152 91.0626 15.1105C91.019 14.9085 90.9548 14.6887 90.8701 14.4512C90.7855 14.2164 90.6905 13.994 90.5853 13.7838C90.4775 13.5709 90.3582 13.3798 90.2273 13.2106C90.0965 13.0386 89.9566 12.883 89.8078 12.7438C89.6564 12.6045 89.5063 12.4858 89.3574 12.3875C89.206 12.2893 89.0585 12.2196 88.9148 12.1787C88.7711 12.135 88.6248 12.1159 88.476 12.1214C88.3297 12.1268 88.1822 12.1527 88.0333 12.1991C87.8845 12.2483 87.7395 12.3179 87.5984 12.408C87.4572 12.4981 87.32 12.6032 87.1865 12.7233C87.0531 12.8461 86.9222 12.969 86.7939 13.0918C86.6656 13.2146 86.5578 13.3389 86.4706 13.4644C86.3859 13.59 86.2627 13.6405 86.1011 13.6159C85.9394 13.5941 85.8688 13.6009 85.8894 13.6364C85.9099 13.6746 85.9599 13.6828 86.0395 13.661C86.1165 13.6419 86.2255 13.605 86.3667 13.5504C86.5104 13.4958 86.6784 13.4126 86.8709 13.3006C87.0659 13.186 87.2853 13.0359 87.5291 12.8502C87.7729 12.6646 88.0474 12.4571 88.3528 12.2278C88.6582 11.9985 89.002 11.7515 89.3844 11.4867C89.7642 11.2192 90.1927 10.9312 90.67 10.6227C91.1473 10.3115 91.6489 9.99214 92.175 9.66456C92.701 9.33426 93.2489 9.00941 93.8186 8.69003C94.3908 8.36791 94.9862 8.05944 95.6046 7.76463C96.2256 7.46708 96.8594 7.18594 97.5061 6.92115C98.1527 6.65363 98.8032 6.4202 99.4576 6.22093C100.112 6.02165 100.756 5.86605 101.39 5.75413C102.021 5.64221 102.629 5.57533 103.214 5.55349C103.799 5.53166 104.351 5.55077 104.869 5.61083C105.39 5.67361 105.873 5.76781 106.317 5.89338C106.763 6.01895 107.169 6.17588 107.533 6.36423C107.9 6.54986 108.232 6.7737 108.53 7.03576C108.828 7.29782 109.088 7.5995 109.311 7.94072C109.535 8.28467 109.722 8.66139 109.873 9.07085C110.022 9.47759 110.15 9.89112 110.258 10.3115C110.369 10.7292 110.462 11.1427 110.539 11.5522C110.616 11.9617 110.661 12.3452 110.674 12.7028C110.687 13.0604 110.661 13.3921 110.597 13.6978C110.535 14.0008 110.458 14.2847 110.366 14.5495C110.271 14.817 110.183 15.0654 110.1 15.2947C110.018 15.524 109.932 15.737 109.843 15.9335C109.753 16.1301 109.66 16.3184 109.565 16.4985C109.47 16.6814 109.392 16.8712 109.331 17.0677C109.269 17.2615 109.201 17.4226 109.127 17.5509C109.055 17.6765 108.964 17.7993 108.853 17.9194C108.746 18.0395 108.62 18.1473 108.476 18.2429C108.332 18.3357 108.19 18.4039 108.049 18.4476C107.908 18.4886 107.773 18.509 107.645 18.509C107.519 18.509 107.391 18.4872 107.26 18.4435C107.126 18.3998 106.988 18.3262 106.844 18.2224C106.7 18.116 106.554 17.9904 106.405 17.8457C106.256 17.701 106.115 17.5414 105.982 17.3667C105.848 17.1892 105.715 16.994 105.582 16.7811C105.446 16.5655 105.303 16.3321 105.154 16.0809C105.005 15.8325 104.863 15.5691 104.727 15.2906C104.594 15.0149 104.473 14.7215 104.365 14.4103C104.26 14.0991 104.16 13.762 104.065 13.3989C103.97 13.0358 103.893 12.6564 103.834 12.2606C103.778 11.8675 103.754 11.473 103.765 11.0772C103.775 10.6841 103.81 10.2965 103.869 9.91433C103.925 9.53216 103.993 9.15002 104.073 8.76785C104.152 8.38568 104.261 8.03214 104.4 7.7073C104.536 7.38245 104.719 7.10405 104.95 6.87202C105.179 6.63726 105.444 6.43521 105.747 6.26596C106.05 6.09672 106.383 5.93432 106.748 5.77872C107.11 5.62039 107.507 5.47432 107.941 5.34056C108.377 5.20407 108.842 5.09081 109.334 5.00072C109.825 4.90791 110.342 4.83556 110.886 4.78369C111.432 4.7291 111.997 4.69498 112.579 4.68133C113.162 4.66495 113.749 4.68817 114.342 4.75095C114.935 4.81374 115.535 4.91611 116.144 5.05805C116.749 5.20273 117.362 5.38156 117.983 5.59448C118.604 5.80467 119.3 5.94796 120.07 6.02439C120.842 6.10355 121.505 6.36016 122.06 6.79419C122.614 7.23096 123.162 7.67728 123.703 8.13316C124.242 8.58903 124.749 9.0531 125.224 9.52536C125.698 10.0003 126.128 10.4958 126.513 11.0117C126.895 11.5277 127.232 12.0504 127.522 12.58C127.809 13.1123 128.048 13.6391 128.238 14.1605C128.427 14.6819 128.566 15.2019 128.653 15.7206C128.743 16.2365 128.784 16.7306 128.776 17.2029C128.771 17.6751 128.721 18.1078 128.626 18.5008C128.529 18.8939 128.39 19.2515 128.211 19.5736C128.031 19.8958 127.812 20.177 127.552 20.4172C127.296 20.6574 127.002 20.8349 126.671 20.9495C126.34 21.0642 125.986 21.1147 125.609 21.101C125.231 21.0846 124.844 21.0164 124.446 20.8963C124.046 20.7762 123.635 20.6096 123.214 20.3967C122.791 20.1838 122.373 19.9272 121.96 19.6269C121.546 19.3266 121.168 18.9922 120.824 18.6237C120.48 18.2525 120.177 17.8607 119.916 17.4485C119.654 17.0391 119.424 16.6119 119.227 16.1669C119.029 15.7247 118.875 15.2702 118.765 14.8034C118.652 14.3393 118.588 13.8794 118.572 13.4235C118.557 12.9676 118.566 12.5349 118.599 12.1255C118.63 11.7133 118.676 11.3257 118.738 10.9626C118.799 10.6023 118.897 10.2651 119.03 9.95117C119.166 9.63724 119.337 9.34926 119.542 9.0872C119.75 8.82241 119.98 8.58492 120.231 8.37473C120.483 8.16727 120.76 7.98575 121.063 7.83016C121.366 7.67729 121.702 7.55718 122.071 7.46982C122.441 7.38247 122.813 7.3415 123.188 7.34696C123.562 7.35242 123.952 7.47117 124.358 7.7032C124.761 7.9325 125.125 8.12496 125.451 8.28056C125.777 8.43616 126.095 8.61361 126.405 8.81289C126.718 9.01216 127.006 9.22232 127.268 9.44343C127.529 9.66455 127.776 9.87612 128.007 10.0781C128.24 10.2774 128.463 10.4521 128.676 10.6023C128.892 10.7497 129.092 10.8725 129.277 10.9707C129.462 11.069 129.628 11.1509 129.777 11.2165C129.926 11.282 130.07 11.3215 130.208 11.3352C130.347 11.3515 130.488 11.3448 130.632 11.3147C130.775 11.282 130.927 11.2424 131.086 11.196C131.245 11.1496 131.413 11.095 131.59 11.0322C131.77 10.9667 131.971 10.8834 132.194 10.7824C132.418 10.6787 132.667 10.5627 132.941 10.4344C133.216 10.3061 133.498 10.1764 133.788 10.0454C134.078 9.91709 134.377 9.79966 134.685 9.6932C134.99 9.58401 135.316 9.49123 135.663 9.41479C136.012 9.33836 136.376 9.26874 136.756 9.20596C137.138 9.14044 137.524 9.10222 137.914 9.0913C138.304 9.08038 138.693 9.11861 139.081 9.20596C139.468 9.29058 139.858 9.43118 140.251 9.62772C140.643 9.82427 141.027 10.0659 141.402 10.3525C141.776 10.6391 142.118 10.953 142.425 11.2942C142.733 11.6355 143.004 11.9822 143.238 12.3343C143.471 12.6837 143.687 13.0399 143.884 13.403C144.082 13.7661 144.262 14.1332 144.423 14.5044C144.585 14.8757 144.714 15.2347 144.812 15.5813C144.907 15.928 144.976 16.2474 145.02 16.5395C145.061 16.8316 145.084 17.0882 145.089 17.3093C145.094 17.5304 145.063 17.7242 144.997 17.8907C144.933 18.0573 144.952 18.2292 145.054 18.4067C145.157 18.5814 145.09 18.6974 144.854 18.7547C144.618 18.812 144.368 18.8407 144.104 18.8407C143.839 18.8407 143.551 18.8107 143.238 18.7506C142.922 18.6906 142.595 18.5896 142.256 18.4476C141.915 18.3057 141.58 18.1283 141.251 17.9153C140.92 17.6997 140.597 17.4486 140.282 17.1619C139.966 16.8726 139.654 16.5477 139.346 16.1874C139.038 15.8271 138.746 15.4449 138.469 15.0409C138.191 14.6341 137.937 14.2219 137.706 13.8043C137.475 13.3866 137.273 12.9717 137.098 12.5595C136.926 12.15 136.785 11.746 136.675 11.3475C136.567 10.9489 136.486 10.5586 136.432 10.1764C136.378 9.79423 136.361 9.42572 136.378 9.07085C136.394 8.71598 136.463 8.3884 136.586 8.08812C136.71 7.79058 136.89 7.52713 137.129 7.29783C137.368 7.06853 137.645 6.8679 137.96 6.69592C138.276 6.52122 138.611 6.36424 138.965 6.22503C139.322 6.08308 139.681 5.95206 140.043 5.83195C140.407 5.70911 140.796 5.61628 141.209 5.55349C141.622 5.48798 142.082 5.4498 142.587 5.43888C143.093 5.42796 143.63 5.42928 144.2 5.44293C144.772 5.45658 145.343 5.48528 145.913 5.52895C146.482 5.57263 147.047 5.6354 147.606 5.71729C148.166 5.79918 148.724 5.88517 149.281 5.97526C149.835 6.06534 150.391 6.15954 150.947 6.25782C151.502 6.35882 152.048 6.47482 152.587 6.60585C153.124 6.73961 153.639 6.88426 154.135 7.03986C154.627 7.19546 155.088 7.36607 155.516 7.5517C155.942 7.73732 156.345 7.95437 156.725 8.20279C157.102 8.45392 157.201 8.85518 157.021 9.40659C156.839 9.95801 156.885 10.3402 157.16 10.5531C157.435 10.7688 157.662 10.9939 157.841 11.2287C158.021 11.4635 158.165 11.7078 158.272 11.9617C158.383 12.2128 158.466 12.4735 158.523 12.7438C158.576 13.014 158.602 13.2856 158.6 13.5586C158.597 13.8343 158.57 14.1045 158.519 14.3693C158.47 14.6341 158.416 14.888 158.357 15.1309C158.298 15.3766 158.231 15.6032 158.157 15.8107C158.082 16.0181 158.005 16.2092 157.926 16.3839C157.849 16.5614 157.775 16.7251 157.703 16.8753C157.631 17.0281 157.556 17.1633 157.479 17.2806C157.4 17.4008 157.306 17.4867 157.198 17.5386C157.091 17.5905 156.965 17.6055 156.821 17.5836C156.678 17.5591 156.543 17.4922 156.417 17.383C156.291 17.2765 156.191 17.1305 156.117 16.9449C156.042 16.7565 155.987 16.5286 155.951 16.2611C155.915 15.9963 155.891 15.6892 155.878 15.3398C155.863 14.9931 155.856 14.6232 155.859 14.2301C155.864 13.837 155.869 13.4357 155.874 13.0263C155.879 12.6141 155.882 12.1992 155.882 11.7815C155.882 11.3639 155.886 10.9503 155.894 10.5408C155.899 10.1314 155.914 9.73142 155.94 9.34107C155.963 8.95344 156.003 8.5822 156.059 8.22733C156.113 7.87246 156.173 7.54898 156.24 7.25689C156.307 6.96481 156.375 6.71779 156.444 6.51578C156.516 6.31378 156.592 6.15817 156.671 6.04898C156.751 5.93979 156.839 5.86881 156.937 5.83605C157.037 5.80057 157.151 5.8033 157.279 5.84425C157.405 5.88793 157.542 5.97529 157.691 6.10631C157.837 6.23734 157.972 6.4762 158.095 6.82288C158.218 7.17229 158.339 7.47939 158.457 7.74418C158.575 8.0117 158.716 8.30922 158.881 8.63679C159.045 8.96437 159.222 9.31517 159.412 9.68915C159.604 10.0631 159.808 10.4289 160.024 10.7865C160.242 11.1441 160.473 11.484 160.717 11.8061C160.96 12.1255 161.22 12.4326 161.494 12.7274C161.769 13.0195 162.068 13.2952 162.391 13.5545C162.712 13.8138 163.061 14.0486 163.438 14.2588C163.815 14.469 164.192 14.6587 164.57 14.8279C164.949 14.9972 165.318 15.1433 165.674 15.2661C166.031 15.3917 166.391 15.4899 166.756 15.5609C167.118 15.6346 167.495 15.6919 167.888 15.7328C168.278 15.7738 168.683 15.8039 169.104 15.823C169.522 15.8421 169.94 15.8434 170.359 15.8271C170.777 15.8134 171.175 15.782 171.552 15.7328C171.929 15.6837 172.288 15.6237 172.63 15.5527C172.973 15.4817 173.312 15.4162 173.646 15.3562C173.977 15.2934 174.289 15.2415 174.581 15.2006C174.874 15.1596 175.13 15.1269 175.351 15.1023C175.572 15.0777 175.756 15.0559 175.905 15.0368C176.052 15.0149 176.168 14.9903 176.256 14.963C176.343 14.9385 176.401 14.9057 176.429 14.8648C176.457 14.8266 176.458 14.7761 176.433 14.7133C176.41 14.6532 176.359 14.5891 176.282 14.5208C176.208 14.4526 176.117 14.3748 176.009 14.2875C175.904 14.2001 175.789 14.0991 175.663 13.9845C175.537 13.8671 175.397 13.7442 175.243 13.6159C175.087 13.4876 174.916 13.3552 174.731 13.2188C174.547 13.0823 174.362 12.9403 174.177 12.7929C173.99 12.6428 173.736 12.4189 173.415 12.1214C173.092 11.8265 172.855 11.5891 172.707 11.4089C172.558 11.2315 172.418 11.0472 172.287 10.8561C172.159 10.6623 172.054 10.4657 171.971 10.2665C171.887 10.0699 171.833 9.88156 171.81 9.7014C171.787 9.5185 171.793 9.34652 171.829 9.18547C171.865 9.02714 171.928 8.87427 172.018 8.72686C172.105 8.58219 172.213 8.45391 172.341 8.34199C172.469 8.23007 172.617 8.1345 172.784 8.05533C172.95 7.97344 173.134 7.91478 173.334 7.87929C173.537 7.8438 173.76 7.83696 174.004 7.8588C174.245 7.87791 174.505 7.92024 174.785 7.98576C175.062 8.054 175.342 8.13862 175.624 8.23962C175.907 8.34335 176.191 8.47026 176.479 8.6204C176.769 8.77327 177.054 8.93845 177.333 9.11589C177.613 9.29332 177.875 9.48031 178.119 9.67686C178.365 9.87067 178.593 10.0713 178.804 10.2788C179.014 10.489 179.223 10.6992 179.431 10.9094C179.639 11.1223 179.847 11.3256 180.055 11.5195C180.26 11.7133 180.45 11.8948 180.624 12.064C180.799 12.236 180.95 12.3985 181.079 12.5513C181.204 12.7042 181.317 12.8421 181.417 12.9649C181.517 13.0877 181.612 13.1833 181.702 13.2515C181.792 13.317 181.87 13.3566 181.937 13.3703C182.004 13.3812 182.084 13.3784 182.179 13.3621C182.274 13.3484 182.395 13.3197 182.541 13.276C182.687 13.2351 182.853 13.1805 183.038 13.1123C183.222 13.044 183.429 12.969 183.657 12.8871C183.886 12.8052 184.141 12.7301 184.423 12.6618C184.706 12.5936 184.997 12.5322 185.297 12.4776C185.595 12.4257 185.921 12.3807 186.275 12.3425C186.629 12.307 186.95 12.2879 187.237 12.2852C187.525 12.2852 187.818 12.3097 188.119 12.3588C188.416 12.4107 188.713 12.4858 189.008 12.5841C189.303 12.6851 189.603 12.8107 189.908 12.9608C190.214 13.1082 190.531 13.2788 190.859 13.4726C191.188 13.6692 191.507 13.8848 191.818 14.1196C192.131 14.3543 192.409 14.6013 192.653 14.8607C192.897 15.12 193.106 15.3835 193.28 15.651C193.452 15.9185 193.602 16.1615 193.731 16.3798C193.859 16.6009 193.969 16.777 194.062 16.908C194.151 17.039 194.213 17.1319 194.246 17.1865C194.282 17.2438 194.28 17.2752 194.239 17.2806C194.198 17.2861 194.126 17.2629 194.023 17.2111C193.923 17.1592 193.796 17.08 193.642 16.9735C193.488 16.8698 193.314 16.7347 193.119 16.5682C192.921 16.4017 192.714 16.2065 192.499 15.9827C192.281 15.7588 192.066 15.5008 191.856 15.2088C191.643 14.9194 191.44 14.5973 191.248 14.2424C191.055 13.8903 190.875 13.5136 190.705 13.1123C190.538 12.711 190.382 12.307 190.236 11.9002C190.092 11.4908 189.966 11.0895 189.858 10.6964C189.753 10.3033 189.683 9.91162 189.647 9.52126C189.611 9.1309 189.603 8.75829 189.624 8.40342C189.644 8.04582 189.694 7.71002 189.774 7.3961C189.851 7.08217 189.975 6.78602 190.147 6.50758C190.316 6.23188 190.527 5.98481 190.778 5.76643C191.03 5.55077 191.289 5.37879 191.556 5.25049C191.823 5.12492 192.1 5.0403 192.387 4.99662C192.675 4.95022 192.984 4.95843 193.315 5.02122C193.648 5.08127 193.879 5.26552 194.008 5.57399C194.139 5.88518 194.389 6.16906 194.758 6.42566C195.125 6.68226 195.495 6.95935 195.867 7.25689C196.239 7.55171 196.607 7.87245 196.972 8.21913C197.333 8.56581 197.705 8.93842 198.088 9.33697C198.468 9.73825 198.854 10.1505 199.246 10.5736C199.639 10.9967 200.024 11.4144 200.401 11.8266C200.778 12.2415 201.144 12.6537 201.498 13.0632C201.855 13.4726 202.197 13.8739 202.526 14.267C202.852 14.6601 203.149 15.034 203.419 15.3889C203.688 15.741 203.919 16.0645 204.112 16.3593C204.304 16.6542 204.461 16.919 204.581 17.1537C204.702 17.3885 204.796 17.596 204.862 17.7761C204.932 17.9536 204.993 18.1037 205.047 18.2265C205.101 18.3494 205.137 18.4381 205.155 18.4927C205.175 18.5473 205.175 18.5746 205.155 18.5746C205.137 18.5773 205.114 18.5541 205.086 18.5049C205.06 18.4558 205.039 18.3726 205.024 18.2552C205.011 18.1378 204.989 17.9945 204.959 17.8253C204.925 17.656 204.894 17.4786 204.866 17.2929C204.838 17.1073 204.823 16.919 204.82 16.7279C204.817 16.5341 204.83 16.3348 204.858 16.1301C204.889 15.9253 204.93 15.7083 204.982 15.479C205.033 15.2524 205.104 15.0149 205.193 14.7665C205.283 14.5181 205.388 14.2752 205.509 14.0377C205.63 13.7975 205.762 13.5613 205.905 13.3293C206.049 13.0972 206.202 12.8666 206.363 12.6373C206.528 12.4107 206.7 12.1896 206.879 11.974C207.056 11.761 207.24 11.5536 207.43 11.3516C207.617 11.1496 207.804 10.9435 207.992 10.7333C208.179 10.5258 208.323 10.3838 208.423 10.3074C208.523 10.231 208.641 10.0918 208.777 9.88979C208.91 9.68505 209.032 9.48169 209.143 9.27969C209.255 9.07495 209.371 8.87022 209.489 8.66549C209.604 8.46075 209.724 8.26829 209.847 8.08812C209.97 7.90523 210.092 7.74962 210.213 7.62132C210.331 7.49575 210.442 7.39612 210.547 7.32242C210.65 7.24872 210.748 7.19 210.84 7.14633C210.935 7.10265 211.02 7.06716 211.094 7.03986C211.171 7.01529 211.249 7.01393 211.329 7.03576C211.408 7.06033 211.485 7.11767 211.56 7.20776C211.634 7.29511 211.702 7.41112 211.764 7.55579C211.825 7.69774 211.883 7.85745 211.937 8.03489C211.993 8.21233 212.051 8.41158 212.11 8.6327C212.169 8.85108 212.226 9.10494 212.28 9.3943C212.333 9.68093 212.391 10.003 212.453 10.3606C212.517 10.721 212.589 11.0949 212.668 11.4826C212.75 11.8729 212.831 12.2647 212.911 12.6578C212.99 13.0481 213.067 13.4453 213.142 13.8493C213.216 14.2533 213.292 14.6464 213.369 15.0286C213.448 15.4107 213.541 15.7615 213.646 16.0809C213.754 16.4003 213.876 16.6869 214.012 16.9408C214.15 17.1974 214.294 17.4308 214.443 17.641C214.592 17.8539 214.744 18.0355 214.901 18.1856C215.06 18.3357 215.231 18.4476 215.413 18.5213C215.595 18.595 215.791 18.6264 216.002 18.6155C216.215 18.6046 216.433 18.5582 216.656 18.4763C216.879 18.3944 217.101 18.2798 217.322 18.1324C217.54 17.9877 217.743 17.8102 217.93 17.6C218.117 17.3898 218.31 17.1496 218.508 16.8794C218.703 16.6091 218.922 16.3239 219.166 16.0236C219.407 15.7233 219.655 15.3916 219.909 15.0286C220.163 14.6655 220.414 14.2888 220.663 13.8984C220.912 13.5108 221.158 13.1259 221.402 12.7438C221.646 12.3616 221.882 11.9944 222.11 11.6423C222.339 11.2901 222.559 10.9557 222.772 10.6391C222.983 10.3224 223.183 10.0222 223.373 9.73829C223.563 9.45439 223.738 9.20321 223.9 8.98483C224.062 8.76645 224.214 8.57946 224.358 8.42386C224.502 8.26827 224.642 8.1441 224.778 8.05128C224.916 7.95847 225.046 7.89428 225.167 7.8588C225.287 7.82331 225.4 7.81378 225.505 7.83016C225.61 7.8438 225.714 7.88203 225.817 7.94482C225.92 8.01033 226.031 8.08537 226.152 8.17C226.272 8.25462 226.384 8.34745 226.487 8.44846C226.589 8.54946 226.672 8.65725 226.733 8.7719C226.795 8.88928 226.854 9.01213 226.91 9.14043C226.967 9.26873 227.036 9.40796 227.118 9.5581C227.2 9.7055 227.293 9.85157 227.395 9.99625C227.5 10.1409 227.599 10.2761 227.692 10.4016C227.786 10.5245 227.881 10.6418 227.976 10.7538C228.069 10.8657 228.17 10.9708 228.28 11.0691C228.388 11.1673 228.496 11.2465 228.604 11.3065C228.712 11.3666 228.817 11.4171 228.919 11.458C229.022 11.499 229.13 11.5276 229.243 11.544C229.353 11.5631 229.457 11.5686 229.555 11.5604C229.652 11.5522 229.742 11.5358 229.824 11.5113C229.904 11.484 229.997 11.4594 230.105 11.4375C230.215 11.4157 230.34 11.4021 230.478 11.3966C230.619 11.3911 230.753 11.3952 230.879 11.4089C231.007 11.4253 231.09 11.4485 231.129 11.4785C231.17 11.5113 231.239 11.5358 231.337 11.5522C231.437 11.5686 231.543 11.615 231.656 11.6914C231.767 11.7706 231.873 11.8825 231.976 12.0272C232.076 12.1719 232.173 12.3261 232.268 12.4899C232.361 12.6537 232.459 12.8107 232.565 12.9608C232.667 13.1082 232.778 13.2611 232.896 13.4194C233.016 13.5777 233.134 13.7538 233.25 13.9476C233.365 14.1441 233.47 14.3407 233.565 14.5372C233.663 14.7365 233.765 14.9235 233.873 15.0982C233.978 15.2702 234.1 15.4326 234.239 15.5854C234.377 15.7356 234.525 15.8693 234.682 15.9867C234.838 16.1041 234.993 16.1847 235.147 16.2283C235.304 16.2693 235.477 16.2761 235.667 16.2488C235.854 16.2242 236.051 16.1751 236.256 16.1014C236.461 16.0304 236.67 15.943 236.883 15.8393C237.096 15.7383 237.317 15.6168 237.545 15.4749C237.774 15.3329 238.012 15.1664 238.261 14.9753C238.513 14.7815 238.772 14.5727 239.039 14.3488C239.306 14.125 239.575 13.8957 239.847 13.661C240.119 13.4262 240.377 13.1901 240.621 12.9526C240.867 12.7151 241.088 12.483 241.283 12.2565C241.478 12.0326 241.656 11.8265 241.818 11.6382C241.98 11.4498 242.125 11.2847 242.253 11.1427C242.379 10.9981 242.495 10.8657 242.603 10.7456C242.708 10.6255 242.798 10.5053 242.873 10.3852C242.947 10.2651 243.001 10.1505 243.034 10.0413C243.068 9.92937 243.094 9.827 243.115 9.73419C243.138 9.64411 243.16 9.55948 243.18 9.48032C243.204 9.40116 243.206 9.32333 243.188 9.2469C243.17 9.17046 243.175 9.07357 243.204 8.95619C243.232 8.83881 243.198 8.73234 243.103 8.63679C243.006 8.53852 242.907 8.45253 242.807 8.37883C242.71 8.30785 242.608 8.25051 242.503 8.20683C242.398 8.16316 242.313 8.11813 242.249 8.07173C242.182 8.02259 242.142 7.96256 242.13 7.89159C242.117 7.82061 242.122 7.751 242.145 7.68275C242.166 7.61451 242.199 7.56944 242.245 7.5476C242.289 7.52576 242.345 7.53123 242.414 7.56399C242.486 7.59675 242.576 7.63498 242.684 7.67866C242.794 7.72233 242.932 7.77283 243.096 7.83016C243.263 7.88748 243.458 7.9721 243.681 8.08402C243.904 8.19867 244.152 8.35017 244.424 8.53853C244.696 8.72415 244.991 8.94115 245.309 9.18956C245.63 9.43525 245.954 9.69869 246.283 9.97986C246.614 10.2638 246.942 10.5626 247.268 10.8766C247.594 11.1878 247.924 11.5195 248.257 11.8716C248.588 12.2265 248.916 12.595 249.239 12.9771C249.56 13.3593 249.856 13.7442 250.128 14.1319C250.4 14.5195 250.644 14.9207 250.859 15.3357C251.078 15.7479 251.274 16.1778 251.448 16.6255C251.623 17.0732 251.77 17.5168 251.891 17.9563C252.009 18.3958 252.094 18.7916 252.145 19.1437C252.196 19.4959 252.229 19.7907 252.241 20.0282C252.257 20.2684 252.255 20.4567 252.237 20.5932C252.22 20.7297 252.182 20.8184 252.126 20.8594C252.072 20.8976 252.008 20.8853 251.933 20.8225C251.859 20.757 251.787 20.6246 251.718 20.4254C251.651 20.2261 251.591 19.9572 251.537 19.6187C251.483 19.283 251.448 18.898 251.433 18.464C251.418 18.0327 251.398 17.6014 251.375 17.1701C251.352 16.7388 251.397 16.2433 251.51 15.6837C251.625 15.1268 251.776 14.5441 251.96 13.9353C252.148 13.3266 252.358 12.7192 252.592 12.1132C252.823 11.5072 253.082 10.9162 253.369 10.3402C253.657 9.76421 253.981 9.20598 254.343 8.66549C254.702 8.12226 255.091 7.60084 255.509 7.10129C255.925 6.59901 256.347 6.13494 256.776 5.70909C257.204 5.28325 257.642 4.90653 258.088 4.57896C258.532 4.25412 258.994 3.98798 259.474 3.78052C259.954 3.57579 260.44 3.43656 260.933 3.36285C261.428 3.28915 261.908 3.27551 262.372 3.32192C262.839 3.36559 263.29 3.45706 263.723 3.59628C264.16 3.73823 264.575 3.91563 264.97 4.12856C265.366 4.34148 265.715 4.59129 266.017 4.87791C266.32 5.16454 266.568 5.48528 266.76 5.84015C266.95 6.19502 267.095 6.56763 267.195 6.95799C267.293 7.35108 267.349 7.74143 267.365 8.12906C267.38 8.51396 267.361 8.89204 267.307 9.26329C267.253 9.63181 267.176 10.0058 267.076 10.3852C266.976 10.7647 266.849 11.1495 266.695 11.5399C266.543 11.9303 266.365 12.3138 266.16 12.6905C265.952 13.07 265.722 13.4235 265.471 13.751C265.219 14.0813 264.954 14.3884 264.674 14.6723C264.397 14.959 264.116 15.2238 263.831 15.4667C263.546 15.7097 263.258 15.9348 262.965 16.1423C262.67 16.3498 262.384 16.5477 262.107 16.7361C261.827 16.9217 261.577 17.1018 261.356 17.2765C261.135 17.4485 260.942 17.6096 260.775 17.7597C260.608 17.9126 260.458 18.0341 260.325 18.1242C260.194 18.2143 260.214 17.9808 260.386 17.4239C260.558 16.8643 260.645 16.5696 260.648 16.5395C260.653 16.5095 260.703 16.474 260.798 16.4331C260.893 16.3921 261.024 16.343 261.191 16.2857C261.357 16.2311 261.536 16.1573 261.726 16.0645C261.916 15.9745 262.111 15.8707 262.311 15.7533C262.511 15.636 262.732 15.5077 262.973 15.3685C263.211 15.2292 263.476 15.0668 263.766 14.8812C264.056 14.6955 264.37 14.4881 264.709 14.2588C265.045 14.0295 265.389 13.7947 265.74 13.5545C266.092 13.3143 266.432 13.0795 266.76 12.8502C267.091 12.6237 267.415 12.3957 267.73 12.1664C268.046 11.9398 268.373 11.6996 268.712 11.4457C269.048 11.1919 269.399 10.9203 269.766 10.6309C270.131 10.3443 270.493 10.0618 270.852 9.78332C271.211 9.50488 271.569 9.24691 271.926 9.00942C272.282 8.77193 272.638 8.54261 272.992 8.3215C273.346 8.10038 273.681 7.88475 273.997 7.67456C274.315 7.46436 274.602 7.26642 274.859 7.0808C275.115 6.89517 275.359 6.73414 275.59 6.59766C275.824 6.46117 276.048 6.35606 276.264 6.28236C276.477 6.20865 276.673 6.16363 276.853 6.14725C277.032 6.1336 277.198 6.14998 277.349 6.19639C277.503 6.24006 277.652 6.31241 277.796 6.41342C277.939 6.51715 278.082 6.64542 278.223 6.79829C278.362 6.95116 278.501 7.12588 278.643 7.32242C278.781 7.51896 278.92 7.7346 279.058 7.96936C279.197 8.20412 279.33 8.45799 279.459 8.73096C279.587 9.00394 279.699 9.27966 279.793 9.5581C279.891 9.83926 279.976 10.1341 280.047 10.4426C280.119 10.751 280.216 11.1086 280.336 11.5154C280.457 11.9221 280.513 12.3056 280.506 12.6659C280.495 13.0263 280.472 13.3511 280.436 13.6405C280.4 13.9298 280.367 14.1742 280.336 14.3734C280.303 14.5727 280.263 14.7392 280.217 14.873C280.173 15.004 280.119 15.116 280.055 15.2088C279.991 15.3043 279.932 15.3739 279.878 15.4176C279.822 15.4613 279.779 15.4585 279.751 15.4094C279.72 15.3603 279.691 15.2784 279.663 15.1637C279.634 15.0491 279.61 14.929 279.589 14.8034C279.566 14.6751 279.556 14.555 279.559 14.4431C279.561 14.3311 279.573 14.2247 279.593 14.1237C279.611 14.0199 279.632 13.9162 279.655 13.8125C279.678 13.7115 279.706 13.6132 279.74 13.5177C279.773 13.4248 279.815 13.3498 279.867 13.2924C279.918 13.2324 279.973 13.2024 280.032 13.2024C280.094 13.1996 280.154 13.2229 280.213 13.272C280.272 13.3211 280.326 13.3853 280.375 13.4644C280.426 13.5436 280.472 13.6336 280.513 13.7346C280.557 13.8356 280.608 13.9517 280.667 14.0827C280.726 14.2138 280.81 14.3598 280.917 14.5208C281.025 14.6846 281.155 14.8552 281.306 15.0327C281.458 15.2128 281.614 15.3834 281.776 15.5445C281.937 15.7056 282.109 15.8462 282.292 15.9663C282.474 16.0864 282.651 16.1887 282.823 16.2734C282.995 16.358 283.16 16.4194 283.319 16.4576C283.476 16.4958 283.635 16.5122 283.797 16.5067C283.958 16.4986 284.125 16.4617 284.297 16.3962C284.469 16.3307 284.652 16.242 284.847 16.1301C285.04 16.0181 285.257 15.8803 285.498 15.7165C285.739 15.55 286.019 15.337 286.337 15.0777C286.655 14.8211 286.97 14.585 287.28 14.3693C287.59 14.1537 287.932 13.9094 288.304 13.6364C288.676 13.3661 289.062 13.0618 289.462 12.7233C289.863 12.382 290.258 12.0327 290.648 11.6751C291.041 11.3175 291.432 10.9667 291.822 10.6227C292.212 10.2787 292.601 9.94026 292.988 9.60723C293.373 9.27693 293.738 8.95619 294.081 8.64499C294.425 8.3338 294.754 8.04307 295.067 7.77282C295.38 7.49985 295.683 7.25825 295.975 7.04806C296.265 6.8406 296.542 6.66998 296.807 6.53623C297.071 6.40247 297.321 6.30284 297.557 6.23732C297.796 6.17454 298.028 6.14589 298.254 6.15135C298.48 6.15681 298.697 6.21005 298.904 6.31105C299.115 6.40932 299.303 6.54307 299.47 6.71232C299.634 6.87884 299.773 7.06856 299.886 7.28148C299.999 7.49714 300.087 7.73868 300.152 8.0062C300.216 8.27372 300.253 8.57813 300.263 8.91935C300.273 9.26058 300.246 9.62771 300.182 10.0208C300.116 10.4139 300.045 10.822 299.971 11.2451C299.896 11.6709 299.84 12.1064 299.801 12.5513C299.765 12.9935 299.728 13.433 299.69 13.8698C299.654 14.3066 299.59 14.7242 299.497 15.1227C299.402 15.5186 299.287 15.883 299.151 16.216C299.012 16.5491 298.868 16.8439 298.72 17.1005C298.571 17.3571 298.418 17.5714 298.262 17.7433C298.108 17.9153 297.956 18.0436 297.807 18.1283C297.659 18.2156 297.534 18.2675 297.434 18.2839C297.337 18.2975 297.267 18.2825 297.226 18.2388C297.188 18.1924 297.166 18.1323 297.161 18.0586C297.153 17.9849 297.062 17.9781 296.887 18.0381C296.713 18.0982 296.654 18.0859 296.71 18.0013C296.764 17.914 296.814 17.8157 296.861 17.7065C296.907 17.5973 296.949 17.4731 296.988 17.3339C297.026 17.1919 297.075 17.0513 297.134 16.9121C297.195 16.7702 297.267 16.6433 297.349 16.5313C297.431 16.4194 297.516 16.3116 297.603 16.2078C297.691 16.1014 297.791 15.984 297.904 15.8557C298.017 15.7274 298.133 15.5814 298.254 15.4176C298.377 15.2538 298.502 15.0681 298.627 14.8607C298.753 14.6532 298.895 14.4226 299.055 14.1687C299.214 13.9148 299.388 13.6446 299.578 13.358C299.768 13.0686 299.95 12.7642 300.125 12.4449C300.302 12.1255 300.484 11.8061 300.671 11.4867C300.856 11.17 301.065 10.8548 301.299 10.5408C301.532 10.2242 301.794 9.89796 302.084 9.56219C302.371 9.22643 302.679 8.88932 303.008 8.55082C303.339 8.2096 303.684 7.89702 304.043 7.61313C304.405 7.32923 304.787 7.0631 305.19 6.81469C305.596 6.569 306.011 6.33557 306.437 6.11446C306.863 5.89608 307.294 5.70909 307.73 5.55349C308.169 5.40063 308.62 5.2901 309.082 5.22185C309.546 5.15361 310.034 5.11401 310.544 5.10309C311.057 5.08944 311.583 5.10856 312.122 5.16042C312.659 5.21502 313.187 5.31875 313.708 5.47162C314.232 5.62176 314.733 5.82102 315.213 6.06943C315.693 6.31511 316.147 6.59219 316.576 6.90066C317.002 7.21185 317.402 7.54623 317.777 7.90383C318.151 8.26416 318.494 8.65046 318.804 9.06266C319.118 9.47758 319.407 9.91843 319.674 10.3852C319.941 10.8547 320.368 11.4171 320.956 12.0722C321.544 12.7301 321.891 13.3552 321.999 13.9476C322.107 14.5427 322.161 15.1118 322.161 15.6551C322.161 16.201 322.11 16.7115 322.007 17.1865C321.902 17.6615 321.734 18.09 321.503 18.4722C321.272 18.8544 320.975 19.1765 320.614 19.4385C320.254 19.7006 319.85 19.8985 319.401 20.0322C318.949 20.1633 318.481 20.2356 317.996 20.2493C317.511 20.2629 317.013 20.2165 316.503 20.1101C315.989 20.0036 315.478 19.848 314.967 19.6433C314.456 19.4358 313.971 19.1847 313.512 18.8899C313.055 18.5951 312.634 18.262 312.249 17.8907C311.867 17.5195 311.509 17.1237 311.175 16.7033C310.842 16.2829 310.535 15.8544 310.255 15.4176C309.978 14.9781 309.74 14.5277 309.54 14.0663C309.342 13.605 309.196 13.1341 309.101 12.6537C309.008 12.1732 308.963 11.7023 308.966 11.241C308.969 10.7769 308.999 10.3333 309.058 9.91023C309.115 9.48439 309.215 9.08313 309.359 8.70642C309.502 8.33244 309.704 7.99122 309.963 7.68275C310.225 7.37702 310.543 7.12315 310.918 6.92115C311.295 6.71642 311.708 6.56624 312.157 6.4707C312.609 6.37515 313.078 6.31649 313.566 6.29465C314.051 6.27555 314.54 6.29603 315.032 6.35608C315.525 6.41614 316.027 6.50076 316.537 6.60995C317.048 6.72187 317.57 6.84062 318.104 6.96619C318.635 7.08903 319.168 7.22004 319.701 7.35926C320.232 7.49575 320.752 7.64588 321.26 7.80966C321.768 7.97072 322.255 8.13317 322.719 8.29695C323.183 8.46347 323.635 8.62587 324.074 8.7842C324.51 8.93979 324.876 9.19776 325.171 9.5581C325.463 9.91843 325.785 10.1545 326.137 10.2665C326.486 10.3757 326.822 10.463 327.146 10.5285C327.469 10.5968 327.778 10.6432 328.073 10.6677C328.368 10.695 328.642 10.706 328.893 10.7005C329.142 10.6951 329.373 10.6787 329.586 10.6514C329.799 10.6241 329.996 10.5845 330.179 10.5326C330.361 10.4835 330.521 10.4221 330.66 10.3484C330.801 10.2747 330.933 10.2105 331.056 10.1559C331.179 10.0986 331.308 10.0631 331.441 10.0494C331.577 10.0385 331.723 10.044 331.88 10.0658C332.036 10.0849 332.198 10.1273 332.365 10.1928C332.532 10.2583 332.69 10.3702 332.838 10.5285C332.987 10.6869 333.114 10.8807 333.219 11.11C333.325 11.342 333.417 11.5931 333.497 11.8634C333.576 12.1336 333.651 12.4216 333.72 12.7274C333.789 13.0304 333.849 13.3388 333.901 13.6528C333.95 13.9694 333.973 14.271 333.97 14.5577C333.967 14.8443 333.941 15.105 333.889 15.3398C333.838 15.5773 333.788 15.7929 333.739 15.9867C333.69 16.1805 333.645 16.358 333.604 16.519C333.566 16.6774 333.515 16.8152 333.45 16.9326C333.389 17.0473 333.318 17.1319 333.239 17.1865C333.159 17.2383 333.077 17.2547 332.992 17.2356C332.91 17.2165 332.814 17.1687 332.704 17.0923C332.593 17.0159 332.473 16.9162 332.342 16.7934C332.211 16.6678 332.078 16.5204 331.942 16.3511C331.808 16.1792 331.668 16.0018 331.522 15.8189C331.376 15.6387 331.223 15.4558 331.064 15.2701C330.907 15.0845 330.76 14.8825 330.621 14.6641C330.483 14.4458 330.302 14.256 330.079 14.095C329.853 13.9339 329.7 13.7292 329.621 13.4808C329.541 13.2324 329.463 12.9785 329.386 12.7192C329.306 12.4598 329.23 12.1923 329.159 11.9166C329.087 11.6409 329.03 11.3802 328.989 11.1345C328.948 10.8889 328.93 10.6623 328.935 10.4549C328.94 10.2501 328.973 10.0494 329.032 9.8529C329.091 9.65909 329.178 9.4721 329.293 9.29193C329.411 9.11177 329.554 8.95211 329.721 8.81289C329.887 8.67094 330.086 8.54261 330.317 8.42796C330.548 8.31331 330.815 8.21094 331.118 8.12086C331.421 8.02805 331.75 7.95027 332.107 7.88749C332.464 7.8247 332.837 7.77283 333.227 7.73189C333.615 7.69094 334.024 7.64861 334.455 7.60493C334.889 7.56125 335.351 7.52439 335.841 7.49436C336.331 7.46161 336.852 7.44117 337.403 7.43298C337.953 7.4248 338.526 7.41521 339.124 7.40429C339.719 7.3961 340.331 7.38247 340.96 7.36336C341.586 7.34698 342.228 7.33608 342.885 7.33062C343.542 7.32516 344.207 7.34153 344.882 7.37975C345.557 7.41524 346.222 7.47938 346.876 7.57219C347.531 7.665 348.162 7.78922 348.77 7.94482C349.378 8.10042 349.957 8.2874 350.506 8.50579C351.052 8.7269 351.561 8.97666 352.03 9.25509C352.5 9.5308 352.927 9.827 353.312 10.1437C353.697 10.4603 354.039 10.7974 354.34 11.155C354.64 11.5154 354.89 11.9002 355.09 12.3097C355.29 12.7219 355.421 13.1505 355.483 13.5954C355.544 14.0404 355.538 14.4895 355.464 14.9426C355.392 15.3957 355.27 15.8407 355.098 16.2775C354.923 16.7142 354.771 17.4499 354.64 18.4845C354.509 19.5164 354.268 20.2507 353.916 20.6874C353.562 21.1242 353.188 21.5159 352.792 21.8626C352.4 22.2066 351.999 22.4904 351.591 22.7143C351.183 22.9381 350.759 23.1033 350.317 23.2097C349.876 23.3162 349.422 23.3708 348.955 23.3735C348.488 23.379 348.027 23.3203 347.573 23.1975C347.116 23.0719 346.681 22.8699 346.268 22.5914C345.852 22.3103 345.464 21.9622 345.102 21.5473C344.74 21.1324 344.418 20.6806 344.136 20.1919C343.851 19.7033 343.607 19.1915 343.404 18.6564C343.202 18.1187 343.042 17.5563 342.927 16.9694C342.809 16.3853 342.742 15.7683 342.727 15.1186C342.711 14.469 342.746 13.8016 342.831 13.1164C342.918 12.4312 343.042 11.7392 343.204 11.0404C343.366 10.3415 343.552 9.64956 343.762 8.96439C343.97 8.28194 344.204 7.61993 344.463 6.97843C344.722 6.33693 345.014 5.72547 345.34 5.14403C345.666 4.56531 346.023 4.03436 346.41 3.55119C346.795 3.06802 347.203 2.63812 347.634 2.26141C348.063 1.8847 348.503 1.56391 348.955 1.29912C349.404 1.03433 349.854 0.833708 350.306 0.697219C350.757 0.558 351.208 0.492493 351.657 0.500683C352.103 0.508872 352.54 0.58533 352.966 0.730008C353.392 0.871957 353.811 1.07395 354.224 1.33601C354.637 1.59534 355.04 1.90924 355.433 2.27776C355.823 2.64355 356.199 3.05849 356.561 3.52255C356.922 3.98662 357.277 4.48618 357.623 5.02122C357.972 5.55898 358.309 6.12269 358.635 6.71232C358.964 7.30195 359.278 7.90246 359.578 8.51393C359.876 9.12268 359.907 9.7997 359.671 10.5449C359.437 11.2902 359.46 11.8525 359.74 12.2319C360.02 12.6114 360.299 12.984 360.579 13.3498C360.856 13.7156 361.127 14.0623 361.391 14.3898C361.656 14.7174 361.92 15.0081 362.184 15.262C362.449 15.5159 362.714 15.722 362.981 15.8803C363.248 16.0386 363.507 16.1574 363.759 16.2365C364.01 16.3157 364.255 16.3689 364.494 16.3962C364.732 16.4207 364.957 16.4194 365.167 16.3921C365.38 16.3648 365.584 16.313 365.779 16.2365C365.974 16.1601 366.164 16.0714 366.349 15.9704C366.531 15.8694 366.699 15.7615 366.853 15.6469C367.005 15.5349 367.133 15.4203 367.238 15.3029C367.341 15.1883 367.425 15.0791 367.492 14.9753C367.559 14.8716 367.597 14.7761 367.608 14.6887C367.618 14.6041 367.6 14.5318 367.554 14.4717C367.505 14.4144 367.436 14.3734 367.346 14.3488C367.256 14.3243 367.15 14.3079 367.026 14.2997C366.903 14.2942 366.756 14.2997 366.584 14.3161C366.409 14.3325 366.213 14.3543 365.995 14.3816C365.774 14.4117 365.547 14.4308 365.314 14.439C365.08 14.4444 364.848 14.4348 364.617 14.4103C364.386 14.383 364.149 14.3502 363.905 14.312C363.661 14.2738 363.416 14.2247 363.17 14.1646C362.926 14.1045 362.701 14.0227 362.496 13.9189C362.293 13.8179 362.117 13.7019 361.969 13.5709C361.82 13.4371 361.698 13.2897 361.603 13.1286C361.505 12.9649 361.443 12.7765 361.414 12.5636C361.384 12.3506 361.396 12.1173 361.453 11.8634C361.509 11.6095 361.603 11.3543 361.734 11.0977C361.867 10.8438 362.11 10.605 362.461 10.3811C362.81 10.16 363.102 9.97166 363.335 9.81606C363.566 9.65773 363.826 9.51714 364.116 9.3943C364.406 9.27146 364.718 9.16503 365.052 9.07495C365.385 8.9876 365.74 8.92067 366.114 8.87427C366.491 8.83059 366.885 8.81153 367.296 8.81699C367.706 8.82518 368.134 8.85656 368.578 8.91116C369.022 8.96575 369.477 9.04079 369.944 9.13633C370.414 9.2346 370.89 9.34518 371.372 9.46802C371.855 9.59359 372.316 9.72324 372.758 9.857C373.197 9.99349 373.593 10.13 373.947 10.2665C374.301 10.4002 374.621 10.5299 374.906 10.6555C375.193 10.7811 375.473 10.8971 375.745 11.0035C376.019 11.11 376.287 11.2055 376.549 11.2901C376.808 11.372 377.064 11.4499 377.315 11.5236C377.567 11.6 377.816 11.6764 378.062 11.7528C378.306 11.832 378.546 11.9166 378.782 12.0067C379.015 12.0968 379.238 12.1882 379.451 12.2811C379.667 12.3739 379.868 12.4694 380.056 12.5677C380.241 12.6659 380.412 12.7615 380.572 12.8543C380.728 12.9471 380.886 13.0358 381.045 13.1204C381.204 13.2078 381.37 13.2911 381.542 13.3703C381.713 13.4494 381.874 13.5231 382.023 13.5913C382.169 13.6623 382.31 13.7251 382.446 13.7797C382.582 13.8343 382.708 13.8971 382.823 13.9681C382.939 14.0363 383.04 14.1182 383.127 14.2137C383.212 14.3065 383.29 14.4008 383.362 14.4963C383.434 14.5891 383.511 14.6737 383.593 14.7502C383.675 14.8266 383.747 14.9044 383.809 14.9835C383.873 15.0654 383.936 15.1446 383.997 15.221C384.059 15.3002 384.159 15.3957 384.298 15.5077C384.439 15.6196 384.527 15.6987 384.563 15.7451C384.602 15.7915 384.611 15.853 384.59 15.9294C384.57 16.0059 384.526 16.0945 384.459 16.1955C384.392 16.2965 384.313 16.388 384.22 16.4699C384.128 16.5518 384.015 16.6009 383.882 16.6173C383.748 16.6337 383.591 16.6214 383.408 16.5805C383.226 16.5368 383.029 16.4808 382.816 16.4126C382.605 16.3443 382.386 16.2502 382.157 16.1301C381.926 16.0072 381.69 15.8557 381.449 15.6756C381.205 15.4954 380.96 15.2866 380.714 15.0491C380.468 14.8143 380.23 14.5441 380.002 14.2383C379.773 13.9326 379.568 13.5982 379.386 13.2351C379.204 12.872 379.054 12.494 378.936 12.1009C378.818 11.7051 378.73 11.2942 378.674 10.8684C378.615 10.4398 378.597 9.99489 378.62 9.53355C378.646 9.07222 378.714 8.61357 378.824 8.1577C378.934 7.70183 379.073 7.27461 379.24 6.87607C379.407 6.47752 379.611 6.10491 379.852 5.75823C380.093 5.40882 380.387 5.09218 380.733 4.80829C381.077 4.52439 381.476 4.28279 381.93 4.08352C382.384 3.88698 382.88 3.73959 383.416 3.64131C383.955 3.54577 384.517 3.5007 385.102 3.50616C385.687 3.50889 386.284 3.56486 386.892 3.67405C387.503 3.78051 388.129 3.93338 388.77 4.13265C389.412 4.3292 390.062 4.56395 390.722 4.83693C391.379 5.11263 392.029 5.42247 392.673 5.76643C393.32 6.11038 393.949 6.48162 394.559 6.88016C395.173 7.28144 395.765 7.71961 396.338 8.19459C396.91 8.66957 397.447 9.16908 397.95 9.6932C398.453 10.2173 398.902 10.7483 399.298 11.286C399.695 11.8265 400.038 12.3671 400.325 12.9076C400.613 13.4481 400.849 13.979 401.034 14.5004C401.216 15.0245 401.345 15.5309 401.422 16.0195C401.499 16.5081 401.534 16.9681 401.526 17.3994C401.516 17.8307 401.476 18.2197 401.407 18.5664C401.34 18.9131 401.248 19.2093 401.13 19.4549C401.012 19.6979 400.859 19.8985 400.672 20.0568C400.484 20.2124 400.261 20.3175 400.002 20.3721C399.743 20.4295 399.472 20.4322 399.19 20.3803C398.905 20.3285 398.628 20.2329 398.358 20.0937C398.089 19.9545 397.826 19.7797 397.569 19.5695C397.31 19.3594 397.05 19.1123 396.788 18.8284C396.524 18.5473 396.273 18.2306 396.037 17.8785C395.799 17.5291 395.592 17.1605 395.418 16.7729C395.246 16.3853 395.114 15.984 395.021 15.5691C394.931 15.1514 394.875 14.7283 394.852 14.2997C394.829 13.8711 394.825 13.4562 394.84 13.055C394.856 12.6537 394.898 12.2783 394.967 11.9289C395.037 11.5795 395.116 11.256 395.206 10.9585C395.293 10.6609 395.38 10.392 395.468 10.1518C395.555 9.91431 395.65 9.70689 395.753 9.52946C395.858 9.34929 395.985 9.18273 396.134 9.02987C396.285 8.87427 396.454 8.72962 396.642 8.59586C396.826 8.4621 397.02 8.33514 397.223 8.21503C397.426 8.09765 397.63 7.98438 397.835 7.87519C398.043 7.76873 398.256 7.67184 398.474 7.58449C398.695 7.4944 398.924 7.42753 399.163 7.38385C399.399 7.34017 399.64 7.31148 399.886 7.29783C400.13 7.28418 400.375 7.27739 400.622 7.27739C400.868 7.27739 401.196 6.81742 401.607 5.89748C402.018 4.97755 402.374 4.58714 402.677 4.72636C402.982 4.86558 403.276 5.0185 403.559 5.18501C403.841 5.3488 404.119 5.54121 404.394 5.76233C404.666 5.98344 404.939 6.2373 405.214 6.52393C405.486 6.81056 405.747 7.1245 405.999 7.46572C406.25 7.80695 406.484 8.16591 406.699 8.54262C406.918 8.9166 407.131 9.29879 407.338 9.68915C407.549 10.0768 407.745 10.4658 407.927 10.8561C408.112 11.2465 408.281 11.6396 408.435 12.0354C408.592 12.4339 408.737 12.8434 408.87 13.2638C409.004 13.6815 409.131 14.1073 409.251 14.5413C409.372 14.9754 409.49 15.3862 409.606 15.7738C409.721 16.1615 409.837 16.5204 409.952 16.8507C410.067 17.1783 410.189 17.484 410.318 17.7679C410.446 18.0518 410.579 18.3057 410.718 18.5295C410.857 18.7561 411.003 18.9376 411.157 19.0741C411.311 19.2133 411.479 19.2898 411.661 19.3034C411.846 19.3171 412.042 19.2802 412.25 19.1929C412.458 19.1055 412.673 18.9786 412.897 18.812C413.12 18.6455 413.357 18.4381 413.609 18.1896C413.86 17.9412 414.124 17.656 414.402 17.3339C414.676 17.0145 414.943 16.6746 415.202 16.3143C415.459 15.954 415.71 15.5691 415.957 15.1596C416.2 14.7502 416.429 14.3311 416.642 13.9025C416.855 13.4712 417.043 13.0481 417.208 12.6332C417.372 12.2183 417.512 11.8211 417.627 11.4416C417.745 11.0622 417.841 10.706 417.916 10.3729C417.99 10.0399 418.047 9.74644 418.085 9.49257C418.124 9.2387 418.142 9.02169 418.139 8.84153C418.139 8.66409 418.172 8.66683 418.239 8.84972C418.308 9.03262 418.266 9.0886 418.112 9.01762C417.958 8.94938 417.809 8.91525 417.666 8.91525C417.524 8.91798 417.394 8.94526 417.273 8.99713C417.155 9.04899 417.024 9.1145 416.88 9.19366C416.739 9.27283 416.574 9.35882 416.384 9.45163C416.194 9.54171 416.008 9.63455 415.826 9.73009C415.644 9.82563 415.491 9.92937 415.368 10.0413C415.247 10.1532 415.147 10.2651 415.067 10.377C414.988 10.4917 414.925 10.594 414.879 10.6841C414.835 10.7769 414.815 10.8507 414.817 10.9053C414.82 10.9599 414.849 10.9994 414.906 11.024C414.96 11.0485 415.017 11.0677 415.079 11.0813C415.141 11.095 415.216 11.0977 415.306 11.0895C415.396 11.0813 415.514 11.0581 415.66 11.0199C415.807 10.9817 415.989 10.9271 416.207 10.8561C416.422 10.7824 416.664 10.6992 416.93 10.6064C417.2 10.5135 417.483 10.4207 417.781 10.3279C418.076 10.2324 418.391 10.1395 418.724 10.0494C419.055 9.95935 419.408 9.85836 419.783 9.74643C420.155 9.63724 420.54 9.52671 420.937 9.41479C421.333 9.30014 421.729 9.20325 422.127 9.12409C422.525 9.04219 422.934 8.98759 423.355 8.96029C423.776 8.93026 424.2 8.933 424.629 8.96849C425.06 9.00397 425.473 9.07085 425.868 9.16912C426.263 9.26739 426.626 9.38614 426.957 9.52536C427.288 9.6673 427.594 9.8256 427.874 10.0003C428.153 10.1777 428.42 10.3852 428.674 10.6227C428.931 10.8575 429.169 11.1154 429.39 11.3966C429.613 11.675 429.816 11.9835 429.998 12.322C430.18 12.6605 430.374 13.055 430.579 13.5054C430.785 13.953 430.93 14.398 431.014 14.8402C431.102 15.2797 431.181 15.7015 431.253 16.1055C431.325 16.5122 431.394 16.8917 431.461 17.2438C431.53 17.5932 431.582 17.9112 431.615 18.1978C431.646 18.4845 431.651 18.7383 431.63 18.9594C431.61 19.1778 431.578 19.3512 431.534 19.4795C431.49 19.6078 431.458 19.6842 431.438 19.7088C431.42 19.7306 431.421 19.7143 431.442 19.6597C431.462 19.6051 431.48 19.5109 431.496 19.3771C431.514 19.2434 431.519 19.0646 431.511 18.8407C431.506 18.6142 431.498 18.3493 431.488 18.0463C431.475 17.7433 431.471 17.424 431.476 17.0882C431.479 16.7524 431.485 16.3962 431.496 16.0195C431.503 15.6401 431.51 15.2374 431.515 14.8115C431.517 14.383 431.514 13.9394 431.503 13.4808C431.493 13.0249 431.479 12.5636 431.461 12.0968C431.443 11.63 431.424 11.1618 431.403 10.6923C431.383 10.2255 431.357 9.76283 431.326 9.30423C431.293 8.84835 431.274 8.4143 431.268 8.0021C431.263 7.59263 431.289 7.20776 431.345 6.84742C431.399 6.48982 431.47 6.16087 431.557 5.86059C431.642 5.55759 431.718 5.29962 431.784 5.0867C431.848 4.87104 431.901 4.71412 431.942 4.61585C431.981 4.52031 432.025 4.4657 432.077 4.45205C432.126 4.4384 432.192 4.45752 432.277 4.50938C432.364 4.56398 432.468 4.65539 432.589 4.78369C432.707 4.91472 432.833 5.07717 432.966 5.27099C433.099 5.4648 433.237 5.66953 433.378 5.88519C433.516 6.10084 433.679 6.33148 433.867 6.57716C434.054 6.82011 434.33 6.8952 434.694 6.80239C435.061 6.70685 435.409 6.84197 435.737 7.20776C436.066 7.57355 436.398 7.9243 436.734 8.26007C437.068 8.5931 437.417 8.92479 437.781 9.25509C438.146 9.58267 438.525 9.91978 438.921 10.2665C439.316 10.6131 439.713 10.9612 440.114 11.3106C440.514 11.66 440.911 11.9944 441.303 12.3138C441.696 12.6332 442.09 12.9444 442.485 13.2474C442.883 13.5477 443.274 13.8493 443.659 14.1523C444.044 14.4553 444.42 14.7638 444.787 15.0777C445.151 15.3916 445.506 15.6974 445.853 15.9949C446.199 16.2925 446.533 16.5778 446.854 16.8507C447.172 17.1264 447.461 17.4048 447.72 17.686C447.976 17.9672 448.193 18.2429 448.37 18.5131C448.55 18.7861 448.69 19.0386 448.79 19.2706C448.89 19.5054 448.957 19.7101 448.99 19.8848C449.023 20.0596 449.026 20.2029 448.998 20.3148C448.967 20.4267 448.898 20.5155 448.79 20.581C448.682 20.6438 448.542 20.6874 448.37 20.712C448.196 20.7338 448.015 20.712 447.827 20.6465C447.64 20.5782 447.458 20.4513 447.281 20.2657C447.104 20.08 446.926 19.8426 446.746 19.5532C446.566 19.2666 446.381 18.9458 446.192 18.591C446.004 18.2388 445.822 17.8484 445.645 17.4198C445.471 16.9913 445.317 16.5231 445.183 16.0154C445.05 15.5077 444.95 14.9644 444.883 14.3857C444.814 13.8043 444.784 13.201 444.794 12.5759C444.802 11.9535 444.851 11.3379 444.941 10.7292C445.03 10.1232 445.156 9.54718 445.318 9.00123C445.482 8.45527 445.658 7.93522 445.845 7.44113C446.033 6.94431 446.266 6.57855 446.546 6.34379C446.823 6.1063 447.061 5.80873 447.262 5.45113C447.462 5.09353 447.686 4.78916 447.935 4.53802C448.184 4.28415 448.446 4.089 448.72 3.95251C448.995 3.81875 449.27 3.73413 449.544 3.69865C449.819 3.66043 450.092 3.6727 450.364 3.73548C450.634 3.79827 450.898 3.91154 451.157 4.07532C451.414 4.23911 451.645 4.44658 451.85 4.69772C452.053 4.94886 452.233 5.22868 452.393 5.53715C452.549 5.84561 452.699 6.17589 452.843 6.52803C452.984 6.8829 453.124 7.25008 453.262 7.62952C453.401 8.00896 453.525 8.39794 453.636 8.79649C453.744 9.19504 453.813 9.59903 453.844 10.0085C453.872 10.4207 453.868 10.8193 453.832 11.2042C453.794 11.5891 453.754 11.9562 453.713 12.3056C453.669 12.6577 453.644 12.9867 453.636 13.2924C453.626 13.5954 453.624 13.8739 453.632 14.1278C453.64 14.3816 453.64 14.6095 453.632 14.8115C453.624 15.0135 453.624 15.1924 453.632 15.348C453.64 15.5036 453.67 15.6305 453.724 15.7288C453.776 15.8271 453.857 15.898 453.967 15.9417C454.075 15.9854 454.211 16.0072 454.375 16.0072C454.537 16.0072 454.728 15.984 454.948 15.9376C455.169 15.8884 455.418 15.8134 455.695 15.7124C455.972 15.6114 456.276 15.4899 456.607 15.348C456.938 15.206 457.287 15.0532 457.654 14.8894C458.024 14.7256 458.406 14.5618 458.801 14.398C459.197 14.237 459.601 14.0868 460.014 13.9476C460.427 13.8111 460.831 13.6992 461.226 13.6118C461.621 13.5245 462.013 13.4549 462.4 13.403C462.79 13.3539 463.192 13.332 463.605 13.3375C464.016 13.3429 464.424 13.3402 464.829 13.3293C465.235 13.3156 465.605 13.3279 465.941 13.3662C466.275 13.4016 466.566 13.4439 466.815 13.4931C467.064 13.5422 467.29 13.5927 467.493 13.6446C467.695 13.6992 467.887 13.7469 468.066 13.7879C468.246 13.8316 468.395 13.8657 468.513 13.8902C468.631 13.9148 468.694 13.9339 468.701 13.9476C468.709 13.964 468.671 13.9681 468.586 13.9599C468.499 13.9517 468.39 13.9258 468.259 13.8821C468.125 13.8384 467.985 13.7838 467.839 13.7183C467.693 13.6501 467.54 13.5641 467.381 13.4603C467.222 13.3539 467.056 13.216 466.885 13.0468C466.713 12.8775 466.534 12.6864 466.349 12.4735C466.162 12.2578 465.984 12.0436 465.815 11.8307C465.645 11.6177 465.5 11.4212 465.38 11.241C465.259 11.0608 465.161 10.893 465.087 10.7374C465.01 10.5818 464.942 10.4344 464.883 10.2952C464.824 10.1532 464.778 10.0154 464.744 9.88159C464.709 9.74783 464.694 9.61134 464.702 9.47212C464.712 9.3329 464.75 9.19505 464.814 9.05856C464.88 8.91934 464.968 8.79238 465.075 8.67773C465.186 8.56035 465.312 8.45935 465.453 8.37473C465.594 8.29284 465.741 8.23144 465.895 8.19049C466.052 8.14954 466.222 8.12632 466.407 8.12086C466.592 8.1154 466.788 8.12362 466.996 8.14545C467.204 8.17002 467.412 8.20004 467.62 8.23552C467.825 8.27374 468.037 8.32424 468.255 8.38703C468.476 8.44981 468.715 8.52622 468.975 8.6163C469.234 8.70638 469.507 8.81559 469.794 8.94389C470.082 9.06946 470.4 9.20732 470.749 9.35746C471.098 9.5076 471.438 9.64135 471.769 9.75873C472.1 9.87611 472.417 10.0017 472.72 10.1355C473.023 10.2665 473.3 10.4098 473.551 10.5654C473.8 10.721 474.043 10.8725 474.279 11.0199C474.515 11.1646 474.752 11.3093 474.991 11.4539C475.229 11.5959 475.462 11.7501 475.688 11.9166C475.913 12.0831 476.121 12.2606 476.311 12.449C476.504 12.6346 476.683 12.8243 476.85 13.0181C477.019 13.2092 477.181 13.4112 477.335 13.6241C477.491 13.8343 477.644 14.05 477.793 14.2711C477.944 14.4949 478.096 14.7174 478.247 14.9385C478.396 15.1596 478.542 15.3766 478.686 15.5895C478.832 15.8025 478.988 16.0045 479.152 16.1955C479.319 16.3894 479.479 16.5859 479.633 16.7852C479.789 16.9845 479.928 17.196 480.049 17.4198C480.169 17.641 480.277 17.8566 480.372 18.0668C480.467 18.2743 480.566 18.4572 480.668 18.6155C480.771 18.7738 480.868 18.9022 480.961 19.0004C481.056 19.096 481.146 19.1546 481.23 19.1765C481.312 19.1983 481.393 19.1765 481.473 19.1109C481.552 19.0427 481.628 18.9308 481.7 18.7752C481.769 18.6169 481.823 18.4121 481.862 18.161C481.9 17.9099 481.933 17.6164 481.962 17.2806C481.99 16.9449 482.019 16.5668 482.05 16.1464C482.083 15.726 482.116 15.2647 482.146 14.7624C482.177 14.2601 482.204 13.7265 482.227 13.1614C482.253 12.5936 482.28 12.019 482.308 11.4375C482.336 10.8561 482.366 10.276 482.397 9.6973C482.427 9.11859 482.47 8.54946 482.524 7.98985C482.577 7.43025 482.633 6.85291 482.689 6.25782C482.746 5.66272 482.815 5.14131 482.897 4.69362C482.979 4.24594 483.048 3.84058 483.105 3.47752C483.161 3.11446 483.197 2.80051 483.213 2.53572C483.228 2.2682 483.246 2.05257 483.266 1.88878C483.284 1.72227 483.331 1.60626 483.405 1.54075C483.477 1.4725 483.569 1.45749 483.682 1.49571C483.798 1.53393 483.925 1.63082 484.063 1.78642C484.202 1.94201 484.347 2.14264 484.498 2.38832C484.647 2.63673 484.804 2.93156 484.968 3.27278C485.129 3.61128 485.299 4.00437 485.476 4.45205C485.653 4.89974 485.829 5.38292 486.003 5.90158C486.178 6.41751 486.352 6.94025 486.527 7.46982C486.704 7.99667 486.895 8.52625 487.1 9.05856C487.303 9.58814 487.515 10.1355 487.735 10.7005C487.956 11.2656 488.161 11.8402 488.351 12.4244C488.541 13.0085 488.719 13.5763 488.886 14.1278C489.056 14.6764 489.244 15.1883 489.452 15.6633C489.66 16.1382 489.874 16.5818 490.095 16.994C490.316 17.409 490.531 17.7829 490.741 18.116C490.949 18.449 491.164 18.7397 491.384 18.9881C491.605 19.2365 491.831 19.4481 492.062 19.6228C492.295 19.7975 492.504 19.9327 492.689 20.0282C492.876 20.1265 493.039 20.1838 493.178 20.2001C493.314 20.2165 493.441 20.1934 493.559 20.1306C493.677 20.0651 493.79 19.9504 493.898 19.7866C494.003 19.6228 494.099 19.4099 494.186 19.1478C494.271 18.8885 494.351 18.6073 494.425 18.3043C494.502 18.0013 494.576 17.6874 494.648 17.3626C494.718 17.0404 494.792 16.6965 494.872 16.3307C494.949 15.9649 495.186 15.4886 495.584 14.9017C495.979 14.312 496.236 13.8643 496.354 13.5586C496.472 13.2501 496.581 12.9499 496.681 12.6578C496.783 12.3684 496.881 12.0804 496.973 11.7938C497.063 11.5044 497.15 11.2383 497.235 10.9953C497.317 10.7496 497.4 10.5258 497.485 10.3238C497.567 10.1218 497.656 9.92933 497.751 9.74643C497.848 9.56354 497.961 9.3875 498.09 9.21826C498.215 9.05174 498.353 8.90161 498.501 8.76785C498.648 8.63682 498.811 8.50713 498.99 8.37883C499.167 8.25053 499.36 8.11678 499.568 7.97756C499.775 7.83834 499.99 7.71412 500.21 7.60493C500.434 7.49574 500.663 7.41659 500.899 7.36746C501.135 7.31832 501.378 7.28557 501.627 7.26919C501.876 7.25554 502.117 7.24596 502.35 7.2405C502.581 7.23777 502.792 7.24324 502.982 7.25689C503.172 7.27327 503.344 7.30329 503.497 7.34696C503.649 7.39064 503.788 7.44524 503.913 7.51076C504.039 7.57627 504.151 7.65816 504.248 7.75643C504.346 7.85743 504.438 7.98576 504.525 8.14136C504.61 8.29695 504.697 8.48937 504.787 8.71867C504.879 8.94797 504.959 9.20188 505.026 9.48032C505.095 9.76149 505.133 10.0454 505.141 10.332C505.146 10.6186 505.13 10.908 505.091 11.2001C505.053 11.4921 504.991 11.7979 504.906 12.1173C504.822 12.4339 504.707 12.7642 504.564 13.1082C504.42 13.4494 504.255 13.7824 504.067 14.1073C503.882 14.4348 503.699 14.7502 503.517 15.0532C503.337 15.3534 503.151 15.6442 502.959 15.9253C502.769 16.2065 502.579 16.4617 502.389 16.691C502.199 16.9231 502.063 17.0663 501.981 17.1209C501.896 17.1728 501.822 17.2534 501.758 17.3626C501.694 17.4718 501.642 17.5441 501.604 17.5795C501.565 17.615 501.55 17.6096 501.558 17.5632C501.565 17.5195 501.601 17.4513 501.665 17.3585C501.732 17.2629 501.832 17.1469 501.966 17.0104C502.099 16.8739 502.265 16.7129 502.462 16.5272C502.662 16.3416 502.888 16.1424 503.14 15.9294C503.391 15.7165 503.675 15.4886 503.99 15.2456C504.306 15.0027 504.652 14.746 505.03 14.4758C505.407 14.2056 505.801 13.9421 506.211 13.6855C506.619 13.4289 507.039 13.186 507.47 12.9567C507.901 12.7274 508.36 12.4967 508.848 12.2647C509.335 12.0326 509.837 11.817 510.353 11.6177C510.869 11.4185 511.383 11.2424 511.896 11.0895C512.407 10.9394 512.918 10.8179 513.428 10.7251C513.939 10.6323 514.444 10.5695 514.945 10.5367C515.448 10.5012 515.925 10.489 516.377 10.4999C516.826 10.5108 517.244 10.5367 517.632 10.5777C518.019 10.6186 518.386 10.676 518.732 10.7497C519.079 10.8261 519.405 10.9121 519.71 11.0076C520.015 11.1032 520.286 11.196 520.522 11.286C520.758 11.3761 520.948 11.4567 521.092 11.5277C521.238 11.5959 521.337 11.6546 521.388 11.7037C521.44 11.7501 521.454 11.7883 521.431 11.8184C521.408 11.8484 521.356 11.8648 521.277 11.8675C521.197 11.873 521.092 11.8661 520.961 11.847C520.833 11.8279 520.697 11.8061 520.553 11.7815C520.409 11.7542 520.275 11.7228 520.149 11.6873C520.023 11.6518 519.89 11.6136 519.749 11.5727C519.61 11.5317 519.473 11.4717 519.337 11.3925C519.203 11.3133 519.058 11.2342 518.902 11.155C518.745 11.0759 518.596 11.0021 518.455 10.9339C518.312 10.8629 518.178 10.8002 518.055 10.7456C517.932 10.6882 517.851 10.635 517.812 10.5859C517.774 10.5395 517.782 10.504 517.836 10.4794C517.892 10.4548 517.974 10.4507 518.082 10.4671C518.192 10.4835 518.323 10.5244 518.474 10.59C518.626 10.6582 518.798 10.7456 518.99 10.852C519.183 10.9612 519.373 11.0909 519.56 11.241C519.745 11.3911 519.922 11.5727 520.091 11.7856C520.263 11.9958 520.432 12.2292 520.599 12.4858C520.769 12.7424 520.933 12.9949 521.092 13.2433C521.251 13.489 521.392 13.721 521.515 13.9394C521.636 14.155 521.75 14.3735 521.858 14.5946C521.966 14.8129 522.07 15.0408 522.17 15.2783C522.27 15.5158 522.358 15.7438 522.435 15.9622C522.51 16.1806 522.561 16.3675 522.589 16.5231C522.615 16.6787 522.628 16.8139 522.628 16.9285C522.63 17.0459 522.633 17.1374 522.635 17.2029C522.641 17.2711 522.652 17.3066 522.67 17.3093C522.691 17.3121 522.724 17.2861 522.77 17.2315C522.816 17.1742 522.882 17.095 522.966 16.994C523.051 16.893 523.156 16.7674 523.282 16.6173C523.408 16.4644 523.546 16.2938 523.698 16.1055C523.849 15.9144 524.024 15.7083 524.221 15.4872C524.416 15.2688 524.642 15.0299 524.899 14.7706C525.153 14.5085 525.424 14.2192 525.711 13.9025C526.001 13.5859 526.308 13.2379 526.631 12.8584C526.954 12.479 527.297 12.1009 527.659 11.7242C528.02 11.3475 528.386 11.0117 528.756 10.7169C529.125 10.4248 529.528 10.1286 529.964 9.82836C530.4 9.52535 530.852 9.23326 531.319 8.95209C531.789 8.66819 532.267 8.39795 532.755 8.14136C533.242 7.88749 533.743 7.64863 534.256 7.42479C534.767 7.20094 535.291 6.99484 535.83 6.80649C536.369 6.61813 536.902 6.45163 537.428 6.30695C537.956 6.165 538.449 6.05031 538.906 5.96296C539.365 5.87561 539.783 5.82511 540.161 5.81146C540.538 5.79781 540.882 5.8224 541.192 5.88519C541.505 5.9507 541.784 6.05444 542.027 6.19639C542.271 6.34106 542.469 6.51984 542.62 6.73276C542.772 6.94296 542.865 7.16954 542.901 7.41249C542.934 7.65544 542.926 7.9052 542.874 8.1618C542.823 8.41567 542.733 8.66411 542.605 8.90706C542.479 9.15274 542.319 9.38612 542.124 9.60723C541.929 9.82561 541.71 10.0399 541.469 10.2501C541.231 10.4603 540.983 10.6801 540.726 10.9094C540.47 11.1414 540.217 11.3748 539.968 11.6095C539.717 11.8443 539.474 12.0859 539.241 12.3343C539.007 12.5827 538.781 12.8461 538.563 13.1245C538.342 13.4057 538.133 13.6992 537.936 14.0049C537.738 14.3106 537.555 14.615 537.385 14.918C537.216 15.221 537.054 15.5158 536.9 15.8025C536.746 16.0864 536.595 16.3771 536.446 16.6746C536.297 16.9695 536.156 17.2588 536.023 17.5427C535.887 17.8266 535.761 18.0873 535.646 18.3248C535.527 18.5596 535.422 18.7697 535.33 18.9553C535.238 19.1437 535.166 19.3048 535.114 19.4385C535.063 19.5723 535.032 19.6719 535.022 19.7374C535.014 19.8057 535.084 19.7607 535.23 19.6023C535.376 19.444 535.474 19.3539 535.522 19.3321C535.569 19.3102 535.642 19.2488 535.742 19.1478C535.839 19.0441 535.959 18.8994 536.1 18.7138C536.238 18.5282 536.386 18.2989 536.542 18.0259C536.699 17.7529 536.855 17.4321 537.012 17.0636C537.168 16.6924 537.337 16.2747 537.516 15.8107C537.693 15.3466 537.902 14.8593 538.144 14.3488C538.385 13.8384 538.649 13.3239 538.937 12.8052C539.221 12.2865 539.529 11.7542 539.86 11.2083C540.191 10.6623 540.546 10.1027 540.923 9.52946C541.303 8.9562 541.7 8.39524 542.116 7.84655C542.532 7.29513 542.958 6.77919 543.394 6.29875C543.827 5.81831 544.269 5.38836 544.718 5.00892C545.167 4.62948 545.615 4.29642 546.061 4.00979C546.51 3.72044 546.963 3.46657 547.42 3.24819C547.879 3.02981 548.345 2.86467 548.817 2.75275C549.289 2.6381 549.755 2.59987 550.214 2.63809C550.676 2.67631 551.129 2.78278 551.573 2.95749C552.02 3.13492 552.455 3.36425 552.878 3.64541C553.299 3.92931 553.698 4.25005 554.075 4.60765C554.45 4.96798 554.801 5.3597 555.13 5.78282C555.458 6.20594 555.778 6.6618 556.088 7.15043C556.399 7.63906 556.69 8.15363 556.962 8.69413C557.237 9.23462 557.477 9.77921 557.682 10.3279C557.887 10.8793 558.06 11.413 558.201 11.9289C558.343 12.4421 558.45 12.9416 558.525 13.4275C558.599 13.9134 558.624 14.3816 558.598 14.832C558.572 15.2824 558.508 15.6974 558.405 16.0768C558.303 16.4535 558.183 16.7865 558.047 17.0759C557.914 17.3625 557.722 17.5072 557.47 17.51C557.221 17.51 557.031 17.57 556.9 17.6901C556.767 17.8102 556.617 17.8867 556.45 17.9194C556.281 17.9495 556.093 17.9303 555.888 17.8621C555.683 17.7939 555.47 17.6929 555.249 17.5591C555.028 17.4253 554.807 17.2806 554.583 17.125C554.363 16.9722 554.142 16.807 553.921 16.6296C553.703 16.4549 553.491 16.2624 553.286 16.0522C553.083 15.842 552.89 15.6319 552.705 15.4217C552.52 15.2115 552.342 15.0095 552.17 14.8156C552 14.6218 551.843 14.4403 551.696 14.2711C551.548 14.0991 551.414 13.9407 551.296 13.7961C551.175 13.6541 551.072 13.5272 550.984 13.4153C550.897 13.3006 550.825 13.201 550.769 13.1164C550.712 13.0318 550.683 12.9539 550.68 12.883C550.678 12.812 550.715 12.7396 550.792 12.6659C550.866 12.5922 550.978 12.5158 551.127 12.4367C551.276 12.3575 551.454 12.2879 551.662 12.2278C551.87 12.1705 552.11 12.1145 552.382 12.0599C552.656 12.0081 552.954 11.9548 553.275 11.9002C553.595 11.8456 553.939 11.7883 554.306 11.7283C554.67 11.6682 555.054 11.6054 555.457 11.5399C555.857 11.4744 556.267 11.4035 556.685 11.327C557.106 11.2506 557.53 11.1619 557.959 11.0609C558.39 10.9599 558.844 10.8452 559.322 10.7169C559.801 10.5858 560.308 10.4589 560.842 10.3361C561.373 10.2105 561.911 10.0918 562.455 9.97986C562.999 9.86794 563.53 9.74783 564.048 9.61953C564.564 9.49123 565.072 9.35474 565.573 9.21006C566.07 9.06811 566.545 8.94115 566.997 8.82923C567.446 8.72004 567.804 8.67228 568.071 8.68593C568.335 8.70231 568.615 8.67909 568.91 8.6163C569.207 8.55079 569.495 8.50302 569.772 8.473C570.049 8.44297 570.312 8.44023 570.561 8.4648C570.81 8.48664 571.024 8.53171 571.204 8.59996C571.383 8.6682 571.514 8.75693 571.596 8.86612C571.679 8.97258 571.725 9.10086 571.735 9.25099C571.745 9.3984 571.745 9.56901 571.735 9.76283C571.725 9.95664 571.702 10.1655 571.666 10.3893C571.63 10.6159 571.586 10.8356 571.535 11.0486C571.486 11.2642 571.437 11.4594 571.389 11.6341C571.342 11.8088 571.297 11.9712 571.254 12.1214C571.208 12.2715 571.163 12.4257 571.119 12.5841C571.076 12.7397 571.043 12.9007 571.023 13.0673C571.002 13.231 570.979 13.3743 570.954 13.4972C570.931 13.62 570.895 13.7115 570.846 13.7715C570.8 13.8343 570.752 13.8793 570.703 13.9066C570.657 13.9367 570.628 13.9571 570.615 13.9681C570.605 13.9817 570.6 13.9926 570.6 14.0008C570.6 14.0063 570.606 14.0008 570.619 13.9845C570.629 13.9654 570.646 13.9339 570.669 13.8902C570.694 13.8438 570.723 13.7988 570.753 13.7551C570.787 13.7087 570.827 13.6732 570.873 13.6487C570.919 13.6241 570.969 13.6118 571.023 13.6118C571.077 13.6118 571.126 13.6214 571.169 13.6405C571.21 13.6569 571.24 13.6732 571.258 13.6896C571.276 13.706 571.28 13.7251 571.269 13.7469C571.262 13.766 571.245 13.7988 571.219 13.8452C571.191 13.8916 571.172 13.9476 571.161 14.0131C571.151 14.0786 571.142 14.1305 571.135 14.1687C571.127 14.2069 571.141 14.2793 571.177 14.3857C571.213 14.4922 571.222 14.5058 571.204 14.4267C571.186 14.3502 571.177 14.2697 571.177 14.1851C571.174 14.1005 571.179 14.0104 571.192 13.9148C571.208 13.8193 571.231 13.7074 571.262 13.5791C571.295 13.4481 571.337 13.3006 571.389 13.1368C571.442 12.973 571.513 12.7943 571.6 12.6005C571.688 12.4066 571.807 12.1896 571.958 11.9494C572.11 11.7064 572.294 11.4389 572.513 11.1468C572.731 10.852 572.978 10.5586 573.255 10.2665C573.535 9.97438 573.851 9.69187 574.202 9.41889C574.551 9.14591 574.94 8.87567 575.369 8.60815C575.795 8.34336 576.249 8.07992 576.731 7.81786C577.214 7.5558 577.711 7.30741 578.225 7.07265C578.74 6.83789 579.27 6.62494 579.814 6.43386C580.358 6.24004 580.906 6.07628 581.458 5.94252C582.01 5.81149 582.555 5.71729 583.094 5.65996C583.633 5.60263 584.17 5.59447 584.707 5.63542C585.243 5.67363 585.777 5.76236 586.308 5.90158C586.839 6.0408 587.351 6.22231 587.844 6.44615C588.339 6.67 588.812 6.9266 589.264 7.21595C589.716 7.50258 590.143 7.81785 590.546 8.1618C590.949 8.50302 591.314 8.88247 591.643 9.30013C591.969 9.71506 592.247 10.1628 592.478 10.6432C592.709 11.1209 592.886 11.6068 593.009 12.1009C593.135 12.595 593.203 13.085 593.213 13.5709C593.223 14.0595 593.184 14.5413 593.094 15.0163C593.004 15.494 592.877 15.9403 592.713 16.3552C592.549 16.7702 592.347 17.1305 592.109 17.4362C591.87 17.742 591.591 17.9972 591.273 18.2019C590.958 18.4067 590.687 18.7779 590.461 19.3157C590.235 19.8507 589.875 20.1455 589.379 20.2001C588.884 20.2575 588.372 20.2438 587.844 20.1592C587.318 20.0746 586.803 19.9299 586.3 19.7251C585.795 19.5231 585.321 19.2816 584.88 19.0004C584.441 18.7193 584.039 18.4135 583.675 18.0832C583.311 17.7529 582.987 17.3953 582.705 17.0104C582.423 16.6255 582.183 16.212 581.985 15.7697C581.79 15.3275 581.634 14.8689 581.516 14.3939C581.398 13.9189 581.326 13.4453 581.3 12.973C581.277 12.5008 581.31 12.034 581.4 11.5727C581.49 11.1141 581.634 10.6705 581.831 10.2419C582.029 9.81608 582.255 9.43252 582.509 9.0913C582.765 8.74734 583.041 8.45525 583.336 8.21503C583.629 7.97481 583.952 7.76054 584.306 7.57219C584.66 7.3811 585.047 7.19549 585.465 7.01532C585.883 6.83515 586.317 6.66997 586.766 6.51983C587.215 6.36969 587.664 6.24689 588.113 6.15135C588.562 6.05581 589.023 5.97524 589.495 5.90973C589.965 5.84421 590.448 5.79371 590.946 5.75823C591.441 5.72274 591.935 5.71321 592.428 5.72959C592.921 5.74597 593.404 5.78009 593.879 5.83195C594.356 5.88655 594.835 5.93979 595.315 5.99165C595.792 6.04625 596.253 6.10085 596.697 6.15545C597.141 6.21004 597.569 6.28919 597.982 6.39292C598.393 6.49665 598.796 6.63451 599.191 6.80649C599.589 6.97846 599.97 7.16545 600.334 7.36746C600.701 7.56946 601.049 7.77967 601.377 7.99805C601.703 8.21916 602.02 8.45665 602.328 8.71052C602.633 8.96439 602.925 9.22368 603.202 9.48847C603.479 9.75053 603.945 9.99075 604.599 10.2091C605.253 10.4248 605.692 10.7387 605.915 11.1509C606.136 11.5659 606.355 11.9712 606.574 12.367C606.789 12.7629 606.997 13.1478 607.197 13.5218C607.395 13.8957 607.576 14.2765 607.74 14.6641C607.904 15.049 608.044 15.4435 608.159 15.8475C608.277 16.2515 608.374 16.6419 608.448 17.0186C608.525 17.398 608.592 17.7542 608.648 18.0873C608.705 18.4203 608.75 18.7315 608.783 19.0209C608.816 19.3102 608.827 19.5778 608.814 19.8235C608.801 20.0664 608.759 20.2834 608.687 20.4745C608.615 20.6656 608.516 20.8266 608.39 20.9576C608.265 21.0914 608.127 21.187 607.979 21.2443C607.83 21.3016 607.669 21.3248 607.497 21.3139C607.325 21.303 607.139 21.2511 606.939 21.1583C606.736 21.0627 606.52 20.9276 606.289 20.7529C606.06 20.5782 605.823 20.3626 605.577 20.106C605.33 19.8466 605.086 19.545 604.845 19.2011C604.607 18.8544 604.376 18.4613 604.152 18.0218C603.929 17.5796 603.705 17.1278 603.479 16.6664C603.253 16.2051 603.027 15.7451 602.801 15.2865C602.576 14.8279 602.363 14.3571 602.162 13.8739C601.96 13.3907 601.775 12.9007 601.608 12.4039C601.439 11.9071 601.296 11.4253 601.181 10.9585C601.063 10.4944 600.968 10.0536 600.896 9.63592C600.827 9.22099 600.77 8.8279 600.727 8.45665C600.686 8.0854 600.666 7.73323 600.669 7.4002C600.674 7.06716 600.715 6.76691 600.792 6.49939C600.869 6.2346 600.976 6.02028 601.112 5.8565C601.25 5.68998 601.426 5.57397 601.639 5.50846C601.855 5.44021 602.265 5.45659 602.871 5.55759C603.474 5.65859 603.963 5.7637 604.337 5.87289C604.709 5.98208 605.093 6.11994 605.488 6.28646C605.881 6.4557 606.278 6.64269 606.681 6.84742C607.082 7.05489 607.49 7.28284 607.905 7.53125C608.318 7.77966 608.741 8.0499 609.172 8.34199C609.6 8.63408 610.031 8.93981 610.465 9.25919C610.896 9.57585 611.32 9.89659 611.735 10.2214C612.151 10.5463 612.781 11.0281 613.625 11.6669" stroke="black" stroke-linecap="round" stroke-linejoin="round"/>
</svg>
